M48
; DRILL file {KiCad 9.0.6} date 2026-02-06T12:05:42+0100
; FORMAT={-:-/ absolute / metric / decimal}
; #@! TF.CreationDate,2026-02-06T12:05:42+01:00
; #@! TF.GenerationSoftware,Kicad,Pcbnew,9.0.6
; #@! TF.FileFunction,Plated,1,2,PTH
FMAT,2
METRIC
; #@! TA.AperFunction,Plated,PTH,ViaDrill
T1C0.300
; #@! TA.AperFunction,Plated,PTH,ComponentDrill
T2C0.800
; #@! TA.AperFunction,Plated,PTH,ComponentDrill
T3C0.900
; #@! TA.AperFunction,Plated,PTH,ComponentDrill
T4C1.100
; #@! TA.AperFunction,Plated,PTH,ComponentDrill
T5C1.200
; #@! TA.AperFunction,Plated,PTH,ComponentDrill
T6C1.500
; #@! TA.AperFunction,Plated,PTH,ComponentDrill
T7C2.500
%
G90
G05
T1
X110.25Y-75.75
X110.25Y-78.5
X111.5Y-72.15
X111.5Y-74.25
X116.25Y-92.0
X117.5Y-80.75
X118.25Y-78.126
X120.5Y-93.5
X122.7Y-93.75
X124.8Y-93.75
X136.426Y-82.5
X138.147Y-84.25
X141.176Y-83.549
X141.176Y-85.45
X143.667Y-90.491
X144.782Y-91.356
X147.5Y-92.25
X147.75Y-96.25
X147.75Y-100.25
X148.4Y-91.0
X148.426Y-82.55
X148.426Y-83.95
X148.75Y-88.05
X149.25Y-92.3
X157.176Y-96.0
X157.176Y-103.25
X157.75Y-82.55
X157.75Y-84.0
X158.576Y-102.25
X159.25Y-96.0
T2
X116.735Y-101.11
X118.025Y-85.5
X119.275Y-103.65
X120.025Y-85.5
X121.815Y-101.11
X122.025Y-85.5
X127.25Y-95.705
X127.25Y-97.705
X138.945Y-98.75
X138.945Y-106.37
X141.485Y-98.75
X141.485Y-106.37
X144.025Y-98.75
X144.025Y-106.37
X146.565Y-98.75
X146.565Y-106.37
X149.105Y-98.75
X149.105Y-106.37
X151.645Y-98.75
X151.645Y-106.37
X154.185Y-98.75
X154.185Y-106.37
X156.725Y-98.75
X156.725Y-106.37
T3
X125.985Y-73.0
X128.525Y-73.0
X133.76Y-73.0
X136.3Y-73.0
X145.475Y-73.25
X148.015Y-73.25
X155.225Y-73.25
X157.765Y-73.25
T4
X164.525Y-83.25
X164.525Y-87.75
X164.525Y-95.0
X164.525Y-99.5
X171.025Y-83.25
X171.025Y-87.75
X171.025Y-95.0
X171.025Y-99.5
T5
X106.75Y-94.75
X106.75Y-97.75
X109.61Y-112.392
X112.15Y-112.392
X114.69Y-112.392
X117.23Y-112.392
X119.77Y-112.392
X122.31Y-112.392
X124.85Y-112.392
X127.39Y-112.392
X129.93Y-112.392
X132.47Y-112.392
X135.01Y-112.392
X137.55Y-112.392
X140.09Y-112.392
X142.63Y-112.392
X145.17Y-112.392
X147.71Y-112.392
T6
X115.925Y-85.5
X124.125Y-85.5
T7
X104.111Y-112.392
X104.111Y-143.393
X179.11Y-143.393
X179.11Y-112.392
M30
