M48
; DRILL file {KiCad 9.0.6} date 2026-01-23T11:35:03+0100
; FORMAT={-:-/ absolute / metric / decimal}
; #@! TF.CreationDate,2026-01-23T11:35:03+01:00
; #@! TF.GenerationSoftware,Kicad,Pcbnew,9.0.6
; #@! TF.FileFunction,Plated,1,2,PTH
FMAT,2
METRIC
; #@! TA.AperFunction,Plated,PTH,ViaDrill
T1C0.300
; #@! TA.AperFunction,Plated,PTH,ComponentDrill
T2C0.800
; #@! TA.AperFunction,Plated,PTH,ComponentDrill
T3C0.900
; #@! TA.AperFunction,Plated,PTH,ComponentDrill
T4C1.100
; #@! TA.AperFunction,Plated,PTH,ComponentDrill
T5C1.200
; #@! TA.AperFunction,Plated,PTH,ComponentDrill
T6C1.500
; #@! TA.AperFunction,Plated,PTH,ComponentDrill
T7C2.500
%
G90
G05
T1
X67.5Y-75.0
X68.0Y-75.817
X74.65Y-108.975
X76.04Y-98.975
X77.34Y-108.975
X78.61Y-97.975
X96.575Y-105.395
X96.575Y-106.695
X109.75Y-103.75
X110.0Y-106.0
X111.75Y-57.2
X111.985Y-55.494
X114.15Y-97.5
X114.611Y-99.75
X118.5Y-96.0
X121.17Y-96.0
X121.75Y-94.25
X123.31Y-94.06
T2
X65.5Y-82.45
X65.5Y-84.45
X65.5Y-86.45
X77.5Y-123.95
X77.5Y-125.95
X86.179Y-111.49
X86.179Y-119.11
X88.719Y-111.49
X88.719Y-119.11
X88.75Y-77.245
X88.75Y-79.245
X91.26Y-111.49
X91.26Y-119.11
X93.799Y-111.49
X93.799Y-119.11
X99.0Y-95.2
X99.0Y-97.2
X99.6Y-78.95
X102.14Y-76.41
X102.14Y-81.49
X102.76Y-62.08
X102.76Y-69.7
X105.3Y-62.08
X105.3Y-69.7
X107.84Y-62.08
X107.84Y-69.7
X110.38Y-62.08
X110.38Y-69.7
X112.92Y-62.08
X112.92Y-69.7
X115.46Y-62.08
X115.46Y-69.7
X118.0Y-62.08
X118.0Y-69.7
X120.54Y-62.08
X120.54Y-69.7
T3
X64.9Y-103.935
X64.9Y-106.475
X87.239Y-102.295
X87.239Y-104.835
X110.27Y-87.965
X110.27Y-90.505
X127.77Y-87.965
X127.77Y-90.505
T4
X108.02Y-114.48
X108.02Y-120.98
X112.52Y-114.48
X112.52Y-120.98
X124.52Y-114.48
X124.52Y-120.98
X129.02Y-114.48
X129.02Y-120.98
T5
X76.5Y-76.2
X76.5Y-79.2
X78.65Y-53.557
X81.19Y-53.557
X83.73Y-53.557
X86.27Y-53.557
X88.81Y-53.557
X91.35Y-53.557
X93.89Y-53.557
X96.43Y-53.557
X98.97Y-53.557
X98.989Y-103.045
X98.989Y-106.045
X101.51Y-53.557
X104.05Y-53.557
X106.59Y-53.557
X109.13Y-53.557
X111.67Y-53.557
X114.21Y-53.557
X116.75Y-53.557
T6
X65.5Y-80.35
X65.5Y-88.55
T7
X47.25Y-53.557
X47.251Y-22.557
X122.249Y-22.557
X122.249Y-53.557
M30
