%TF.GenerationSoftware,KiCad,Pcbnew,9.0.6*%
%TF.CreationDate,2026-02-05T19:58:19+01:00*%
%TF.ProjectId,Seminar,53656d69-6e61-4722-9e6b-696361645f70,rev?*%
%TF.SameCoordinates,Original*%
%TF.FileFunction,Legend,Top*%
%TF.FilePolarity,Positive*%
%FSLAX46Y46*%
G04 Gerber Fmt 4.6, Leading zero omitted, Abs format (unit mm)*
G04 Created by KiCad (PCBNEW 9.0.6) date 2026-02-05 19:58:19*
%MOMM*%
%LPD*%
G01*
G04 APERTURE LIST*
%ADD10C,0.187500*%
%ADD11C,0.300000*%
%ADD12C,0.200000*%
%ADD13C,0.150000*%
%ADD14C,0.120000*%
%ADD15C,0.127000*%
G04 APERTURE END LIST*
D10*
X163980497Y-74306678D02*
X163980497Y-72806678D01*
X164551926Y-73306678D02*
X164909069Y-74306678D01*
X164909069Y-74306678D02*
X165266212Y-73306678D01*
X166480498Y-74306678D02*
X166480498Y-73520964D01*
X166480498Y-73520964D02*
X166409069Y-73378107D01*
X166409069Y-73378107D02*
X166266212Y-73306678D01*
X166266212Y-73306678D02*
X165980498Y-73306678D01*
X165980498Y-73306678D02*
X165837640Y-73378107D01*
X166480498Y-74235250D02*
X166337640Y-74306678D01*
X166337640Y-74306678D02*
X165980498Y-74306678D01*
X165980498Y-74306678D02*
X165837640Y-74235250D01*
X165837640Y-74235250D02*
X165766212Y-74092392D01*
X165766212Y-74092392D02*
X165766212Y-73949535D01*
X165766212Y-73949535D02*
X165837640Y-73806678D01*
X165837640Y-73806678D02*
X165980498Y-73735250D01*
X165980498Y-73735250D02*
X166337640Y-73735250D01*
X166337640Y-73735250D02*
X166480498Y-73663821D01*
X167194783Y-73306678D02*
X167194783Y-74306678D01*
X167194783Y-73449535D02*
X167266212Y-73378107D01*
X167266212Y-73378107D02*
X167409069Y-73306678D01*
X167409069Y-73306678D02*
X167623355Y-73306678D01*
X167623355Y-73306678D02*
X167766212Y-73378107D01*
X167766212Y-73378107D02*
X167837641Y-73520964D01*
X167837641Y-73520964D02*
X167837641Y-74306678D01*
X169694783Y-74306678D02*
X169694783Y-72806678D01*
X169694783Y-73520964D02*
X170551926Y-73520964D01*
X170551926Y-74306678D02*
X170551926Y-72806678D01*
X171480498Y-74306678D02*
X171337641Y-74235250D01*
X171337641Y-74235250D02*
X171266212Y-74163821D01*
X171266212Y-74163821D02*
X171194784Y-74020964D01*
X171194784Y-74020964D02*
X171194784Y-73592392D01*
X171194784Y-73592392D02*
X171266212Y-73449535D01*
X171266212Y-73449535D02*
X171337641Y-73378107D01*
X171337641Y-73378107D02*
X171480498Y-73306678D01*
X171480498Y-73306678D02*
X171694784Y-73306678D01*
X171694784Y-73306678D02*
X171837641Y-73378107D01*
X171837641Y-73378107D02*
X171909070Y-73449535D01*
X171909070Y-73449535D02*
X171980498Y-73592392D01*
X171980498Y-73592392D02*
X171980498Y-74020964D01*
X171980498Y-74020964D02*
X171909070Y-74163821D01*
X171909070Y-74163821D02*
X171837641Y-74235250D01*
X171837641Y-74235250D02*
X171694784Y-74306678D01*
X171694784Y-74306678D02*
X171480498Y-74306678D01*
X173266213Y-74306678D02*
X173266213Y-72806678D01*
X173266213Y-74235250D02*
X173123355Y-74306678D01*
X173123355Y-74306678D02*
X172837641Y-74306678D01*
X172837641Y-74306678D02*
X172694784Y-74235250D01*
X172694784Y-74235250D02*
X172623355Y-74163821D01*
X172623355Y-74163821D02*
X172551927Y-74020964D01*
X172551927Y-74020964D02*
X172551927Y-73592392D01*
X172551927Y-73592392D02*
X172623355Y-73449535D01*
X172623355Y-73449535D02*
X172694784Y-73378107D01*
X172694784Y-73378107D02*
X172837641Y-73306678D01*
X172837641Y-73306678D02*
X173123355Y-73306678D01*
X173123355Y-73306678D02*
X173266213Y-73378107D01*
X174623356Y-74306678D02*
X174623356Y-73520964D01*
X174623356Y-73520964D02*
X174551927Y-73378107D01*
X174551927Y-73378107D02*
X174409070Y-73306678D01*
X174409070Y-73306678D02*
X174123356Y-73306678D01*
X174123356Y-73306678D02*
X173980498Y-73378107D01*
X174623356Y-74235250D02*
X174480498Y-74306678D01*
X174480498Y-74306678D02*
X174123356Y-74306678D01*
X174123356Y-74306678D02*
X173980498Y-74235250D01*
X173980498Y-74235250D02*
X173909070Y-74092392D01*
X173909070Y-74092392D02*
X173909070Y-73949535D01*
X173909070Y-73949535D02*
X173980498Y-73806678D01*
X173980498Y-73806678D02*
X174123356Y-73735250D01*
X174123356Y-73735250D02*
X174480498Y-73735250D01*
X174480498Y-73735250D02*
X174623356Y-73663821D01*
X175337641Y-74306678D02*
X175337641Y-72806678D01*
X175480499Y-73735250D02*
X175909070Y-74306678D01*
X175909070Y-73306678D02*
X175337641Y-73878107D01*
D11*
X163733082Y-71729400D02*
X163947368Y-71800828D01*
X163947368Y-71800828D02*
X164304510Y-71800828D01*
X164304510Y-71800828D02*
X164447368Y-71729400D01*
X164447368Y-71729400D02*
X164518796Y-71657971D01*
X164518796Y-71657971D02*
X164590225Y-71515114D01*
X164590225Y-71515114D02*
X164590225Y-71372257D01*
X164590225Y-71372257D02*
X164518796Y-71229400D01*
X164518796Y-71229400D02*
X164447368Y-71157971D01*
X164447368Y-71157971D02*
X164304510Y-71086542D01*
X164304510Y-71086542D02*
X164018796Y-71015114D01*
X164018796Y-71015114D02*
X163875939Y-70943685D01*
X163875939Y-70943685D02*
X163804510Y-70872257D01*
X163804510Y-70872257D02*
X163733082Y-70729400D01*
X163733082Y-70729400D02*
X163733082Y-70586542D01*
X163733082Y-70586542D02*
X163804510Y-70443685D01*
X163804510Y-70443685D02*
X163875939Y-70372257D01*
X163875939Y-70372257D02*
X164018796Y-70300828D01*
X164018796Y-70300828D02*
X164375939Y-70300828D01*
X164375939Y-70300828D02*
X164590225Y-70372257D01*
X163875939Y-69729400D02*
X164161653Y-69943685D01*
X164161653Y-69943685D02*
X164447368Y-69729400D01*
X165018796Y-70800828D02*
X165590224Y-70800828D01*
X165233081Y-70300828D02*
X165233081Y-71586542D01*
X165233081Y-71586542D02*
X165304510Y-71729400D01*
X165304510Y-71729400D02*
X165447367Y-71800828D01*
X165447367Y-71800828D02*
X165590224Y-71800828D01*
X166304510Y-71800828D02*
X166161653Y-71729400D01*
X166161653Y-71729400D02*
X166090224Y-71657971D01*
X166090224Y-71657971D02*
X166018796Y-71515114D01*
X166018796Y-71515114D02*
X166018796Y-71086542D01*
X166018796Y-71086542D02*
X166090224Y-70943685D01*
X166090224Y-70943685D02*
X166161653Y-70872257D01*
X166161653Y-70872257D02*
X166304510Y-70800828D01*
X166304510Y-70800828D02*
X166518796Y-70800828D01*
X166518796Y-70800828D02*
X166661653Y-70872257D01*
X166661653Y-70872257D02*
X166733082Y-70943685D01*
X166733082Y-70943685D02*
X166804510Y-71086542D01*
X166804510Y-71086542D02*
X166804510Y-71515114D01*
X166804510Y-71515114D02*
X166733082Y-71657971D01*
X166733082Y-71657971D02*
X166661653Y-71729400D01*
X166661653Y-71729400D02*
X166518796Y-71800828D01*
X166518796Y-71800828D02*
X166304510Y-71800828D01*
X167447367Y-70800828D02*
X167447367Y-72300828D01*
X167447367Y-70872257D02*
X167590225Y-70800828D01*
X167590225Y-70800828D02*
X167875939Y-70800828D01*
X167875939Y-70800828D02*
X168018796Y-70872257D01*
X168018796Y-70872257D02*
X168090225Y-70943685D01*
X168090225Y-70943685D02*
X168161653Y-71086542D01*
X168161653Y-71086542D02*
X168161653Y-71515114D01*
X168161653Y-71515114D02*
X168090225Y-71657971D01*
X168090225Y-71657971D02*
X168018796Y-71729400D01*
X168018796Y-71729400D02*
X167875939Y-71800828D01*
X167875939Y-71800828D02*
X167590225Y-71800828D01*
X167590225Y-71800828D02*
X167447367Y-71729400D01*
X169375939Y-71729400D02*
X169233082Y-71800828D01*
X169233082Y-71800828D02*
X168947368Y-71800828D01*
X168947368Y-71800828D02*
X168804510Y-71729400D01*
X168804510Y-71729400D02*
X168733082Y-71586542D01*
X168733082Y-71586542D02*
X168733082Y-71015114D01*
X168733082Y-71015114D02*
X168804510Y-70872257D01*
X168804510Y-70872257D02*
X168947368Y-70800828D01*
X168947368Y-70800828D02*
X169233082Y-70800828D01*
X169233082Y-70800828D02*
X169375939Y-70872257D01*
X169375939Y-70872257D02*
X169447368Y-71015114D01*
X169447368Y-71015114D02*
X169447368Y-71157971D01*
X169447368Y-71157971D02*
X168733082Y-71300828D01*
X170090224Y-71800828D02*
X170090224Y-70800828D01*
X170090224Y-71086542D02*
X170161653Y-70943685D01*
X170161653Y-70943685D02*
X170233082Y-70872257D01*
X170233082Y-70872257D02*
X170375939Y-70800828D01*
X170375939Y-70800828D02*
X170518796Y-70800828D01*
X171018795Y-71800828D02*
X171018795Y-70800828D01*
X171018795Y-70300828D02*
X170947367Y-70372257D01*
X170947367Y-70372257D02*
X171018795Y-70443685D01*
X171018795Y-70443685D02*
X171090224Y-70372257D01*
X171090224Y-70372257D02*
X171018795Y-70300828D01*
X171018795Y-70300828D02*
X171018795Y-70443685D01*
X172375939Y-71729400D02*
X172233081Y-71800828D01*
X172233081Y-71800828D02*
X171947367Y-71800828D01*
X171947367Y-71800828D02*
X171804510Y-71729400D01*
X171804510Y-71729400D02*
X171733081Y-71657971D01*
X171733081Y-71657971D02*
X171661653Y-71515114D01*
X171661653Y-71515114D02*
X171661653Y-71086542D01*
X171661653Y-71086542D02*
X171733081Y-70943685D01*
X171733081Y-70943685D02*
X171804510Y-70872257D01*
X171804510Y-70872257D02*
X171947367Y-70800828D01*
X171947367Y-70800828D02*
X172233081Y-70800828D01*
X172233081Y-70800828D02*
X172375939Y-70872257D01*
X173661653Y-71800828D02*
X173661653Y-71015114D01*
X173661653Y-71015114D02*
X173590224Y-70872257D01*
X173590224Y-70872257D02*
X173447367Y-70800828D01*
X173447367Y-70800828D02*
X173161653Y-70800828D01*
X173161653Y-70800828D02*
X173018795Y-70872257D01*
X173661653Y-71729400D02*
X173518795Y-71800828D01*
X173518795Y-71800828D02*
X173161653Y-71800828D01*
X173161653Y-71800828D02*
X173018795Y-71729400D01*
X173018795Y-71729400D02*
X172947367Y-71586542D01*
X172947367Y-71586542D02*
X172947367Y-71443685D01*
X172947367Y-71443685D02*
X173018795Y-71300828D01*
X173018795Y-71300828D02*
X173161653Y-71229400D01*
X173161653Y-71229400D02*
X173518795Y-71229400D01*
X173518795Y-71229400D02*
X173661653Y-71157971D01*
X175375938Y-70800828D02*
X175733081Y-71800828D01*
X175733081Y-71800828D02*
X176090224Y-70800828D01*
X176590224Y-70443685D02*
X176661652Y-70372257D01*
X176661652Y-70372257D02*
X176804510Y-70300828D01*
X176804510Y-70300828D02*
X177161652Y-70300828D01*
X177161652Y-70300828D02*
X177304510Y-70372257D01*
X177304510Y-70372257D02*
X177375938Y-70443685D01*
X177375938Y-70443685D02*
X177447367Y-70586542D01*
X177447367Y-70586542D02*
X177447367Y-70729400D01*
X177447367Y-70729400D02*
X177375938Y-70943685D01*
X177375938Y-70943685D02*
X176518795Y-71800828D01*
X176518795Y-71800828D02*
X177447367Y-71800828D01*
D12*
X155322054Y-68319600D02*
X155464911Y-68367219D01*
X155464911Y-68367219D02*
X155703006Y-68367219D01*
X155703006Y-68367219D02*
X155798244Y-68319600D01*
X155798244Y-68319600D02*
X155845863Y-68271980D01*
X155845863Y-68271980D02*
X155893482Y-68176742D01*
X155893482Y-68176742D02*
X155893482Y-68081504D01*
X155893482Y-68081504D02*
X155845863Y-67986266D01*
X155845863Y-67986266D02*
X155798244Y-67938647D01*
X155798244Y-67938647D02*
X155703006Y-67891028D01*
X155703006Y-67891028D02*
X155512530Y-67843409D01*
X155512530Y-67843409D02*
X155417292Y-67795790D01*
X155417292Y-67795790D02*
X155369673Y-67748171D01*
X155369673Y-67748171D02*
X155322054Y-67652933D01*
X155322054Y-67652933D02*
X155322054Y-67557695D01*
X155322054Y-67557695D02*
X155369673Y-67462457D01*
X155369673Y-67462457D02*
X155417292Y-67414838D01*
X155417292Y-67414838D02*
X155512530Y-67367219D01*
X155512530Y-67367219D02*
X155750625Y-67367219D01*
X155750625Y-67367219D02*
X155893482Y-67414838D01*
X156322054Y-67843409D02*
X156655387Y-67843409D01*
X156798244Y-68367219D02*
X156322054Y-68367219D01*
X156322054Y-68367219D02*
X156322054Y-67367219D01*
X156322054Y-67367219D02*
X156798244Y-67367219D01*
X157226816Y-68367219D02*
X157226816Y-67367219D01*
X157798244Y-68367219D02*
X157369673Y-67795790D01*
X157798244Y-67367219D02*
X157226816Y-67938647D01*
X125327054Y-67819600D02*
X125469911Y-67867219D01*
X125469911Y-67867219D02*
X125708006Y-67867219D01*
X125708006Y-67867219D02*
X125803244Y-67819600D01*
X125803244Y-67819600D02*
X125850863Y-67771980D01*
X125850863Y-67771980D02*
X125898482Y-67676742D01*
X125898482Y-67676742D02*
X125898482Y-67581504D01*
X125898482Y-67581504D02*
X125850863Y-67486266D01*
X125850863Y-67486266D02*
X125803244Y-67438647D01*
X125803244Y-67438647D02*
X125708006Y-67391028D01*
X125708006Y-67391028D02*
X125517530Y-67343409D01*
X125517530Y-67343409D02*
X125422292Y-67295790D01*
X125422292Y-67295790D02*
X125374673Y-67248171D01*
X125374673Y-67248171D02*
X125327054Y-67152933D01*
X125327054Y-67152933D02*
X125327054Y-67057695D01*
X125327054Y-67057695D02*
X125374673Y-66962457D01*
X125374673Y-66962457D02*
X125422292Y-66914838D01*
X125422292Y-66914838D02*
X125517530Y-66867219D01*
X125517530Y-66867219D02*
X125755625Y-66867219D01*
X125755625Y-66867219D02*
X125898482Y-66914838D01*
X126184197Y-66867219D02*
X126755625Y-66867219D01*
X126469911Y-67867219D02*
X126469911Y-66867219D01*
X127088959Y-67867219D02*
X127088959Y-66867219D01*
X127088959Y-66867219D02*
X127327054Y-66867219D01*
X127327054Y-66867219D02*
X127469911Y-66914838D01*
X127469911Y-66914838D02*
X127565149Y-67010076D01*
X127565149Y-67010076D02*
X127612768Y-67105314D01*
X127612768Y-67105314D02*
X127660387Y-67295790D01*
X127660387Y-67295790D02*
X127660387Y-67438647D01*
X127660387Y-67438647D02*
X127612768Y-67629123D01*
X127612768Y-67629123D02*
X127565149Y-67724361D01*
X127565149Y-67724361D02*
X127469911Y-67819600D01*
X127469911Y-67819600D02*
X127327054Y-67867219D01*
X127327054Y-67867219D02*
X127088959Y-67867219D01*
X128422292Y-67343409D02*
X128565149Y-67391028D01*
X128565149Y-67391028D02*
X128612768Y-67438647D01*
X128612768Y-67438647D02*
X128660387Y-67533885D01*
X128660387Y-67533885D02*
X128660387Y-67676742D01*
X128660387Y-67676742D02*
X128612768Y-67771980D01*
X128612768Y-67771980D02*
X128565149Y-67819600D01*
X128565149Y-67819600D02*
X128469911Y-67867219D01*
X128469911Y-67867219D02*
X128088959Y-67867219D01*
X128088959Y-67867219D02*
X128088959Y-66867219D01*
X128088959Y-66867219D02*
X128422292Y-66867219D01*
X128422292Y-66867219D02*
X128517530Y-66914838D01*
X128517530Y-66914838D02*
X128565149Y-66962457D01*
X128565149Y-66962457D02*
X128612768Y-67057695D01*
X128612768Y-67057695D02*
X128612768Y-67152933D01*
X128612768Y-67152933D02*
X128565149Y-67248171D01*
X128565149Y-67248171D02*
X128517530Y-67295790D01*
X128517530Y-67295790D02*
X128422292Y-67343409D01*
X128422292Y-67343409D02*
X128088959Y-67343409D01*
X129279435Y-67391028D02*
X129279435Y-67867219D01*
X128946102Y-66867219D02*
X129279435Y-67391028D01*
X129279435Y-67391028D02*
X129612768Y-66867219D01*
X145619673Y-68117219D02*
X145619673Y-67117219D01*
X145619673Y-67117219D02*
X145953006Y-67831504D01*
X145953006Y-67831504D02*
X146286339Y-67117219D01*
X146286339Y-67117219D02*
X146286339Y-68117219D01*
X146762530Y-68117219D02*
X146762530Y-67117219D01*
X147238720Y-68117219D02*
X147238720Y-67117219D01*
X147238720Y-67117219D02*
X147810148Y-68117219D01*
X147810148Y-68117219D02*
X147810148Y-67117219D01*
X166097054Y-79819600D02*
X166239911Y-79867219D01*
X166239911Y-79867219D02*
X166478006Y-79867219D01*
X166478006Y-79867219D02*
X166573244Y-79819600D01*
X166573244Y-79819600D02*
X166620863Y-79771980D01*
X166620863Y-79771980D02*
X166668482Y-79676742D01*
X166668482Y-79676742D02*
X166668482Y-79581504D01*
X166668482Y-79581504D02*
X166620863Y-79486266D01*
X166620863Y-79486266D02*
X166573244Y-79438647D01*
X166573244Y-79438647D02*
X166478006Y-79391028D01*
X166478006Y-79391028D02*
X166287530Y-79343409D01*
X166287530Y-79343409D02*
X166192292Y-79295790D01*
X166192292Y-79295790D02*
X166144673Y-79248171D01*
X166144673Y-79248171D02*
X166097054Y-79152933D01*
X166097054Y-79152933D02*
X166097054Y-79057695D01*
X166097054Y-79057695D02*
X166144673Y-78962457D01*
X166144673Y-78962457D02*
X166192292Y-78914838D01*
X166192292Y-78914838D02*
X166287530Y-78867219D01*
X166287530Y-78867219D02*
X166525625Y-78867219D01*
X166525625Y-78867219D02*
X166668482Y-78914838D01*
X166954197Y-78867219D02*
X167525625Y-78867219D01*
X167239911Y-79867219D02*
X167239911Y-78867219D01*
X167811340Y-79581504D02*
X168287530Y-79581504D01*
X167716102Y-79867219D02*
X168049435Y-78867219D01*
X168049435Y-78867219D02*
X168382768Y-79867219D01*
X169287530Y-79867219D02*
X168954197Y-79391028D01*
X168716102Y-79867219D02*
X168716102Y-78867219D01*
X168716102Y-78867219D02*
X169097054Y-78867219D01*
X169097054Y-78867219D02*
X169192292Y-78914838D01*
X169192292Y-78914838D02*
X169239911Y-78962457D01*
X169239911Y-78962457D02*
X169287530Y-79057695D01*
X169287530Y-79057695D02*
X169287530Y-79200552D01*
X169287530Y-79200552D02*
X169239911Y-79295790D01*
X169239911Y-79295790D02*
X169192292Y-79343409D01*
X169192292Y-79343409D02*
X169097054Y-79391028D01*
X169097054Y-79391028D02*
X168716102Y-79391028D01*
X169573245Y-78867219D02*
X170144673Y-78867219D01*
X169858959Y-79867219D02*
X169858959Y-78867219D01*
X133966101Y-67771980D02*
X133918482Y-67819600D01*
X133918482Y-67819600D02*
X133775625Y-67867219D01*
X133775625Y-67867219D02*
X133680387Y-67867219D01*
X133680387Y-67867219D02*
X133537530Y-67819600D01*
X133537530Y-67819600D02*
X133442292Y-67724361D01*
X133442292Y-67724361D02*
X133394673Y-67629123D01*
X133394673Y-67629123D02*
X133347054Y-67438647D01*
X133347054Y-67438647D02*
X133347054Y-67295790D01*
X133347054Y-67295790D02*
X133394673Y-67105314D01*
X133394673Y-67105314D02*
X133442292Y-67010076D01*
X133442292Y-67010076D02*
X133537530Y-66914838D01*
X133537530Y-66914838D02*
X133680387Y-66867219D01*
X133680387Y-66867219D02*
X133775625Y-66867219D01*
X133775625Y-66867219D02*
X133918482Y-66914838D01*
X133918482Y-66914838D02*
X133966101Y-66962457D01*
X134394673Y-67867219D02*
X134394673Y-66867219D01*
X134394673Y-67343409D02*
X134966101Y-67343409D01*
X134966101Y-67867219D02*
X134966101Y-66867219D01*
X136013720Y-67867219D02*
X135680387Y-67391028D01*
X135442292Y-67867219D02*
X135442292Y-66867219D01*
X135442292Y-66867219D02*
X135823244Y-66867219D01*
X135823244Y-66867219D02*
X135918482Y-66914838D01*
X135918482Y-66914838D02*
X135966101Y-66962457D01*
X135966101Y-66962457D02*
X136013720Y-67057695D01*
X136013720Y-67057695D02*
X136013720Y-67200552D01*
X136013720Y-67200552D02*
X135966101Y-67295790D01*
X135966101Y-67295790D02*
X135918482Y-67343409D01*
X135918482Y-67343409D02*
X135823244Y-67391028D01*
X135823244Y-67391028D02*
X135442292Y-67391028D01*
X136966101Y-66914838D02*
X136870863Y-66867219D01*
X136870863Y-66867219D02*
X136728006Y-66867219D01*
X136728006Y-66867219D02*
X136585149Y-66914838D01*
X136585149Y-66914838D02*
X136489911Y-67010076D01*
X136489911Y-67010076D02*
X136442292Y-67105314D01*
X136442292Y-67105314D02*
X136394673Y-67295790D01*
X136394673Y-67295790D02*
X136394673Y-67438647D01*
X136394673Y-67438647D02*
X136442292Y-67629123D01*
X136442292Y-67629123D02*
X136489911Y-67724361D01*
X136489911Y-67724361D02*
X136585149Y-67819600D01*
X136585149Y-67819600D02*
X136728006Y-67867219D01*
X136728006Y-67867219D02*
X136823244Y-67867219D01*
X136823244Y-67867219D02*
X136966101Y-67819600D01*
X136966101Y-67819600D02*
X137013720Y-67771980D01*
X137013720Y-67771980D02*
X137013720Y-67438647D01*
X137013720Y-67438647D02*
X136823244Y-67438647D01*
X166347054Y-91819600D02*
X166489911Y-91867219D01*
X166489911Y-91867219D02*
X166728006Y-91867219D01*
X166728006Y-91867219D02*
X166823244Y-91819600D01*
X166823244Y-91819600D02*
X166870863Y-91771980D01*
X166870863Y-91771980D02*
X166918482Y-91676742D01*
X166918482Y-91676742D02*
X166918482Y-91581504D01*
X166918482Y-91581504D02*
X166870863Y-91486266D01*
X166870863Y-91486266D02*
X166823244Y-91438647D01*
X166823244Y-91438647D02*
X166728006Y-91391028D01*
X166728006Y-91391028D02*
X166537530Y-91343409D01*
X166537530Y-91343409D02*
X166442292Y-91295790D01*
X166442292Y-91295790D02*
X166394673Y-91248171D01*
X166394673Y-91248171D02*
X166347054Y-91152933D01*
X166347054Y-91152933D02*
X166347054Y-91057695D01*
X166347054Y-91057695D02*
X166394673Y-90962457D01*
X166394673Y-90962457D02*
X166442292Y-90914838D01*
X166442292Y-90914838D02*
X166537530Y-90867219D01*
X166537530Y-90867219D02*
X166775625Y-90867219D01*
X166775625Y-90867219D02*
X166918482Y-90914838D01*
X167204197Y-90867219D02*
X167775625Y-90867219D01*
X167489911Y-91867219D02*
X167489911Y-90867219D01*
X168299435Y-90867219D02*
X168489911Y-90867219D01*
X168489911Y-90867219D02*
X168585149Y-90914838D01*
X168585149Y-90914838D02*
X168680387Y-91010076D01*
X168680387Y-91010076D02*
X168728006Y-91200552D01*
X168728006Y-91200552D02*
X168728006Y-91533885D01*
X168728006Y-91533885D02*
X168680387Y-91724361D01*
X168680387Y-91724361D02*
X168585149Y-91819600D01*
X168585149Y-91819600D02*
X168489911Y-91867219D01*
X168489911Y-91867219D02*
X168299435Y-91867219D01*
X168299435Y-91867219D02*
X168204197Y-91819600D01*
X168204197Y-91819600D02*
X168108959Y-91724361D01*
X168108959Y-91724361D02*
X168061340Y-91533885D01*
X168061340Y-91533885D02*
X168061340Y-91200552D01*
X168061340Y-91200552D02*
X168108959Y-91010076D01*
X168108959Y-91010076D02*
X168204197Y-90914838D01*
X168204197Y-90914838D02*
X168299435Y-90867219D01*
X169156578Y-91867219D02*
X169156578Y-90867219D01*
X169156578Y-90867219D02*
X169537530Y-90867219D01*
X169537530Y-90867219D02*
X169632768Y-90914838D01*
X169632768Y-90914838D02*
X169680387Y-90962457D01*
X169680387Y-90962457D02*
X169728006Y-91057695D01*
X169728006Y-91057695D02*
X169728006Y-91200552D01*
X169728006Y-91200552D02*
X169680387Y-91295790D01*
X169680387Y-91295790D02*
X169632768Y-91343409D01*
X169632768Y-91343409D02*
X169537530Y-91391028D01*
X169537530Y-91391028D02*
X169156578Y-91391028D01*
D13*
X144384391Y-44151009D02*
X144527248Y-44198628D01*
X144527248Y-44198628D02*
X144574867Y-44246247D01*
X144574867Y-44246247D02*
X144622486Y-44341485D01*
X144622486Y-44341485D02*
X144622486Y-44484342D01*
X144622486Y-44484342D02*
X144574867Y-44579580D01*
X144574867Y-44579580D02*
X144527248Y-44627200D01*
X144527248Y-44627200D02*
X144432010Y-44674819D01*
X144432010Y-44674819D02*
X144051058Y-44674819D01*
X144051058Y-44674819D02*
X144051058Y-43674819D01*
X144051058Y-43674819D02*
X144384391Y-43674819D01*
X144384391Y-43674819D02*
X144479629Y-43722438D01*
X144479629Y-43722438D02*
X144527248Y-43770057D01*
X144527248Y-43770057D02*
X144574867Y-43865295D01*
X144574867Y-43865295D02*
X144574867Y-43960533D01*
X144574867Y-43960533D02*
X144527248Y-44055771D01*
X144527248Y-44055771D02*
X144479629Y-44103390D01*
X144479629Y-44103390D02*
X144384391Y-44151009D01*
X144384391Y-44151009D02*
X144051058Y-44151009D01*
X144908201Y-43674819D02*
X145479629Y-43674819D01*
X145193915Y-44674819D02*
X145193915Y-43674819D01*
X146336772Y-44674819D02*
X145765344Y-44674819D01*
X146051058Y-44674819D02*
X146051058Y-43674819D01*
X146051058Y-43674819D02*
X145955820Y-43817676D01*
X145955820Y-43817676D02*
X145860582Y-43912914D01*
X145860582Y-43912914D02*
X145765344Y-43960533D01*
X104408201Y-50905533D02*
X105932011Y-50905533D01*
X105170106Y-51667438D02*
X105170106Y-50143628D01*
X131083333Y-78124819D02*
X130750000Y-77648628D01*
X130511905Y-78124819D02*
X130511905Y-77124819D01*
X130511905Y-77124819D02*
X130892857Y-77124819D01*
X130892857Y-77124819D02*
X130988095Y-77172438D01*
X130988095Y-77172438D02*
X131035714Y-77220057D01*
X131035714Y-77220057D02*
X131083333Y-77315295D01*
X131083333Y-77315295D02*
X131083333Y-77458152D01*
X131083333Y-77458152D02*
X131035714Y-77553390D01*
X131035714Y-77553390D02*
X130988095Y-77601009D01*
X130988095Y-77601009D02*
X130892857Y-77648628D01*
X130892857Y-77648628D02*
X130511905Y-77648628D01*
X131940476Y-77124819D02*
X131750000Y-77124819D01*
X131750000Y-77124819D02*
X131654762Y-77172438D01*
X131654762Y-77172438D02*
X131607143Y-77220057D01*
X131607143Y-77220057D02*
X131511905Y-77362914D01*
X131511905Y-77362914D02*
X131464286Y-77553390D01*
X131464286Y-77553390D02*
X131464286Y-77934342D01*
X131464286Y-77934342D02*
X131511905Y-78029580D01*
X131511905Y-78029580D02*
X131559524Y-78077200D01*
X131559524Y-78077200D02*
X131654762Y-78124819D01*
X131654762Y-78124819D02*
X131845238Y-78124819D01*
X131845238Y-78124819D02*
X131940476Y-78077200D01*
X131940476Y-78077200D02*
X131988095Y-78029580D01*
X131988095Y-78029580D02*
X132035714Y-77934342D01*
X132035714Y-77934342D02*
X132035714Y-77696247D01*
X132035714Y-77696247D02*
X131988095Y-77601009D01*
X131988095Y-77601009D02*
X131940476Y-77553390D01*
X131940476Y-77553390D02*
X131845238Y-77505771D01*
X131845238Y-77505771D02*
X131654762Y-77505771D01*
X131654762Y-77505771D02*
X131559524Y-77553390D01*
X131559524Y-77553390D02*
X131511905Y-77601009D01*
X131511905Y-77601009D02*
X131464286Y-77696247D01*
X119115082Y-95276751D02*
X119115082Y-95977914D01*
X119115082Y-95977914D02*
X119156327Y-96060404D01*
X119156327Y-96060404D02*
X119197572Y-96101649D01*
X119197572Y-96101649D02*
X119280061Y-96142893D01*
X119280061Y-96142893D02*
X119445041Y-96142893D01*
X119445041Y-96142893D02*
X119527530Y-96101649D01*
X119527530Y-96101649D02*
X119568775Y-96060404D01*
X119568775Y-96060404D02*
X119610020Y-95977914D01*
X119610020Y-95977914D02*
X119610020Y-95276751D01*
X119939979Y-95276751D02*
X120476162Y-95276751D01*
X120476162Y-95276751D02*
X120187448Y-95606710D01*
X120187448Y-95606710D02*
X120311183Y-95606710D01*
X120311183Y-95606710D02*
X120393673Y-95647955D01*
X120393673Y-95647955D02*
X120434917Y-95689200D01*
X120434917Y-95689200D02*
X120476162Y-95771690D01*
X120476162Y-95771690D02*
X120476162Y-95977914D01*
X120476162Y-95977914D02*
X120434917Y-96060404D01*
X120434917Y-96060404D02*
X120393673Y-96101649D01*
X120393673Y-96101649D02*
X120311183Y-96142893D01*
X120311183Y-96142893D02*
X120063714Y-96142893D01*
X120063714Y-96142893D02*
X119981224Y-96101649D01*
X119981224Y-96101649D02*
X119939979Y-96060404D01*
X116013095Y-79354819D02*
X116013095Y-80164342D01*
X116013095Y-80164342D02*
X116060714Y-80259580D01*
X116060714Y-80259580D02*
X116108333Y-80307200D01*
X116108333Y-80307200D02*
X116203571Y-80354819D01*
X116203571Y-80354819D02*
X116394047Y-80354819D01*
X116394047Y-80354819D02*
X116489285Y-80307200D01*
X116489285Y-80307200D02*
X116536904Y-80259580D01*
X116536904Y-80259580D02*
X116584523Y-80164342D01*
X116584523Y-80164342D02*
X116584523Y-79354819D01*
X117489285Y-79688152D02*
X117489285Y-80354819D01*
X117251190Y-79307200D02*
X117013095Y-80021485D01*
X117013095Y-80021485D02*
X117632142Y-80021485D01*
X115916667Y-89407200D02*
X116059524Y-89454819D01*
X116059524Y-89454819D02*
X116297619Y-89454819D01*
X116297619Y-89454819D02*
X116392857Y-89407200D01*
X116392857Y-89407200D02*
X116440476Y-89359580D01*
X116440476Y-89359580D02*
X116488095Y-89264342D01*
X116488095Y-89264342D02*
X116488095Y-89169104D01*
X116488095Y-89169104D02*
X116440476Y-89073866D01*
X116440476Y-89073866D02*
X116392857Y-89026247D01*
X116392857Y-89026247D02*
X116297619Y-88978628D01*
X116297619Y-88978628D02*
X116107143Y-88931009D01*
X116107143Y-88931009D02*
X116011905Y-88883390D01*
X116011905Y-88883390D02*
X115964286Y-88835771D01*
X115964286Y-88835771D02*
X115916667Y-88740533D01*
X115916667Y-88740533D02*
X115916667Y-88645295D01*
X115916667Y-88645295D02*
X115964286Y-88550057D01*
X115964286Y-88550057D02*
X116011905Y-88502438D01*
X116011905Y-88502438D02*
X116107143Y-88454819D01*
X116107143Y-88454819D02*
X116345238Y-88454819D01*
X116345238Y-88454819D02*
X116488095Y-88502438D01*
X116821429Y-88454819D02*
X117059524Y-89454819D01*
X117059524Y-89454819D02*
X117250000Y-88740533D01*
X117250000Y-88740533D02*
X117440476Y-89454819D01*
X117440476Y-89454819D02*
X117678572Y-88454819D01*
X117964286Y-88454819D02*
X118583333Y-88454819D01*
X118583333Y-88454819D02*
X118250000Y-88835771D01*
X118250000Y-88835771D02*
X118392857Y-88835771D01*
X118392857Y-88835771D02*
X118488095Y-88883390D01*
X118488095Y-88883390D02*
X118535714Y-88931009D01*
X118535714Y-88931009D02*
X118583333Y-89026247D01*
X118583333Y-89026247D02*
X118583333Y-89264342D01*
X118583333Y-89264342D02*
X118535714Y-89359580D01*
X118535714Y-89359580D02*
X118488095Y-89407200D01*
X118488095Y-89407200D02*
X118392857Y-89454819D01*
X118392857Y-89454819D02*
X118107143Y-89454819D01*
X118107143Y-89454819D02*
X118011905Y-89407200D01*
X118011905Y-89407200D02*
X117964286Y-89359580D01*
X174649819Y-85666666D02*
X174173628Y-85999999D01*
X174649819Y-86238094D02*
X173649819Y-86238094D01*
X173649819Y-86238094D02*
X173649819Y-85857142D01*
X173649819Y-85857142D02*
X173697438Y-85761904D01*
X173697438Y-85761904D02*
X173745057Y-85714285D01*
X173745057Y-85714285D02*
X173840295Y-85666666D01*
X173840295Y-85666666D02*
X173983152Y-85666666D01*
X173983152Y-85666666D02*
X174078390Y-85714285D01*
X174078390Y-85714285D02*
X174126009Y-85761904D01*
X174126009Y-85761904D02*
X174173628Y-85857142D01*
X174173628Y-85857142D02*
X174173628Y-86238094D01*
X173983152Y-84809523D02*
X174649819Y-84809523D01*
X173602200Y-85047618D02*
X174316485Y-85285713D01*
X174316485Y-85285713D02*
X174316485Y-84666666D01*
X94988095Y-57454819D02*
X94988095Y-56454819D01*
X94988095Y-56931009D02*
X95559523Y-56931009D01*
X95559523Y-57454819D02*
X95559523Y-56454819D01*
X96559523Y-57454819D02*
X95988095Y-57454819D01*
X96273809Y-57454819D02*
X96273809Y-56454819D01*
X96273809Y-56454819D02*
X96178571Y-56597676D01*
X96178571Y-56597676D02*
X96083333Y-56692914D01*
X96083333Y-56692914D02*
X95988095Y-56740533D01*
X101229819Y-83883333D02*
X101944104Y-83883333D01*
X101944104Y-83883333D02*
X102086961Y-83930952D01*
X102086961Y-83930952D02*
X102182200Y-84026190D01*
X102182200Y-84026190D02*
X102229819Y-84169047D01*
X102229819Y-84169047D02*
X102229819Y-84264285D01*
X102229819Y-82883333D02*
X102229819Y-83454761D01*
X102229819Y-83169047D02*
X101229819Y-83169047D01*
X101229819Y-83169047D02*
X101372676Y-83264285D01*
X101372676Y-83264285D02*
X101467914Y-83359523D01*
X101467914Y-83359523D02*
X101515533Y-83454761D01*
X186988095Y-57204819D02*
X186988095Y-56204819D01*
X186988095Y-56681009D02*
X187559523Y-56681009D01*
X187559523Y-57204819D02*
X187559523Y-56204819D01*
X187988095Y-56300057D02*
X188035714Y-56252438D01*
X188035714Y-56252438D02*
X188130952Y-56204819D01*
X188130952Y-56204819D02*
X188369047Y-56204819D01*
X188369047Y-56204819D02*
X188464285Y-56252438D01*
X188464285Y-56252438D02*
X188511904Y-56300057D01*
X188511904Y-56300057D02*
X188559523Y-56395295D01*
X188559523Y-56395295D02*
X188559523Y-56490533D01*
X188559523Y-56490533D02*
X188511904Y-56633390D01*
X188511904Y-56633390D02*
X187940476Y-57204819D01*
X187940476Y-57204819D02*
X188559523Y-57204819D01*
X109984580Y-83716666D02*
X110032200Y-83764285D01*
X110032200Y-83764285D02*
X110079819Y-83907142D01*
X110079819Y-83907142D02*
X110079819Y-84002380D01*
X110079819Y-84002380D02*
X110032200Y-84145237D01*
X110032200Y-84145237D02*
X109936961Y-84240475D01*
X109936961Y-84240475D02*
X109841723Y-84288094D01*
X109841723Y-84288094D02*
X109651247Y-84335713D01*
X109651247Y-84335713D02*
X109508390Y-84335713D01*
X109508390Y-84335713D02*
X109317914Y-84288094D01*
X109317914Y-84288094D02*
X109222676Y-84240475D01*
X109222676Y-84240475D02*
X109127438Y-84145237D01*
X109127438Y-84145237D02*
X109079819Y-84002380D01*
X109079819Y-84002380D02*
X109079819Y-83907142D01*
X109079819Y-83907142D02*
X109127438Y-83764285D01*
X109127438Y-83764285D02*
X109175057Y-83716666D01*
X110079819Y-82764285D02*
X110079819Y-83335713D01*
X110079819Y-83049999D02*
X109079819Y-83049999D01*
X109079819Y-83049999D02*
X109222676Y-83145237D01*
X109222676Y-83145237D02*
X109317914Y-83240475D01*
X109317914Y-83240475D02*
X109365533Y-83335713D01*
X154899819Y-82916666D02*
X154423628Y-83249999D01*
X154899819Y-83488094D02*
X153899819Y-83488094D01*
X153899819Y-83488094D02*
X153899819Y-83107142D01*
X153899819Y-83107142D02*
X153947438Y-83011904D01*
X153947438Y-83011904D02*
X153995057Y-82964285D01*
X153995057Y-82964285D02*
X154090295Y-82916666D01*
X154090295Y-82916666D02*
X154233152Y-82916666D01*
X154233152Y-82916666D02*
X154328390Y-82964285D01*
X154328390Y-82964285D02*
X154376009Y-83011904D01*
X154376009Y-83011904D02*
X154423628Y-83107142D01*
X154423628Y-83107142D02*
X154423628Y-83488094D01*
X153995057Y-82535713D02*
X153947438Y-82488094D01*
X153947438Y-82488094D02*
X153899819Y-82392856D01*
X153899819Y-82392856D02*
X153899819Y-82154761D01*
X153899819Y-82154761D02*
X153947438Y-82059523D01*
X153947438Y-82059523D02*
X153995057Y-82011904D01*
X153995057Y-82011904D02*
X154090295Y-81964285D01*
X154090295Y-81964285D02*
X154185533Y-81964285D01*
X154185533Y-81964285D02*
X154328390Y-82011904D01*
X154328390Y-82011904D02*
X154899819Y-82583332D01*
X154899819Y-82583332D02*
X154899819Y-81964285D01*
X146006905Y-69744819D02*
X146006905Y-68744819D01*
X146006905Y-68744819D02*
X146245000Y-68744819D01*
X146245000Y-68744819D02*
X146387857Y-68792438D01*
X146387857Y-68792438D02*
X146483095Y-68887676D01*
X146483095Y-68887676D02*
X146530714Y-68982914D01*
X146530714Y-68982914D02*
X146578333Y-69173390D01*
X146578333Y-69173390D02*
X146578333Y-69316247D01*
X146578333Y-69316247D02*
X146530714Y-69506723D01*
X146530714Y-69506723D02*
X146483095Y-69601961D01*
X146483095Y-69601961D02*
X146387857Y-69697200D01*
X146387857Y-69697200D02*
X146245000Y-69744819D01*
X146245000Y-69744819D02*
X146006905Y-69744819D01*
X147530714Y-69744819D02*
X146959286Y-69744819D01*
X147245000Y-69744819D02*
X147245000Y-68744819D01*
X147245000Y-68744819D02*
X147149762Y-68887676D01*
X147149762Y-68887676D02*
X147054524Y-68982914D01*
X147054524Y-68982914D02*
X146959286Y-69030533D01*
X94718201Y-134454819D02*
X94718201Y-133454819D01*
X94718201Y-133931009D02*
X95289629Y-133931009D01*
X95289629Y-134454819D02*
X95289629Y-133454819D01*
X95670582Y-133454819D02*
X96289629Y-133454819D01*
X96289629Y-133454819D02*
X95956296Y-133835771D01*
X95956296Y-133835771D02*
X96099153Y-133835771D01*
X96099153Y-133835771D02*
X96194391Y-133883390D01*
X96194391Y-133883390D02*
X96242010Y-133931009D01*
X96242010Y-133931009D02*
X96289629Y-134026247D01*
X96289629Y-134026247D02*
X96289629Y-134264342D01*
X96289629Y-134264342D02*
X96242010Y-134359580D01*
X96242010Y-134359580D02*
X96194391Y-134407200D01*
X96194391Y-134407200D02*
X96099153Y-134454819D01*
X96099153Y-134454819D02*
X95813439Y-134454819D01*
X95813439Y-134454819D02*
X95718201Y-134407200D01*
X95718201Y-134407200D02*
X95670582Y-134359580D01*
X129734580Y-90416666D02*
X129782200Y-90464285D01*
X129782200Y-90464285D02*
X129829819Y-90607142D01*
X129829819Y-90607142D02*
X129829819Y-90702380D01*
X129829819Y-90702380D02*
X129782200Y-90845237D01*
X129782200Y-90845237D02*
X129686961Y-90940475D01*
X129686961Y-90940475D02*
X129591723Y-90988094D01*
X129591723Y-90988094D02*
X129401247Y-91035713D01*
X129401247Y-91035713D02*
X129258390Y-91035713D01*
X129258390Y-91035713D02*
X129067914Y-90988094D01*
X129067914Y-90988094D02*
X128972676Y-90940475D01*
X128972676Y-90940475D02*
X128877438Y-90845237D01*
X128877438Y-90845237D02*
X128829819Y-90702380D01*
X128829819Y-90702380D02*
X128829819Y-90607142D01*
X128829819Y-90607142D02*
X128877438Y-90464285D01*
X128877438Y-90464285D02*
X128925057Y-90416666D01*
X128829819Y-90083332D02*
X128829819Y-89464285D01*
X128829819Y-89464285D02*
X129210771Y-89797618D01*
X129210771Y-89797618D02*
X129210771Y-89654761D01*
X129210771Y-89654761D02*
X129258390Y-89559523D01*
X129258390Y-89559523D02*
X129306009Y-89511904D01*
X129306009Y-89511904D02*
X129401247Y-89464285D01*
X129401247Y-89464285D02*
X129639342Y-89464285D01*
X129639342Y-89464285D02*
X129734580Y-89511904D01*
X129734580Y-89511904D02*
X129782200Y-89559523D01*
X129782200Y-89559523D02*
X129829819Y-89654761D01*
X129829819Y-89654761D02*
X129829819Y-89940475D01*
X129829819Y-89940475D02*
X129782200Y-90035713D01*
X129782200Y-90035713D02*
X129734580Y-90083332D01*
X118679761Y-98404819D02*
X118346428Y-97928628D01*
X118108333Y-98404819D02*
X118108333Y-97404819D01*
X118108333Y-97404819D02*
X118489285Y-97404819D01*
X118489285Y-97404819D02*
X118584523Y-97452438D01*
X118584523Y-97452438D02*
X118632142Y-97500057D01*
X118632142Y-97500057D02*
X118679761Y-97595295D01*
X118679761Y-97595295D02*
X118679761Y-97738152D01*
X118679761Y-97738152D02*
X118632142Y-97833390D01*
X118632142Y-97833390D02*
X118584523Y-97881009D01*
X118584523Y-97881009D02*
X118489285Y-97928628D01*
X118489285Y-97928628D02*
X118108333Y-97928628D01*
X118965476Y-97404819D02*
X119298809Y-98404819D01*
X119298809Y-98404819D02*
X119632142Y-97404819D01*
X120489285Y-98404819D02*
X119917857Y-98404819D01*
X120203571Y-98404819D02*
X120203571Y-97404819D01*
X120203571Y-97404819D02*
X120108333Y-97547676D01*
X120108333Y-97547676D02*
X120013095Y-97642914D01*
X120013095Y-97642914D02*
X119917857Y-97690533D01*
X109083333Y-91034819D02*
X108750000Y-90558628D01*
X108511905Y-91034819D02*
X108511905Y-90034819D01*
X108511905Y-90034819D02*
X108892857Y-90034819D01*
X108892857Y-90034819D02*
X108988095Y-90082438D01*
X108988095Y-90082438D02*
X109035714Y-90130057D01*
X109035714Y-90130057D02*
X109083333Y-90225295D01*
X109083333Y-90225295D02*
X109083333Y-90368152D01*
X109083333Y-90368152D02*
X109035714Y-90463390D01*
X109035714Y-90463390D02*
X108988095Y-90511009D01*
X108988095Y-90511009D02*
X108892857Y-90558628D01*
X108892857Y-90558628D02*
X108511905Y-90558628D01*
X109559524Y-91034819D02*
X109750000Y-91034819D01*
X109750000Y-91034819D02*
X109845238Y-90987200D01*
X109845238Y-90987200D02*
X109892857Y-90939580D01*
X109892857Y-90939580D02*
X109988095Y-90796723D01*
X109988095Y-90796723D02*
X110035714Y-90606247D01*
X110035714Y-90606247D02*
X110035714Y-90225295D01*
X110035714Y-90225295D02*
X109988095Y-90130057D01*
X109988095Y-90130057D02*
X109940476Y-90082438D01*
X109940476Y-90082438D02*
X109845238Y-90034819D01*
X109845238Y-90034819D02*
X109654762Y-90034819D01*
X109654762Y-90034819D02*
X109559524Y-90082438D01*
X109559524Y-90082438D02*
X109511905Y-90130057D01*
X109511905Y-90130057D02*
X109464286Y-90225295D01*
X109464286Y-90225295D02*
X109464286Y-90463390D01*
X109464286Y-90463390D02*
X109511905Y-90558628D01*
X109511905Y-90558628D02*
X109559524Y-90606247D01*
X109559524Y-90606247D02*
X109654762Y-90653866D01*
X109654762Y-90653866D02*
X109845238Y-90653866D01*
X109845238Y-90653866D02*
X109940476Y-90606247D01*
X109940476Y-90606247D02*
X109988095Y-90558628D01*
X109988095Y-90558628D02*
X110035714Y-90463390D01*
X154899819Y-89416666D02*
X154423628Y-89749999D01*
X154899819Y-89988094D02*
X153899819Y-89988094D01*
X153899819Y-89988094D02*
X153899819Y-89607142D01*
X153899819Y-89607142D02*
X153947438Y-89511904D01*
X153947438Y-89511904D02*
X153995057Y-89464285D01*
X153995057Y-89464285D02*
X154090295Y-89416666D01*
X154090295Y-89416666D02*
X154233152Y-89416666D01*
X154233152Y-89416666D02*
X154328390Y-89464285D01*
X154328390Y-89464285D02*
X154376009Y-89511904D01*
X154376009Y-89511904D02*
X154423628Y-89607142D01*
X154423628Y-89607142D02*
X154423628Y-89988094D01*
X153899819Y-89083332D02*
X153899819Y-88464285D01*
X153899819Y-88464285D02*
X154280771Y-88797618D01*
X154280771Y-88797618D02*
X154280771Y-88654761D01*
X154280771Y-88654761D02*
X154328390Y-88559523D01*
X154328390Y-88559523D02*
X154376009Y-88511904D01*
X154376009Y-88511904D02*
X154471247Y-88464285D01*
X154471247Y-88464285D02*
X154709342Y-88464285D01*
X154709342Y-88464285D02*
X154804580Y-88511904D01*
X154804580Y-88511904D02*
X154852200Y-88559523D01*
X154852200Y-88559523D02*
X154899819Y-88654761D01*
X154899819Y-88654761D02*
X154899819Y-88940475D01*
X154899819Y-88940475D02*
X154852200Y-89035713D01*
X154852200Y-89035713D02*
X154804580Y-89083332D01*
X134291905Y-69454819D02*
X134291905Y-68454819D01*
X134291905Y-68454819D02*
X134530000Y-68454819D01*
X134530000Y-68454819D02*
X134672857Y-68502438D01*
X134672857Y-68502438D02*
X134768095Y-68597676D01*
X134768095Y-68597676D02*
X134815714Y-68692914D01*
X134815714Y-68692914D02*
X134863333Y-68883390D01*
X134863333Y-68883390D02*
X134863333Y-69026247D01*
X134863333Y-69026247D02*
X134815714Y-69216723D01*
X134815714Y-69216723D02*
X134768095Y-69311961D01*
X134768095Y-69311961D02*
X134672857Y-69407200D01*
X134672857Y-69407200D02*
X134530000Y-69454819D01*
X134530000Y-69454819D02*
X134291905Y-69454819D01*
X135196667Y-68454819D02*
X135815714Y-68454819D01*
X135815714Y-68454819D02*
X135482381Y-68835771D01*
X135482381Y-68835771D02*
X135625238Y-68835771D01*
X135625238Y-68835771D02*
X135720476Y-68883390D01*
X135720476Y-68883390D02*
X135768095Y-68931009D01*
X135768095Y-68931009D02*
X135815714Y-69026247D01*
X135815714Y-69026247D02*
X135815714Y-69264342D01*
X135815714Y-69264342D02*
X135768095Y-69359580D01*
X135768095Y-69359580D02*
X135720476Y-69407200D01*
X135720476Y-69407200D02*
X135625238Y-69454819D01*
X135625238Y-69454819D02*
X135339524Y-69454819D01*
X135339524Y-69454819D02*
X135244286Y-69407200D01*
X135244286Y-69407200D02*
X135196667Y-69359580D01*
X186988095Y-134454819D02*
X186988095Y-133454819D01*
X186988095Y-133931009D02*
X187559523Y-133931009D01*
X187559523Y-134454819D02*
X187559523Y-133454819D01*
X188464285Y-133788152D02*
X188464285Y-134454819D01*
X188226190Y-133407200D02*
X187988095Y-134121485D01*
X187988095Y-134121485D02*
X188607142Y-134121485D01*
X106583333Y-92204819D02*
X106107143Y-92204819D01*
X106107143Y-92204819D02*
X106107143Y-91204819D01*
X107440476Y-92204819D02*
X106869048Y-92204819D01*
X107154762Y-92204819D02*
X107154762Y-91204819D01*
X107154762Y-91204819D02*
X107059524Y-91347676D01*
X107059524Y-91347676D02*
X106964286Y-91442914D01*
X106964286Y-91442914D02*
X106869048Y-91490533D01*
X123859580Y-96871779D02*
X123907200Y-96919398D01*
X123907200Y-96919398D02*
X123954819Y-97062255D01*
X123954819Y-97062255D02*
X123954819Y-97157493D01*
X123954819Y-97157493D02*
X123907200Y-97300350D01*
X123907200Y-97300350D02*
X123811961Y-97395588D01*
X123811961Y-97395588D02*
X123716723Y-97443207D01*
X123716723Y-97443207D02*
X123526247Y-97490826D01*
X123526247Y-97490826D02*
X123383390Y-97490826D01*
X123383390Y-97490826D02*
X123192914Y-97443207D01*
X123192914Y-97443207D02*
X123097676Y-97395588D01*
X123097676Y-97395588D02*
X123002438Y-97300350D01*
X123002438Y-97300350D02*
X122954819Y-97157493D01*
X122954819Y-97157493D02*
X122954819Y-97062255D01*
X122954819Y-97062255D02*
X123002438Y-96919398D01*
X123002438Y-96919398D02*
X123050057Y-96871779D01*
X123288152Y-96014636D02*
X123954819Y-96014636D01*
X122907200Y-96252731D02*
X123621485Y-96490826D01*
X123621485Y-96490826D02*
X123621485Y-95871779D01*
X102575820Y-109037319D02*
X102575820Y-108037319D01*
X102575820Y-108037319D02*
X102813915Y-108037319D01*
X102813915Y-108037319D02*
X102956772Y-108084938D01*
X102956772Y-108084938D02*
X103052010Y-108180176D01*
X103052010Y-108180176D02*
X103099629Y-108275414D01*
X103099629Y-108275414D02*
X103147248Y-108465890D01*
X103147248Y-108465890D02*
X103147248Y-108608747D01*
X103147248Y-108608747D02*
X103099629Y-108799223D01*
X103099629Y-108799223D02*
X103052010Y-108894461D01*
X103052010Y-108894461D02*
X102956772Y-108989700D01*
X102956772Y-108989700D02*
X102813915Y-109037319D01*
X102813915Y-109037319D02*
X102575820Y-109037319D01*
X103528201Y-108989700D02*
X103671058Y-109037319D01*
X103671058Y-109037319D02*
X103909153Y-109037319D01*
X103909153Y-109037319D02*
X104004391Y-108989700D01*
X104004391Y-108989700D02*
X104052010Y-108942080D01*
X104052010Y-108942080D02*
X104099629Y-108846842D01*
X104099629Y-108846842D02*
X104099629Y-108751604D01*
X104099629Y-108751604D02*
X104052010Y-108656366D01*
X104052010Y-108656366D02*
X104004391Y-108608747D01*
X104004391Y-108608747D02*
X103909153Y-108561128D01*
X103909153Y-108561128D02*
X103718677Y-108513509D01*
X103718677Y-108513509D02*
X103623439Y-108465890D01*
X103623439Y-108465890D02*
X103575820Y-108418271D01*
X103575820Y-108418271D02*
X103528201Y-108323033D01*
X103528201Y-108323033D02*
X103528201Y-108227795D01*
X103528201Y-108227795D02*
X103575820Y-108132557D01*
X103575820Y-108132557D02*
X103623439Y-108084938D01*
X103623439Y-108084938D02*
X103718677Y-108037319D01*
X103718677Y-108037319D02*
X103956772Y-108037319D01*
X103956772Y-108037319D02*
X104099629Y-108084938D01*
X105052010Y-109037319D02*
X104480582Y-109037319D01*
X104766296Y-109037319D02*
X104766296Y-108037319D01*
X104766296Y-108037319D02*
X104671058Y-108180176D01*
X104671058Y-108180176D02*
X104575820Y-108275414D01*
X104575820Y-108275414D02*
X104480582Y-108323033D01*
X136335530Y-91841558D02*
X137145971Y-91841558D01*
X137145971Y-91841558D02*
X137241317Y-91793885D01*
X137241317Y-91793885D02*
X137288991Y-91746212D01*
X137288991Y-91746212D02*
X137336664Y-91650866D01*
X137336664Y-91650866D02*
X137336664Y-91460174D01*
X137336664Y-91460174D02*
X137288991Y-91364828D01*
X137288991Y-91364828D02*
X137241317Y-91317155D01*
X137241317Y-91317155D02*
X137145971Y-91269482D01*
X137145971Y-91269482D02*
X136335530Y-91269482D01*
X137336664Y-90268348D02*
X137336664Y-90840424D01*
X137336664Y-90554386D02*
X136335530Y-90554386D01*
X136335530Y-90554386D02*
X136478549Y-90649732D01*
X136478549Y-90649732D02*
X136573895Y-90745078D01*
X136573895Y-90745078D02*
X136621568Y-90840424D01*
X155756905Y-69744819D02*
X155756905Y-68744819D01*
X155756905Y-68744819D02*
X155995000Y-68744819D01*
X155995000Y-68744819D02*
X156137857Y-68792438D01*
X156137857Y-68792438D02*
X156233095Y-68887676D01*
X156233095Y-68887676D02*
X156280714Y-68982914D01*
X156280714Y-68982914D02*
X156328333Y-69173390D01*
X156328333Y-69173390D02*
X156328333Y-69316247D01*
X156328333Y-69316247D02*
X156280714Y-69506723D01*
X156280714Y-69506723D02*
X156233095Y-69601961D01*
X156233095Y-69601961D02*
X156137857Y-69697200D01*
X156137857Y-69697200D02*
X155995000Y-69744819D01*
X155995000Y-69744819D02*
X155756905Y-69744819D01*
X156709286Y-68840057D02*
X156756905Y-68792438D01*
X156756905Y-68792438D02*
X156852143Y-68744819D01*
X156852143Y-68744819D02*
X157090238Y-68744819D01*
X157090238Y-68744819D02*
X157185476Y-68792438D01*
X157185476Y-68792438D02*
X157233095Y-68840057D01*
X157233095Y-68840057D02*
X157280714Y-68935295D01*
X157280714Y-68935295D02*
X157280714Y-69030533D01*
X157280714Y-69030533D02*
X157233095Y-69173390D01*
X157233095Y-69173390D02*
X156661667Y-69744819D01*
X156661667Y-69744819D02*
X157280714Y-69744819D01*
X112204819Y-95392857D02*
X111728628Y-95726190D01*
X112204819Y-95964285D02*
X111204819Y-95964285D01*
X111204819Y-95964285D02*
X111204819Y-95583333D01*
X111204819Y-95583333D02*
X111252438Y-95488095D01*
X111252438Y-95488095D02*
X111300057Y-95440476D01*
X111300057Y-95440476D02*
X111395295Y-95392857D01*
X111395295Y-95392857D02*
X111538152Y-95392857D01*
X111538152Y-95392857D02*
X111633390Y-95440476D01*
X111633390Y-95440476D02*
X111681009Y-95488095D01*
X111681009Y-95488095D02*
X111728628Y-95583333D01*
X111728628Y-95583333D02*
X111728628Y-95964285D01*
X112204819Y-94440476D02*
X112204819Y-95011904D01*
X112204819Y-94726190D02*
X111204819Y-94726190D01*
X111204819Y-94726190D02*
X111347676Y-94821428D01*
X111347676Y-94821428D02*
X111442914Y-94916666D01*
X111442914Y-94916666D02*
X111490533Y-95011904D01*
X111204819Y-93821428D02*
X111204819Y-93726190D01*
X111204819Y-93726190D02*
X111252438Y-93630952D01*
X111252438Y-93630952D02*
X111300057Y-93583333D01*
X111300057Y-93583333D02*
X111395295Y-93535714D01*
X111395295Y-93535714D02*
X111585771Y-93488095D01*
X111585771Y-93488095D02*
X111823866Y-93488095D01*
X111823866Y-93488095D02*
X112014342Y-93535714D01*
X112014342Y-93535714D02*
X112109580Y-93583333D01*
X112109580Y-93583333D02*
X112157200Y-93630952D01*
X112157200Y-93630952D02*
X112204819Y-93726190D01*
X112204819Y-93726190D02*
X112204819Y-93821428D01*
X112204819Y-93821428D02*
X112157200Y-93916666D01*
X112157200Y-93916666D02*
X112109580Y-93964285D01*
X112109580Y-93964285D02*
X112014342Y-94011904D01*
X112014342Y-94011904D02*
X111823866Y-94059523D01*
X111823866Y-94059523D02*
X111585771Y-94059523D01*
X111585771Y-94059523D02*
X111395295Y-94011904D01*
X111395295Y-94011904D02*
X111300057Y-93964285D01*
X111300057Y-93964285D02*
X111252438Y-93916666D01*
X111252438Y-93916666D02*
X111204819Y-93821428D01*
X166441667Y-81657200D02*
X166584524Y-81704819D01*
X166584524Y-81704819D02*
X166822619Y-81704819D01*
X166822619Y-81704819D02*
X166917857Y-81657200D01*
X166917857Y-81657200D02*
X166965476Y-81609580D01*
X166965476Y-81609580D02*
X167013095Y-81514342D01*
X167013095Y-81514342D02*
X167013095Y-81419104D01*
X167013095Y-81419104D02*
X166965476Y-81323866D01*
X166965476Y-81323866D02*
X166917857Y-81276247D01*
X166917857Y-81276247D02*
X166822619Y-81228628D01*
X166822619Y-81228628D02*
X166632143Y-81181009D01*
X166632143Y-81181009D02*
X166536905Y-81133390D01*
X166536905Y-81133390D02*
X166489286Y-81085771D01*
X166489286Y-81085771D02*
X166441667Y-80990533D01*
X166441667Y-80990533D02*
X166441667Y-80895295D01*
X166441667Y-80895295D02*
X166489286Y-80800057D01*
X166489286Y-80800057D02*
X166536905Y-80752438D01*
X166536905Y-80752438D02*
X166632143Y-80704819D01*
X166632143Y-80704819D02*
X166870238Y-80704819D01*
X166870238Y-80704819D02*
X167013095Y-80752438D01*
X167346429Y-80704819D02*
X167584524Y-81704819D01*
X167584524Y-81704819D02*
X167775000Y-80990533D01*
X167775000Y-80990533D02*
X167965476Y-81704819D01*
X167965476Y-81704819D02*
X168203572Y-80704819D01*
X169108333Y-81704819D02*
X168536905Y-81704819D01*
X168822619Y-81704819D02*
X168822619Y-80704819D01*
X168822619Y-80704819D02*
X168727381Y-80847676D01*
X168727381Y-80847676D02*
X168632143Y-80942914D01*
X168632143Y-80942914D02*
X168536905Y-80990533D01*
X107108333Y-71509580D02*
X107060714Y-71557200D01*
X107060714Y-71557200D02*
X106917857Y-71604819D01*
X106917857Y-71604819D02*
X106822619Y-71604819D01*
X106822619Y-71604819D02*
X106679762Y-71557200D01*
X106679762Y-71557200D02*
X106584524Y-71461961D01*
X106584524Y-71461961D02*
X106536905Y-71366723D01*
X106536905Y-71366723D02*
X106489286Y-71176247D01*
X106489286Y-71176247D02*
X106489286Y-71033390D01*
X106489286Y-71033390D02*
X106536905Y-70842914D01*
X106536905Y-70842914D02*
X106584524Y-70747676D01*
X106584524Y-70747676D02*
X106679762Y-70652438D01*
X106679762Y-70652438D02*
X106822619Y-70604819D01*
X106822619Y-70604819D02*
X106917857Y-70604819D01*
X106917857Y-70604819D02*
X107060714Y-70652438D01*
X107060714Y-70652438D02*
X107108333Y-70700057D01*
X108013095Y-70604819D02*
X107536905Y-70604819D01*
X107536905Y-70604819D02*
X107489286Y-71081009D01*
X107489286Y-71081009D02*
X107536905Y-71033390D01*
X107536905Y-71033390D02*
X107632143Y-70985771D01*
X107632143Y-70985771D02*
X107870238Y-70985771D01*
X107870238Y-70985771D02*
X107965476Y-71033390D01*
X107965476Y-71033390D02*
X108013095Y-71081009D01*
X108013095Y-71081009D02*
X108060714Y-71176247D01*
X108060714Y-71176247D02*
X108060714Y-71414342D01*
X108060714Y-71414342D02*
X108013095Y-71509580D01*
X108013095Y-71509580D02*
X107965476Y-71557200D01*
X107965476Y-71557200D02*
X107870238Y-71604819D01*
X107870238Y-71604819D02*
X107632143Y-71604819D01*
X107632143Y-71604819D02*
X107536905Y-71557200D01*
X107536905Y-71557200D02*
X107489286Y-71509580D01*
X174649819Y-97616666D02*
X174173628Y-97949999D01*
X174649819Y-98188094D02*
X173649819Y-98188094D01*
X173649819Y-98188094D02*
X173649819Y-97807142D01*
X173649819Y-97807142D02*
X173697438Y-97711904D01*
X173697438Y-97711904D02*
X173745057Y-97664285D01*
X173745057Y-97664285D02*
X173840295Y-97616666D01*
X173840295Y-97616666D02*
X173983152Y-97616666D01*
X173983152Y-97616666D02*
X174078390Y-97664285D01*
X174078390Y-97664285D02*
X174126009Y-97711904D01*
X174126009Y-97711904D02*
X174173628Y-97807142D01*
X174173628Y-97807142D02*
X174173628Y-98188094D01*
X173649819Y-96711904D02*
X173649819Y-97188094D01*
X173649819Y-97188094D02*
X174126009Y-97235713D01*
X174126009Y-97235713D02*
X174078390Y-97188094D01*
X174078390Y-97188094D02*
X174030771Y-97092856D01*
X174030771Y-97092856D02*
X174030771Y-96854761D01*
X174030771Y-96854761D02*
X174078390Y-96759523D01*
X174078390Y-96759523D02*
X174126009Y-96711904D01*
X174126009Y-96711904D02*
X174221247Y-96664285D01*
X174221247Y-96664285D02*
X174459342Y-96664285D01*
X174459342Y-96664285D02*
X174554580Y-96711904D01*
X174554580Y-96711904D02*
X174602200Y-96759523D01*
X174602200Y-96759523D02*
X174649819Y-96854761D01*
X174649819Y-96854761D02*
X174649819Y-97092856D01*
X174649819Y-97092856D02*
X174602200Y-97188094D01*
X174602200Y-97188094D02*
X174554580Y-97235713D01*
X170059819Y-105916666D02*
X169583628Y-106249999D01*
X170059819Y-106488094D02*
X169059819Y-106488094D01*
X169059819Y-106488094D02*
X169059819Y-106107142D01*
X169059819Y-106107142D02*
X169107438Y-106011904D01*
X169107438Y-106011904D02*
X169155057Y-105964285D01*
X169155057Y-105964285D02*
X169250295Y-105916666D01*
X169250295Y-105916666D02*
X169393152Y-105916666D01*
X169393152Y-105916666D02*
X169488390Y-105964285D01*
X169488390Y-105964285D02*
X169536009Y-106011904D01*
X169536009Y-106011904D02*
X169583628Y-106107142D01*
X169583628Y-106107142D02*
X169583628Y-106488094D01*
X170059819Y-104964285D02*
X170059819Y-105535713D01*
X170059819Y-105249999D02*
X169059819Y-105249999D01*
X169059819Y-105249999D02*
X169202676Y-105345237D01*
X169202676Y-105345237D02*
X169297914Y-105440475D01*
X169297914Y-105440475D02*
X169345533Y-105535713D01*
X116858333Y-70284819D02*
X116525000Y-69808628D01*
X116286905Y-70284819D02*
X116286905Y-69284819D01*
X116286905Y-69284819D02*
X116667857Y-69284819D01*
X116667857Y-69284819D02*
X116763095Y-69332438D01*
X116763095Y-69332438D02*
X116810714Y-69380057D01*
X116810714Y-69380057D02*
X116858333Y-69475295D01*
X116858333Y-69475295D02*
X116858333Y-69618152D01*
X116858333Y-69618152D02*
X116810714Y-69713390D01*
X116810714Y-69713390D02*
X116763095Y-69761009D01*
X116763095Y-69761009D02*
X116667857Y-69808628D01*
X116667857Y-69808628D02*
X116286905Y-69808628D01*
X117191667Y-69284819D02*
X117858333Y-69284819D01*
X117858333Y-69284819D02*
X117429762Y-70284819D01*
X126261905Y-69454819D02*
X126261905Y-68454819D01*
X126261905Y-68454819D02*
X126500000Y-68454819D01*
X126500000Y-68454819D02*
X126642857Y-68502438D01*
X126642857Y-68502438D02*
X126738095Y-68597676D01*
X126738095Y-68597676D02*
X126785714Y-68692914D01*
X126785714Y-68692914D02*
X126833333Y-68883390D01*
X126833333Y-68883390D02*
X126833333Y-69026247D01*
X126833333Y-69026247D02*
X126785714Y-69216723D01*
X126785714Y-69216723D02*
X126738095Y-69311961D01*
X126738095Y-69311961D02*
X126642857Y-69407200D01*
X126642857Y-69407200D02*
X126500000Y-69454819D01*
X126500000Y-69454819D02*
X126261905Y-69454819D01*
X127690476Y-68788152D02*
X127690476Y-69454819D01*
X127452381Y-68407200D02*
X127214286Y-69121485D01*
X127214286Y-69121485D02*
X127833333Y-69121485D01*
X158509819Y-103321904D02*
X159319342Y-103321904D01*
X159319342Y-103321904D02*
X159414580Y-103274285D01*
X159414580Y-103274285D02*
X159462200Y-103226666D01*
X159462200Y-103226666D02*
X159509819Y-103131428D01*
X159509819Y-103131428D02*
X159509819Y-102940952D01*
X159509819Y-102940952D02*
X159462200Y-102845714D01*
X159462200Y-102845714D02*
X159414580Y-102798095D01*
X159414580Y-102798095D02*
X159319342Y-102750476D01*
X159319342Y-102750476D02*
X158509819Y-102750476D01*
X158605057Y-102321904D02*
X158557438Y-102274285D01*
X158557438Y-102274285D02*
X158509819Y-102179047D01*
X158509819Y-102179047D02*
X158509819Y-101940952D01*
X158509819Y-101940952D02*
X158557438Y-101845714D01*
X158557438Y-101845714D02*
X158605057Y-101798095D01*
X158605057Y-101798095D02*
X158700295Y-101750476D01*
X158700295Y-101750476D02*
X158795533Y-101750476D01*
X158795533Y-101750476D02*
X158938390Y-101798095D01*
X158938390Y-101798095D02*
X159509819Y-102369523D01*
X159509819Y-102369523D02*
X159509819Y-101750476D01*
X166441667Y-93407200D02*
X166584524Y-93454819D01*
X166584524Y-93454819D02*
X166822619Y-93454819D01*
X166822619Y-93454819D02*
X166917857Y-93407200D01*
X166917857Y-93407200D02*
X166965476Y-93359580D01*
X166965476Y-93359580D02*
X167013095Y-93264342D01*
X167013095Y-93264342D02*
X167013095Y-93169104D01*
X167013095Y-93169104D02*
X166965476Y-93073866D01*
X166965476Y-93073866D02*
X166917857Y-93026247D01*
X166917857Y-93026247D02*
X166822619Y-92978628D01*
X166822619Y-92978628D02*
X166632143Y-92931009D01*
X166632143Y-92931009D02*
X166536905Y-92883390D01*
X166536905Y-92883390D02*
X166489286Y-92835771D01*
X166489286Y-92835771D02*
X166441667Y-92740533D01*
X166441667Y-92740533D02*
X166441667Y-92645295D01*
X166441667Y-92645295D02*
X166489286Y-92550057D01*
X166489286Y-92550057D02*
X166536905Y-92502438D01*
X166536905Y-92502438D02*
X166632143Y-92454819D01*
X166632143Y-92454819D02*
X166870238Y-92454819D01*
X166870238Y-92454819D02*
X167013095Y-92502438D01*
X167346429Y-92454819D02*
X167584524Y-93454819D01*
X167584524Y-93454819D02*
X167775000Y-92740533D01*
X167775000Y-92740533D02*
X167965476Y-93454819D01*
X167965476Y-93454819D02*
X168203572Y-92454819D01*
X168536905Y-92550057D02*
X168584524Y-92502438D01*
X168584524Y-92502438D02*
X168679762Y-92454819D01*
X168679762Y-92454819D02*
X168917857Y-92454819D01*
X168917857Y-92454819D02*
X169013095Y-92502438D01*
X169013095Y-92502438D02*
X169060714Y-92550057D01*
X169060714Y-92550057D02*
X169108333Y-92645295D01*
X169108333Y-92645295D02*
X169108333Y-92740533D01*
X169108333Y-92740533D02*
X169060714Y-92883390D01*
X169060714Y-92883390D02*
X168489286Y-93454819D01*
X168489286Y-93454819D02*
X169108333Y-93454819D01*
X131083333Y-86784819D02*
X130750000Y-86308628D01*
X130511905Y-86784819D02*
X130511905Y-85784819D01*
X130511905Y-85784819D02*
X130892857Y-85784819D01*
X130892857Y-85784819D02*
X130988095Y-85832438D01*
X130988095Y-85832438D02*
X131035714Y-85880057D01*
X131035714Y-85880057D02*
X131083333Y-85975295D01*
X131083333Y-85975295D02*
X131083333Y-86118152D01*
X131083333Y-86118152D02*
X131035714Y-86213390D01*
X131035714Y-86213390D02*
X130988095Y-86261009D01*
X130988095Y-86261009D02*
X130892857Y-86308628D01*
X130892857Y-86308628D02*
X130511905Y-86308628D01*
X131654762Y-86213390D02*
X131559524Y-86165771D01*
X131559524Y-86165771D02*
X131511905Y-86118152D01*
X131511905Y-86118152D02*
X131464286Y-86022914D01*
X131464286Y-86022914D02*
X131464286Y-85975295D01*
X131464286Y-85975295D02*
X131511905Y-85880057D01*
X131511905Y-85880057D02*
X131559524Y-85832438D01*
X131559524Y-85832438D02*
X131654762Y-85784819D01*
X131654762Y-85784819D02*
X131845238Y-85784819D01*
X131845238Y-85784819D02*
X131940476Y-85832438D01*
X131940476Y-85832438D02*
X131988095Y-85880057D01*
X131988095Y-85880057D02*
X132035714Y-85975295D01*
X132035714Y-85975295D02*
X132035714Y-86022914D01*
X132035714Y-86022914D02*
X131988095Y-86118152D01*
X131988095Y-86118152D02*
X131940476Y-86165771D01*
X131940476Y-86165771D02*
X131845238Y-86213390D01*
X131845238Y-86213390D02*
X131654762Y-86213390D01*
X131654762Y-86213390D02*
X131559524Y-86261009D01*
X131559524Y-86261009D02*
X131511905Y-86308628D01*
X131511905Y-86308628D02*
X131464286Y-86403866D01*
X131464286Y-86403866D02*
X131464286Y-86594342D01*
X131464286Y-86594342D02*
X131511905Y-86689580D01*
X131511905Y-86689580D02*
X131559524Y-86737200D01*
X131559524Y-86737200D02*
X131654762Y-86784819D01*
X131654762Y-86784819D02*
X131845238Y-86784819D01*
X131845238Y-86784819D02*
X131940476Y-86737200D01*
X131940476Y-86737200D02*
X131988095Y-86689580D01*
X131988095Y-86689580D02*
X132035714Y-86594342D01*
X132035714Y-86594342D02*
X132035714Y-86403866D01*
X132035714Y-86403866D02*
X131988095Y-86308628D01*
X131988095Y-86308628D02*
X131940476Y-86261009D01*
X131940476Y-86261009D02*
X131845238Y-86213390D01*
D14*
%TO.C,BT1*%
X177360106Y-66435000D02*
X106280106Y-66435000D01*
X106280106Y-45065000D02*
X177360106Y-45065000D01*
X106280106Y-52240000D02*
X106280106Y-45065000D01*
X106280106Y-66435000D02*
X106280106Y-59260000D01*
X177360106Y-45065000D02*
X177360106Y-52425000D01*
X177360106Y-59260000D02*
X177360106Y-66435000D01*
%TO.C,R6*%
X130522936Y-78590000D02*
X131977064Y-78590000D01*
X130522936Y-80410000D02*
X131977064Y-80410000D01*
D11*
%TO.C,U3*%
X119350000Y-91500000D02*
G75*
G02*
X119150000Y-91500000I-100000J0D01*
G01*
X119150000Y-91500000D02*
G75*
G02*
X119350000Y-91500000I100000J0D01*
G01*
D15*
%TO.C,U4*%
X120300000Y-72425000D02*
X113300000Y-72425000D01*
X120275000Y-78925000D02*
X113275000Y-78925000D01*
D12*
X119375000Y-78175000D02*
G75*
G02*
X119175000Y-78175000I-100000J0D01*
G01*
X119175000Y-78175000D02*
G75*
G02*
X119375000Y-78175000I100000J0D01*
G01*
D14*
%TO.C,SW3*%
X115615000Y-83240000D02*
X115615000Y-83550000D01*
X115615000Y-83240000D02*
X124435000Y-83240000D01*
X115615000Y-87760000D02*
X115615000Y-87450000D01*
X121525000Y-88460000D02*
X122525000Y-88460000D01*
X122025000Y-87960000D02*
X121525000Y-88460000D01*
X122525000Y-88460000D02*
X122025000Y-87960000D01*
X124435000Y-83240000D02*
X124435000Y-83550000D01*
X124435000Y-87450000D02*
X124435000Y-87760000D01*
X124435000Y-87760000D02*
X115615000Y-87760000D01*
%TO.C,R4*%
X176935000Y-86227064D02*
X176935000Y-84772936D01*
X175115000Y-86227064D02*
X175115000Y-84772936D01*
%TO.C,J1*%
X90865000Y-79640000D02*
X92815000Y-79640000D01*
X90865000Y-87460000D02*
X90865000Y-79640000D01*
X90865000Y-87460000D02*
X92815000Y-87460000D01*
X95035000Y-79640000D02*
X98265000Y-79640000D01*
X95035000Y-87460000D02*
X98265000Y-87460000D01*
X100185000Y-80360000D02*
X100185000Y-81440000D01*
X100185000Y-81440000D02*
X100615000Y-81440000D01*
X100185000Y-85660000D02*
X100185000Y-86740000D01*
%TO.C,C1*%
X106865000Y-82838748D02*
X106865000Y-84261252D01*
X108685000Y-82838748D02*
X108685000Y-84261252D01*
%TO.C,R2*%
X157185000Y-83477064D02*
X157185000Y-82022936D01*
X155365000Y-83477064D02*
X155365000Y-82022936D01*
%TO.C,D1*%
X144185000Y-71705000D02*
X144185000Y-74795000D01*
X144185000Y-71705170D02*
G75*
G02*
X149735000Y-73250000I2560000J-1544830D01*
G01*
X149735000Y-73250000D02*
G75*
G02*
X144185000Y-74794830I-2990000J0D01*
G01*
X149245000Y-73250000D02*
G75*
G02*
X144245000Y-73250000I-2500000J0D01*
G01*
X144245000Y-73250000D02*
G75*
G02*
X149245000Y-73250000I2500000J0D01*
G01*
%TO.C,C3*%
X126615000Y-89538748D02*
X126615000Y-90961252D01*
X128435000Y-89538748D02*
X128435000Y-90961252D01*
%TO.C,RV1*%
X114400000Y-99090000D02*
X124150000Y-99090000D01*
X114400000Y-105410000D02*
X114400000Y-99090000D01*
X124150000Y-99090000D02*
X124150000Y-105410000D01*
X124150000Y-105410000D02*
X114400000Y-105410000D01*
%TO.C,R9*%
X109977064Y-87840000D02*
X108522936Y-87840000D01*
X109977064Y-89660000D02*
X108522936Y-89660000D01*
%TO.C,R3*%
X157185000Y-89977064D02*
X157185000Y-88522936D01*
X155365000Y-89977064D02*
X155365000Y-88522936D01*
%TO.C,D3*%
X137590000Y-74545000D02*
X137590000Y-71455000D01*
X132040000Y-73000000D02*
G75*
G02*
X137590000Y-71455170I2990000J0D01*
G01*
X137590000Y-74544830D02*
G75*
G02*
X132040000Y-73000000I-2560000J1544830D01*
G01*
X137530000Y-73000000D02*
G75*
G02*
X132530000Y-73000000I-2500000J0D01*
G01*
X132530000Y-73000000D02*
G75*
G02*
X137530000Y-73000000I2500000J0D01*
G01*
%TO.C,L1*%
X110470000Y-96250000D02*
G75*
G02*
X103030000Y-96250000I-3720000J0D01*
G01*
X103030000Y-96250000D02*
G75*
G02*
X110470000Y-96250000I3720000J0D01*
G01*
%TO.C,C4*%
X124670000Y-96665113D02*
X126210000Y-96665113D01*
X124670000Y-96705113D02*
X126210000Y-96705113D01*
X124671000Y-96625113D02*
X126210000Y-96625113D01*
X124673000Y-96585113D02*
X126210000Y-96585113D01*
X124675000Y-96545113D02*
X126210000Y-96545113D01*
X124678000Y-96505113D02*
X126210000Y-96505113D01*
X124681000Y-96465113D02*
X126210000Y-96465113D01*
X124685000Y-96425113D02*
X126210000Y-96425113D01*
X124690000Y-96385113D02*
X126210000Y-96385113D01*
X124695000Y-96345113D02*
X126210000Y-96345113D01*
X124701000Y-96305113D02*
X126210000Y-96305113D01*
X124707000Y-96265113D02*
X126210000Y-96265113D01*
X124714000Y-96225113D02*
X126210000Y-96225113D01*
X124722000Y-96185113D02*
X126210000Y-96185113D01*
X124731000Y-96145113D02*
X126210000Y-96145113D01*
X124740000Y-96105113D02*
X126210000Y-96105113D01*
X124749000Y-96065113D02*
X126210000Y-96065113D01*
X124760000Y-96025113D02*
X126210000Y-96025113D01*
X124771000Y-95985113D02*
X126210000Y-95985113D01*
X124783000Y-95945113D02*
X126210000Y-95945113D01*
X124795000Y-95905113D02*
X126210000Y-95905113D01*
X124808000Y-95865113D02*
X126210000Y-95865113D01*
X124822000Y-95825113D02*
X126210000Y-95825113D01*
X124837000Y-95785113D02*
X126210000Y-95785113D01*
X124852000Y-95745113D02*
X126210000Y-95745113D01*
X124868000Y-95705113D02*
X126210000Y-95705113D01*
X124885000Y-95665113D02*
X126210000Y-95665113D01*
X124903000Y-95625113D02*
X126210000Y-95625113D01*
X124921000Y-95585113D02*
X126210000Y-95585113D01*
X124941000Y-95545113D02*
X126210000Y-95545113D01*
X124961000Y-95505113D02*
X126210000Y-95505113D01*
X124982000Y-95465113D02*
X126210000Y-95465113D01*
X125004000Y-95425113D02*
X126210000Y-95425113D01*
X125027000Y-95385113D02*
X126210000Y-95385113D01*
X125051000Y-95345113D02*
X126210000Y-95345113D01*
X125075000Y-95305113D02*
X126210000Y-95305113D01*
X125101000Y-95265113D02*
X126210000Y-95265113D01*
X125128000Y-95225113D02*
X126210000Y-95225113D01*
X125156000Y-95185113D02*
X126210000Y-95185113D01*
X125185000Y-95145113D02*
X126210000Y-95145113D01*
X125215000Y-95105113D02*
X126210000Y-95105113D01*
X125247000Y-95065113D02*
X126210000Y-95065113D01*
X125280000Y-95025113D02*
X126210000Y-95025113D01*
X125314000Y-94985113D02*
X126210000Y-94985113D01*
X125349000Y-94945113D02*
X126210000Y-94945113D01*
X125386000Y-94905113D02*
X126210000Y-94905113D01*
X125425000Y-94865113D02*
X126210000Y-94865113D01*
X125465000Y-94825113D02*
X126210000Y-94825113D01*
X125507000Y-94785113D02*
X126210000Y-94785113D01*
X125525000Y-99259888D02*
X126025000Y-99259888D01*
X125551000Y-94745113D02*
X126210000Y-94745113D01*
X125598000Y-94705113D02*
X126210000Y-94705113D01*
X125646000Y-94665113D02*
X128854000Y-94665113D01*
X125697000Y-94625113D02*
X128803000Y-94625113D01*
X125751000Y-94585113D02*
X128749000Y-94585113D01*
X125775000Y-99509888D02*
X125775000Y-99009888D01*
X125807000Y-94545113D02*
X128693000Y-94545113D01*
X125867000Y-94505113D02*
X128633000Y-94505113D01*
X125931000Y-94465113D02*
X128569000Y-94465113D01*
X125999000Y-94425113D02*
X128501000Y-94425113D01*
X126073000Y-94385113D02*
X128427000Y-94385113D01*
X126152000Y-94345113D02*
X128348000Y-94345113D01*
X126239000Y-94305113D02*
X128261000Y-94305113D01*
X126336000Y-94265113D02*
X128164000Y-94265113D01*
X126445000Y-94225113D02*
X128055000Y-94225113D01*
X126573000Y-94185113D02*
X127927000Y-94185113D01*
X126733000Y-94145113D02*
X127767000Y-94145113D01*
X126967000Y-94105113D02*
X127533000Y-94105113D01*
X128290000Y-94705113D02*
X128902000Y-94705113D01*
X128290000Y-94745113D02*
X128949000Y-94745113D01*
X128290000Y-94785113D02*
X128993000Y-94785113D01*
X128290000Y-94825113D02*
X129035000Y-94825113D01*
X128290000Y-94865113D02*
X129075000Y-94865113D01*
X128290000Y-94905113D02*
X129114000Y-94905113D01*
X128290000Y-94945113D02*
X129151000Y-94945113D01*
X128290000Y-94985113D02*
X129186000Y-94985113D01*
X128290000Y-95025113D02*
X129220000Y-95025113D01*
X128290000Y-95065113D02*
X129253000Y-95065113D01*
X128290000Y-95105113D02*
X129285000Y-95105113D01*
X128290000Y-95145113D02*
X129315000Y-95145113D01*
X128290000Y-95185113D02*
X129344000Y-95185113D01*
X128290000Y-95225113D02*
X129372000Y-95225113D01*
X128290000Y-95265113D02*
X129399000Y-95265113D01*
X128290000Y-95305113D02*
X129425000Y-95305113D01*
X128290000Y-95345113D02*
X129449000Y-95345113D01*
X128290000Y-95385113D02*
X129473000Y-95385113D01*
X128290000Y-95425113D02*
X129496000Y-95425113D01*
X128290000Y-95465113D02*
X129518000Y-95465113D01*
X128290000Y-95505113D02*
X129539000Y-95505113D01*
X128290000Y-95545113D02*
X129559000Y-95545113D01*
X128290000Y-95585113D02*
X129579000Y-95585113D01*
X128290000Y-95625113D02*
X129597000Y-95625113D01*
X128290000Y-95665113D02*
X129615000Y-95665113D01*
X128290000Y-95705113D02*
X129632000Y-95705113D01*
X128290000Y-95745113D02*
X129648000Y-95745113D01*
X128290000Y-95785113D02*
X129663000Y-95785113D01*
X128290000Y-95825113D02*
X129678000Y-95825113D01*
X128290000Y-95865113D02*
X129692000Y-95865113D01*
X128290000Y-95905113D02*
X129705000Y-95905113D01*
X128290000Y-95945113D02*
X129717000Y-95945113D01*
X128290000Y-95985113D02*
X129729000Y-95985113D01*
X128290000Y-96025113D02*
X129740000Y-96025113D01*
X128290000Y-96065113D02*
X129751000Y-96065113D01*
X128290000Y-96105113D02*
X129760000Y-96105113D01*
X128290000Y-96145113D02*
X129769000Y-96145113D01*
X128290000Y-96185113D02*
X129778000Y-96185113D01*
X128290000Y-96225113D02*
X129786000Y-96225113D01*
X128290000Y-96265113D02*
X129793000Y-96265113D01*
X128290000Y-96305113D02*
X129799000Y-96305113D01*
X128290000Y-96345113D02*
X129805000Y-96345113D01*
X128290000Y-96385113D02*
X129810000Y-96385113D01*
X128290000Y-96425113D02*
X129815000Y-96425113D01*
X128290000Y-96465113D02*
X129819000Y-96465113D01*
X128290000Y-96505113D02*
X129822000Y-96505113D01*
X128290000Y-96545113D02*
X129825000Y-96545113D01*
X128290000Y-96585113D02*
X129827000Y-96585113D01*
X128290000Y-96625113D02*
X129829000Y-96625113D01*
X128290000Y-96665113D02*
X129830000Y-96665113D01*
X128290000Y-96705113D02*
X129830000Y-96705113D01*
X129870000Y-96705113D02*
G75*
G02*
X124630000Y-96705113I-2620000J0D01*
G01*
X124630000Y-96705113D02*
G75*
G02*
X129870000Y-96705113I2620000J0D01*
G01*
%TO.C,DS1*%
X101470106Y-109752500D02*
X101470106Y-146032500D01*
X101470106Y-146032500D02*
X181750106Y-146032500D01*
X101480106Y-109752500D02*
X102270106Y-109752500D01*
X104610106Y-115392500D02*
X177610106Y-115392500D01*
X104610106Y-140392500D02*
X104610106Y-115392500D01*
X108110106Y-109392500D02*
X111110106Y-109392500D01*
X109310386Y-134891820D02*
X109310386Y-120892500D01*
X109810106Y-120392500D02*
X173310106Y-120392500D01*
X173310766Y-135392500D02*
X109810106Y-135392500D01*
X173810106Y-120892500D02*
X173810106Y-134892500D01*
X177610106Y-115392500D02*
X177610106Y-140392500D01*
X177610106Y-140392500D02*
X104610106Y-140392500D01*
X181750106Y-109752500D02*
X102270106Y-109752500D01*
X181750106Y-146032500D02*
X181750106Y-109752500D01*
X109310386Y-120891340D02*
G75*
G02*
X109810766Y-120390960I500380J0D01*
G01*
X109810766Y-135392200D02*
G75*
G02*
X109310386Y-134891820I0J500380D01*
G01*
X173310106Y-120392500D02*
G75*
G02*
X173810106Y-120892500I0J-500000D01*
G01*
X173811146Y-134891820D02*
G75*
G02*
X173310766Y-135392140I-500340J20D01*
G01*
D15*
%TO.C,U1*%
X139425000Y-82650000D02*
X139425000Y-83580000D01*
X139425000Y-82650000D02*
X140355000Y-82650000D01*
X139425000Y-92850000D02*
X139425000Y-91920000D01*
X139425000Y-92850000D02*
X140355000Y-92850000D01*
X149625000Y-82650000D02*
X148695000Y-82650000D01*
X149625000Y-82650000D02*
X149625000Y-83580000D01*
X149625000Y-92850000D02*
X148695000Y-92850000D01*
X149625000Y-92850000D02*
X149625000Y-91920000D01*
D12*
X140875000Y-94750000D02*
G75*
G02*
X140675000Y-94750000I-100000J0D01*
G01*
X140675000Y-94750000D02*
G75*
G02*
X140875000Y-94750000I100000J0D01*
G01*
D14*
%TO.C,D2*%
X153935000Y-71705000D02*
X153935000Y-74795000D01*
X153935000Y-71705170D02*
G75*
G02*
X159485000Y-73250000I2560000J-1544830D01*
G01*
X159485000Y-73250000D02*
G75*
G02*
X153935000Y-74794830I-2990000J0D01*
G01*
X158995000Y-73250000D02*
G75*
G02*
X153995000Y-73250000I-2500000J0D01*
G01*
X153995000Y-73250000D02*
G75*
G02*
X158995000Y-73250000I2500000J0D01*
G01*
%TO.C,R10*%
X114410000Y-95477064D02*
X114410000Y-94022936D01*
X112590000Y-95477064D02*
X112590000Y-94022936D01*
%TO.C,SW1*%
X164275000Y-84750000D02*
X164275000Y-86250000D01*
X165525000Y-88750000D02*
X170025000Y-88750000D01*
X170025000Y-82250000D02*
X165525000Y-82250000D01*
X171275000Y-86250000D02*
X171275000Y-84750000D01*
%TO.C,C5*%
X106563748Y-72090000D02*
X107986252Y-72090000D01*
X106563748Y-73910000D02*
X107986252Y-73910000D01*
%TO.C,R5*%
X176935000Y-98177064D02*
X176935000Y-96722936D01*
X175115000Y-98177064D02*
X175115000Y-96722936D01*
%TO.C,R1*%
X168685000Y-105022936D02*
X168685000Y-106477064D01*
X166865000Y-105022936D02*
X166865000Y-106477064D01*
%TO.C,R7*%
X117752064Y-67090000D02*
X116297936Y-67090000D01*
X117752064Y-68910000D02*
X116297936Y-68910000D01*
%TO.C,D4*%
X129815000Y-74545000D02*
X129815000Y-71455000D01*
X124265000Y-73000000D02*
G75*
G02*
X129815000Y-71455170I2990000J0D01*
G01*
X129815000Y-74544830D02*
G75*
G02*
X124265000Y-73000000I-2560000J1544830D01*
G01*
X129755000Y-73000000D02*
G75*
G02*
X124755000Y-73000000I-2500000J0D01*
G01*
X124755000Y-73000000D02*
G75*
G02*
X129755000Y-73000000I2500000J0D01*
G01*
%TO.C,U2*%
X137615000Y-99910000D02*
X137615000Y-105210000D01*
X137615000Y-105210000D02*
X158055000Y-105210000D01*
X158055000Y-99910000D02*
X137615000Y-99910000D01*
X158055000Y-101560000D02*
X158055000Y-99910000D01*
X158055000Y-105210000D02*
X158055000Y-103560000D01*
X158055000Y-103560000D02*
G75*
G02*
X158055000Y-101560000I0J1000000D01*
G01*
%TO.C,SW2*%
X164275000Y-96500000D02*
X164275000Y-98000000D01*
X165525000Y-100500000D02*
X170025000Y-100500000D01*
X170025000Y-94000000D02*
X165525000Y-94000000D01*
X171275000Y-98000000D02*
X171275000Y-96500000D01*
%TO.C,R8*%
X131977064Y-83590000D02*
X130522936Y-83590000D01*
X131977064Y-85410000D02*
X130522936Y-85410000D01*
%TD*%
M02*
