%TF.GenerationSoftware,KiCad,Pcbnew,9.0.6*%
%TF.CreationDate,2026-01-23T11:35:01+01:00*%
%TF.ProjectId,Seminar,53656d69-6e61-4722-9e6b-696361645f70,rev?*%
%TF.SameCoordinates,Original*%
%TF.FileFunction,Soldermask,Top*%
%TF.FilePolarity,Negative*%
%FSLAX46Y46*%
G04 Gerber Fmt 4.6, Leading zero omitted, Abs format (unit mm)*
G04 Created by KiCad (PCBNEW 9.0.6) date 2026-01-23 11:35:01*
%MOMM*%
%LPD*%
G01*
G04 APERTURE LIST*
G04 Aperture macros list*
%AMRoundRect*
0 Rectangle with rounded corners*
0 $1 Rounding radius*
0 $2 $3 $4 $5 $6 $7 $8 $9 X,Y pos of 4 corners*
0 Add a 4 corners polygon primitive as box body*
4,1,4,$2,$3,$4,$5,$6,$7,$8,$9,$2,$3,0*
0 Add four circle primitives for the rounded corners*
1,1,$1+$1,$2,$3*
1,1,$1+$1,$4,$5*
1,1,$1+$1,$6,$7*
1,1,$1+$1,$8,$9*
0 Add four rect primitives between the rounded corners*
20,1,$1+$1,$2,$3,$4,$5,0*
20,1,$1+$1,$4,$5,$6,$7,0*
20,1,$1+$1,$6,$7,$8,$9,0*
20,1,$1+$1,$8,$9,$2,$3,0*%
G04 Aperture macros list end*
%ADD10RoundRect,0.250000X0.412500X0.650000X-0.412500X0.650000X-0.412500X-0.650000X0.412500X-0.650000X0*%
%ADD11O,3.500000X2.200000*%
%ADD12R,2.500000X1.500000*%
%ADD13O,2.500000X1.500000*%
%ADD14RoundRect,0.250000X-0.550000X0.550000X-0.550000X-0.550000X0.550000X-0.550000X0.550000X0.550000X0*%
%ADD15C,1.600000*%
%ADD16RoundRect,0.100500X0.301500X-0.986500X0.301500X0.986500X-0.301500X0.986500X-0.301500X-0.986500X0*%
%ADD17RoundRect,0.102000X1.651000X-1.206500X1.651000X1.206500X-1.651000X1.206500X-1.651000X-1.206500X0*%
%ADD18RoundRect,0.250000X0.650000X-0.412500X0.650000X0.412500X-0.650000X0.412500X-0.650000X-0.412500X0*%
%ADD19C,2.390000*%
%ADD20C,3.450000*%
%ADD21RoundRect,0.250003X-2.999997X3.499997X-2.999997X-3.499997X2.999997X-3.499997X2.999997X3.499997X0*%
%ADD22C,5.500000*%
%ADD23RoundRect,0.250000X-0.400000X-0.625000X0.400000X-0.625000X0.400000X0.625000X-0.400000X0.625000X0*%
%ADD24RoundRect,0.250000X0.400000X0.625000X-0.400000X0.625000X-0.400000X-0.625000X0.400000X-0.625000X0*%
%ADD25C,1.000000*%
%ADD26R,0.500000X2.000000*%
%ADD27R,2.000000X1.700000*%
%ADD28RoundRect,0.250000X-0.625000X0.400000X-0.625000X-0.400000X0.625000X-0.400000X0.625000X0.400000X0*%
%ADD29R,1.800000X1.800000*%
%ADD30C,1.800000*%
%ADD31C,2.000000*%
%ADD32C,1.440000*%
%ADD33RoundRect,0.250000X-0.412500X-0.650000X0.412500X-0.650000X0.412500X0.650000X-0.412500X0.650000X0*%
%ADD34RoundRect,0.121000X0.761000X0.121000X-0.761000X0.121000X-0.761000X-0.121000X0.761000X-0.121000X0*%
%ADD35RoundRect,0.121000X0.121000X0.761000X-0.121000X0.761000X-0.121000X-0.761000X0.121000X-0.761000X0*%
%ADD36RoundRect,0.250000X0.550000X-0.550000X0.550000X0.550000X-0.550000X0.550000X-0.550000X-0.550000X0*%
%ADD37RoundRect,0.250000X0.625000X-0.400000X0.625000X0.400000X-0.625000X0.400000X-0.625000X-0.400000X0*%
%ADD38C,2.400000*%
%ADD39RoundRect,0.075000X0.074999X0.260000X-0.074999X0.260000X-0.074999X-0.260000X0.074999X-0.260000X0*%
%ADD40C,3.000000*%
%ADD41R,1.800000X2.600000*%
%ADD42O,1.800000X2.600000*%
G04 APERTURE END LIST*
D10*
%TO.C,C5*%
X80212500Y-90825000D03*
X77087500Y-90825000D03*
%TD*%
D11*
%TO.C,SW3*%
X65500000Y-88550000D03*
X65500000Y-80350000D03*
D12*
X65500000Y-86450000D03*
D13*
X65500000Y-84450000D03*
X65500000Y-82450000D03*
%TD*%
D14*
%TO.C,C4*%
X88750000Y-77244888D03*
D15*
X88750000Y-79244888D03*
%TD*%
D16*
%TO.C,U4*%
X74150000Y-107225000D03*
X75420000Y-107225000D03*
X76690000Y-107225000D03*
X77960000Y-107225000D03*
X77960000Y-102275000D03*
X76690000Y-102275000D03*
X75420000Y-102275000D03*
X74150000Y-102275000D03*
D17*
X76055000Y-104750000D03*
%TD*%
D18*
%TO.C,C3*%
X58250000Y-79012500D03*
X58250000Y-75887500D03*
%TD*%
D19*
%TO.C,BT1*%
X52000000Y-66570000D03*
D20*
X36000000Y-75080000D03*
X52000000Y-130320000D03*
D21*
X44000000Y-63010000D03*
X44000000Y-142390000D03*
%TD*%
D22*
%TO.C,H3*%
X135150000Y-153550000D03*
%TD*%
D23*
%TO.C,R7*%
X69100000Y-97225000D03*
X72200000Y-97225000D03*
%TD*%
D14*
%TO.C,C1*%
X77500000Y-123950000D03*
D15*
X77500000Y-125950000D03*
%TD*%
D22*
%TO.C,H4*%
X135075000Y-23425000D03*
%TD*%
D24*
%TO.C,R8*%
X85550000Y-97940500D03*
X82450000Y-97940500D03*
%TD*%
D25*
%TO.C,J1*%
X66050000Y-149750000D03*
X70450000Y-149750000D03*
D26*
X66650000Y-147050000D03*
X67450000Y-147050000D03*
X68250000Y-147050000D03*
X69050000Y-147050000D03*
X69850000Y-147050000D03*
D27*
X63800000Y-147150000D03*
X63800000Y-152600000D03*
X72700000Y-147150000D03*
X72700000Y-152600000D03*
%TD*%
D28*
%TO.C,R5*%
X130769694Y-102730306D03*
X130769694Y-105830306D03*
%TD*%
D29*
%TO.C,D1*%
X110269694Y-90505306D03*
D30*
X110269694Y-87965306D03*
%TD*%
D28*
%TO.C,R10*%
X61250000Y-64150000D03*
X61250000Y-67250000D03*
%TD*%
%TO.C,R4*%
X106769694Y-102680306D03*
X106769694Y-105780306D03*
%TD*%
D14*
%TO.C,U3*%
X93799500Y-111490500D03*
D15*
X91259500Y-111490500D03*
X88719500Y-111490500D03*
X86179500Y-111490500D03*
X86179500Y-119110500D03*
X88719500Y-119110500D03*
X91259500Y-119110500D03*
X93799500Y-119110500D03*
%TD*%
D31*
%TO.C,SW1*%
X108019694Y-120980306D03*
X108019694Y-114480306D03*
X112519694Y-120980306D03*
X112519694Y-114480306D03*
%TD*%
D32*
%TO.C,RV1*%
X102140000Y-81490000D03*
X99600000Y-78950000D03*
X102140000Y-76410000D03*
%TD*%
D23*
%TO.C,R6*%
X75300000Y-111725000D03*
X78400000Y-111725000D03*
%TD*%
D33*
%TO.C,C1*%
X88012500Y-93100000D03*
X91137500Y-93100000D03*
%TD*%
D34*
%TO.C,U1*%
X124449694Y-106980306D03*
X124449694Y-106480306D03*
X124449694Y-105980306D03*
X124449694Y-105480306D03*
X124449694Y-104980306D03*
X124449694Y-104480306D03*
X124449694Y-103980306D03*
X124449694Y-103480306D03*
X124449694Y-102980306D03*
X124449694Y-102480306D03*
X124449694Y-101980306D03*
X124449694Y-101480306D03*
X124449694Y-100980306D03*
X124449694Y-100480306D03*
X124449694Y-99980306D03*
X124449694Y-99480306D03*
D35*
X122519694Y-97550306D03*
X122019694Y-97550306D03*
X121519694Y-97550306D03*
X121019694Y-97550306D03*
X120519694Y-97550306D03*
X120019694Y-97550306D03*
X119519694Y-97550306D03*
X119019694Y-97550306D03*
X118519694Y-97550306D03*
X118019694Y-97550306D03*
X117519694Y-97550306D03*
X117019694Y-97550306D03*
X116519694Y-97550306D03*
X116019694Y-97550306D03*
X115519694Y-97550306D03*
X115019694Y-97550306D03*
D34*
X113089694Y-99480306D03*
X113089694Y-99980306D03*
X113089694Y-100480306D03*
X113089694Y-100980306D03*
X113089694Y-101480306D03*
X113089694Y-101980306D03*
X113089694Y-102480306D03*
X113089694Y-102980306D03*
X113089694Y-103480306D03*
X113089694Y-103980306D03*
X113089694Y-104480306D03*
X113089694Y-104980306D03*
X113089694Y-105480306D03*
X113089694Y-105980306D03*
X113089694Y-106480306D03*
X113089694Y-106980306D03*
D35*
X115019694Y-108910306D03*
X115519694Y-108910306D03*
X116019694Y-108910306D03*
X116519694Y-108910306D03*
X117019694Y-108910306D03*
X117519694Y-108910306D03*
X118019694Y-108910306D03*
X118519694Y-108910306D03*
X119019694Y-108910306D03*
X119519694Y-108910306D03*
X120019694Y-108910306D03*
X120519694Y-108910306D03*
X121019694Y-108910306D03*
X121519694Y-108910306D03*
X122019694Y-108910306D03*
X122519694Y-108910306D03*
%TD*%
D36*
%TO.C,C2*%
X99000000Y-97200000D03*
D15*
X99000000Y-95200000D03*
%TD*%
D37*
%TO.C,R1*%
X81250000Y-69500000D03*
X81250000Y-66400000D03*
%TD*%
D23*
%TO.C,R9*%
X66700000Y-72700000D03*
X69800000Y-72700000D03*
%TD*%
D22*
%TO.C,H1*%
X34675000Y-153550000D03*
%TD*%
D29*
%TO.C,D4*%
X64900000Y-103935000D03*
D30*
X64900000Y-106475000D03*
%TD*%
D14*
%TO.C,U2*%
X120540000Y-62080000D03*
D15*
X118000000Y-62080000D03*
X115460000Y-62080000D03*
X112920000Y-62080000D03*
X110380000Y-62080000D03*
X107840000Y-62080000D03*
X105300000Y-62080000D03*
X102760000Y-62080000D03*
X102760000Y-69700000D03*
X105300000Y-69700000D03*
X107840000Y-69700000D03*
X110380000Y-69700000D03*
X112920000Y-69700000D03*
X115460000Y-69700000D03*
X118000000Y-69700000D03*
X120540000Y-69700000D03*
%TD*%
D38*
%TO.C,L1*%
X98989500Y-106045500D03*
X98989500Y-103045500D03*
%TD*%
D39*
%TO.C,U3*%
X67517177Y-66336001D03*
X68017176Y-66336001D03*
X68517178Y-66336001D03*
X68517178Y-64855999D03*
X68017176Y-64855999D03*
X67517177Y-64855999D03*
%TD*%
D38*
%TO.C,L1*%
X76500000Y-79200000D03*
X76500000Y-76200000D03*
%TD*%
D29*
%TO.C,D3*%
X87239500Y-102295500D03*
D30*
X87239500Y-104835500D03*
%TD*%
D40*
%TO.C,DS1*%
X122249100Y-53557500D03*
X122249100Y-22556800D03*
X47250520Y-22556800D03*
X47250000Y-53557500D03*
D41*
X116750000Y-53557500D03*
D42*
X114210000Y-53557500D03*
X111670000Y-53557500D03*
X109130000Y-53557500D03*
X106590000Y-53557500D03*
X104050000Y-53557500D03*
X101510000Y-53557500D03*
X98970000Y-53557500D03*
X96430000Y-53557500D03*
X93890000Y-53557500D03*
X91350000Y-53557500D03*
X88810000Y-53557500D03*
X86270000Y-53557500D03*
X83730000Y-53557500D03*
X81190000Y-53557500D03*
X78650000Y-53557500D03*
%TD*%
D37*
%TO.C,R2*%
X116769694Y-90780306D03*
X116769694Y-87680306D03*
%TD*%
D22*
%TO.C,H2*%
X34675000Y-23400000D03*
%TD*%
D31*
%TO.C,SW2*%
X129019694Y-114480306D03*
X129019694Y-120980306D03*
X124519694Y-114480306D03*
X124519694Y-120980306D03*
%TD*%
D37*
%TO.C,R3*%
X121269694Y-90780306D03*
X121269694Y-87680306D03*
%TD*%
D29*
%TO.C,D2*%
X127769694Y-90505306D03*
D30*
X127769694Y-87965306D03*
%TD*%
M02*
