%TF.GenerationSoftware,KiCad,Pcbnew,9.0.6*%
%TF.CreationDate,2025-12-17T18:58:15+01:00*%
%TF.ProjectId,Seminar,53656d69-6e61-4722-9e6b-696361645f70,rev?*%
%TF.SameCoordinates,Original*%
%TF.FileFunction,Soldermask,Bot*%
%TF.FilePolarity,Negative*%
%FSLAX46Y46*%
G04 Gerber Fmt 4.6, Leading zero omitted, Abs format (unit mm)*
G04 Created by KiCad (PCBNEW 9.0.6) date 2025-12-17 18:58:15*
%MOMM*%
%LPD*%
G01*
G04 APERTURE LIST*
G04 Aperture macros list*
%AMRoundRect*
0 Rectangle with rounded corners*
0 $1 Rounding radius*
0 $2 $3 $4 $5 $6 $7 $8 $9 X,Y pos of 4 corners*
0 Add a 4 corners polygon primitive as box body*
4,1,4,$2,$3,$4,$5,$6,$7,$8,$9,$2,$3,0*
0 Add four circle primitives for the rounded corners*
1,1,$1+$1,$2,$3*
1,1,$1+$1,$4,$5*
1,1,$1+$1,$6,$7*
1,1,$1+$1,$8,$9*
0 Add four rect primitives between the rounded corners*
20,1,$1+$1,$2,$3,$4,$5,0*
20,1,$1+$1,$4,$5,$6,$7,0*
20,1,$1+$1,$6,$7,$8,$9,0*
20,1,$1+$1,$8,$9,$2,$3,0*%
G04 Aperture macros list end*
%ADD10RoundRect,0.250000X-0.550000X0.550000X-0.550000X-0.550000X0.550000X-0.550000X0.550000X0.550000X0*%
%ADD11C,1.600000*%
%ADD12C,2.390000*%
%ADD13C,3.450000*%
%ADD14C,5.500000*%
%ADD15C,1.000000*%
%ADD16R,1.800000X1.800000*%
%ADD17C,1.800000*%
%ADD18C,2.000000*%
%ADD19C,1.440000*%
%ADD20C,1.700000*%
%ADD21RoundRect,0.250000X0.550000X-0.550000X0.550000X0.550000X-0.550000X0.550000X-0.550000X-0.550000X0*%
%ADD22RoundRect,0.250001X1.149999X1.149999X-1.149999X1.149999X-1.149999X-1.149999X1.149999X-1.149999X0*%
%ADD23C,2.800000*%
%ADD24C,2.400000*%
%ADD25RoundRect,0.249999X-0.850001X0.850001X-0.850001X-0.850001X0.850001X-0.850001X0.850001X0.850001X0*%
%ADD26C,2.200000*%
%ADD27C,3.000000*%
%ADD28R,1.800000X2.600000*%
%ADD29O,1.800000X2.600000*%
G04 APERTURE END LIST*
D10*
%TO.C,C4*%
X83500000Y-81044888D03*
D11*
X83500000Y-83044888D03*
%TD*%
D12*
%TO.C,BT1*%
X46750000Y-70370000D03*
D13*
X30750000Y-78880000D03*
X46750000Y-134120000D03*
%TD*%
D14*
%TO.C,H3*%
X198500000Y-155250000D03*
%TD*%
D10*
%TO.C,C1*%
X74500000Y-125544888D03*
D11*
X74500000Y-127544888D03*
%TD*%
D14*
%TO.C,H4*%
X198500000Y-23500000D03*
%TD*%
D15*
%TO.C,J1*%
X64992000Y-125075000D03*
X60592000Y-125075000D03*
%TD*%
D16*
%TO.C,D1*%
X118250000Y-123250000D03*
D17*
X115710000Y-123250000D03*
%TD*%
D10*
%TO.C,U3*%
X85899500Y-113015500D03*
D11*
X83359500Y-113015500D03*
X80819500Y-113015500D03*
X78279500Y-113015500D03*
X78279500Y-120635500D03*
X80819500Y-120635500D03*
X83359500Y-120635500D03*
X85899500Y-120635500D03*
%TD*%
D18*
%TO.C,SW1*%
X115250000Y-80000000D03*
X115250000Y-86500000D03*
X110750000Y-80000000D03*
X110750000Y-86500000D03*
%TD*%
D19*
%TO.C,RV1*%
X96890000Y-85290000D03*
X94350000Y-82750000D03*
X96890000Y-80210000D03*
%TD*%
D20*
%TO.C,U1*%
X125250000Y-55990000D03*
X127790000Y-55990000D03*
X125250000Y-58530000D03*
X127790000Y-58530000D03*
X125250000Y-61070000D03*
X127790000Y-61070000D03*
X125250000Y-63610000D03*
X127790000Y-63610000D03*
X125250000Y-66150000D03*
X127790000Y-66150000D03*
X125250000Y-68690000D03*
X127790000Y-68690000D03*
X125250000Y-71230000D03*
X127790000Y-71230000D03*
X125250000Y-73770000D03*
X127790000Y-73770000D03*
X125250000Y-76310000D03*
X127790000Y-76310000D03*
X125250000Y-78850000D03*
X127790000Y-78850000D03*
X125250000Y-81390000D03*
X127790000Y-81390000D03*
X125250000Y-83930000D03*
X127790000Y-83930000D03*
X125250000Y-86470000D03*
X127790000Y-86470000D03*
X125250000Y-89010000D03*
X127790000Y-89010000D03*
X125250000Y-91550000D03*
X127790000Y-91550000D03*
X125250000Y-94090000D03*
X127790000Y-94090000D03*
X125250000Y-96630000D03*
X127790000Y-96630000D03*
X125250000Y-99170000D03*
X127790000Y-99170000D03*
X125250000Y-101710000D03*
X127790000Y-101710000D03*
X125250000Y-104250000D03*
X127790000Y-104250000D03*
X125250000Y-106790000D03*
X127790000Y-106790000D03*
X125250000Y-109330000D03*
X127790000Y-109330000D03*
X125250000Y-111870000D03*
X127790000Y-111870000D03*
X125250000Y-114410000D03*
X127790000Y-114410000D03*
X125250000Y-116950000D03*
X127790000Y-116950000D03*
X125250000Y-119490000D03*
X127790000Y-119490000D03*
X125250000Y-122030000D03*
X127790000Y-122030000D03*
X125250000Y-124570000D03*
X127790000Y-124570000D03*
X125250000Y-127110000D03*
X127790000Y-127110000D03*
X125250000Y-129650000D03*
X127790000Y-129650000D03*
X125250000Y-132190000D03*
X127790000Y-132190000D03*
X125250000Y-134730000D03*
X127790000Y-134730000D03*
X125250000Y-137270000D03*
X127790000Y-137270000D03*
X125250000Y-139810000D03*
X127790000Y-139810000D03*
X125250000Y-142350000D03*
X127790000Y-142350000D03*
X125250000Y-144890000D03*
X127790000Y-144890000D03*
X186210000Y-55990000D03*
X188750000Y-55990000D03*
X186210000Y-58530000D03*
X188750000Y-58530000D03*
X186210000Y-61070000D03*
X188750000Y-61070000D03*
X186210000Y-63610000D03*
X188750000Y-63610000D03*
X186210000Y-66150000D03*
X188750000Y-66150000D03*
X186210000Y-68690000D03*
X188750000Y-68690000D03*
X186210000Y-71230000D03*
X188750000Y-71230000D03*
X186210000Y-73770000D03*
X188750000Y-73770000D03*
X186210000Y-76310000D03*
X188750000Y-76310000D03*
X186210000Y-78850000D03*
X188750000Y-78850000D03*
X186210000Y-81390000D03*
X188750000Y-81390000D03*
X186210000Y-83930000D03*
X188750000Y-83930000D03*
X186210000Y-86470000D03*
X188750000Y-86470000D03*
X186210000Y-89010000D03*
X188750000Y-89010000D03*
X186210000Y-91550000D03*
X188750000Y-91550000D03*
X186210000Y-94090000D03*
X188750000Y-94090000D03*
X186210000Y-96630000D03*
X188750000Y-96630000D03*
X186210000Y-99170000D03*
X188750000Y-99170000D03*
X186210000Y-101710000D03*
X188750000Y-101710000D03*
X186210000Y-104250000D03*
X188750000Y-104250000D03*
X186210000Y-106790000D03*
X188750000Y-106790000D03*
X186210000Y-109330000D03*
X188750000Y-109330000D03*
X186210000Y-111870000D03*
X188750000Y-111870000D03*
X186210000Y-114410000D03*
X188750000Y-114410000D03*
X186210000Y-116950000D03*
X188750000Y-116950000D03*
X186210000Y-119490000D03*
X188750000Y-119490000D03*
X186210000Y-122030000D03*
X188750000Y-122030000D03*
X186210000Y-124570000D03*
X188750000Y-124570000D03*
X186210000Y-127110000D03*
X188750000Y-127110000D03*
X186210000Y-129650000D03*
X188750000Y-129650000D03*
X186210000Y-132190000D03*
X188750000Y-132190000D03*
X186210000Y-134730000D03*
X188750000Y-134730000D03*
X186210000Y-137270000D03*
X188750000Y-137270000D03*
X186210000Y-139810000D03*
X188750000Y-139810000D03*
X186210000Y-142350000D03*
X188750000Y-142350000D03*
X186210000Y-144890000D03*
X188750000Y-144890000D03*
X125250000Y-28050000D03*
X125250000Y-30590000D03*
X188750000Y-28050000D03*
X188750000Y-30590000D03*
%TD*%
D21*
%TO.C,C2*%
X91100000Y-98725000D03*
D11*
X91100000Y-96725000D03*
%TD*%
D14*
%TO.C,H1*%
X24750000Y-155250000D03*
%TD*%
D16*
%TO.C,D4*%
X57000000Y-105460000D03*
D17*
X57000000Y-108000000D03*
%TD*%
D10*
%TO.C,U2*%
X115290000Y-65880000D03*
D11*
X112750000Y-65880000D03*
X110210000Y-65880000D03*
X107670000Y-65880000D03*
X105130000Y-65880000D03*
X102590000Y-65880000D03*
X100050000Y-65880000D03*
X97510000Y-65880000D03*
X97510000Y-73500000D03*
X100050000Y-73500000D03*
X102590000Y-73500000D03*
X105130000Y-73500000D03*
X107670000Y-73500000D03*
X110210000Y-73500000D03*
X112750000Y-73500000D03*
X115290000Y-73500000D03*
%TD*%
D22*
%TO.C,J1*%
X97250000Y-126250000D03*
D23*
X92250000Y-126250000D03*
%TD*%
D24*
%TO.C,L1*%
X91089500Y-107570500D03*
X91089500Y-104570500D03*
%TD*%
D25*
%TO.C,D3*%
X83139500Y-126320500D03*
D26*
X83139500Y-139020500D03*
%TD*%
D24*
%TO.C,L1*%
X71250000Y-83000000D03*
X71250000Y-80000000D03*
%TD*%
D16*
%TO.C,D3*%
X79339500Y-103820500D03*
D17*
X79339500Y-106360500D03*
%TD*%
D27*
%TO.C,DS1*%
X116999100Y-57357500D03*
X116999100Y-26356800D03*
X42000520Y-26356800D03*
X42000000Y-57357500D03*
D28*
X111500000Y-57357500D03*
D29*
X108960000Y-57357500D03*
X106420000Y-57357500D03*
X103880000Y-57357500D03*
X101340000Y-57357500D03*
X98800000Y-57357500D03*
X96260000Y-57357500D03*
X93720000Y-57357500D03*
X91180000Y-57357500D03*
X88640000Y-57357500D03*
X86100000Y-57357500D03*
X83560000Y-57357500D03*
X81020000Y-57357500D03*
X78480000Y-57357500D03*
X75940000Y-57357500D03*
X73400000Y-57357500D03*
%TD*%
D14*
%TO.C,H2*%
X24750000Y-23500000D03*
%TD*%
D18*
%TO.C,SW2*%
X110750000Y-102500000D03*
X110750000Y-96000000D03*
X115250000Y-102500000D03*
X115250000Y-96000000D03*
%TD*%
D16*
%TO.C,D2*%
X108975000Y-123250000D03*
D17*
X106435000Y-123250000D03*
%TD*%
M02*
