%TF.GenerationSoftware,KiCad,Pcbnew,9.0.6*%
%TF.CreationDate,2025-12-17T18:58:15+01:00*%
%TF.ProjectId,Seminar,53656d69-6e61-4722-9e6b-696361645f70,rev?*%
%TF.SameCoordinates,Original*%
%TF.FileFunction,Paste,Top*%
%TF.FilePolarity,Positive*%
%FSLAX46Y46*%
G04 Gerber Fmt 4.6, Leading zero omitted, Abs format (unit mm)*
G04 Created by KiCad (PCBNEW 9.0.6) date 2025-12-17 18:58:15*
%MOMM*%
%LPD*%
G01*
G04 APERTURE LIST*
G04 Aperture macros list*
%AMRoundRect*
0 Rectangle with rounded corners*
0 $1 Rounding radius*
0 $2 $3 $4 $5 $6 $7 $8 $9 X,Y pos of 4 corners*
0 Add a 4 corners polygon primitive as box body*
4,1,4,$2,$3,$4,$5,$6,$7,$8,$9,$2,$3,0*
0 Add four circle primitives for the rounded corners*
1,1,$1+$1,$2,$3*
1,1,$1+$1,$4,$5*
1,1,$1+$1,$6,$7*
1,1,$1+$1,$8,$9*
0 Add four rect primitives between the rounded corners*
20,1,$1+$1,$2,$3,$4,$5,0*
20,1,$1+$1,$4,$5,$6,$7,0*
20,1,$1+$1,$6,$7,$8,$9,0*
20,1,$1+$1,$8,$9,$2,$3,0*%
G04 Aperture macros list end*
%ADD10C,0.010000*%
%ADD11RoundRect,0.250000X0.412500X0.650000X-0.412500X0.650000X-0.412500X-0.650000X0.412500X-0.650000X0*%
%ADD12RoundRect,0.250000X-0.250000X-0.550000X0.250000X-0.550000X0.250000X0.550000X-0.250000X0.550000X0*%
%ADD13RoundRect,0.075000X0.225000X-0.910000X0.225000X0.910000X-0.225000X0.910000X-0.225000X-0.910000X0*%
%ADD14RoundRect,0.250000X0.650000X-0.412500X0.650000X0.412500X-0.650000X0.412500X-0.650000X-0.412500X0*%
%ADD15RoundRect,0.250003X-2.999997X3.499997X-2.999997X-3.499997X2.999997X-3.499997X2.999997X3.499997X0*%
%ADD16RoundRect,0.250000X-0.400000X-0.625000X0.400000X-0.625000X0.400000X0.625000X-0.400000X0.625000X0*%
%ADD17RoundRect,0.250000X0.400000X0.625000X-0.400000X0.625000X-0.400000X-0.625000X0.400000X-0.625000X0*%
%ADD18R,0.500000X2.000000*%
%ADD19R,2.000000X1.700000*%
%ADD20RoundRect,0.250000X-0.625000X0.400000X-0.625000X-0.400000X0.625000X-0.400000X0.625000X0.400000X0*%
%ADD21RoundRect,0.250000X-0.412500X-0.650000X0.412500X-0.650000X0.412500X0.650000X-0.412500X0.650000X0*%
%ADD22RoundRect,0.250000X0.625000X-0.400000X0.625000X0.400000X-0.625000X0.400000X-0.625000X-0.400000X0*%
%ADD23RoundRect,0.075000X0.074999X0.260000X-0.074999X0.260000X-0.074999X-0.260000X0.074999X-0.260000X0*%
G04 APERTURE END LIST*
D10*
%TO.C,U4*%
X68975000Y-106920000D02*
X67335000Y-106920000D01*
X67335000Y-105630000D01*
X68975000Y-105630000D01*
X68975000Y-106920000D01*
G36*
X68975000Y-106920000D02*
G01*
X67335000Y-106920000D01*
X67335000Y-105630000D01*
X68975000Y-105630000D01*
X68975000Y-106920000D01*
G37*
%TD*%
D11*
%TO.C,C5*%
X72312500Y-92350000D03*
X69187500Y-92350000D03*
%TD*%
D12*
%TO.C,SW3*%
X60441000Y-88000000D03*
X62191000Y-85700000D03*
X63941000Y-88000000D03*
%TD*%
D13*
%TO.C,U4*%
X66250000Y-108750000D03*
X67520000Y-108750000D03*
X68790000Y-108750000D03*
X70060000Y-108750000D03*
X70060000Y-103800000D03*
X68790000Y-103800000D03*
X67520000Y-103800000D03*
X66250000Y-103800000D03*
%TD*%
D14*
%TO.C,C3*%
X53000000Y-82812500D03*
X53000000Y-79687500D03*
%TD*%
D15*
%TO.C,BT1*%
X38750000Y-66810000D03*
X38750000Y-146190000D03*
%TD*%
D16*
%TO.C,R7*%
X61200000Y-98750000D03*
X64300000Y-98750000D03*
%TD*%
D17*
%TO.C,R8*%
X77650000Y-99465500D03*
X74550000Y-99465500D03*
%TD*%
D18*
%TO.C,J1*%
X64392000Y-127775000D03*
X63592000Y-127775000D03*
X62792000Y-127775000D03*
X61992000Y-127775000D03*
X61192000Y-127775000D03*
D19*
X67242000Y-127675000D03*
X67242000Y-122225000D03*
X58342000Y-127675000D03*
X58342000Y-122225000D03*
%TD*%
D16*
%TO.C,R5*%
X104150000Y-102500000D03*
X107250000Y-102500000D03*
%TD*%
D20*
%TO.C,R10*%
X56000000Y-67950000D03*
X56000000Y-71050000D03*
%TD*%
D16*
%TO.C,R4*%
X102700000Y-92500000D03*
X105800000Y-92500000D03*
%TD*%
%TO.C,R6*%
X67400000Y-113250000D03*
X70500000Y-113250000D03*
%TD*%
D21*
%TO.C,C1*%
X80112500Y-94625000D03*
X83237500Y-94625000D03*
%TD*%
D22*
%TO.C,R1*%
X76000000Y-73300000D03*
X76000000Y-70200000D03*
%TD*%
D16*
%TO.C,R9*%
X61450000Y-76500000D03*
X64550000Y-76500000D03*
%TD*%
D23*
%TO.C,U3*%
X62267177Y-70136001D03*
X62767176Y-70136001D03*
X63267178Y-70136001D03*
X63267178Y-68655999D03*
X62767176Y-68655999D03*
X62267177Y-68655999D03*
%TD*%
D17*
%TO.C,R2*%
X119050000Y-131250000D03*
X115950000Y-131250000D03*
%TD*%
%TO.C,R3*%
X109550000Y-116750000D03*
X106450000Y-116750000D03*
%TD*%
M02*
