M48
; DRILL file {KiCad 9.0.6} date 2025-12-17T18:58:08+0100
; FORMAT={-:-/ absolute / metric / decimal}
; #@! TF.CreationDate,2025-12-17T18:58:08+01:00
; #@! TF.GenerationSoftware,Kicad,Pcbnew,9.0.6
; #@! TF.FileFunction,Plated,1,2,PTH
FMAT,2
METRIC
; #@! TA.AperFunction,Plated,PTH,ViaDrill
T1C0.300
; #@! TA.AperFunction,Plated,PTH,ComponentDrill
T2C0.800
; #@! TA.AperFunction,Plated,PTH,ComponentDrill
T3C0.900
; #@! TA.AperFunction,Plated,PTH,ComponentDrill
T4C1.000
; #@! TA.AperFunction,Plated,PTH,ComponentDrill
T5C1.100
; #@! TA.AperFunction,Plated,PTH,ComponentDrill
T6C1.200
; #@! TA.AperFunction,Plated,PTH,ComponentDrill
T7C1.400
; #@! TA.AperFunction,Plated,PTH,ComponentDrill
T8C2.500
%
G90
G05
T1
X66.75Y-110.5
X67.51Y-82.34
X67.562Y-83.712
X68.14Y-100.5
X69.44Y-110.5
X70.71Y-99.5
X88.675Y-106.92
X88.675Y-108.221
X106.5Y-61.0
X106.735Y-59.294
X123.5Y-102.449
X123.5Y-104.9
T2
X74.5Y-125.545
X74.5Y-127.545
X78.279Y-113.015
X78.279Y-120.635
X80.819Y-113.015
X80.819Y-120.635
X83.359Y-113.015
X83.359Y-120.635
X83.5Y-81.045
X83.5Y-83.045
X85.899Y-113.015
X85.899Y-120.635
X91.1Y-96.725
X91.1Y-98.725
X94.35Y-82.75
X96.89Y-80.21
X96.89Y-85.29
X97.51Y-65.88
X97.51Y-73.5
X100.05Y-65.88
X100.05Y-73.5
X102.59Y-65.88
X102.59Y-73.5
X105.13Y-65.88
X105.13Y-73.5
X107.67Y-65.88
X107.67Y-73.5
X110.21Y-65.88
X110.21Y-73.5
X112.75Y-65.88
X112.75Y-73.5
X115.29Y-65.88
X115.29Y-73.5
T3
X57.0Y-105.46
X57.0Y-108.0
X79.34Y-103.82
X79.34Y-106.361
X106.435Y-123.25
X108.975Y-123.25
X115.71Y-123.25
X118.25Y-123.25
T4
X125.25Y-28.05
X125.25Y-30.59
X125.25Y-55.99
X125.25Y-58.53
X125.25Y-61.07
X125.25Y-63.61
X125.25Y-66.15
X125.25Y-68.69
X125.25Y-71.23
X125.25Y-73.77
X125.25Y-76.31
X125.25Y-78.85
X125.25Y-81.39
X125.25Y-83.93
X125.25Y-86.47
X125.25Y-89.01
X125.25Y-91.55
X125.25Y-94.09
X125.25Y-96.63
X125.25Y-99.17
X125.25Y-101.71
X125.25Y-104.25
X125.25Y-106.79
X125.25Y-109.33
X125.25Y-111.87
X125.25Y-114.41
X125.25Y-116.95
X125.25Y-119.49
X125.25Y-122.03
X125.25Y-124.57
X125.25Y-127.11
X125.25Y-129.65
X125.25Y-132.19
X125.25Y-134.73
X125.25Y-137.27
X125.25Y-139.81
X125.25Y-142.35
X125.25Y-144.89
X127.79Y-55.99
X127.79Y-58.53
X127.79Y-61.07
X127.79Y-63.61
X127.79Y-66.15
X127.79Y-68.69
X127.79Y-71.23
X127.79Y-73.77
X127.79Y-76.31
X127.79Y-78.85
X127.79Y-81.39
X127.79Y-83.93
X127.79Y-86.47
X127.79Y-89.01
X127.79Y-91.55
X127.79Y-94.09
X127.79Y-96.63
X127.79Y-99.17
X127.79Y-101.71
X127.79Y-104.25
X127.79Y-106.79
X127.79Y-109.33
X127.79Y-111.87
X127.79Y-114.41
X127.79Y-116.95
X127.79Y-119.49
X127.79Y-122.03
X127.79Y-124.57
X127.79Y-127.11
X127.79Y-129.65
X127.79Y-132.19
X127.79Y-134.73
X127.79Y-137.27
X127.79Y-139.81
X127.79Y-142.35
X127.79Y-144.89
X186.21Y-55.99
X186.21Y-58.53
X186.21Y-61.07
X186.21Y-63.61
X186.21Y-66.15
X186.21Y-68.69
X186.21Y-71.23
X186.21Y-73.77
X186.21Y-76.31
X186.21Y-78.85
X186.21Y-81.39
X186.21Y-83.93
X186.21Y-86.47
X186.21Y-89.01
X186.21Y-91.55
X186.21Y-94.09
X186.21Y-96.63
X186.21Y-99.17
X186.21Y-101.71
X186.21Y-104.25
X186.21Y-106.79
X186.21Y-109.33
X186.21Y-111.87
X186.21Y-114.41
X186.21Y-116.95
X186.21Y-119.49
X186.21Y-122.03
X186.21Y-124.57
X186.21Y-127.11
X186.21Y-129.65
X186.21Y-132.19
X186.21Y-134.73
X186.21Y-137.27
X186.21Y-139.81
X186.21Y-142.35
X186.21Y-144.89
X188.75Y-28.05
X188.75Y-30.59
X188.75Y-55.99
X188.75Y-58.53
X188.75Y-61.07
X188.75Y-63.61
X188.75Y-66.15
X188.75Y-68.69
X188.75Y-71.23
X188.75Y-73.77
X188.75Y-76.31
X188.75Y-78.85
X188.75Y-81.39
X188.75Y-83.93
X188.75Y-86.47
X188.75Y-89.01
X188.75Y-91.55
X188.75Y-94.09
X188.75Y-96.63
X188.75Y-99.17
X188.75Y-101.71
X188.75Y-104.25
X188.75Y-106.79
X188.75Y-109.33
X188.75Y-111.87
X188.75Y-114.41
X188.75Y-116.95
X188.75Y-119.49
X188.75Y-122.03
X188.75Y-124.57
X188.75Y-127.11
X188.75Y-129.65
X188.75Y-132.19
X188.75Y-134.73
X188.75Y-137.27
X188.75Y-139.81
X188.75Y-142.35
X188.75Y-144.89
T5
X83.139Y-126.32
X83.139Y-139.02
X110.75Y-80.0
X110.75Y-86.5
X110.75Y-96.0
X110.75Y-102.5
X115.25Y-80.0
X115.25Y-86.5
X115.25Y-96.0
X115.25Y-102.5
T6
X71.25Y-80.0
X71.25Y-83.0
X73.4Y-57.357
X75.94Y-57.357
X78.48Y-57.357
X81.02Y-57.357
X83.56Y-57.357
X86.1Y-57.357
X88.64Y-57.357
X91.09Y-104.57
X91.09Y-107.57
X91.18Y-57.357
X93.72Y-57.357
X96.26Y-57.357
X98.8Y-57.357
X101.34Y-57.357
X103.88Y-57.357
X106.42Y-57.357
X108.96Y-57.357
X111.5Y-57.357
T7
X92.25Y-126.25
X97.25Y-126.25
T8
X42.0Y-57.357
X42.001Y-26.357
X116.999Y-26.357
X116.999Y-57.357
M30
