%TF.GenerationSoftware,KiCad,Pcbnew,9.0.6*%
%TF.CreationDate,2026-02-06T12:48:54+01:00*%
%TF.ProjectId,Seminar,53656d69-6e61-4722-9e6b-696361645f70,rev?*%
%TF.SameCoordinates,Original*%
%TF.FileFunction,Copper,L1,Top*%
%TF.FilePolarity,Positive*%
%FSLAX46Y46*%
G04 Gerber Fmt 4.6, Leading zero omitted, Abs format (unit mm)*
G04 Created by KiCad (PCBNEW 9.0.6) date 2026-02-06 12:48:54*
%MOMM*%
%LPD*%
G01*
G04 APERTURE LIST*
G04 Aperture macros list*
%AMRoundRect*
0 Rectangle with rounded corners*
0 $1 Rounding radius*
0 $2 $3 $4 $5 $6 $7 $8 $9 X,Y pos of 4 corners*
0 Add a 4 corners polygon primitive as box body*
4,1,4,$2,$3,$4,$5,$6,$7,$8,$9,$2,$3,0*
0 Add four circle primitives for the rounded corners*
1,1,$1+$1,$2,$3*
1,1,$1+$1,$4,$5*
1,1,$1+$1,$6,$7*
1,1,$1+$1,$8,$9*
0 Add four rect primitives between the rounded corners*
20,1,$1+$1,$2,$3,$4,$5,0*
20,1,$1+$1,$4,$5,$6,$7,0*
20,1,$1+$1,$6,$7,$8,$9,0*
20,1,$1+$1,$8,$9,$2,$3,0*%
G04 Aperture macros list end*
%TA.AperFunction,SMDPad,CuDef*%
%ADD10RoundRect,0.250003X-3.499997X-2.999997X3.499997X-2.999997X3.499997X2.999997X-3.499997X2.999997X0*%
%TD*%
%TA.AperFunction,ComponentPad*%
%ADD11O,2.200000X3.500000*%
%TD*%
%TA.AperFunction,ComponentPad*%
%ADD12R,1.500000X2.500000*%
%TD*%
%TA.AperFunction,ComponentPad*%
%ADD13O,1.500000X2.500000*%
%TD*%
%TA.AperFunction,SMDPad,CuDef*%
%ADD14RoundRect,0.250000X0.625000X-0.400000X0.625000X0.400000X-0.625000X0.400000X-0.625000X-0.400000X0*%
%TD*%
%TA.AperFunction,SMDPad,CuDef*%
%ADD15R,2.000000X0.500000*%
%TD*%
%TA.AperFunction,SMDPad,CuDef*%
%ADD16R,1.700000X2.000000*%
%TD*%
%TA.AperFunction,SMDPad,CuDef*%
%ADD17RoundRect,0.250000X-0.650000X0.412500X-0.650000X-0.412500X0.650000X-0.412500X0.650000X0.412500X0*%
%TD*%
%TA.AperFunction,SMDPad,CuDef*%
%ADD18R,1.100000X0.650000*%
%TD*%
%TA.AperFunction,SMDPad,CuDef*%
%ADD19R,1.100000X0.662500*%
%TD*%
%TA.AperFunction,ComponentPad*%
%ADD20R,1.800000X1.800000*%
%TD*%
%TA.AperFunction,ComponentPad*%
%ADD21C,1.800000*%
%TD*%
%TA.AperFunction,ComponentPad*%
%ADD22C,1.440000*%
%TD*%
%TA.AperFunction,SMDPad,CuDef*%
%ADD23RoundRect,0.250000X0.400000X0.625000X-0.400000X0.625000X-0.400000X-0.625000X0.400000X-0.625000X0*%
%TD*%
%TA.AperFunction,ComponentPad*%
%ADD24C,2.400000*%
%TD*%
%TA.AperFunction,SMDPad,CuDef*%
%ADD25RoundRect,0.250000X-0.400000X-0.625000X0.400000X-0.625000X0.400000X0.625000X-0.400000X0.625000X0*%
%TD*%
%TA.AperFunction,ComponentPad*%
%ADD26RoundRect,0.250000X0.550000X-0.550000X0.550000X0.550000X-0.550000X0.550000X-0.550000X-0.550000X0*%
%TD*%
%TA.AperFunction,ComponentPad*%
%ADD27C,1.600000*%
%TD*%
%TA.AperFunction,ComponentPad*%
%ADD28C,3.000000*%
%TD*%
%TA.AperFunction,ComponentPad*%
%ADD29R,1.800000X2.600000*%
%TD*%
%TA.AperFunction,ComponentPad*%
%ADD30O,1.800000X2.600000*%
%TD*%
%TA.AperFunction,SMDPad,CuDef*%
%ADD31RoundRect,0.070000X0.070000X-0.710000X0.070000X0.710000X-0.070000X0.710000X-0.070000X-0.710000X0*%
%TD*%
%TA.AperFunction,SMDPad,CuDef*%
%ADD32RoundRect,0.070000X0.710000X-0.070000X0.710000X0.070000X-0.710000X0.070000X-0.710000X-0.070000X0*%
%TD*%
%TA.AperFunction,ComponentPad*%
%ADD33C,2.000000*%
%TD*%
%TA.AperFunction,SMDPad,CuDef*%
%ADD34RoundRect,0.250000X-0.412500X-0.650000X0.412500X-0.650000X0.412500X0.650000X-0.412500X0.650000X0*%
%TD*%
%TA.AperFunction,SMDPad,CuDef*%
%ADD35RoundRect,0.075000X0.910000X0.225000X-0.910000X0.225000X-0.910000X-0.225000X0.910000X-0.225000X0*%
%TD*%
%TA.AperFunction,SMDPad,CuDef*%
%ADD36R,2.931500X4.101000*%
%TD*%
%TA.AperFunction,SMDPad,CuDef*%
%ADD37RoundRect,0.250000X-0.625000X0.400000X-0.625000X-0.400000X0.625000X-0.400000X0.625000X0.400000X0*%
%TD*%
%TA.AperFunction,ComponentPad*%
%ADD38RoundRect,0.250000X-0.550000X0.550000X-0.550000X-0.550000X0.550000X-0.550000X0.550000X0.550000X0*%
%TD*%
%TA.AperFunction,ViaPad*%
%ADD39C,0.700000*%
%TD*%
%TA.AperFunction,Conductor*%
%ADD40C,0.300000*%
%TD*%
%TA.AperFunction,Conductor*%
%ADD41C,1.000000*%
%TD*%
%TA.AperFunction,Conductor*%
%ADD42C,0.500000*%
%TD*%
G04 APERTURE END LIST*
D10*
%TO.P,BT1,2,-*%
%TO.N,GND*%
X178000000Y-55500000D03*
%TO.P,BT1,1,+*%
%TO.N,+Vin*%
X105370000Y-55500000D03*
%TD*%
D11*
%TO.P,SW3,*%
%TO.N,*%
X124125000Y-85500000D03*
X115925000Y-85500000D03*
D12*
%TO.P,SW3,1,C*%
%TO.N,+Vin*%
X122025000Y-85500000D03*
D13*
%TO.P,SW3,2,B*%
%TO.N,Net-(SW3-B)*%
X120025000Y-85500000D03*
%TO.P,SW3,3,A*%
%TO.N,GND*%
X118025000Y-85500000D03*
%TD*%
D14*
%TO.P,R4,1*%
%TO.N,5V*%
X176025000Y-87050000D03*
%TO.P,R4,2*%
%TO.N,START*%
X176025000Y-83950000D03*
%TD*%
D15*
%TO.P,J1,1,VBUS*%
%TO.N,USB 5V*%
X99475000Y-81950000D03*
%TO.P,J1,2,D-*%
%TO.N,unconnected-(J1-D--Pad2)*%
X99475000Y-82750000D03*
%TO.P,J1,3,D+*%
%TO.N,unconnected-(J1-D+-Pad3)*%
X99475000Y-83550000D03*
%TO.P,J1,4,ID*%
%TO.N,unconnected-(J1-ID-Pad4)*%
X99475000Y-84350000D03*
%TO.P,J1,5,GND*%
%TO.N,GND*%
X99475000Y-85150000D03*
D16*
%TO.P,J1,6,Shield*%
X99375000Y-79100000D03*
X93925000Y-79100000D03*
X99375000Y-88000000D03*
X93925000Y-88000000D03*
%TD*%
D17*
%TO.P,C1,1*%
%TO.N,USB 5V*%
X107775000Y-81987500D03*
%TO.P,C1,2*%
%TO.N,GND*%
X107775000Y-85112500D03*
%TD*%
D14*
%TO.P,R2,1*%
%TO.N,RED*%
X154000000Y-85300000D03*
%TO.P,R2,2*%
%TO.N,Net-(D1-A)*%
X154000000Y-82200000D03*
%TD*%
D18*
%TO.P,U3,1,FB*%
%TO.N,Net-(U3-FB)*%
X118050000Y-91500000D03*
D19*
%TO.P,U3,2,EN*%
%TO.N,Net-(SW3-B)*%
X118000000Y-93000000D03*
D18*
%TO.P,U3,3,VIN*%
%TO.N,+Vin*%
X118050000Y-94500000D03*
%TO.P,U3,4,GND*%
%TO.N,GND*%
X121500000Y-94500000D03*
%TO.P,U3,5,SW*%
%TO.N,Net-(U3-SW)*%
X121500000Y-93000000D03*
%TO.P,U3,6,VOUT*%
%TO.N,5V*%
X121500000Y-91500000D03*
%TD*%
D20*
%TO.P,D1,1,K*%
%TO.N,GND*%
X145475000Y-73250000D03*
D21*
%TO.P,D1,2,A*%
%TO.N,Net-(D1-A)*%
X148015000Y-73250000D03*
%TD*%
D17*
%TO.P,C3,1*%
%TO.N,+Vin*%
X127525000Y-88687500D03*
%TO.P,C3,2*%
%TO.N,GND*%
X127525000Y-91812500D03*
%TD*%
D22*
%TO.P,RV1,1,1*%
%TO.N,5V*%
X121815000Y-101110000D03*
%TO.P,RV1,2,2*%
%TO.N,Net-(DS1-VO)*%
X119275000Y-103650000D03*
%TO.P,RV1,3,3*%
%TO.N,GND*%
X116735000Y-101110000D03*
%TD*%
D23*
%TO.P,R9,1*%
%TO.N,Net-(U3-FB)*%
X110800000Y-88750000D03*
%TO.P,R9,2*%
%TO.N,GND*%
X107700000Y-88750000D03*
%TD*%
D14*
%TO.P,R3,1*%
%TO.N,BLUE*%
X154000000Y-91750000D03*
%TO.P,R3,2*%
%TO.N,Net-(D2-A)*%
X154000000Y-88650000D03*
%TD*%
D20*
%TO.P,D3,1,K*%
%TO.N,Net-(D3-K)*%
X136300000Y-73000000D03*
D21*
%TO.P,D3,2,A*%
%TO.N,USB 5V*%
X133760000Y-73000000D03*
%TD*%
D24*
%TO.P,L1,1*%
%TO.N,+Vin*%
X106750000Y-97750000D03*
%TO.P,L1,2*%
%TO.N,Net-(U3-SW)*%
X106750000Y-94750000D03*
%TD*%
D25*
%TO.P,R6,1*%
%TO.N,Net-(U4-PROG)*%
X129700000Y-79500000D03*
%TO.P,R6,2*%
%TO.N,GND*%
X132800000Y-79500000D03*
%TD*%
D26*
%TO.P,C4,1*%
%TO.N,5V*%
X127250000Y-97705113D03*
D27*
%TO.P,C4,2*%
%TO.N,GND*%
X127250000Y-95705113D03*
%TD*%
D28*
%TO.P,DS1,*%
%TO.N,*%
X104111006Y-112392500D03*
X104111006Y-143393200D03*
X179109586Y-143393200D03*
X179110106Y-112392500D03*
D29*
%TO.P,DS1,1,VSS*%
%TO.N,GND*%
X109610106Y-112392500D03*
D30*
%TO.P,DS1,2,VDD*%
%TO.N,5V*%
X112150106Y-112392500D03*
%TO.P,DS1,3,VO*%
%TO.N,Net-(DS1-VO)*%
X114690106Y-112392500D03*
%TO.P,DS1,4,RS*%
%TO.N,Net-(DS1-RS)*%
X117230106Y-112392500D03*
%TO.P,DS1,5,R/W*%
%TO.N,Net-(DS1-R{slash}W)*%
X119770106Y-112392500D03*
%TO.P,DS1,6,E*%
%TO.N,Net-(DS1-E)*%
X122310106Y-112392500D03*
%TO.P,DS1,7,D0*%
%TO.N,unconnected-(DS1-D0-Pad7)*%
X124850106Y-112392500D03*
%TO.P,DS1,8,D1*%
%TO.N,unconnected-(DS1-D1-Pad8)*%
X127390106Y-112392500D03*
%TO.P,DS1,9,D2*%
%TO.N,unconnected-(DS1-D2-Pad9)*%
X129930106Y-112392500D03*
%TO.P,DS1,10,D3*%
%TO.N,unconnected-(DS1-D3-Pad10)*%
X132470106Y-112392500D03*
%TO.P,DS1,11,D4*%
%TO.N,Net-(DS1-D4)*%
X135010106Y-112392500D03*
%TO.P,DS1,12,D5*%
%TO.N,Net-(DS1-D5)*%
X137550106Y-112392500D03*
%TO.P,DS1,13,D6*%
%TO.N,Net-(DS1-D6)*%
X140090106Y-112392500D03*
%TO.P,DS1,14,D7*%
%TO.N,Net-(DS1-D7)*%
X142630106Y-112392500D03*
%TO.P,DS1,15,LED(+)*%
%TO.N,Net-(DS1-LED(+))*%
X145170106Y-112392500D03*
%TO.P,DS1,16,LED(-)*%
%TO.N,GND*%
X147710106Y-112392500D03*
%TD*%
D31*
%TO.P,U1,1,VBAT*%
%TO.N,unconnected-(U1-VBAT-Pad1)*%
X137201000Y-93430000D03*
%TO.P,U1,2,PC13*%
%TO.N,unconnected-(U1-PC13-Pad2)*%
X137701000Y-93430000D03*
%TO.P,U1,3,PC14*%
%TO.N,unconnected-(U1-PC14-Pad3)*%
X138201000Y-93430000D03*
%TO.P,U1,4,PC15*%
%TO.N,STOP*%
X138701000Y-93430000D03*
%TO.P,U1,5,PH0*%
%TO.N,unconnected-(U1-PH0-Pad5)*%
X139201000Y-93430000D03*
%TO.P,U1,6,PH1*%
%TO.N,unconnected-(U1-PH1-Pad6)*%
X139701000Y-93430000D03*
%TO.P,U1,7,NRST*%
%TO.N,unconnected-(U1-NRST-Pad7)*%
X140201000Y-93430000D03*
%TO.P,U1,8,PC0*%
%TO.N,unconnected-(U1-PC0-Pad8)*%
X140701000Y-93430000D03*
%TO.P,U1,9,PC1*%
%TO.N,unconnected-(U1-PC1-Pad9)*%
X141201000Y-93430000D03*
%TO.P,U1,10,PC2*%
%TO.N,unconnected-(U1-PC2-Pad10)*%
X141701000Y-93430000D03*
%TO.P,U1,11,PC3*%
%TO.N,unconnected-(U1-PC3-Pad11)*%
X142201000Y-93430000D03*
%TO.P,U1,12,VSSA/VREF-*%
%TO.N,unconnected-(U1-VSSA{slash}VREF--Pad12)*%
X142701000Y-93430000D03*
%TO.P,U1,13,VDDA/VREF+*%
%TO.N,unconnected-(U1-VDDA{slash}VREF+-Pad13)*%
X143201000Y-93430000D03*
%TO.P,U1,14,PA0*%
%TO.N,unconnected-(U1-PA0-Pad14)*%
X143701000Y-93430000D03*
%TO.P,U1,15,PA1*%
%TO.N,unconnected-(U1-PA1-Pad15)*%
X144201000Y-93430000D03*
%TO.P,U1,16,PA2*%
%TO.N,unconnected-(U1-PA2-Pad16)*%
X144701000Y-93430000D03*
D32*
%TO.P,U1,17,PA3*%
%TO.N,BLUE*%
X146631000Y-91500000D03*
%TO.P,U1,18,VSS*%
%TO.N,GND*%
X146631000Y-91000000D03*
%TO.P,U1,19,VDD*%
%TO.N,5V*%
X146631000Y-90500000D03*
%TO.P,U1,20,PA4*%
%TO.N,unconnected-(U1-PA4-Pad20)*%
X146631000Y-90000000D03*
%TO.P,U1,21,PA5*%
%TO.N,SDA*%
X146631000Y-89500000D03*
%TO.P,U1,22,PA6*%
%TO.N,unconnected-(U1-PA6-Pad22)*%
X146631000Y-89000000D03*
%TO.P,U1,23,PA7*%
%TO.N,RED*%
X146631000Y-88500000D03*
%TO.P,U1,24,PC4*%
%TO.N,unconnected-(U1-PC4-Pad24)*%
X146631000Y-88000000D03*
%TO.P,U1,25,PC5*%
%TO.N,unconnected-(U1-PC5-Pad25)*%
X146631000Y-87500000D03*
%TO.P,U1,26,PB0*%
%TO.N,unconnected-(U1-PB0-Pad26)*%
X146631000Y-87000000D03*
%TO.P,U1,27,PB1*%
%TO.N,unconnected-(U1-PB1-Pad27)*%
X146631000Y-86500000D03*
%TO.P,U1,28,PB2*%
%TO.N,unconnected-(U1-PB2-Pad28)*%
X146631000Y-86000000D03*
%TO.P,U1,29,PB10*%
%TO.N,unconnected-(U1-PB10-Pad29)*%
X146631000Y-85500000D03*
%TO.P,U1,30,VCAP_1*%
%TO.N,unconnected-(U1-VCAP_1-Pad30)*%
X146631000Y-85000000D03*
%TO.P,U1,31,VSS*%
%TO.N,GND*%
X146631000Y-84500000D03*
%TO.P,U1,32,VDD*%
%TO.N,5V*%
X146631000Y-84000000D03*
D31*
%TO.P,U1,33,PB12*%
%TO.N,unconnected-(U1-PB12-Pad33)*%
X144701000Y-82070000D03*
%TO.P,U1,34,PB13*%
%TO.N,unconnected-(U1-PB13-Pad34)*%
X144201000Y-82070000D03*
%TO.P,U1,35,PB14*%
%TO.N,unconnected-(U1-PB14-Pad35)*%
X143701000Y-82070000D03*
%TO.P,U1,36,PB15*%
%TO.N,unconnected-(U1-PB15-Pad36)*%
X143201000Y-82070000D03*
%TO.P,U1,37,PC6*%
%TO.N,unconnected-(U1-PC6-Pad37)*%
X142701000Y-82070000D03*
%TO.P,U1,38,PC7*%
%TO.N,unconnected-(U1-PC7-Pad38)*%
X142201000Y-82070000D03*
%TO.P,U1,39,PC8*%
%TO.N,unconnected-(U1-PC8-Pad39)*%
X141701000Y-82070000D03*
%TO.P,U1,40,PC9*%
%TO.N,unconnected-(U1-PC9-Pad40)*%
X141201000Y-82070000D03*
%TO.P,U1,41,PA8*%
%TO.N,SCL*%
X140701000Y-82070000D03*
%TO.P,U1,42,PA9*%
%TO.N,unconnected-(U1-PA9-Pad42)*%
X140201000Y-82070000D03*
%TO.P,U1,43,PA10*%
%TO.N,unconnected-(U1-PA10-Pad43)*%
X139701000Y-82070000D03*
%TO.P,U1,44,PA11*%
%TO.N,START*%
X139201000Y-82070000D03*
%TO.P,U1,45,PA12*%
%TO.N,unconnected-(U1-PA12-Pad45)*%
X138701000Y-82070000D03*
%TO.P,U1,46,PA13*%
%TO.N,unconnected-(U1-PA13-Pad46)*%
X138201000Y-82070000D03*
%TO.P,U1,47,VSS*%
%TO.N,GND*%
X137701000Y-82070000D03*
%TO.P,U1,48,VDD*%
%TO.N,5V*%
X137201000Y-82070000D03*
D32*
%TO.P,U1,49,PA14*%
%TO.N,unconnected-(U1-PA14-Pad49)*%
X135271000Y-84000000D03*
%TO.P,U1,50,PA15*%
%TO.N,unconnected-(U1-PA15-Pad50)*%
X135271000Y-84500000D03*
%TO.P,U1,51,PC10*%
%TO.N,unconnected-(U1-PC10-Pad51)*%
X135271000Y-85000000D03*
%TO.P,U1,52,PC11*%
%TO.N,unconnected-(U1-PC11-Pad52)*%
X135271000Y-85500000D03*
%TO.P,U1,53,PC12*%
%TO.N,unconnected-(U1-PC12-Pad53)*%
X135271000Y-86000000D03*
%TO.P,U1,54,PD2*%
%TO.N,unconnected-(U1-PD2-Pad54)*%
X135271000Y-86500000D03*
%TO.P,U1,55,PB3*%
%TO.N,unconnected-(U1-PB3-Pad55)*%
X135271000Y-87000000D03*
%TO.P,U1,56,PB4*%
%TO.N,unconnected-(U1-PB4-Pad56)*%
X135271000Y-87500000D03*
%TO.P,U1,57,PB5*%
%TO.N,unconnected-(U1-PB5-Pad57)*%
X135271000Y-88000000D03*
%TO.P,U1,58,PB6*%
%TO.N,unconnected-(U1-PB6-Pad58)*%
X135271000Y-88500000D03*
%TO.P,U1,59,PB7*%
%TO.N,unconnected-(U1-PB7-Pad59)*%
X135271000Y-89000000D03*
%TO.P,U1,60,BOOT0*%
%TO.N,unconnected-(U1-BOOT0-Pad60)*%
X135271000Y-89500000D03*
%TO.P,U1,61,PB8*%
%TO.N,unconnected-(U1-PB8-Pad61)*%
X135271000Y-90000000D03*
%TO.P,U1,62,PB9*%
%TO.N,unconnected-(U1-PB9-Pad62)*%
X135271000Y-90500000D03*
%TO.P,U1,63,VSS*%
%TO.N,GND*%
X135271000Y-91000000D03*
%TO.P,U1,64,VDD*%
%TO.N,5V*%
X135271000Y-91500000D03*
%TD*%
D20*
%TO.P,D2,1,K*%
%TO.N,GND*%
X155225000Y-73250000D03*
D21*
%TO.P,D2,2,A*%
%TO.N,Net-(D2-A)*%
X157765000Y-73250000D03*
%TD*%
D14*
%TO.P,R10,1*%
%TO.N,5V*%
X113500000Y-96300000D03*
%TO.P,R10,2*%
%TO.N,Net-(U3-FB)*%
X113500000Y-93200000D03*
%TD*%
D33*
%TO.P,SW1,1,1*%
%TO.N,START*%
X164525000Y-83250000D03*
X171025000Y-83250000D03*
%TO.P,SW1,2,2*%
%TO.N,GND*%
X164525000Y-87750000D03*
X171025000Y-87750000D03*
%TD*%
D23*
%TO.P,R8,1*%
%TO.N,Net-(D3-K)*%
X132800000Y-84500000D03*
%TO.P,R8,2*%
%TO.N,CHRG*%
X129700000Y-84500000D03*
%TD*%
D34*
%TO.P,C5,1*%
%TO.N,GND*%
X105712500Y-73000000D03*
%TO.P,C5,2*%
%TO.N,+Vin*%
X108837500Y-73000000D03*
%TD*%
D14*
%TO.P,R5,1*%
%TO.N,5V*%
X176025000Y-99000000D03*
%TO.P,R5,2*%
%TO.N,STOP*%
X176025000Y-95900000D03*
%TD*%
D35*
%TO.P,U4,1,TEMP*%
%TO.N,GND*%
X120775000Y-78175000D03*
%TO.P,U4,2,PROG*%
%TO.N,Net-(U4-PROG)*%
X120775000Y-76500000D03*
%TO.P,U4,3,GND*%
%TO.N,GND*%
X120775000Y-74850000D03*
%TO.P,U4,4,VCC*%
%TO.N,USB 5V*%
X120775000Y-73200000D03*
%TO.P,U4,5,BAT*%
%TO.N,+Vin*%
X112775000Y-73200000D03*
%TO.P,U4,6,~{STDBY}*%
%TO.N,STDBY*%
X112775000Y-74850000D03*
%TO.P,U4,7,~{CHRG}*%
%TO.N,CHRG*%
X112775000Y-76500000D03*
%TO.P,U4,8,CE*%
%TO.N,USB 5V*%
X112775000Y-78175000D03*
D36*
%TO.P,U4,9,EP*%
%TO.N,GND*%
X116775000Y-75650000D03*
%TD*%
D37*
%TO.P,R1,1*%
%TO.N,5V*%
X167775000Y-104200000D03*
%TO.P,R1,2*%
%TO.N,Net-(DS1-LED(+))*%
X167775000Y-107300000D03*
%TD*%
D23*
%TO.P,R7,1*%
%TO.N,Net-(D4-K)*%
X118575000Y-68000000D03*
%TO.P,R7,2*%
%TO.N,STDBY*%
X115475000Y-68000000D03*
%TD*%
D20*
%TO.P,D4,1,K*%
%TO.N,Net-(D4-K)*%
X128525000Y-73000000D03*
D21*
%TO.P,D4,2,A*%
%TO.N,USB 5V*%
X125985000Y-73000000D03*
%TD*%
D38*
%TO.P,U2,1,A0*%
%TO.N,GND*%
X156725000Y-98750000D03*
D27*
%TO.P,U2,2,A1*%
X154185000Y-98750000D03*
%TO.P,U2,3,A2*%
X151645000Y-98750000D03*
%TO.P,U2,4,P0*%
%TO.N,Net-(DS1-RS)*%
X149105000Y-98750000D03*
%TO.P,U2,5,P1*%
%TO.N,Net-(DS1-R{slash}W)*%
X146565000Y-98750000D03*
%TO.P,U2,6,P2*%
%TO.N,Net-(DS1-E)*%
X144025000Y-98750000D03*
%TO.P,U2,7,P3*%
%TO.N,unconnected-(U2-P3-Pad7)*%
X141485000Y-98750000D03*
%TO.P,U2,8,GND*%
%TO.N,GND*%
X138945000Y-98750000D03*
%TO.P,U2,9,P4*%
%TO.N,Net-(DS1-D4)*%
X138945000Y-106370000D03*
%TO.P,U2,10,P5*%
%TO.N,Net-(DS1-D5)*%
X141485000Y-106370000D03*
%TO.P,U2,11,P6*%
%TO.N,Net-(DS1-D6)*%
X144025000Y-106370000D03*
%TO.P,U2,12,P7*%
%TO.N,Net-(DS1-D7)*%
X146565000Y-106370000D03*
%TO.P,U2,13,~{INT}*%
%TO.N,unconnected-(U2-~{INT}-Pad13)*%
X149105000Y-106370000D03*
%TO.P,U2,14,SCL*%
%TO.N,SCL*%
X151645000Y-106370000D03*
%TO.P,U2,15,SDA*%
%TO.N,SDA*%
X154185000Y-106370000D03*
%TO.P,U2,16,VDD*%
%TO.N,5V*%
X156725000Y-106370000D03*
%TD*%
D33*
%TO.P,SW2,1,1*%
%TO.N,STOP*%
X164525000Y-95000000D03*
X171025000Y-95000000D03*
%TO.P,SW2,2,2*%
%TO.N,GND*%
X164525000Y-99500000D03*
X171025000Y-99500000D03*
%TD*%
D39*
%TO.N,GND*%
X148426000Y-83950000D03*
X117500000Y-80750000D03*
X122700000Y-93750000D03*
X148750000Y-88050000D03*
X148400000Y-91000000D03*
X118250000Y-78126000D03*
X148426000Y-82550000D03*
X124800000Y-93750000D03*
%TO.N,Net-(D2-A)*%
X157750000Y-84000000D03*
X157750000Y-82550000D03*
%TO.N,BLUE*%
X147500000Y-92250000D03*
X149250000Y-92300000D03*
%TO.N,STOP*%
X159250000Y-96000000D03*
X157176000Y-96000000D03*
%TO.N,SDA*%
X158576000Y-102250000D03*
X157176000Y-103250000D03*
%TO.N,SCL*%
X147750000Y-100250000D03*
X141176000Y-83549000D03*
X141176000Y-85450000D03*
X143667187Y-90491187D03*
X147750000Y-96250000D03*
X144782137Y-91356137D03*
%TO.N,+Vin*%
X110250000Y-75750000D03*
X110250000Y-78500000D03*
%TO.N,5V*%
X138147324Y-84250000D03*
X136426000Y-82500000D03*
%TO.N,Net-(U3-SW)*%
X116250000Y-92000000D03*
X120500000Y-93500000D03*
%TO.N,STDBY*%
X111500000Y-74250000D03*
X111500000Y-72150000D03*
%TD*%
D40*
%TO.N,Net-(U3-FB)*%
X116991364Y-91500000D02*
X118050000Y-91500000D01*
X114241364Y-88750000D02*
X116991364Y-91500000D01*
D41*
%TO.N,GND*%
X155225000Y-73250000D02*
X172975000Y-55500000D01*
X172975000Y-55500000D02*
X178000000Y-55500000D01*
%TO.N,+Vin*%
X105370000Y-69532500D02*
X108837500Y-73000000D01*
X105370000Y-55500000D02*
X105370000Y-69532500D01*
D42*
%TO.N,GND*%
X118299000Y-78175000D02*
X119300000Y-78175000D01*
D40*
X147876000Y-84500000D02*
X148426000Y-83950000D01*
D42*
X97776000Y-84803000D02*
X98123000Y-85150000D01*
X116775000Y-75650000D02*
X119300000Y-78175000D01*
X99475000Y-85150000D02*
X107737500Y-85150000D01*
X99375000Y-79100000D02*
X99612500Y-79100000D01*
X99375000Y-88000000D02*
X93925000Y-88000000D01*
X116574000Y-83299000D02*
X118025000Y-84750000D01*
D40*
X148426000Y-82550000D02*
X146815000Y-80939000D01*
X137701000Y-81192676D02*
X137701000Y-82070000D01*
X148400000Y-91000000D02*
X146839521Y-91000000D01*
D42*
X116500000Y-83225000D02*
X116574000Y-83299000D01*
D40*
X107700000Y-85187500D02*
X107775000Y-85112500D01*
D42*
X97776000Y-80699000D02*
X97776000Y-84803000D01*
D40*
X137954676Y-80939000D02*
X137701000Y-81192676D01*
X135271000Y-91000000D02*
X136148324Y-91000000D01*
D41*
X107775000Y-85112500D02*
X107586500Y-85301000D01*
D42*
X117500000Y-80750000D02*
X116500000Y-81750000D01*
D40*
X148750000Y-85374000D02*
X148750000Y-88050000D01*
D42*
X107775000Y-85112500D02*
X109588500Y-83299000D01*
X121950000Y-94500000D02*
X122700000Y-93750000D01*
X118025000Y-84750000D02*
X118025000Y-85500000D01*
X125294887Y-93750000D02*
X127232387Y-91812500D01*
D40*
X154185000Y-98750000D02*
X151645000Y-98750000D01*
D42*
X124800000Y-93750000D02*
X125294887Y-93750000D01*
D40*
X136008324Y-79500000D02*
X137701000Y-81192676D01*
X147876000Y-84500000D02*
X148750000Y-85374000D01*
D42*
X99612500Y-79100000D02*
X105712500Y-73000000D01*
X116775000Y-75650000D02*
X119975000Y-75650000D01*
X119975000Y-75650000D02*
X120775000Y-74850000D01*
X99375000Y-88000000D02*
X99375000Y-85250000D01*
X98123000Y-85150000D02*
X99475000Y-85150000D01*
X119300000Y-78175000D02*
X120775000Y-78175000D01*
D40*
X146631000Y-84500000D02*
X147876000Y-84500000D01*
D42*
X116500000Y-81750000D02*
X116500000Y-83225000D01*
X118250000Y-78126000D02*
X118299000Y-78175000D01*
D40*
X137701000Y-82947324D02*
X137701000Y-82070000D01*
D42*
X125294887Y-93750000D02*
X127250000Y-95705113D01*
X121500000Y-94500000D02*
X121950000Y-94500000D01*
X127232387Y-91812500D02*
X127525000Y-91812500D01*
D40*
X107700000Y-88750000D02*
X107700000Y-85187500D01*
D42*
X109588500Y-83299000D02*
X116574000Y-83299000D01*
D40*
X136148324Y-91000000D02*
X137447324Y-89701000D01*
D42*
X99375000Y-79100000D02*
X97776000Y-80699000D01*
D40*
X132800000Y-79500000D02*
X136008324Y-79500000D01*
X137447324Y-89701000D02*
X137447324Y-83201000D01*
X146815000Y-80939000D02*
X137954676Y-80939000D01*
D42*
X93925000Y-79100000D02*
X99375000Y-79100000D01*
X99375000Y-85250000D02*
X99475000Y-85150000D01*
X107737500Y-85150000D02*
X107775000Y-85112500D01*
D40*
X137447324Y-83201000D02*
X137701000Y-82947324D01*
%TO.N,Net-(D1-A)*%
X153690000Y-82200000D02*
X154000000Y-82200000D01*
X154000000Y-82200000D02*
X154000000Y-79235000D01*
X154000000Y-79235000D02*
X148015000Y-73250000D01*
%TO.N,Net-(D2-A)*%
X154000000Y-88650000D02*
X157765000Y-84885000D01*
X157765000Y-82535000D02*
X157765000Y-73250000D01*
X157750000Y-82550000D02*
X157765000Y-82535000D01*
X157765000Y-84015000D02*
X157750000Y-84000000D01*
X157765000Y-84885000D02*
X157765000Y-84015000D01*
%TO.N,Net-(DS1-LED(+))*%
X167554000Y-107521000D02*
X167775000Y-107300000D01*
X146821106Y-114043500D02*
X148456500Y-114043500D01*
X145170106Y-112392500D02*
X146821106Y-114043500D01*
X154979000Y-107521000D02*
X167554000Y-107521000D01*
X148456500Y-114043500D02*
X154979000Y-107521000D01*
%TO.N,Net-(DS1-E)*%
X122310106Y-112392500D02*
X122357500Y-112392500D01*
X122357500Y-112392500D02*
X133847000Y-100903000D01*
X141906281Y-100903000D02*
X144059280Y-98750001D01*
X144059280Y-98750001D02*
X144059280Y-98750000D01*
X133847000Y-100903000D02*
X141906281Y-100903000D01*
X144059280Y-98750000D02*
X144025000Y-98750000D01*
%TO.N,Net-(DS1-VO)*%
X119275000Y-103650000D02*
X119275000Y-107807606D01*
X119275000Y-107807606D02*
X114690106Y-112392500D01*
%TO.N,Net-(DS1-RS)*%
X140334000Y-98273240D02*
X141107240Y-97500000D01*
X143439720Y-96999000D02*
X145522520Y-96999000D01*
X129721606Y-99901000D02*
X139659760Y-99901000D01*
X117230106Y-112392500D02*
X129721606Y-99901000D01*
X142938720Y-97500000D02*
X143439720Y-96999000D01*
X140334000Y-99226760D02*
X140334000Y-98273240D01*
X146023520Y-97500000D02*
X149000000Y-97500000D01*
X139659760Y-99901000D02*
X140334000Y-99226760D01*
X145522520Y-96999000D02*
X146023520Y-97500000D01*
X149000000Y-97500000D02*
X149105000Y-97605000D01*
X141107240Y-97500000D02*
X142938720Y-97500000D01*
X149105000Y-97605000D02*
X149105000Y-98750000D01*
%TO.N,Net-(DS1-D7)*%
X142630106Y-112392500D02*
X142630106Y-110304894D01*
X142630106Y-110304894D02*
X146565000Y-106370000D01*
%TO.N,Net-(DS1-D5)*%
X137550106Y-110304894D02*
X141485000Y-106370000D01*
X137550106Y-112392500D02*
X137550106Y-110304894D01*
%TO.N,Net-(DS1-R{slash}W)*%
X143647240Y-97500000D02*
X145315000Y-97500000D01*
X119770106Y-112392500D02*
X131760606Y-100402000D01*
X142874000Y-98273240D02*
X143647240Y-97500000D01*
X145315000Y-97500000D02*
X146565000Y-98750000D01*
X131760606Y-100402000D02*
X141698760Y-100402000D01*
X142874000Y-99226760D02*
X142874000Y-98273240D01*
X141698760Y-100402000D02*
X142874000Y-99226760D01*
%TO.N,Net-(DS1-D4)*%
X135010106Y-110304894D02*
X138945000Y-106370000D01*
X135010106Y-112392500D02*
X135010106Y-110304894D01*
%TO.N,Net-(DS1-D6)*%
X140090106Y-110304894D02*
X144025000Y-106370000D01*
X140090106Y-112392500D02*
X140090106Y-110304894D01*
%TO.N,RED*%
X146640000Y-88509000D02*
X146631000Y-88500000D01*
X147758324Y-88750000D02*
X147517324Y-88509000D01*
X147517324Y-88509000D02*
X146640000Y-88509000D01*
X154000000Y-85300000D02*
X150550000Y-88750000D01*
X150550000Y-88750000D02*
X147758324Y-88750000D01*
%TO.N,BLUE*%
X147176000Y-92250000D02*
X146631000Y-91705000D01*
X149800000Y-91750000D02*
X154000000Y-91750000D01*
X147500000Y-92250000D02*
X147176000Y-92250000D01*
X149250000Y-92300000D02*
X149800000Y-91750000D01*
X146631000Y-91705000D02*
X146631000Y-91500000D01*
%TO.N,START*%
X164525000Y-83250000D02*
X171025000Y-83250000D01*
X176025000Y-83950000D02*
X171725000Y-83950000D01*
X139883520Y-84249000D02*
X144796156Y-84249000D01*
X144796156Y-84249000D02*
X145795155Y-83250000D01*
X139201000Y-83566480D02*
X139883520Y-84249000D01*
X139201000Y-82070000D02*
X139201000Y-83566480D01*
X171725000Y-83950000D02*
X171025000Y-83250000D01*
X164525000Y-83250000D02*
X145795155Y-83250000D01*
%TO.N,STOP*%
X143232200Y-96498000D02*
X145730040Y-96498000D01*
X156176000Y-97000000D02*
X157176000Y-96000000D01*
X164525000Y-95000000D02*
X171025000Y-95000000D01*
X139000000Y-94750000D02*
X141484200Y-94750000D01*
X138701000Y-93430000D02*
X138701000Y-94451000D01*
X176025000Y-95900000D02*
X171925000Y-95900000D01*
X149207521Y-96999000D02*
X149208520Y-97000000D01*
X171925000Y-95900000D02*
X171025000Y-95000000D01*
X149208520Y-97000000D02*
X156176000Y-97000000D01*
X159250000Y-96000000D02*
X163525000Y-96000000D01*
X138701000Y-94451000D02*
X139000000Y-94750000D01*
X145730040Y-96498000D02*
X146231040Y-96999000D01*
X141484200Y-94750000D02*
X143232200Y-96498000D01*
X146231040Y-96999000D02*
X149207521Y-96999000D01*
X163525000Y-96000000D02*
X164525000Y-95000000D01*
%TO.N,SDA*%
X158549000Y-92340479D02*
X158549000Y-102223000D01*
X146631000Y-89500000D02*
X152968130Y-89500000D01*
X155958521Y-89750000D02*
X158549000Y-92340479D01*
X158549000Y-102223000D02*
X158576000Y-102250000D01*
X157176000Y-103379000D02*
X154185000Y-106370000D01*
X153218130Y-89750000D02*
X155958521Y-89750000D01*
X157176000Y-103250000D02*
X157176000Y-103379000D01*
X152968130Y-89500000D02*
X153218130Y-89750000D01*
%TO.N,SCL*%
X143667187Y-90491187D02*
X141176000Y-88000000D01*
X147750000Y-96250000D02*
X147750000Y-94324000D01*
X140701000Y-83074000D02*
X140701000Y-82070000D01*
X141176000Y-83549000D02*
X140701000Y-83074000D01*
X147750000Y-94324000D02*
X144782137Y-91356137D01*
X151645000Y-104145000D02*
X147750000Y-100250000D01*
X151645000Y-106370000D02*
X151645000Y-104145000D01*
X141176000Y-88000000D02*
X141176000Y-85450000D01*
%TO.N,Net-(D3-K)*%
X136300000Y-73000000D02*
X131799000Y-77501000D01*
X131799000Y-83499000D02*
X132800000Y-84500000D01*
X131799000Y-77501000D02*
X131799000Y-83499000D01*
D41*
%TO.N,+Vin*%
X109949000Y-94551000D02*
X106750000Y-97750000D01*
X110250000Y-73200000D02*
X109037500Y-73200000D01*
X122035500Y-88687500D02*
X119851000Y-90872000D01*
X122962500Y-88687500D02*
X122035500Y-88687500D01*
X110250000Y-78500000D02*
X110250000Y-78593030D01*
X122025000Y-83788661D02*
X122025000Y-85500000D01*
X112775000Y-73200000D02*
X110250000Y-73200000D01*
X118050000Y-94500000D02*
X117999000Y-94551000D01*
X117913339Y-79677000D02*
X122025000Y-83788661D01*
X119851000Y-90872000D02*
X119851000Y-92650000D01*
X110250000Y-73200000D02*
X110250000Y-75750000D01*
X111333970Y-79677000D02*
X117913339Y-79677000D01*
X110250000Y-78593030D02*
X111333970Y-79677000D01*
X119851000Y-92650000D02*
X119251000Y-93250000D01*
X122962500Y-88687500D02*
X122025000Y-87750000D01*
X117999000Y-94551000D02*
X109949000Y-94551000D01*
X119251000Y-93250000D02*
X119251000Y-94032250D01*
X118783250Y-94500000D02*
X118050000Y-94500000D01*
X127525000Y-88687500D02*
X122962500Y-88687500D01*
X122025000Y-87750000D02*
X122025000Y-85500000D01*
X119251000Y-94032250D02*
X118783250Y-94500000D01*
D40*
%TO.N,5V*%
X143648324Y-91500000D02*
X144648324Y-90500000D01*
X157875000Y-96292364D02*
X157877000Y-96290364D01*
X146631000Y-84000000D02*
X145753676Y-84000000D01*
D41*
X118527000Y-96777000D02*
X121815000Y-100065000D01*
D40*
X176025000Y-99000000D02*
X177251000Y-97774000D01*
X159000000Y-104200000D02*
X157875000Y-103075000D01*
D41*
X118527000Y-96300000D02*
X113500000Y-96300000D01*
X118527000Y-96300000D02*
X121977000Y-96300000D01*
D40*
X147758324Y-90250000D02*
X147517324Y-90491000D01*
X177251000Y-97774000D02*
X177251000Y-88276000D01*
X145753676Y-84000000D02*
X145500000Y-84253676D01*
D42*
X112150106Y-109099894D02*
X120140000Y-101110000D01*
D40*
X176025000Y-99000000D02*
X170825000Y-104200000D01*
D41*
X122250000Y-91500000D02*
X121500000Y-91500000D01*
X123750000Y-93000000D02*
X122250000Y-91500000D01*
D40*
X147517324Y-90491000D02*
X146640000Y-90491000D01*
X127250000Y-97705113D02*
X129065887Y-97705113D01*
X159000000Y-104200000D02*
X167775000Y-104200000D01*
X135271000Y-91500000D02*
X143648324Y-91500000D01*
D41*
X121977000Y-96300000D02*
X123750000Y-94527000D01*
D42*
X112150106Y-112392500D02*
X112150106Y-109099894D01*
D40*
X138426000Y-84250000D02*
X138926000Y-84750000D01*
X138147324Y-84250000D02*
X138426000Y-84250000D01*
X145500000Y-90299000D02*
X145701000Y-90500000D01*
X129065887Y-97705113D02*
X135271000Y-91500000D01*
X125219887Y-97705113D02*
X121815000Y-101110000D01*
D41*
X118527000Y-96300000D02*
X118527000Y-96777000D01*
X121815000Y-100065000D02*
X121815000Y-101110000D01*
D40*
X170825000Y-104200000D02*
X167775000Y-104200000D01*
D41*
X123750000Y-94527000D02*
X123750000Y-93000000D01*
D40*
X157876000Y-105219000D02*
X156725000Y-106370000D01*
X146640000Y-90491000D02*
X146631000Y-90500000D01*
X145003676Y-84750000D02*
X145500000Y-84253676D01*
X157877000Y-92377000D02*
X155751000Y-90251000D01*
X157877000Y-96290364D02*
X157877000Y-92377000D01*
X177251000Y-88276000D02*
X176025000Y-87050000D01*
X158895000Y-104200000D02*
X159000000Y-104200000D01*
X145701000Y-90500000D02*
X146631000Y-90500000D01*
X153010610Y-90251000D02*
X153009610Y-90250000D01*
X155751000Y-90251000D02*
X153010610Y-90251000D01*
D42*
X120140000Y-101110000D02*
X121815000Y-101110000D01*
D40*
X144648324Y-90500000D02*
X145701000Y-90500000D01*
X136856000Y-82070000D02*
X137201000Y-82070000D01*
X157875000Y-103075000D02*
X157875000Y-96292364D01*
X145500000Y-84253676D02*
X145500000Y-90299000D01*
X157876000Y-105219000D02*
X158895000Y-104200000D01*
X136426000Y-82500000D02*
X136856000Y-82070000D01*
X153009610Y-90250000D02*
X147758324Y-90250000D01*
X127250000Y-97705113D02*
X125219887Y-97705113D01*
X138926000Y-84750000D02*
X145003676Y-84750000D01*
%TO.N,Net-(D4-K)*%
X123525000Y-68000000D02*
X118575000Y-68000000D01*
X128525000Y-73000000D02*
X123525000Y-68000000D01*
D42*
%TO.N,Net-(U3-SW)*%
X109500000Y-92000000D02*
X106750000Y-94750000D01*
X121500000Y-93000000D02*
X121000000Y-93000000D01*
X116250000Y-92000000D02*
X109500000Y-92000000D01*
X121000000Y-93000000D02*
X120500000Y-93500000D01*
D40*
%TO.N,Net-(U4-PROG)*%
X129700000Y-79500000D02*
X126700000Y-76500000D01*
X126700000Y-76500000D02*
X120775000Y-76500000D01*
%TO.N,Net-(U3-FB)*%
X116350000Y-93200000D02*
X117275000Y-92275000D01*
X113500000Y-93200000D02*
X116350000Y-93200000D01*
X114241364Y-88750000D02*
X110800000Y-88750000D01*
X117275000Y-92275000D02*
X118050000Y-91500000D01*
%TO.N,Net-(SW3-B)*%
X119000000Y-86525000D02*
X120025000Y-85500000D01*
X118000000Y-93000000D02*
X119000000Y-92000000D01*
X119000000Y-92000000D02*
X119000000Y-86525000D01*
D42*
%TO.N,USB 5V*%
X111644044Y-75750000D02*
X114858250Y-75750000D01*
X120475001Y-72900001D02*
X120775000Y-73200000D01*
D41*
X107775000Y-81987500D02*
X107586500Y-81799000D01*
D42*
X99475000Y-81950000D02*
X107737500Y-81950000D01*
X125985000Y-73000000D02*
X127336000Y-74351000D01*
X114858250Y-77076749D02*
X114858250Y-75750000D01*
X115106749Y-72900001D02*
X120475001Y-72900001D01*
X114858250Y-73148500D02*
X115106749Y-72900001D01*
X112775000Y-78175000D02*
X113759999Y-78175000D01*
X121400000Y-73000000D02*
X125985000Y-73000000D01*
X132409000Y-74351000D02*
X133760000Y-73000000D01*
X107775000Y-79619044D02*
X111644044Y-75750000D01*
X127336000Y-74351000D02*
X132409000Y-74351000D01*
X113759999Y-78175000D02*
X114858250Y-77076749D01*
X114858250Y-75750000D02*
X114858250Y-73148500D01*
X107775000Y-81987500D02*
X107775000Y-79619044D01*
X120775000Y-73200000D02*
X121200000Y-73200000D01*
X107737500Y-81950000D02*
X107775000Y-81987500D01*
X121200000Y-73200000D02*
X121400000Y-73000000D01*
D41*
X125785000Y-73200000D02*
X125985000Y-73000000D01*
D40*
%TO.N,STDBY*%
X111500000Y-74250000D02*
X112175000Y-74250000D01*
X115475000Y-68175000D02*
X111500000Y-72150000D01*
X115475000Y-68000000D02*
X115475000Y-68175000D01*
X112175000Y-74250000D02*
X112775000Y-74850000D01*
%TO.N,CHRG*%
X129700000Y-84500000D02*
X124026000Y-78826000D01*
X111439000Y-78578534D02*
X111439000Y-76851001D01*
X111439000Y-76851001D02*
X111790001Y-76500000D01*
X111686466Y-78826000D02*
X111439000Y-78578534D01*
X111790001Y-76500000D02*
X112775000Y-76500000D01*
X124026000Y-78826000D02*
X111686466Y-78826000D01*
%TD*%
M02*
