%TF.GenerationSoftware,KiCad,Pcbnew,9.0.6*%
%TF.CreationDate,2026-01-23T11:35:00+01:00*%
%TF.ProjectId,Seminar,53656d69-6e61-4722-9e6b-696361645f70,rev?*%
%TF.SameCoordinates,Original*%
%TF.FileFunction,Legend,Top*%
%TF.FilePolarity,Positive*%
%FSLAX46Y46*%
G04 Gerber Fmt 4.6, Leading zero omitted, Abs format (unit mm)*
G04 Created by KiCad (PCBNEW 9.0.6) date 2026-01-23 11:35:00*
%MOMM*%
%LPD*%
G01*
G04 APERTURE LIST*
%ADD10C,0.150000*%
%ADD11C,0.200000*%
%ADD12C,0.300000*%
%ADD13C,0.120000*%
%ADD14C,0.127000*%
%ADD15C,0.100000*%
G04 APERTURE END LIST*
D10*
X86408207Y-108024580D02*
X86360588Y-108072200D01*
X86360588Y-108072200D02*
X86217731Y-108119819D01*
X86217731Y-108119819D02*
X86122493Y-108119819D01*
X86122493Y-108119819D02*
X85979636Y-108072200D01*
X85979636Y-108072200D02*
X85884398Y-107976961D01*
X85884398Y-107976961D02*
X85836779Y-107881723D01*
X85836779Y-107881723D02*
X85789160Y-107691247D01*
X85789160Y-107691247D02*
X85789160Y-107548390D01*
X85789160Y-107548390D02*
X85836779Y-107357914D01*
X85836779Y-107357914D02*
X85884398Y-107262676D01*
X85884398Y-107262676D02*
X85979636Y-107167438D01*
X85979636Y-107167438D02*
X86122493Y-107119819D01*
X86122493Y-107119819D02*
X86217731Y-107119819D01*
X86217731Y-107119819D02*
X86360588Y-107167438D01*
X86360588Y-107167438D02*
X86408207Y-107215057D01*
X86836779Y-108119819D02*
X86836779Y-107119819D01*
X86836779Y-107596009D02*
X87408207Y-107596009D01*
X87408207Y-108119819D02*
X87408207Y-107119819D01*
X88455826Y-108119819D02*
X88122493Y-107643628D01*
X87884398Y-108119819D02*
X87884398Y-107119819D01*
X87884398Y-107119819D02*
X88265350Y-107119819D01*
X88265350Y-107119819D02*
X88360588Y-107167438D01*
X88360588Y-107167438D02*
X88408207Y-107215057D01*
X88408207Y-107215057D02*
X88455826Y-107310295D01*
X88455826Y-107310295D02*
X88455826Y-107453152D01*
X88455826Y-107453152D02*
X88408207Y-107548390D01*
X88408207Y-107548390D02*
X88360588Y-107596009D01*
X88360588Y-107596009D02*
X88265350Y-107643628D01*
X88265350Y-107643628D02*
X87884398Y-107643628D01*
X89408207Y-107167438D02*
X89312969Y-107119819D01*
X89312969Y-107119819D02*
X89170112Y-107119819D01*
X89170112Y-107119819D02*
X89027255Y-107167438D01*
X89027255Y-107167438D02*
X88932017Y-107262676D01*
X88932017Y-107262676D02*
X88884398Y-107357914D01*
X88884398Y-107357914D02*
X88836779Y-107548390D01*
X88836779Y-107548390D02*
X88836779Y-107691247D01*
X88836779Y-107691247D02*
X88884398Y-107881723D01*
X88884398Y-107881723D02*
X88932017Y-107976961D01*
X88932017Y-107976961D02*
X89027255Y-108072200D01*
X89027255Y-108072200D02*
X89170112Y-108119819D01*
X89170112Y-108119819D02*
X89265350Y-108119819D01*
X89265350Y-108119819D02*
X89408207Y-108072200D01*
X89408207Y-108072200D02*
X89455826Y-108024580D01*
X89455826Y-108024580D02*
X89455826Y-107691247D01*
X89455826Y-107691247D02*
X89265350Y-107691247D01*
D11*
X125147054Y-125519600D02*
X125289911Y-125567219D01*
X125289911Y-125567219D02*
X125528006Y-125567219D01*
X125528006Y-125567219D02*
X125623244Y-125519600D01*
X125623244Y-125519600D02*
X125670863Y-125471980D01*
X125670863Y-125471980D02*
X125718482Y-125376742D01*
X125718482Y-125376742D02*
X125718482Y-125281504D01*
X125718482Y-125281504D02*
X125670863Y-125186266D01*
X125670863Y-125186266D02*
X125623244Y-125138647D01*
X125623244Y-125138647D02*
X125528006Y-125091028D01*
X125528006Y-125091028D02*
X125337530Y-125043409D01*
X125337530Y-125043409D02*
X125242292Y-124995790D01*
X125242292Y-124995790D02*
X125194673Y-124948171D01*
X125194673Y-124948171D02*
X125147054Y-124852933D01*
X125147054Y-124852933D02*
X125147054Y-124757695D01*
X125147054Y-124757695D02*
X125194673Y-124662457D01*
X125194673Y-124662457D02*
X125242292Y-124614838D01*
X125242292Y-124614838D02*
X125337530Y-124567219D01*
X125337530Y-124567219D02*
X125575625Y-124567219D01*
X125575625Y-124567219D02*
X125718482Y-124614838D01*
X126004197Y-124567219D02*
X126575625Y-124567219D01*
X126289911Y-125567219D02*
X126289911Y-124567219D01*
X127099435Y-124567219D02*
X127289911Y-124567219D01*
X127289911Y-124567219D02*
X127385149Y-124614838D01*
X127385149Y-124614838D02*
X127480387Y-124710076D01*
X127480387Y-124710076D02*
X127528006Y-124900552D01*
X127528006Y-124900552D02*
X127528006Y-125233885D01*
X127528006Y-125233885D02*
X127480387Y-125424361D01*
X127480387Y-125424361D02*
X127385149Y-125519600D01*
X127385149Y-125519600D02*
X127289911Y-125567219D01*
X127289911Y-125567219D02*
X127099435Y-125567219D01*
X127099435Y-125567219D02*
X127004197Y-125519600D01*
X127004197Y-125519600D02*
X126908959Y-125424361D01*
X126908959Y-125424361D02*
X126861340Y-125233885D01*
X126861340Y-125233885D02*
X126861340Y-124900552D01*
X126861340Y-124900552D02*
X126908959Y-124710076D01*
X126908959Y-124710076D02*
X127004197Y-124614838D01*
X127004197Y-124614838D02*
X127099435Y-124567219D01*
X127956578Y-125567219D02*
X127956578Y-124567219D01*
X127956578Y-124567219D02*
X128337530Y-124567219D01*
X128337530Y-124567219D02*
X128432768Y-124614838D01*
X128432768Y-124614838D02*
X128480387Y-124662457D01*
X128480387Y-124662457D02*
X128528006Y-124757695D01*
X128528006Y-124757695D02*
X128528006Y-124900552D01*
X128528006Y-124900552D02*
X128480387Y-124995790D01*
X128480387Y-124995790D02*
X128432768Y-125043409D01*
X128432768Y-125043409D02*
X128337530Y-125091028D01*
X128337530Y-125091028D02*
X127956578Y-125091028D01*
D10*
X81261779Y-150294819D02*
X81261779Y-149294819D01*
X81642731Y-149628152D02*
X81880826Y-150294819D01*
X81880826Y-150294819D02*
X82118921Y-149628152D01*
X82928445Y-150294819D02*
X82928445Y-149771009D01*
X82928445Y-149771009D02*
X82880826Y-149675771D01*
X82880826Y-149675771D02*
X82785588Y-149628152D01*
X82785588Y-149628152D02*
X82595112Y-149628152D01*
X82595112Y-149628152D02*
X82499874Y-149675771D01*
X82928445Y-150247200D02*
X82833207Y-150294819D01*
X82833207Y-150294819D02*
X82595112Y-150294819D01*
X82595112Y-150294819D02*
X82499874Y-150247200D01*
X82499874Y-150247200D02*
X82452255Y-150151961D01*
X82452255Y-150151961D02*
X82452255Y-150056723D01*
X82452255Y-150056723D02*
X82499874Y-149961485D01*
X82499874Y-149961485D02*
X82595112Y-149913866D01*
X82595112Y-149913866D02*
X82833207Y-149913866D01*
X82833207Y-149913866D02*
X82928445Y-149866247D01*
X83404636Y-149628152D02*
X83404636Y-150294819D01*
X83404636Y-149723390D02*
X83452255Y-149675771D01*
X83452255Y-149675771D02*
X83547493Y-149628152D01*
X83547493Y-149628152D02*
X83690350Y-149628152D01*
X83690350Y-149628152D02*
X83785588Y-149675771D01*
X83785588Y-149675771D02*
X83833207Y-149771009D01*
X83833207Y-149771009D02*
X83833207Y-150294819D01*
X85071303Y-150294819D02*
X85071303Y-149294819D01*
X85071303Y-149771009D02*
X85642731Y-149771009D01*
X85642731Y-150294819D02*
X85642731Y-149294819D01*
X86261779Y-150294819D02*
X86166541Y-150247200D01*
X86166541Y-150247200D02*
X86118922Y-150199580D01*
X86118922Y-150199580D02*
X86071303Y-150104342D01*
X86071303Y-150104342D02*
X86071303Y-149818628D01*
X86071303Y-149818628D02*
X86118922Y-149723390D01*
X86118922Y-149723390D02*
X86166541Y-149675771D01*
X86166541Y-149675771D02*
X86261779Y-149628152D01*
X86261779Y-149628152D02*
X86404636Y-149628152D01*
X86404636Y-149628152D02*
X86499874Y-149675771D01*
X86499874Y-149675771D02*
X86547493Y-149723390D01*
X86547493Y-149723390D02*
X86595112Y-149818628D01*
X86595112Y-149818628D02*
X86595112Y-150104342D01*
X86595112Y-150104342D02*
X86547493Y-150199580D01*
X86547493Y-150199580D02*
X86499874Y-150247200D01*
X86499874Y-150247200D02*
X86404636Y-150294819D01*
X86404636Y-150294819D02*
X86261779Y-150294819D01*
X87452255Y-150294819D02*
X87452255Y-149294819D01*
X87452255Y-150247200D02*
X87357017Y-150294819D01*
X87357017Y-150294819D02*
X87166541Y-150294819D01*
X87166541Y-150294819D02*
X87071303Y-150247200D01*
X87071303Y-150247200D02*
X87023684Y-150199580D01*
X87023684Y-150199580D02*
X86976065Y-150104342D01*
X86976065Y-150104342D02*
X86976065Y-149818628D01*
X86976065Y-149818628D02*
X87023684Y-149723390D01*
X87023684Y-149723390D02*
X87071303Y-149675771D01*
X87071303Y-149675771D02*
X87166541Y-149628152D01*
X87166541Y-149628152D02*
X87357017Y-149628152D01*
X87357017Y-149628152D02*
X87452255Y-149675771D01*
X88357017Y-150294819D02*
X88357017Y-149771009D01*
X88357017Y-149771009D02*
X88309398Y-149675771D01*
X88309398Y-149675771D02*
X88214160Y-149628152D01*
X88214160Y-149628152D02*
X88023684Y-149628152D01*
X88023684Y-149628152D02*
X87928446Y-149675771D01*
X88357017Y-150247200D02*
X88261779Y-150294819D01*
X88261779Y-150294819D02*
X88023684Y-150294819D01*
X88023684Y-150294819D02*
X87928446Y-150247200D01*
X87928446Y-150247200D02*
X87880827Y-150151961D01*
X87880827Y-150151961D02*
X87880827Y-150056723D01*
X87880827Y-150056723D02*
X87928446Y-149961485D01*
X87928446Y-149961485D02*
X88023684Y-149913866D01*
X88023684Y-149913866D02*
X88261779Y-149913866D01*
X88261779Y-149913866D02*
X88357017Y-149866247D01*
X88833208Y-150294819D02*
X88833208Y-149294819D01*
X88928446Y-149913866D02*
X89214160Y-150294819D01*
X89214160Y-149628152D02*
X88833208Y-150009104D01*
D12*
X81133082Y-148079400D02*
X81347368Y-148150828D01*
X81347368Y-148150828D02*
X81704510Y-148150828D01*
X81704510Y-148150828D02*
X81847368Y-148079400D01*
X81847368Y-148079400D02*
X81918796Y-148007971D01*
X81918796Y-148007971D02*
X81990225Y-147865114D01*
X81990225Y-147865114D02*
X81990225Y-147722257D01*
X81990225Y-147722257D02*
X81918796Y-147579400D01*
X81918796Y-147579400D02*
X81847368Y-147507971D01*
X81847368Y-147507971D02*
X81704510Y-147436542D01*
X81704510Y-147436542D02*
X81418796Y-147365114D01*
X81418796Y-147365114D02*
X81275939Y-147293685D01*
X81275939Y-147293685D02*
X81204510Y-147222257D01*
X81204510Y-147222257D02*
X81133082Y-147079400D01*
X81133082Y-147079400D02*
X81133082Y-146936542D01*
X81133082Y-146936542D02*
X81204510Y-146793685D01*
X81204510Y-146793685D02*
X81275939Y-146722257D01*
X81275939Y-146722257D02*
X81418796Y-146650828D01*
X81418796Y-146650828D02*
X81775939Y-146650828D01*
X81775939Y-146650828D02*
X81990225Y-146722257D01*
X81275939Y-146079400D02*
X81561653Y-146293685D01*
X81561653Y-146293685D02*
X81847368Y-146079400D01*
X82418796Y-147150828D02*
X82990224Y-147150828D01*
X82633081Y-146650828D02*
X82633081Y-147936542D01*
X82633081Y-147936542D02*
X82704510Y-148079400D01*
X82704510Y-148079400D02*
X82847367Y-148150828D01*
X82847367Y-148150828D02*
X82990224Y-148150828D01*
X83704510Y-148150828D02*
X83561653Y-148079400D01*
X83561653Y-148079400D02*
X83490224Y-148007971D01*
X83490224Y-148007971D02*
X83418796Y-147865114D01*
X83418796Y-147865114D02*
X83418796Y-147436542D01*
X83418796Y-147436542D02*
X83490224Y-147293685D01*
X83490224Y-147293685D02*
X83561653Y-147222257D01*
X83561653Y-147222257D02*
X83704510Y-147150828D01*
X83704510Y-147150828D02*
X83918796Y-147150828D01*
X83918796Y-147150828D02*
X84061653Y-147222257D01*
X84061653Y-147222257D02*
X84133082Y-147293685D01*
X84133082Y-147293685D02*
X84204510Y-147436542D01*
X84204510Y-147436542D02*
X84204510Y-147865114D01*
X84204510Y-147865114D02*
X84133082Y-148007971D01*
X84133082Y-148007971D02*
X84061653Y-148079400D01*
X84061653Y-148079400D02*
X83918796Y-148150828D01*
X83918796Y-148150828D02*
X83704510Y-148150828D01*
X84847367Y-147150828D02*
X84847367Y-148650828D01*
X84847367Y-147222257D02*
X84990225Y-147150828D01*
X84990225Y-147150828D02*
X85275939Y-147150828D01*
X85275939Y-147150828D02*
X85418796Y-147222257D01*
X85418796Y-147222257D02*
X85490225Y-147293685D01*
X85490225Y-147293685D02*
X85561653Y-147436542D01*
X85561653Y-147436542D02*
X85561653Y-147865114D01*
X85561653Y-147865114D02*
X85490225Y-148007971D01*
X85490225Y-148007971D02*
X85418796Y-148079400D01*
X85418796Y-148079400D02*
X85275939Y-148150828D01*
X85275939Y-148150828D02*
X84990225Y-148150828D01*
X84990225Y-148150828D02*
X84847367Y-148079400D01*
X86775939Y-148079400D02*
X86633082Y-148150828D01*
X86633082Y-148150828D02*
X86347368Y-148150828D01*
X86347368Y-148150828D02*
X86204510Y-148079400D01*
X86204510Y-148079400D02*
X86133082Y-147936542D01*
X86133082Y-147936542D02*
X86133082Y-147365114D01*
X86133082Y-147365114D02*
X86204510Y-147222257D01*
X86204510Y-147222257D02*
X86347368Y-147150828D01*
X86347368Y-147150828D02*
X86633082Y-147150828D01*
X86633082Y-147150828D02*
X86775939Y-147222257D01*
X86775939Y-147222257D02*
X86847368Y-147365114D01*
X86847368Y-147365114D02*
X86847368Y-147507971D01*
X86847368Y-147507971D02*
X86133082Y-147650828D01*
X87490224Y-148150828D02*
X87490224Y-147150828D01*
X87490224Y-147436542D02*
X87561653Y-147293685D01*
X87561653Y-147293685D02*
X87633082Y-147222257D01*
X87633082Y-147222257D02*
X87775939Y-147150828D01*
X87775939Y-147150828D02*
X87918796Y-147150828D01*
X88418795Y-148150828D02*
X88418795Y-147150828D01*
X88418795Y-146650828D02*
X88347367Y-146722257D01*
X88347367Y-146722257D02*
X88418795Y-146793685D01*
X88418795Y-146793685D02*
X88490224Y-146722257D01*
X88490224Y-146722257D02*
X88418795Y-146650828D01*
X88418795Y-146650828D02*
X88418795Y-146793685D01*
X89775939Y-148079400D02*
X89633081Y-148150828D01*
X89633081Y-148150828D02*
X89347367Y-148150828D01*
X89347367Y-148150828D02*
X89204510Y-148079400D01*
X89204510Y-148079400D02*
X89133081Y-148007971D01*
X89133081Y-148007971D02*
X89061653Y-147865114D01*
X89061653Y-147865114D02*
X89061653Y-147436542D01*
X89061653Y-147436542D02*
X89133081Y-147293685D01*
X89133081Y-147293685D02*
X89204510Y-147222257D01*
X89204510Y-147222257D02*
X89347367Y-147150828D01*
X89347367Y-147150828D02*
X89633081Y-147150828D01*
X89633081Y-147150828D02*
X89775939Y-147222257D01*
X91061653Y-148150828D02*
X91061653Y-147365114D01*
X91061653Y-147365114D02*
X90990224Y-147222257D01*
X90990224Y-147222257D02*
X90847367Y-147150828D01*
X90847367Y-147150828D02*
X90561653Y-147150828D01*
X90561653Y-147150828D02*
X90418795Y-147222257D01*
X91061653Y-148079400D02*
X90918795Y-148150828D01*
X90918795Y-148150828D02*
X90561653Y-148150828D01*
X90561653Y-148150828D02*
X90418795Y-148079400D01*
X90418795Y-148079400D02*
X90347367Y-147936542D01*
X90347367Y-147936542D02*
X90347367Y-147793685D01*
X90347367Y-147793685D02*
X90418795Y-147650828D01*
X90418795Y-147650828D02*
X90561653Y-147579400D01*
X90561653Y-147579400D02*
X90918795Y-147579400D01*
X90918795Y-147579400D02*
X91061653Y-147507971D01*
X92775938Y-147150828D02*
X93133081Y-148150828D01*
X93133081Y-148150828D02*
X93490224Y-147150828D01*
X94847367Y-148150828D02*
X93990224Y-148150828D01*
X94418795Y-148150828D02*
X94418795Y-146650828D01*
X94418795Y-146650828D02*
X94275938Y-146865114D01*
X94275938Y-146865114D02*
X94133081Y-147007971D01*
X94133081Y-147007971D02*
X93990224Y-147079400D01*
X95490223Y-148007971D02*
X95561652Y-148079400D01*
X95561652Y-148079400D02*
X95490223Y-148150828D01*
X95490223Y-148150828D02*
X95418795Y-148079400D01*
X95418795Y-148079400D02*
X95490223Y-148007971D01*
X95490223Y-148007971D02*
X95490223Y-148150828D01*
X96490224Y-146650828D02*
X96633081Y-146650828D01*
X96633081Y-146650828D02*
X96775938Y-146722257D01*
X96775938Y-146722257D02*
X96847367Y-146793685D01*
X96847367Y-146793685D02*
X96918795Y-146936542D01*
X96918795Y-146936542D02*
X96990224Y-147222257D01*
X96990224Y-147222257D02*
X96990224Y-147579400D01*
X96990224Y-147579400D02*
X96918795Y-147865114D01*
X96918795Y-147865114D02*
X96847367Y-148007971D01*
X96847367Y-148007971D02*
X96775938Y-148079400D01*
X96775938Y-148079400D02*
X96633081Y-148150828D01*
X96633081Y-148150828D02*
X96490224Y-148150828D01*
X96490224Y-148150828D02*
X96347367Y-148079400D01*
X96347367Y-148079400D02*
X96275938Y-148007971D01*
X96275938Y-148007971D02*
X96204509Y-147865114D01*
X96204509Y-147865114D02*
X96133081Y-147579400D01*
X96133081Y-147579400D02*
X96133081Y-147222257D01*
X96133081Y-147222257D02*
X96204509Y-146936542D01*
X96204509Y-146936542D02*
X96275938Y-146793685D01*
X96275938Y-146793685D02*
X96347367Y-146722257D01*
X96347367Y-146722257D02*
X96490224Y-146650828D01*
X125983082Y-85229400D02*
X126197368Y-85300828D01*
X126197368Y-85300828D02*
X126554510Y-85300828D01*
X126554510Y-85300828D02*
X126697368Y-85229400D01*
X126697368Y-85229400D02*
X126768796Y-85157971D01*
X126768796Y-85157971D02*
X126840225Y-85015114D01*
X126840225Y-85015114D02*
X126840225Y-84872257D01*
X126840225Y-84872257D02*
X126768796Y-84729400D01*
X126768796Y-84729400D02*
X126697368Y-84657971D01*
X126697368Y-84657971D02*
X126554510Y-84586542D01*
X126554510Y-84586542D02*
X126268796Y-84515114D01*
X126268796Y-84515114D02*
X126125939Y-84443685D01*
X126125939Y-84443685D02*
X126054510Y-84372257D01*
X126054510Y-84372257D02*
X125983082Y-84229400D01*
X125983082Y-84229400D02*
X125983082Y-84086542D01*
X125983082Y-84086542D02*
X126054510Y-83943685D01*
X126054510Y-83943685D02*
X126125939Y-83872257D01*
X126125939Y-83872257D02*
X126268796Y-83800828D01*
X126268796Y-83800828D02*
X126625939Y-83800828D01*
X126625939Y-83800828D02*
X126840225Y-83872257D01*
X127483081Y-84515114D02*
X127983081Y-84515114D01*
X128197367Y-85300828D02*
X127483081Y-85300828D01*
X127483081Y-85300828D02*
X127483081Y-83800828D01*
X127483081Y-83800828D02*
X128197367Y-83800828D01*
X128840224Y-85300828D02*
X128840224Y-83800828D01*
X129697367Y-85300828D02*
X129054510Y-84443685D01*
X129697367Y-83800828D02*
X128840224Y-84657971D01*
X108804510Y-85300828D02*
X108804510Y-83800828D01*
X108804510Y-83800828D02*
X109304510Y-84872257D01*
X109304510Y-84872257D02*
X109804510Y-83800828D01*
X109804510Y-83800828D02*
X109804510Y-85300828D01*
X110518796Y-85300828D02*
X110518796Y-83800828D01*
X111233082Y-85300828D02*
X111233082Y-83800828D01*
X111233082Y-83800828D02*
X112090225Y-85300828D01*
X112090225Y-85300828D02*
X112090225Y-83800828D01*
D10*
X62814160Y-109872200D02*
X62957017Y-109919819D01*
X62957017Y-109919819D02*
X63195112Y-109919819D01*
X63195112Y-109919819D02*
X63290350Y-109872200D01*
X63290350Y-109872200D02*
X63337969Y-109824580D01*
X63337969Y-109824580D02*
X63385588Y-109729342D01*
X63385588Y-109729342D02*
X63385588Y-109634104D01*
X63385588Y-109634104D02*
X63337969Y-109538866D01*
X63337969Y-109538866D02*
X63290350Y-109491247D01*
X63290350Y-109491247D02*
X63195112Y-109443628D01*
X63195112Y-109443628D02*
X63004636Y-109396009D01*
X63004636Y-109396009D02*
X62909398Y-109348390D01*
X62909398Y-109348390D02*
X62861779Y-109300771D01*
X62861779Y-109300771D02*
X62814160Y-109205533D01*
X62814160Y-109205533D02*
X62814160Y-109110295D01*
X62814160Y-109110295D02*
X62861779Y-109015057D01*
X62861779Y-109015057D02*
X62909398Y-108967438D01*
X62909398Y-108967438D02*
X63004636Y-108919819D01*
X63004636Y-108919819D02*
X63242731Y-108919819D01*
X63242731Y-108919819D02*
X63385588Y-108967438D01*
X63671303Y-108919819D02*
X64242731Y-108919819D01*
X63957017Y-109919819D02*
X63957017Y-108919819D01*
X64576065Y-109919819D02*
X64576065Y-108919819D01*
X64576065Y-108919819D02*
X64814160Y-108919819D01*
X64814160Y-108919819D02*
X64957017Y-108967438D01*
X64957017Y-108967438D02*
X65052255Y-109062676D01*
X65052255Y-109062676D02*
X65099874Y-109157914D01*
X65099874Y-109157914D02*
X65147493Y-109348390D01*
X65147493Y-109348390D02*
X65147493Y-109491247D01*
X65147493Y-109491247D02*
X65099874Y-109681723D01*
X65099874Y-109681723D02*
X65052255Y-109776961D01*
X65052255Y-109776961D02*
X64957017Y-109872200D01*
X64957017Y-109872200D02*
X64814160Y-109919819D01*
X64814160Y-109919819D02*
X64576065Y-109919819D01*
X65909398Y-109396009D02*
X66052255Y-109443628D01*
X66052255Y-109443628D02*
X66099874Y-109491247D01*
X66099874Y-109491247D02*
X66147493Y-109586485D01*
X66147493Y-109586485D02*
X66147493Y-109729342D01*
X66147493Y-109729342D02*
X66099874Y-109824580D01*
X66099874Y-109824580D02*
X66052255Y-109872200D01*
X66052255Y-109872200D02*
X65957017Y-109919819D01*
X65957017Y-109919819D02*
X65576065Y-109919819D01*
X65576065Y-109919819D02*
X65576065Y-108919819D01*
X65576065Y-108919819D02*
X65909398Y-108919819D01*
X65909398Y-108919819D02*
X66004636Y-108967438D01*
X66004636Y-108967438D02*
X66052255Y-109015057D01*
X66052255Y-109015057D02*
X66099874Y-109110295D01*
X66099874Y-109110295D02*
X66099874Y-109205533D01*
X66099874Y-109205533D02*
X66052255Y-109300771D01*
X66052255Y-109300771D02*
X66004636Y-109348390D01*
X66004636Y-109348390D02*
X65909398Y-109396009D01*
X65909398Y-109396009D02*
X65576065Y-109396009D01*
X66766541Y-109443628D02*
X66766541Y-109919819D01*
X66433208Y-108919819D02*
X66766541Y-109443628D01*
X66766541Y-109443628D02*
X67099874Y-108919819D01*
D11*
X108747054Y-125569600D02*
X108889911Y-125617219D01*
X108889911Y-125617219D02*
X109128006Y-125617219D01*
X109128006Y-125617219D02*
X109223244Y-125569600D01*
X109223244Y-125569600D02*
X109270863Y-125521980D01*
X109270863Y-125521980D02*
X109318482Y-125426742D01*
X109318482Y-125426742D02*
X109318482Y-125331504D01*
X109318482Y-125331504D02*
X109270863Y-125236266D01*
X109270863Y-125236266D02*
X109223244Y-125188647D01*
X109223244Y-125188647D02*
X109128006Y-125141028D01*
X109128006Y-125141028D02*
X108937530Y-125093409D01*
X108937530Y-125093409D02*
X108842292Y-125045790D01*
X108842292Y-125045790D02*
X108794673Y-124998171D01*
X108794673Y-124998171D02*
X108747054Y-124902933D01*
X108747054Y-124902933D02*
X108747054Y-124807695D01*
X108747054Y-124807695D02*
X108794673Y-124712457D01*
X108794673Y-124712457D02*
X108842292Y-124664838D01*
X108842292Y-124664838D02*
X108937530Y-124617219D01*
X108937530Y-124617219D02*
X109175625Y-124617219D01*
X109175625Y-124617219D02*
X109318482Y-124664838D01*
X109604197Y-124617219D02*
X110175625Y-124617219D01*
X109889911Y-125617219D02*
X109889911Y-124617219D01*
X110461340Y-125331504D02*
X110937530Y-125331504D01*
X110366102Y-125617219D02*
X110699435Y-124617219D01*
X110699435Y-124617219D02*
X111032768Y-125617219D01*
X111937530Y-125617219D02*
X111604197Y-125141028D01*
X111366102Y-125617219D02*
X111366102Y-124617219D01*
X111366102Y-124617219D02*
X111747054Y-124617219D01*
X111747054Y-124617219D02*
X111842292Y-124664838D01*
X111842292Y-124664838D02*
X111889911Y-124712457D01*
X111889911Y-124712457D02*
X111937530Y-124807695D01*
X111937530Y-124807695D02*
X111937530Y-124950552D01*
X111937530Y-124950552D02*
X111889911Y-125045790D01*
X111889911Y-125045790D02*
X111842292Y-125093409D01*
X111842292Y-125093409D02*
X111747054Y-125141028D01*
X111747054Y-125141028D02*
X111366102Y-125141028D01*
X112223245Y-124617219D02*
X112794673Y-124617219D01*
X112508959Y-125617219D02*
X112508959Y-124617219D01*
D10*
X78483333Y-93034580D02*
X78435714Y-93082200D01*
X78435714Y-93082200D02*
X78292857Y-93129819D01*
X78292857Y-93129819D02*
X78197619Y-93129819D01*
X78197619Y-93129819D02*
X78054762Y-93082200D01*
X78054762Y-93082200D02*
X77959524Y-92986961D01*
X77959524Y-92986961D02*
X77911905Y-92891723D01*
X77911905Y-92891723D02*
X77864286Y-92701247D01*
X77864286Y-92701247D02*
X77864286Y-92558390D01*
X77864286Y-92558390D02*
X77911905Y-92367914D01*
X77911905Y-92367914D02*
X77959524Y-92272676D01*
X77959524Y-92272676D02*
X78054762Y-92177438D01*
X78054762Y-92177438D02*
X78197619Y-92129819D01*
X78197619Y-92129819D02*
X78292857Y-92129819D01*
X78292857Y-92129819D02*
X78435714Y-92177438D01*
X78435714Y-92177438D02*
X78483333Y-92225057D01*
X79388095Y-92129819D02*
X78911905Y-92129819D01*
X78911905Y-92129819D02*
X78864286Y-92606009D01*
X78864286Y-92606009D02*
X78911905Y-92558390D01*
X78911905Y-92558390D02*
X79007143Y-92510771D01*
X79007143Y-92510771D02*
X79245238Y-92510771D01*
X79245238Y-92510771D02*
X79340476Y-92558390D01*
X79340476Y-92558390D02*
X79388095Y-92606009D01*
X79388095Y-92606009D02*
X79435714Y-92701247D01*
X79435714Y-92701247D02*
X79435714Y-92939342D01*
X79435714Y-92939342D02*
X79388095Y-93034580D01*
X79388095Y-93034580D02*
X79340476Y-93082200D01*
X79340476Y-93082200D02*
X79245238Y-93129819D01*
X79245238Y-93129819D02*
X79007143Y-93129819D01*
X79007143Y-93129819D02*
X78911905Y-93082200D01*
X78911905Y-93082200D02*
X78864286Y-93034580D01*
X62157200Y-89583332D02*
X62204819Y-89440475D01*
X62204819Y-89440475D02*
X62204819Y-89202380D01*
X62204819Y-89202380D02*
X62157200Y-89107142D01*
X62157200Y-89107142D02*
X62109580Y-89059523D01*
X62109580Y-89059523D02*
X62014342Y-89011904D01*
X62014342Y-89011904D02*
X61919104Y-89011904D01*
X61919104Y-89011904D02*
X61823866Y-89059523D01*
X61823866Y-89059523D02*
X61776247Y-89107142D01*
X61776247Y-89107142D02*
X61728628Y-89202380D01*
X61728628Y-89202380D02*
X61681009Y-89392856D01*
X61681009Y-89392856D02*
X61633390Y-89488094D01*
X61633390Y-89488094D02*
X61585771Y-89535713D01*
X61585771Y-89535713D02*
X61490533Y-89583332D01*
X61490533Y-89583332D02*
X61395295Y-89583332D01*
X61395295Y-89583332D02*
X61300057Y-89535713D01*
X61300057Y-89535713D02*
X61252438Y-89488094D01*
X61252438Y-89488094D02*
X61204819Y-89392856D01*
X61204819Y-89392856D02*
X61204819Y-89154761D01*
X61204819Y-89154761D02*
X61252438Y-89011904D01*
X61204819Y-88678570D02*
X62204819Y-88440475D01*
X62204819Y-88440475D02*
X61490533Y-88249999D01*
X61490533Y-88249999D02*
X62204819Y-88059523D01*
X62204819Y-88059523D02*
X61204819Y-87821428D01*
X61204819Y-87535713D02*
X61204819Y-86916666D01*
X61204819Y-86916666D02*
X61585771Y-87249999D01*
X61585771Y-87249999D02*
X61585771Y-87107142D01*
X61585771Y-87107142D02*
X61633390Y-87011904D01*
X61633390Y-87011904D02*
X61681009Y-86964285D01*
X61681009Y-86964285D02*
X61776247Y-86916666D01*
X61776247Y-86916666D02*
X62014342Y-86916666D01*
X62014342Y-86916666D02*
X62109580Y-86964285D01*
X62109580Y-86964285D02*
X62157200Y-87011904D01*
X62157200Y-87011904D02*
X62204819Y-87107142D01*
X62204819Y-87107142D02*
X62204819Y-87392856D01*
X62204819Y-87392856D02*
X62157200Y-87488094D01*
X62157200Y-87488094D02*
X62109580Y-87535713D01*
X92859580Y-78411554D02*
X92907200Y-78459173D01*
X92907200Y-78459173D02*
X92954819Y-78602030D01*
X92954819Y-78602030D02*
X92954819Y-78697268D01*
X92954819Y-78697268D02*
X92907200Y-78840125D01*
X92907200Y-78840125D02*
X92811961Y-78935363D01*
X92811961Y-78935363D02*
X92716723Y-78982982D01*
X92716723Y-78982982D02*
X92526247Y-79030601D01*
X92526247Y-79030601D02*
X92383390Y-79030601D01*
X92383390Y-79030601D02*
X92192914Y-78982982D01*
X92192914Y-78982982D02*
X92097676Y-78935363D01*
X92097676Y-78935363D02*
X92002438Y-78840125D01*
X92002438Y-78840125D02*
X91954819Y-78697268D01*
X91954819Y-78697268D02*
X91954819Y-78602030D01*
X91954819Y-78602030D02*
X92002438Y-78459173D01*
X92002438Y-78459173D02*
X92050057Y-78411554D01*
X92288152Y-77554411D02*
X92954819Y-77554411D01*
X91907200Y-77792506D02*
X92621485Y-78030601D01*
X92621485Y-78030601D02*
X92621485Y-77411554D01*
X72147819Y-106306904D02*
X72957342Y-106306904D01*
X72957342Y-106306904D02*
X73052580Y-106259285D01*
X73052580Y-106259285D02*
X73100200Y-106211666D01*
X73100200Y-106211666D02*
X73147819Y-106116428D01*
X73147819Y-106116428D02*
X73147819Y-105925952D01*
X73147819Y-105925952D02*
X73100200Y-105830714D01*
X73100200Y-105830714D02*
X73052580Y-105783095D01*
X73052580Y-105783095D02*
X72957342Y-105735476D01*
X72957342Y-105735476D02*
X72147819Y-105735476D01*
X72481152Y-104830714D02*
X73147819Y-104830714D01*
X72100200Y-105068809D02*
X72814485Y-105306904D01*
X72814485Y-105306904D02*
X72814485Y-104687857D01*
X56759580Y-77616666D02*
X56807200Y-77664285D01*
X56807200Y-77664285D02*
X56854819Y-77807142D01*
X56854819Y-77807142D02*
X56854819Y-77902380D01*
X56854819Y-77902380D02*
X56807200Y-78045237D01*
X56807200Y-78045237D02*
X56711961Y-78140475D01*
X56711961Y-78140475D02*
X56616723Y-78188094D01*
X56616723Y-78188094D02*
X56426247Y-78235713D01*
X56426247Y-78235713D02*
X56283390Y-78235713D01*
X56283390Y-78235713D02*
X56092914Y-78188094D01*
X56092914Y-78188094D02*
X55997676Y-78140475D01*
X55997676Y-78140475D02*
X55902438Y-78045237D01*
X55902438Y-78045237D02*
X55854819Y-77902380D01*
X55854819Y-77902380D02*
X55854819Y-77807142D01*
X55854819Y-77807142D02*
X55902438Y-77664285D01*
X55902438Y-77664285D02*
X55950057Y-77616666D01*
X55854819Y-77283332D02*
X55854819Y-76664285D01*
X55854819Y-76664285D02*
X56235771Y-76997618D01*
X56235771Y-76997618D02*
X56235771Y-76854761D01*
X56235771Y-76854761D02*
X56283390Y-76759523D01*
X56283390Y-76759523D02*
X56331009Y-76711904D01*
X56331009Y-76711904D02*
X56426247Y-76664285D01*
X56426247Y-76664285D02*
X56664342Y-76664285D01*
X56664342Y-76664285D02*
X56759580Y-76711904D01*
X56759580Y-76711904D02*
X56807200Y-76759523D01*
X56807200Y-76759523D02*
X56854819Y-76854761D01*
X56854819Y-76854761D02*
X56854819Y-77140475D01*
X56854819Y-77140475D02*
X56807200Y-77235713D01*
X56807200Y-77235713D02*
X56759580Y-77283332D01*
X53431009Y-103485714D02*
X53478628Y-103342857D01*
X53478628Y-103342857D02*
X53526247Y-103295238D01*
X53526247Y-103295238D02*
X53621485Y-103247619D01*
X53621485Y-103247619D02*
X53764342Y-103247619D01*
X53764342Y-103247619D02*
X53859580Y-103295238D01*
X53859580Y-103295238D02*
X53907200Y-103342857D01*
X53907200Y-103342857D02*
X53954819Y-103438095D01*
X53954819Y-103438095D02*
X53954819Y-103819047D01*
X53954819Y-103819047D02*
X52954819Y-103819047D01*
X52954819Y-103819047D02*
X52954819Y-103485714D01*
X52954819Y-103485714D02*
X53002438Y-103390476D01*
X53002438Y-103390476D02*
X53050057Y-103342857D01*
X53050057Y-103342857D02*
X53145295Y-103295238D01*
X53145295Y-103295238D02*
X53240533Y-103295238D01*
X53240533Y-103295238D02*
X53335771Y-103342857D01*
X53335771Y-103342857D02*
X53383390Y-103390476D01*
X53383390Y-103390476D02*
X53431009Y-103485714D01*
X53431009Y-103485714D02*
X53431009Y-103819047D01*
X52954819Y-102961904D02*
X52954819Y-102390476D01*
X53954819Y-102676190D02*
X52954819Y-102676190D01*
X53954819Y-101533333D02*
X53954819Y-102104761D01*
X53954819Y-101819047D02*
X52954819Y-101819047D01*
X52954819Y-101819047D02*
X53097676Y-101914285D01*
X53097676Y-101914285D02*
X53192914Y-102009523D01*
X53192914Y-102009523D02*
X53240533Y-102104761D01*
X49155533Y-63461904D02*
X49155533Y-61938095D01*
X49917438Y-62699999D02*
X48393628Y-62699999D01*
X134388095Y-146504819D02*
X134388095Y-145504819D01*
X134388095Y-145981009D02*
X134959523Y-145981009D01*
X134959523Y-146504819D02*
X134959523Y-145504819D01*
X135340476Y-145504819D02*
X135959523Y-145504819D01*
X135959523Y-145504819D02*
X135626190Y-145885771D01*
X135626190Y-145885771D02*
X135769047Y-145885771D01*
X135769047Y-145885771D02*
X135864285Y-145933390D01*
X135864285Y-145933390D02*
X135911904Y-145981009D01*
X135911904Y-145981009D02*
X135959523Y-146076247D01*
X135959523Y-146076247D02*
X135959523Y-146314342D01*
X135959523Y-146314342D02*
X135911904Y-146409580D01*
X135911904Y-146409580D02*
X135864285Y-146457200D01*
X135864285Y-146457200D02*
X135769047Y-146504819D01*
X135769047Y-146504819D02*
X135483333Y-146504819D01*
X135483333Y-146504819D02*
X135388095Y-146457200D01*
X135388095Y-146457200D02*
X135340476Y-146409580D01*
X70533333Y-95679819D02*
X70200000Y-95203628D01*
X69961905Y-95679819D02*
X69961905Y-94679819D01*
X69961905Y-94679819D02*
X70342857Y-94679819D01*
X70342857Y-94679819D02*
X70438095Y-94727438D01*
X70438095Y-94727438D02*
X70485714Y-94775057D01*
X70485714Y-94775057D02*
X70533333Y-94870295D01*
X70533333Y-94870295D02*
X70533333Y-95013152D01*
X70533333Y-95013152D02*
X70485714Y-95108390D01*
X70485714Y-95108390D02*
X70438095Y-95156009D01*
X70438095Y-95156009D02*
X70342857Y-95203628D01*
X70342857Y-95203628D02*
X69961905Y-95203628D01*
X70866667Y-94679819D02*
X71533333Y-94679819D01*
X71533333Y-94679819D02*
X71104762Y-95679819D01*
X77583333Y-129264692D02*
X77535714Y-129312312D01*
X77535714Y-129312312D02*
X77392857Y-129359931D01*
X77392857Y-129359931D02*
X77297619Y-129359931D01*
X77297619Y-129359931D02*
X77154762Y-129312312D01*
X77154762Y-129312312D02*
X77059524Y-129217073D01*
X77059524Y-129217073D02*
X77011905Y-129121835D01*
X77011905Y-129121835D02*
X76964286Y-128931359D01*
X76964286Y-128931359D02*
X76964286Y-128788502D01*
X76964286Y-128788502D02*
X77011905Y-128598026D01*
X77011905Y-128598026D02*
X77059524Y-128502788D01*
X77059524Y-128502788D02*
X77154762Y-128407550D01*
X77154762Y-128407550D02*
X77297619Y-128359931D01*
X77297619Y-128359931D02*
X77392857Y-128359931D01*
X77392857Y-128359931D02*
X77535714Y-128407550D01*
X77535714Y-128407550D02*
X77583333Y-128455169D01*
X78535714Y-129359931D02*
X77964286Y-129359931D01*
X78250000Y-129359931D02*
X78250000Y-128359931D01*
X78250000Y-128359931D02*
X78154762Y-128502788D01*
X78154762Y-128502788D02*
X78059524Y-128598026D01*
X78059524Y-128598026D02*
X77964286Y-128645645D01*
X134313095Y-30379819D02*
X134313095Y-29379819D01*
X134313095Y-29856009D02*
X134884523Y-29856009D01*
X134884523Y-30379819D02*
X134884523Y-29379819D01*
X135789285Y-29713152D02*
X135789285Y-30379819D01*
X135551190Y-29332200D02*
X135313095Y-30046485D01*
X135313095Y-30046485D02*
X135932142Y-30046485D01*
X83833333Y-100225319D02*
X83500000Y-99749128D01*
X83261905Y-100225319D02*
X83261905Y-99225319D01*
X83261905Y-99225319D02*
X83642857Y-99225319D01*
X83642857Y-99225319D02*
X83738095Y-99272938D01*
X83738095Y-99272938D02*
X83785714Y-99320557D01*
X83785714Y-99320557D02*
X83833333Y-99415795D01*
X83833333Y-99415795D02*
X83833333Y-99558652D01*
X83833333Y-99558652D02*
X83785714Y-99653890D01*
X83785714Y-99653890D02*
X83738095Y-99701509D01*
X83738095Y-99701509D02*
X83642857Y-99749128D01*
X83642857Y-99749128D02*
X83261905Y-99749128D01*
X84404762Y-99653890D02*
X84309524Y-99606271D01*
X84309524Y-99606271D02*
X84261905Y-99558652D01*
X84261905Y-99558652D02*
X84214286Y-99463414D01*
X84214286Y-99463414D02*
X84214286Y-99415795D01*
X84214286Y-99415795D02*
X84261905Y-99320557D01*
X84261905Y-99320557D02*
X84309524Y-99272938D01*
X84309524Y-99272938D02*
X84404762Y-99225319D01*
X84404762Y-99225319D02*
X84595238Y-99225319D01*
X84595238Y-99225319D02*
X84690476Y-99272938D01*
X84690476Y-99272938D02*
X84738095Y-99320557D01*
X84738095Y-99320557D02*
X84785714Y-99415795D01*
X84785714Y-99415795D02*
X84785714Y-99463414D01*
X84785714Y-99463414D02*
X84738095Y-99558652D01*
X84738095Y-99558652D02*
X84690476Y-99606271D01*
X84690476Y-99606271D02*
X84595238Y-99653890D01*
X84595238Y-99653890D02*
X84404762Y-99653890D01*
X84404762Y-99653890D02*
X84309524Y-99701509D01*
X84309524Y-99701509D02*
X84261905Y-99749128D01*
X84261905Y-99749128D02*
X84214286Y-99844366D01*
X84214286Y-99844366D02*
X84214286Y-100034842D01*
X84214286Y-100034842D02*
X84261905Y-100130080D01*
X84261905Y-100130080D02*
X84309524Y-100177700D01*
X84309524Y-100177700D02*
X84404762Y-100225319D01*
X84404762Y-100225319D02*
X84595238Y-100225319D01*
X84595238Y-100225319D02*
X84690476Y-100177700D01*
X84690476Y-100177700D02*
X84738095Y-100130080D01*
X84738095Y-100130080D02*
X84785714Y-100034842D01*
X84785714Y-100034842D02*
X84785714Y-99844366D01*
X84785714Y-99844366D02*
X84738095Y-99749128D01*
X84738095Y-99749128D02*
X84690476Y-99701509D01*
X84690476Y-99701509D02*
X84595238Y-99653890D01*
X67916666Y-144204819D02*
X67916666Y-144919104D01*
X67916666Y-144919104D02*
X67869047Y-145061961D01*
X67869047Y-145061961D02*
X67773809Y-145157200D01*
X67773809Y-145157200D02*
X67630952Y-145204819D01*
X67630952Y-145204819D02*
X67535714Y-145204819D01*
X68916666Y-145204819D02*
X68345238Y-145204819D01*
X68630952Y-145204819D02*
X68630952Y-144204819D01*
X68630952Y-144204819D02*
X68535714Y-144347676D01*
X68535714Y-144347676D02*
X68440476Y-144442914D01*
X68440476Y-144442914D02*
X68345238Y-144490533D01*
X133054513Y-104446972D02*
X132578322Y-104780305D01*
X133054513Y-105018400D02*
X132054513Y-105018400D01*
X132054513Y-105018400D02*
X132054513Y-104637448D01*
X132054513Y-104637448D02*
X132102132Y-104542210D01*
X132102132Y-104542210D02*
X132149751Y-104494591D01*
X132149751Y-104494591D02*
X132244989Y-104446972D01*
X132244989Y-104446972D02*
X132387846Y-104446972D01*
X132387846Y-104446972D02*
X132483084Y-104494591D01*
X132483084Y-104494591D02*
X132530703Y-104542210D01*
X132530703Y-104542210D02*
X132578322Y-104637448D01*
X132578322Y-104637448D02*
X132578322Y-105018400D01*
X132054513Y-103542210D02*
X132054513Y-104018400D01*
X132054513Y-104018400D02*
X132530703Y-104066019D01*
X132530703Y-104066019D02*
X132483084Y-104018400D01*
X132483084Y-104018400D02*
X132435465Y-103923162D01*
X132435465Y-103923162D02*
X132435465Y-103685067D01*
X132435465Y-103685067D02*
X132483084Y-103589829D01*
X132483084Y-103589829D02*
X132530703Y-103542210D01*
X132530703Y-103542210D02*
X132625941Y-103494591D01*
X132625941Y-103494591D02*
X132864036Y-103494591D01*
X132864036Y-103494591D02*
X132959274Y-103542210D01*
X132959274Y-103542210D02*
X133006894Y-103589829D01*
X133006894Y-103589829D02*
X133054513Y-103685067D01*
X133054513Y-103685067D02*
X133054513Y-103923162D01*
X133054513Y-103923162D02*
X133006894Y-104018400D01*
X133006894Y-104018400D02*
X132959274Y-104066019D01*
X106764513Y-89973400D02*
X105764513Y-89973400D01*
X105764513Y-89973400D02*
X105764513Y-89735305D01*
X105764513Y-89735305D02*
X105812132Y-89592448D01*
X105812132Y-89592448D02*
X105907370Y-89497210D01*
X105907370Y-89497210D02*
X106002608Y-89449591D01*
X106002608Y-89449591D02*
X106193084Y-89401972D01*
X106193084Y-89401972D02*
X106335941Y-89401972D01*
X106335941Y-89401972D02*
X106526417Y-89449591D01*
X106526417Y-89449591D02*
X106621655Y-89497210D01*
X106621655Y-89497210D02*
X106716894Y-89592448D01*
X106716894Y-89592448D02*
X106764513Y-89735305D01*
X106764513Y-89735305D02*
X106764513Y-89973400D01*
X106764513Y-88449591D02*
X106764513Y-89021019D01*
X106764513Y-88735305D02*
X105764513Y-88735305D01*
X105764513Y-88735305D02*
X105907370Y-88830543D01*
X105907370Y-88830543D02*
X106002608Y-88925781D01*
X106002608Y-88925781D02*
X106050227Y-89021019D01*
X63534819Y-66342857D02*
X63058628Y-66676190D01*
X63534819Y-66914285D02*
X62534819Y-66914285D01*
X62534819Y-66914285D02*
X62534819Y-66533333D01*
X62534819Y-66533333D02*
X62582438Y-66438095D01*
X62582438Y-66438095D02*
X62630057Y-66390476D01*
X62630057Y-66390476D02*
X62725295Y-66342857D01*
X62725295Y-66342857D02*
X62868152Y-66342857D01*
X62868152Y-66342857D02*
X62963390Y-66390476D01*
X62963390Y-66390476D02*
X63011009Y-66438095D01*
X63011009Y-66438095D02*
X63058628Y-66533333D01*
X63058628Y-66533333D02*
X63058628Y-66914285D01*
X63534819Y-65390476D02*
X63534819Y-65961904D01*
X63534819Y-65676190D02*
X62534819Y-65676190D01*
X62534819Y-65676190D02*
X62677676Y-65771428D01*
X62677676Y-65771428D02*
X62772914Y-65866666D01*
X62772914Y-65866666D02*
X62820533Y-65961904D01*
X62534819Y-64771428D02*
X62534819Y-64676190D01*
X62534819Y-64676190D02*
X62582438Y-64580952D01*
X62582438Y-64580952D02*
X62630057Y-64533333D01*
X62630057Y-64533333D02*
X62725295Y-64485714D01*
X62725295Y-64485714D02*
X62915771Y-64438095D01*
X62915771Y-64438095D02*
X63153866Y-64438095D01*
X63153866Y-64438095D02*
X63344342Y-64485714D01*
X63344342Y-64485714D02*
X63439580Y-64533333D01*
X63439580Y-64533333D02*
X63487200Y-64580952D01*
X63487200Y-64580952D02*
X63534819Y-64676190D01*
X63534819Y-64676190D02*
X63534819Y-64771428D01*
X63534819Y-64771428D02*
X63487200Y-64866666D01*
X63487200Y-64866666D02*
X63439580Y-64914285D01*
X63439580Y-64914285D02*
X63344342Y-64961904D01*
X63344342Y-64961904D02*
X63153866Y-65009523D01*
X63153866Y-65009523D02*
X62915771Y-65009523D01*
X62915771Y-65009523D02*
X62725295Y-64961904D01*
X62725295Y-64961904D02*
X62630057Y-64914285D01*
X62630057Y-64914285D02*
X62582438Y-64866666D01*
X62582438Y-64866666D02*
X62534819Y-64771428D01*
X109054513Y-104396972D02*
X108578322Y-104730305D01*
X109054513Y-104968400D02*
X108054513Y-104968400D01*
X108054513Y-104968400D02*
X108054513Y-104587448D01*
X108054513Y-104587448D02*
X108102132Y-104492210D01*
X108102132Y-104492210D02*
X108149751Y-104444591D01*
X108149751Y-104444591D02*
X108244989Y-104396972D01*
X108244989Y-104396972D02*
X108387846Y-104396972D01*
X108387846Y-104396972D02*
X108483084Y-104444591D01*
X108483084Y-104444591D02*
X108530703Y-104492210D01*
X108530703Y-104492210D02*
X108578322Y-104587448D01*
X108578322Y-104587448D02*
X108578322Y-104968400D01*
X108387846Y-103539829D02*
X109054513Y-103539829D01*
X108006894Y-103777924D02*
X108721179Y-104016019D01*
X108721179Y-104016019D02*
X108721179Y-103396972D01*
X95584319Y-116062404D02*
X96393842Y-116062404D01*
X96393842Y-116062404D02*
X96489080Y-116014785D01*
X96489080Y-116014785D02*
X96536700Y-115967166D01*
X96536700Y-115967166D02*
X96584319Y-115871928D01*
X96584319Y-115871928D02*
X96584319Y-115681452D01*
X96584319Y-115681452D02*
X96536700Y-115586214D01*
X96536700Y-115586214D02*
X96489080Y-115538595D01*
X96489080Y-115538595D02*
X96393842Y-115490976D01*
X96393842Y-115490976D02*
X95584319Y-115490976D01*
X95584319Y-115110023D02*
X95584319Y-114490976D01*
X95584319Y-114490976D02*
X95965271Y-114824309D01*
X95965271Y-114824309D02*
X95965271Y-114681452D01*
X95965271Y-114681452D02*
X96012890Y-114586214D01*
X96012890Y-114586214D02*
X96060509Y-114538595D01*
X96060509Y-114538595D02*
X96155747Y-114490976D01*
X96155747Y-114490976D02*
X96393842Y-114490976D01*
X96393842Y-114490976D02*
X96489080Y-114538595D01*
X96489080Y-114538595D02*
X96536700Y-114586214D01*
X96536700Y-114586214D02*
X96584319Y-114681452D01*
X96584319Y-114681452D02*
X96584319Y-114967166D01*
X96584319Y-114967166D02*
X96536700Y-115062404D01*
X96536700Y-115062404D02*
X96489080Y-115110023D01*
X109341667Y-124007200D02*
X109484524Y-124054819D01*
X109484524Y-124054819D02*
X109722619Y-124054819D01*
X109722619Y-124054819D02*
X109817857Y-124007200D01*
X109817857Y-124007200D02*
X109865476Y-123959580D01*
X109865476Y-123959580D02*
X109913095Y-123864342D01*
X109913095Y-123864342D02*
X109913095Y-123769104D01*
X109913095Y-123769104D02*
X109865476Y-123673866D01*
X109865476Y-123673866D02*
X109817857Y-123626247D01*
X109817857Y-123626247D02*
X109722619Y-123578628D01*
X109722619Y-123578628D02*
X109532143Y-123531009D01*
X109532143Y-123531009D02*
X109436905Y-123483390D01*
X109436905Y-123483390D02*
X109389286Y-123435771D01*
X109389286Y-123435771D02*
X109341667Y-123340533D01*
X109341667Y-123340533D02*
X109341667Y-123245295D01*
X109341667Y-123245295D02*
X109389286Y-123150057D01*
X109389286Y-123150057D02*
X109436905Y-123102438D01*
X109436905Y-123102438D02*
X109532143Y-123054819D01*
X109532143Y-123054819D02*
X109770238Y-123054819D01*
X109770238Y-123054819D02*
X109913095Y-123102438D01*
X110246429Y-123054819D02*
X110484524Y-124054819D01*
X110484524Y-124054819D02*
X110675000Y-123340533D01*
X110675000Y-123340533D02*
X110865476Y-124054819D01*
X110865476Y-124054819D02*
X111103572Y-123054819D01*
X112008333Y-124054819D02*
X111436905Y-124054819D01*
X111722619Y-124054819D02*
X111722619Y-123054819D01*
X111722619Y-123054819D02*
X111627381Y-123197676D01*
X111627381Y-123197676D02*
X111532143Y-123292914D01*
X111532143Y-123292914D02*
X111436905Y-123340533D01*
X105754819Y-79545238D02*
X105278628Y-79878571D01*
X105754819Y-80116666D02*
X104754819Y-80116666D01*
X104754819Y-80116666D02*
X104754819Y-79735714D01*
X104754819Y-79735714D02*
X104802438Y-79640476D01*
X104802438Y-79640476D02*
X104850057Y-79592857D01*
X104850057Y-79592857D02*
X104945295Y-79545238D01*
X104945295Y-79545238D02*
X105088152Y-79545238D01*
X105088152Y-79545238D02*
X105183390Y-79592857D01*
X105183390Y-79592857D02*
X105231009Y-79640476D01*
X105231009Y-79640476D02*
X105278628Y-79735714D01*
X105278628Y-79735714D02*
X105278628Y-80116666D01*
X104754819Y-79259523D02*
X105754819Y-78926190D01*
X105754819Y-78926190D02*
X104754819Y-78592857D01*
X105754819Y-77735714D02*
X105754819Y-78307142D01*
X105754819Y-78021428D02*
X104754819Y-78021428D01*
X104754819Y-78021428D02*
X104897676Y-78116666D01*
X104897676Y-78116666D02*
X104992914Y-78211904D01*
X104992914Y-78211904D02*
X105040533Y-78307142D01*
X76683333Y-110349819D02*
X76350000Y-109873628D01*
X76111905Y-110349819D02*
X76111905Y-109349819D01*
X76111905Y-109349819D02*
X76492857Y-109349819D01*
X76492857Y-109349819D02*
X76588095Y-109397438D01*
X76588095Y-109397438D02*
X76635714Y-109445057D01*
X76635714Y-109445057D02*
X76683333Y-109540295D01*
X76683333Y-109540295D02*
X76683333Y-109683152D01*
X76683333Y-109683152D02*
X76635714Y-109778390D01*
X76635714Y-109778390D02*
X76588095Y-109826009D01*
X76588095Y-109826009D02*
X76492857Y-109873628D01*
X76492857Y-109873628D02*
X76111905Y-109873628D01*
X77540476Y-109349819D02*
X77350000Y-109349819D01*
X77350000Y-109349819D02*
X77254762Y-109397438D01*
X77254762Y-109397438D02*
X77207143Y-109445057D01*
X77207143Y-109445057D02*
X77111905Y-109587914D01*
X77111905Y-109587914D02*
X77064286Y-109778390D01*
X77064286Y-109778390D02*
X77064286Y-110159342D01*
X77064286Y-110159342D02*
X77111905Y-110254580D01*
X77111905Y-110254580D02*
X77159524Y-110302200D01*
X77159524Y-110302200D02*
X77254762Y-110349819D01*
X77254762Y-110349819D02*
X77445238Y-110349819D01*
X77445238Y-110349819D02*
X77540476Y-110302200D01*
X77540476Y-110302200D02*
X77588095Y-110254580D01*
X77588095Y-110254580D02*
X77635714Y-110159342D01*
X77635714Y-110159342D02*
X77635714Y-109921247D01*
X77635714Y-109921247D02*
X77588095Y-109826009D01*
X77588095Y-109826009D02*
X77540476Y-109778390D01*
X77540476Y-109778390D02*
X77445238Y-109730771D01*
X77445238Y-109730771D02*
X77254762Y-109730771D01*
X77254762Y-109730771D02*
X77159524Y-109778390D01*
X77159524Y-109778390D02*
X77111905Y-109826009D01*
X77111905Y-109826009D02*
X77064286Y-109921247D01*
X89408333Y-91609580D02*
X89360714Y-91657200D01*
X89360714Y-91657200D02*
X89217857Y-91704819D01*
X89217857Y-91704819D02*
X89122619Y-91704819D01*
X89122619Y-91704819D02*
X88979762Y-91657200D01*
X88979762Y-91657200D02*
X88884524Y-91561961D01*
X88884524Y-91561961D02*
X88836905Y-91466723D01*
X88836905Y-91466723D02*
X88789286Y-91276247D01*
X88789286Y-91276247D02*
X88789286Y-91133390D01*
X88789286Y-91133390D02*
X88836905Y-90942914D01*
X88836905Y-90942914D02*
X88884524Y-90847676D01*
X88884524Y-90847676D02*
X88979762Y-90752438D01*
X88979762Y-90752438D02*
X89122619Y-90704819D01*
X89122619Y-90704819D02*
X89217857Y-90704819D01*
X89217857Y-90704819D02*
X89360714Y-90752438D01*
X89360714Y-90752438D02*
X89408333Y-90800057D01*
X90360714Y-91704819D02*
X89789286Y-91704819D01*
X90075000Y-91704819D02*
X90075000Y-90704819D01*
X90075000Y-90704819D02*
X89979762Y-90847676D01*
X89979762Y-90847676D02*
X89884524Y-90942914D01*
X89884524Y-90942914D02*
X89789286Y-90990533D01*
X121335715Y-110328196D02*
X121335715Y-111138637D01*
X121335715Y-111138637D02*
X121383388Y-111233983D01*
X121383388Y-111233983D02*
X121431061Y-111281657D01*
X121431061Y-111281657D02*
X121526407Y-111329330D01*
X121526407Y-111329330D02*
X121717099Y-111329330D01*
X121717099Y-111329330D02*
X121812445Y-111281657D01*
X121812445Y-111281657D02*
X121860118Y-111233983D01*
X121860118Y-111233983D02*
X121907791Y-111138637D01*
X121907791Y-111138637D02*
X121907791Y-110328196D01*
X122908925Y-111329330D02*
X122336849Y-111329330D01*
X122622887Y-111329330D02*
X122622887Y-110328196D01*
X122622887Y-110328196D02*
X122527541Y-110471215D01*
X122527541Y-110471215D02*
X122432195Y-110566561D01*
X122432195Y-110566561D02*
X122336849Y-110614234D01*
X95609580Y-96366666D02*
X95657200Y-96414285D01*
X95657200Y-96414285D02*
X95704819Y-96557142D01*
X95704819Y-96557142D02*
X95704819Y-96652380D01*
X95704819Y-96652380D02*
X95657200Y-96795237D01*
X95657200Y-96795237D02*
X95561961Y-96890475D01*
X95561961Y-96890475D02*
X95466723Y-96938094D01*
X95466723Y-96938094D02*
X95276247Y-96985713D01*
X95276247Y-96985713D02*
X95133390Y-96985713D01*
X95133390Y-96985713D02*
X94942914Y-96938094D01*
X94942914Y-96938094D02*
X94847676Y-96890475D01*
X94847676Y-96890475D02*
X94752438Y-96795237D01*
X94752438Y-96795237D02*
X94704819Y-96652380D01*
X94704819Y-96652380D02*
X94704819Y-96557142D01*
X94704819Y-96557142D02*
X94752438Y-96414285D01*
X94752438Y-96414285D02*
X94800057Y-96366666D01*
X94800057Y-95985713D02*
X94752438Y-95938094D01*
X94752438Y-95938094D02*
X94704819Y-95842856D01*
X94704819Y-95842856D02*
X94704819Y-95604761D01*
X94704819Y-95604761D02*
X94752438Y-95509523D01*
X94752438Y-95509523D02*
X94800057Y-95461904D01*
X94800057Y-95461904D02*
X94895295Y-95414285D01*
X94895295Y-95414285D02*
X94990533Y-95414285D01*
X94990533Y-95414285D02*
X95133390Y-95461904D01*
X95133390Y-95461904D02*
X95704819Y-96033332D01*
X95704819Y-96033332D02*
X95704819Y-95414285D01*
X79874819Y-68116666D02*
X79398628Y-68449999D01*
X79874819Y-68688094D02*
X78874819Y-68688094D01*
X78874819Y-68688094D02*
X78874819Y-68307142D01*
X78874819Y-68307142D02*
X78922438Y-68211904D01*
X78922438Y-68211904D02*
X78970057Y-68164285D01*
X78970057Y-68164285D02*
X79065295Y-68116666D01*
X79065295Y-68116666D02*
X79208152Y-68116666D01*
X79208152Y-68116666D02*
X79303390Y-68164285D01*
X79303390Y-68164285D02*
X79351009Y-68211904D01*
X79351009Y-68211904D02*
X79398628Y-68307142D01*
X79398628Y-68307142D02*
X79398628Y-68688094D01*
X79874819Y-67164285D02*
X79874819Y-67735713D01*
X79874819Y-67449999D02*
X78874819Y-67449999D01*
X78874819Y-67449999D02*
X79017676Y-67545237D01*
X79017676Y-67545237D02*
X79112914Y-67640475D01*
X79112914Y-67640475D02*
X79160533Y-67735713D01*
X68083333Y-71324819D02*
X67750000Y-70848628D01*
X67511905Y-71324819D02*
X67511905Y-70324819D01*
X67511905Y-70324819D02*
X67892857Y-70324819D01*
X67892857Y-70324819D02*
X67988095Y-70372438D01*
X67988095Y-70372438D02*
X68035714Y-70420057D01*
X68035714Y-70420057D02*
X68083333Y-70515295D01*
X68083333Y-70515295D02*
X68083333Y-70658152D01*
X68083333Y-70658152D02*
X68035714Y-70753390D01*
X68035714Y-70753390D02*
X67988095Y-70801009D01*
X67988095Y-70801009D02*
X67892857Y-70848628D01*
X67892857Y-70848628D02*
X67511905Y-70848628D01*
X68559524Y-71324819D02*
X68750000Y-71324819D01*
X68750000Y-71324819D02*
X68845238Y-71277200D01*
X68845238Y-71277200D02*
X68892857Y-71229580D01*
X68892857Y-71229580D02*
X68988095Y-71086723D01*
X68988095Y-71086723D02*
X69035714Y-70896247D01*
X69035714Y-70896247D02*
X69035714Y-70515295D01*
X69035714Y-70515295D02*
X68988095Y-70420057D01*
X68988095Y-70420057D02*
X68940476Y-70372438D01*
X68940476Y-70372438D02*
X68845238Y-70324819D01*
X68845238Y-70324819D02*
X68654762Y-70324819D01*
X68654762Y-70324819D02*
X68559524Y-70372438D01*
X68559524Y-70372438D02*
X68511905Y-70420057D01*
X68511905Y-70420057D02*
X68464286Y-70515295D01*
X68464286Y-70515295D02*
X68464286Y-70753390D01*
X68464286Y-70753390D02*
X68511905Y-70848628D01*
X68511905Y-70848628D02*
X68559524Y-70896247D01*
X68559524Y-70896247D02*
X68654762Y-70943866D01*
X68654762Y-70943866D02*
X68845238Y-70943866D01*
X68845238Y-70943866D02*
X68940476Y-70896247D01*
X68940476Y-70896247D02*
X68988095Y-70848628D01*
X68988095Y-70848628D02*
X69035714Y-70753390D01*
X33913095Y-146004819D02*
X33913095Y-145004819D01*
X33913095Y-145481009D02*
X34484523Y-145481009D01*
X34484523Y-146004819D02*
X34484523Y-145004819D01*
X35484523Y-146004819D02*
X34913095Y-146004819D01*
X35198809Y-146004819D02*
X35198809Y-145004819D01*
X35198809Y-145004819D02*
X35103571Y-145147676D01*
X35103571Y-145147676D02*
X35008333Y-145242914D01*
X35008333Y-145242914D02*
X34913095Y-145290533D01*
X64211905Y-111279819D02*
X64211905Y-110279819D01*
X64211905Y-110279819D02*
X64450000Y-110279819D01*
X64450000Y-110279819D02*
X64592857Y-110327438D01*
X64592857Y-110327438D02*
X64688095Y-110422676D01*
X64688095Y-110422676D02*
X64735714Y-110517914D01*
X64735714Y-110517914D02*
X64783333Y-110708390D01*
X64783333Y-110708390D02*
X64783333Y-110851247D01*
X64783333Y-110851247D02*
X64735714Y-111041723D01*
X64735714Y-111041723D02*
X64688095Y-111136961D01*
X64688095Y-111136961D02*
X64592857Y-111232200D01*
X64592857Y-111232200D02*
X64450000Y-111279819D01*
X64450000Y-111279819D02*
X64211905Y-111279819D01*
X65640476Y-110613152D02*
X65640476Y-111279819D01*
X65402381Y-110232200D02*
X65164286Y-110946485D01*
X65164286Y-110946485D02*
X65783333Y-110946485D01*
X122324819Y-66651904D02*
X123134342Y-66651904D01*
X123134342Y-66651904D02*
X123229580Y-66604285D01*
X123229580Y-66604285D02*
X123277200Y-66556666D01*
X123277200Y-66556666D02*
X123324819Y-66461428D01*
X123324819Y-66461428D02*
X123324819Y-66270952D01*
X123324819Y-66270952D02*
X123277200Y-66175714D01*
X123277200Y-66175714D02*
X123229580Y-66128095D01*
X123229580Y-66128095D02*
X123134342Y-66080476D01*
X123134342Y-66080476D02*
X122324819Y-66080476D01*
X122420057Y-65651904D02*
X122372438Y-65604285D01*
X122372438Y-65604285D02*
X122324819Y-65509047D01*
X122324819Y-65509047D02*
X122324819Y-65270952D01*
X122324819Y-65270952D02*
X122372438Y-65175714D01*
X122372438Y-65175714D02*
X122420057Y-65128095D01*
X122420057Y-65128095D02*
X122515295Y-65080476D01*
X122515295Y-65080476D02*
X122610533Y-65080476D01*
X122610533Y-65080476D02*
X122753390Y-65128095D01*
X122753390Y-65128095D02*
X123324819Y-65699523D01*
X123324819Y-65699523D02*
X123324819Y-65080476D01*
X93944319Y-104712166D02*
X93944319Y-105188356D01*
X93944319Y-105188356D02*
X92944319Y-105188356D01*
X93944319Y-103855023D02*
X93944319Y-104426451D01*
X93944319Y-104140737D02*
X92944319Y-104140737D01*
X92944319Y-104140737D02*
X93087176Y-104235975D01*
X93087176Y-104235975D02*
X93182414Y-104331213D01*
X93182414Y-104331213D02*
X93230033Y-104426451D01*
X69471998Y-66357904D02*
X70281521Y-66357904D01*
X70281521Y-66357904D02*
X70376759Y-66310285D01*
X70376759Y-66310285D02*
X70424379Y-66262666D01*
X70424379Y-66262666D02*
X70471998Y-66167428D01*
X70471998Y-66167428D02*
X70471998Y-65976952D01*
X70471998Y-65976952D02*
X70424379Y-65881714D01*
X70424379Y-65881714D02*
X70376759Y-65834095D01*
X70376759Y-65834095D02*
X70281521Y-65786476D01*
X70281521Y-65786476D02*
X69471998Y-65786476D01*
X69471998Y-65405523D02*
X69471998Y-64786476D01*
X69471998Y-64786476D02*
X69852950Y-65119809D01*
X69852950Y-65119809D02*
X69852950Y-64976952D01*
X69852950Y-64976952D02*
X69900569Y-64881714D01*
X69900569Y-64881714D02*
X69948188Y-64834095D01*
X69948188Y-64834095D02*
X70043426Y-64786476D01*
X70043426Y-64786476D02*
X70281521Y-64786476D01*
X70281521Y-64786476D02*
X70376759Y-64834095D01*
X70376759Y-64834095D02*
X70424379Y-64881714D01*
X70424379Y-64881714D02*
X70471998Y-64976952D01*
X70471998Y-64976952D02*
X70471998Y-65262666D01*
X70471998Y-65262666D02*
X70424379Y-65357904D01*
X70424379Y-65357904D02*
X70376759Y-65405523D01*
X72104819Y-77866666D02*
X72104819Y-78342856D01*
X72104819Y-78342856D02*
X71104819Y-78342856D01*
X72104819Y-77009523D02*
X72104819Y-77580951D01*
X72104819Y-77295237D02*
X71104819Y-77295237D01*
X71104819Y-77295237D02*
X71247676Y-77390475D01*
X71247676Y-77390475D02*
X71342914Y-77485713D01*
X71342914Y-77485713D02*
X71390533Y-77580951D01*
X86761905Y-109954819D02*
X86761905Y-108954819D01*
X86761905Y-108954819D02*
X87000000Y-108954819D01*
X87000000Y-108954819D02*
X87142857Y-109002438D01*
X87142857Y-109002438D02*
X87238095Y-109097676D01*
X87238095Y-109097676D02*
X87285714Y-109192914D01*
X87285714Y-109192914D02*
X87333333Y-109383390D01*
X87333333Y-109383390D02*
X87333333Y-109526247D01*
X87333333Y-109526247D02*
X87285714Y-109716723D01*
X87285714Y-109716723D02*
X87238095Y-109811961D01*
X87238095Y-109811961D02*
X87142857Y-109907200D01*
X87142857Y-109907200D02*
X87000000Y-109954819D01*
X87000000Y-109954819D02*
X86761905Y-109954819D01*
X87666667Y-108954819D02*
X88285714Y-108954819D01*
X88285714Y-108954819D02*
X87952381Y-109335771D01*
X87952381Y-109335771D02*
X88095238Y-109335771D01*
X88095238Y-109335771D02*
X88190476Y-109383390D01*
X88190476Y-109383390D02*
X88238095Y-109431009D01*
X88238095Y-109431009D02*
X88285714Y-109526247D01*
X88285714Y-109526247D02*
X88285714Y-109764342D01*
X88285714Y-109764342D02*
X88238095Y-109859580D01*
X88238095Y-109859580D02*
X88190476Y-109907200D01*
X88190476Y-109907200D02*
X88095238Y-109954819D01*
X88095238Y-109954819D02*
X87809524Y-109954819D01*
X87809524Y-109954819D02*
X87714286Y-109907200D01*
X87714286Y-109907200D02*
X87666667Y-109859580D01*
X121355714Y-57822319D02*
X121355714Y-56822319D01*
X121355714Y-56822319D02*
X121593809Y-56822319D01*
X121593809Y-56822319D02*
X121736666Y-56869938D01*
X121736666Y-56869938D02*
X121831904Y-56965176D01*
X121831904Y-56965176D02*
X121879523Y-57060414D01*
X121879523Y-57060414D02*
X121927142Y-57250890D01*
X121927142Y-57250890D02*
X121927142Y-57393747D01*
X121927142Y-57393747D02*
X121879523Y-57584223D01*
X121879523Y-57584223D02*
X121831904Y-57679461D01*
X121831904Y-57679461D02*
X121736666Y-57774700D01*
X121736666Y-57774700D02*
X121593809Y-57822319D01*
X121593809Y-57822319D02*
X121355714Y-57822319D01*
X122308095Y-57774700D02*
X122450952Y-57822319D01*
X122450952Y-57822319D02*
X122689047Y-57822319D01*
X122689047Y-57822319D02*
X122784285Y-57774700D01*
X122784285Y-57774700D02*
X122831904Y-57727080D01*
X122831904Y-57727080D02*
X122879523Y-57631842D01*
X122879523Y-57631842D02*
X122879523Y-57536604D01*
X122879523Y-57536604D02*
X122831904Y-57441366D01*
X122831904Y-57441366D02*
X122784285Y-57393747D01*
X122784285Y-57393747D02*
X122689047Y-57346128D01*
X122689047Y-57346128D02*
X122498571Y-57298509D01*
X122498571Y-57298509D02*
X122403333Y-57250890D01*
X122403333Y-57250890D02*
X122355714Y-57203271D01*
X122355714Y-57203271D02*
X122308095Y-57108033D01*
X122308095Y-57108033D02*
X122308095Y-57012795D01*
X122308095Y-57012795D02*
X122355714Y-56917557D01*
X122355714Y-56917557D02*
X122403333Y-56869938D01*
X122403333Y-56869938D02*
X122498571Y-56822319D01*
X122498571Y-56822319D02*
X122736666Y-56822319D01*
X122736666Y-56822319D02*
X122879523Y-56869938D01*
X123831904Y-57822319D02*
X123260476Y-57822319D01*
X123546190Y-57822319D02*
X123546190Y-56822319D01*
X123546190Y-56822319D02*
X123450952Y-56965176D01*
X123450952Y-56965176D02*
X123355714Y-57060414D01*
X123355714Y-57060414D02*
X123260476Y-57108033D01*
X116583333Y-86454819D02*
X116250000Y-85978628D01*
X116011905Y-86454819D02*
X116011905Y-85454819D01*
X116011905Y-85454819D02*
X116392857Y-85454819D01*
X116392857Y-85454819D02*
X116488095Y-85502438D01*
X116488095Y-85502438D02*
X116535714Y-85550057D01*
X116535714Y-85550057D02*
X116583333Y-85645295D01*
X116583333Y-85645295D02*
X116583333Y-85788152D01*
X116583333Y-85788152D02*
X116535714Y-85883390D01*
X116535714Y-85883390D02*
X116488095Y-85931009D01*
X116488095Y-85931009D02*
X116392857Y-85978628D01*
X116392857Y-85978628D02*
X116011905Y-85978628D01*
X116964286Y-85550057D02*
X117011905Y-85502438D01*
X117011905Y-85502438D02*
X117107143Y-85454819D01*
X117107143Y-85454819D02*
X117345238Y-85454819D01*
X117345238Y-85454819D02*
X117440476Y-85502438D01*
X117440476Y-85502438D02*
X117488095Y-85550057D01*
X117488095Y-85550057D02*
X117535714Y-85645295D01*
X117535714Y-85645295D02*
X117535714Y-85740533D01*
X117535714Y-85740533D02*
X117488095Y-85883390D01*
X117488095Y-85883390D02*
X116916667Y-86454819D01*
X116916667Y-86454819D02*
X117535714Y-86454819D01*
X33913095Y-30354819D02*
X33913095Y-29354819D01*
X33913095Y-29831009D02*
X34484523Y-29831009D01*
X34484523Y-30354819D02*
X34484523Y-29354819D01*
X34913095Y-29450057D02*
X34960714Y-29402438D01*
X34960714Y-29402438D02*
X35055952Y-29354819D01*
X35055952Y-29354819D02*
X35294047Y-29354819D01*
X35294047Y-29354819D02*
X35389285Y-29402438D01*
X35389285Y-29402438D02*
X35436904Y-29450057D01*
X35436904Y-29450057D02*
X35484523Y-29545295D01*
X35484523Y-29545295D02*
X35484523Y-29640533D01*
X35484523Y-29640533D02*
X35436904Y-29783390D01*
X35436904Y-29783390D02*
X34865476Y-30354819D01*
X34865476Y-30354819D02*
X35484523Y-30354819D01*
X125391667Y-123932200D02*
X125534524Y-123979819D01*
X125534524Y-123979819D02*
X125772619Y-123979819D01*
X125772619Y-123979819D02*
X125867857Y-123932200D01*
X125867857Y-123932200D02*
X125915476Y-123884580D01*
X125915476Y-123884580D02*
X125963095Y-123789342D01*
X125963095Y-123789342D02*
X125963095Y-123694104D01*
X125963095Y-123694104D02*
X125915476Y-123598866D01*
X125915476Y-123598866D02*
X125867857Y-123551247D01*
X125867857Y-123551247D02*
X125772619Y-123503628D01*
X125772619Y-123503628D02*
X125582143Y-123456009D01*
X125582143Y-123456009D02*
X125486905Y-123408390D01*
X125486905Y-123408390D02*
X125439286Y-123360771D01*
X125439286Y-123360771D02*
X125391667Y-123265533D01*
X125391667Y-123265533D02*
X125391667Y-123170295D01*
X125391667Y-123170295D02*
X125439286Y-123075057D01*
X125439286Y-123075057D02*
X125486905Y-123027438D01*
X125486905Y-123027438D02*
X125582143Y-122979819D01*
X125582143Y-122979819D02*
X125820238Y-122979819D01*
X125820238Y-122979819D02*
X125963095Y-123027438D01*
X126296429Y-122979819D02*
X126534524Y-123979819D01*
X126534524Y-123979819D02*
X126725000Y-123265533D01*
X126725000Y-123265533D02*
X126915476Y-123979819D01*
X126915476Y-123979819D02*
X127153572Y-122979819D01*
X127486905Y-123075057D02*
X127534524Y-123027438D01*
X127534524Y-123027438D02*
X127629762Y-122979819D01*
X127629762Y-122979819D02*
X127867857Y-122979819D01*
X127867857Y-122979819D02*
X127963095Y-123027438D01*
X127963095Y-123027438D02*
X128010714Y-123075057D01*
X128010714Y-123075057D02*
X128058333Y-123170295D01*
X128058333Y-123170295D02*
X128058333Y-123265533D01*
X128058333Y-123265533D02*
X128010714Y-123408390D01*
X128010714Y-123408390D02*
X127439286Y-123979819D01*
X127439286Y-123979819D02*
X128058333Y-123979819D01*
X121083333Y-86454819D02*
X120750000Y-85978628D01*
X120511905Y-86454819D02*
X120511905Y-85454819D01*
X120511905Y-85454819D02*
X120892857Y-85454819D01*
X120892857Y-85454819D02*
X120988095Y-85502438D01*
X120988095Y-85502438D02*
X121035714Y-85550057D01*
X121035714Y-85550057D02*
X121083333Y-85645295D01*
X121083333Y-85645295D02*
X121083333Y-85788152D01*
X121083333Y-85788152D02*
X121035714Y-85883390D01*
X121035714Y-85883390D02*
X120988095Y-85931009D01*
X120988095Y-85931009D02*
X120892857Y-85978628D01*
X120892857Y-85978628D02*
X120511905Y-85978628D01*
X121416667Y-85454819D02*
X122035714Y-85454819D01*
X122035714Y-85454819D02*
X121702381Y-85835771D01*
X121702381Y-85835771D02*
X121845238Y-85835771D01*
X121845238Y-85835771D02*
X121940476Y-85883390D01*
X121940476Y-85883390D02*
X121988095Y-85931009D01*
X121988095Y-85931009D02*
X122035714Y-86026247D01*
X122035714Y-86026247D02*
X122035714Y-86264342D01*
X122035714Y-86264342D02*
X121988095Y-86359580D01*
X121988095Y-86359580D02*
X121940476Y-86407200D01*
X121940476Y-86407200D02*
X121845238Y-86454819D01*
X121845238Y-86454819D02*
X121559524Y-86454819D01*
X121559524Y-86454819D02*
X121464286Y-86407200D01*
X121464286Y-86407200D02*
X121416667Y-86359580D01*
X124264513Y-89973400D02*
X123264513Y-89973400D01*
X123264513Y-89973400D02*
X123264513Y-89735305D01*
X123264513Y-89735305D02*
X123312132Y-89592448D01*
X123312132Y-89592448D02*
X123407370Y-89497210D01*
X123407370Y-89497210D02*
X123502608Y-89449591D01*
X123502608Y-89449591D02*
X123693084Y-89401972D01*
X123693084Y-89401972D02*
X123835941Y-89401972D01*
X123835941Y-89401972D02*
X124026417Y-89449591D01*
X124026417Y-89449591D02*
X124121655Y-89497210D01*
X124121655Y-89497210D02*
X124216894Y-89592448D01*
X124216894Y-89592448D02*
X124264513Y-89735305D01*
X124264513Y-89735305D02*
X124264513Y-89973400D01*
X123359751Y-89021019D02*
X123312132Y-88973400D01*
X123312132Y-88973400D02*
X123264513Y-88878162D01*
X123264513Y-88878162D02*
X123264513Y-88640067D01*
X123264513Y-88640067D02*
X123312132Y-88544829D01*
X123312132Y-88544829D02*
X123359751Y-88497210D01*
X123359751Y-88497210D02*
X123454989Y-88449591D01*
X123454989Y-88449591D02*
X123550227Y-88449591D01*
X123550227Y-88449591D02*
X123693084Y-88497210D01*
X123693084Y-88497210D02*
X124264513Y-89068638D01*
X124264513Y-89068638D02*
X124264513Y-88449591D01*
D13*
%TO.C,C5*%
X79361252Y-89915000D02*
X77938748Y-89915000D01*
X79361252Y-91735000D02*
X77938748Y-91735000D01*
%TO.C,SW3*%
X62540000Y-85950000D02*
X62540000Y-86950000D01*
X62540000Y-86950000D02*
X63040000Y-86450000D01*
X63040000Y-86450000D02*
X62540000Y-85950000D01*
X63240000Y-80040000D02*
X63550000Y-80040000D01*
X63240000Y-88860000D02*
X63240000Y-80040000D01*
X63550000Y-88860000D02*
X63240000Y-88860000D01*
X67760000Y-80040000D02*
X67450000Y-80040000D01*
X67760000Y-80040000D02*
X67760000Y-88860000D01*
X67760000Y-88860000D02*
X67450000Y-88860000D01*
%TO.C,C4*%
X87710000Y-78244888D02*
X86170000Y-78244888D01*
X87710000Y-78284888D02*
X86170000Y-78284888D01*
X87710000Y-78324888D02*
X86171000Y-78324888D01*
X87710000Y-78364888D02*
X86173000Y-78364888D01*
X87710000Y-78404888D02*
X86175000Y-78404888D01*
X87710000Y-78444888D02*
X86178000Y-78444888D01*
X87710000Y-78484888D02*
X86181000Y-78484888D01*
X87710000Y-78524888D02*
X86185000Y-78524888D01*
X87710000Y-78564888D02*
X86190000Y-78564888D01*
X87710000Y-78604888D02*
X86195000Y-78604888D01*
X87710000Y-78644888D02*
X86201000Y-78644888D01*
X87710000Y-78684888D02*
X86207000Y-78684888D01*
X87710000Y-78724888D02*
X86214000Y-78724888D01*
X87710000Y-78764888D02*
X86222000Y-78764888D01*
X87710000Y-78804888D02*
X86231000Y-78804888D01*
X87710000Y-78844888D02*
X86240000Y-78844888D01*
X87710000Y-78884888D02*
X86249000Y-78884888D01*
X87710000Y-78924888D02*
X86260000Y-78924888D01*
X87710000Y-78964888D02*
X86271000Y-78964888D01*
X87710000Y-79004888D02*
X86283000Y-79004888D01*
X87710000Y-79044888D02*
X86295000Y-79044888D01*
X87710000Y-79084888D02*
X86308000Y-79084888D01*
X87710000Y-79124888D02*
X86322000Y-79124888D01*
X87710000Y-79164888D02*
X86337000Y-79164888D01*
X87710000Y-79204888D02*
X86352000Y-79204888D01*
X87710000Y-79244888D02*
X86368000Y-79244888D01*
X87710000Y-79284888D02*
X86385000Y-79284888D01*
X87710000Y-79324888D02*
X86403000Y-79324888D01*
X87710000Y-79364888D02*
X86421000Y-79364888D01*
X87710000Y-79404888D02*
X86441000Y-79404888D01*
X87710000Y-79444888D02*
X86461000Y-79444888D01*
X87710000Y-79484888D02*
X86482000Y-79484888D01*
X87710000Y-79524888D02*
X86504000Y-79524888D01*
X87710000Y-79564888D02*
X86527000Y-79564888D01*
X87710000Y-79604888D02*
X86551000Y-79604888D01*
X87710000Y-79644888D02*
X86575000Y-79644888D01*
X87710000Y-79684888D02*
X86601000Y-79684888D01*
X87710000Y-79724888D02*
X86628000Y-79724888D01*
X87710000Y-79764888D02*
X86656000Y-79764888D01*
X87710000Y-79804888D02*
X86685000Y-79804888D01*
X87710000Y-79844888D02*
X86715000Y-79844888D01*
X87710000Y-79884888D02*
X86747000Y-79884888D01*
X87710000Y-79924888D02*
X86780000Y-79924888D01*
X87710000Y-79964888D02*
X86814000Y-79964888D01*
X87710000Y-80004888D02*
X86849000Y-80004888D01*
X87710000Y-80044888D02*
X86886000Y-80044888D01*
X87710000Y-80084888D02*
X86925000Y-80084888D01*
X87710000Y-80124888D02*
X86965000Y-80124888D01*
X87710000Y-80164888D02*
X87007000Y-80164888D01*
X87710000Y-80204888D02*
X87051000Y-80204888D01*
X87710000Y-80244888D02*
X87098000Y-80244888D01*
X89033000Y-80844888D02*
X88467000Y-80844888D01*
X89267000Y-80804888D02*
X88233000Y-80804888D01*
X89427000Y-80764888D02*
X88073000Y-80764888D01*
X89555000Y-80724888D02*
X87945000Y-80724888D01*
X89664000Y-80684888D02*
X87836000Y-80684888D01*
X89761000Y-80644888D02*
X87739000Y-80644888D01*
X89848000Y-80604888D02*
X87652000Y-80604888D01*
X89927000Y-80564888D02*
X87573000Y-80564888D01*
X90001000Y-80524888D02*
X87499000Y-80524888D01*
X90069000Y-80484888D02*
X87431000Y-80484888D01*
X90133000Y-80444888D02*
X87367000Y-80444888D01*
X90193000Y-80404888D02*
X87307000Y-80404888D01*
X90225000Y-75440113D02*
X90225000Y-75940113D01*
X90249000Y-80364888D02*
X87251000Y-80364888D01*
X90303000Y-80324888D02*
X87197000Y-80324888D01*
X90354000Y-80284888D02*
X87146000Y-80284888D01*
X90402000Y-80244888D02*
X89790000Y-80244888D01*
X90449000Y-80204888D02*
X89790000Y-80204888D01*
X90475000Y-75690113D02*
X89975000Y-75690113D01*
X90493000Y-80164888D02*
X89790000Y-80164888D01*
X90535000Y-80124888D02*
X89790000Y-80124888D01*
X90575000Y-80084888D02*
X89790000Y-80084888D01*
X90614000Y-80044888D02*
X89790000Y-80044888D01*
X90651000Y-80004888D02*
X89790000Y-80004888D01*
X90686000Y-79964888D02*
X89790000Y-79964888D01*
X90720000Y-79924888D02*
X89790000Y-79924888D01*
X90753000Y-79884888D02*
X89790000Y-79884888D01*
X90785000Y-79844888D02*
X89790000Y-79844888D01*
X90815000Y-79804888D02*
X89790000Y-79804888D01*
X90844000Y-79764888D02*
X89790000Y-79764888D01*
X90872000Y-79724888D02*
X89790000Y-79724888D01*
X90899000Y-79684888D02*
X89790000Y-79684888D01*
X90925000Y-79644888D02*
X89790000Y-79644888D01*
X90949000Y-79604888D02*
X89790000Y-79604888D01*
X90973000Y-79564888D02*
X89790000Y-79564888D01*
X90996000Y-79524888D02*
X89790000Y-79524888D01*
X91018000Y-79484888D02*
X89790000Y-79484888D01*
X91039000Y-79444888D02*
X89790000Y-79444888D01*
X91059000Y-79404888D02*
X89790000Y-79404888D01*
X91079000Y-79364888D02*
X89790000Y-79364888D01*
X91097000Y-79324888D02*
X89790000Y-79324888D01*
X91115000Y-79284888D02*
X89790000Y-79284888D01*
X91132000Y-79244888D02*
X89790000Y-79244888D01*
X91148000Y-79204888D02*
X89790000Y-79204888D01*
X91163000Y-79164888D02*
X89790000Y-79164888D01*
X91178000Y-79124888D02*
X89790000Y-79124888D01*
X91192000Y-79084888D02*
X89790000Y-79084888D01*
X91205000Y-79044888D02*
X89790000Y-79044888D01*
X91217000Y-79004888D02*
X89790000Y-79004888D01*
X91229000Y-78964888D02*
X89790000Y-78964888D01*
X91240000Y-78924888D02*
X89790000Y-78924888D01*
X91251000Y-78884888D02*
X89790000Y-78884888D01*
X91260000Y-78844888D02*
X89790000Y-78844888D01*
X91269000Y-78804888D02*
X89790000Y-78804888D01*
X91278000Y-78764888D02*
X89790000Y-78764888D01*
X91286000Y-78724888D02*
X89790000Y-78724888D01*
X91293000Y-78684888D02*
X89790000Y-78684888D01*
X91299000Y-78644888D02*
X89790000Y-78644888D01*
X91305000Y-78604888D02*
X89790000Y-78604888D01*
X91310000Y-78564888D02*
X89790000Y-78564888D01*
X91315000Y-78524888D02*
X89790000Y-78524888D01*
X91319000Y-78484888D02*
X89790000Y-78484888D01*
X91322000Y-78444888D02*
X89790000Y-78444888D01*
X91325000Y-78404888D02*
X89790000Y-78404888D01*
X91327000Y-78364888D02*
X89790000Y-78364888D01*
X91329000Y-78324888D02*
X89790000Y-78324888D01*
X91330000Y-78244888D02*
X89790000Y-78244888D01*
X91330000Y-78284888D02*
X89790000Y-78284888D01*
X91370000Y-78244888D02*
G75*
G02*
X86130000Y-78244888I-2620000J0D01*
G01*
X86130000Y-78244888D02*
G75*
G02*
X91370000Y-78244888I2620000J0D01*
G01*
D14*
%TO.C,U4*%
X73505000Y-106750000D02*
X73505000Y-102750000D01*
X78605000Y-106750000D02*
X78605000Y-102750000D01*
D11*
X73650000Y-109195000D02*
G75*
G02*
X73450000Y-109195000I-100000J0D01*
G01*
X73450000Y-109195000D02*
G75*
G02*
X73650000Y-109195000I100000J0D01*
G01*
D13*
%TO.C,C3*%
X57340000Y-78161252D02*
X57340000Y-76738748D01*
X59160000Y-78161252D02*
X59160000Y-76738748D01*
%TO.C,BT1*%
X33315000Y-63810000D02*
X40490000Y-63810000D01*
X33315000Y-141590000D02*
X33315000Y-63810000D01*
X40490000Y-141590000D02*
X33315000Y-141590000D01*
X47510000Y-63810000D02*
X54685000Y-63810000D01*
X54685000Y-63810000D02*
X54685000Y-141590000D01*
X54685000Y-141590000D02*
X47510000Y-141590000D01*
%TO.C,R7*%
X69922936Y-96315000D02*
X71377064Y-96315000D01*
X69922936Y-98135000D02*
X71377064Y-98135000D01*
%TO.C,C1*%
X76460000Y-124950000D02*
X74920000Y-124950000D01*
X76460000Y-124990000D02*
X74920000Y-124990000D01*
X76460000Y-125030000D02*
X74921000Y-125030000D01*
X76460000Y-125070000D02*
X74923000Y-125070000D01*
X76460000Y-125110000D02*
X74925000Y-125110000D01*
X76460000Y-125150000D02*
X74928000Y-125150000D01*
X76460000Y-125190000D02*
X74931000Y-125190000D01*
X76460000Y-125230000D02*
X74935000Y-125230000D01*
X76460000Y-125270000D02*
X74940000Y-125270000D01*
X76460000Y-125310000D02*
X74945000Y-125310000D01*
X76460000Y-125350000D02*
X74951000Y-125350000D01*
X76460000Y-125390000D02*
X74957000Y-125390000D01*
X76460000Y-125430000D02*
X74964000Y-125430000D01*
X76460000Y-125470000D02*
X74972000Y-125470000D01*
X76460000Y-125510000D02*
X74981000Y-125510000D01*
X76460000Y-125550000D02*
X74990000Y-125550000D01*
X76460000Y-125590000D02*
X74999000Y-125590000D01*
X76460000Y-125630000D02*
X75010000Y-125630000D01*
X76460000Y-125670000D02*
X75021000Y-125670000D01*
X76460000Y-125710000D02*
X75033000Y-125710000D01*
X76460000Y-125750000D02*
X75045000Y-125750000D01*
X76460000Y-125790000D02*
X75058000Y-125790000D01*
X76460000Y-125830000D02*
X75072000Y-125830000D01*
X76460000Y-125870000D02*
X75087000Y-125870000D01*
X76460000Y-125910000D02*
X75102000Y-125910000D01*
X76460000Y-125950000D02*
X75118000Y-125950000D01*
X76460000Y-125990000D02*
X75135000Y-125990000D01*
X76460000Y-126030000D02*
X75153000Y-126030000D01*
X76460000Y-126070000D02*
X75171000Y-126070000D01*
X76460000Y-126110000D02*
X75191000Y-126110000D01*
X76460000Y-126150000D02*
X75211000Y-126150000D01*
X76460000Y-126190000D02*
X75232000Y-126190000D01*
X76460000Y-126230000D02*
X75254000Y-126230000D01*
X76460000Y-126270000D02*
X75277000Y-126270000D01*
X76460000Y-126310000D02*
X75301000Y-126310000D01*
X76460000Y-126350000D02*
X75325000Y-126350000D01*
X76460000Y-126390000D02*
X75351000Y-126390000D01*
X76460000Y-126430000D02*
X75378000Y-126430000D01*
X76460000Y-126470000D02*
X75406000Y-126470000D01*
X76460000Y-126510000D02*
X75435000Y-126510000D01*
X76460000Y-126550000D02*
X75465000Y-126550000D01*
X76460000Y-126590000D02*
X75497000Y-126590000D01*
X76460000Y-126630000D02*
X75530000Y-126630000D01*
X76460000Y-126670000D02*
X75564000Y-126670000D01*
X76460000Y-126710000D02*
X75599000Y-126710000D01*
X76460000Y-126750000D02*
X75636000Y-126750000D01*
X76460000Y-126790000D02*
X75675000Y-126790000D01*
X76460000Y-126830000D02*
X75715000Y-126830000D01*
X76460000Y-126870000D02*
X75757000Y-126870000D01*
X76460000Y-126910000D02*
X75801000Y-126910000D01*
X76460000Y-126950000D02*
X75848000Y-126950000D01*
X77783000Y-127550000D02*
X77217000Y-127550000D01*
X78017000Y-127510000D02*
X76983000Y-127510000D01*
X78177000Y-127470000D02*
X76823000Y-127470000D01*
X78305000Y-127430000D02*
X76695000Y-127430000D01*
X78414000Y-127390000D02*
X76586000Y-127390000D01*
X78511000Y-127350000D02*
X76489000Y-127350000D01*
X78598000Y-127310000D02*
X76402000Y-127310000D01*
X78677000Y-127270000D02*
X76323000Y-127270000D01*
X78751000Y-127230000D02*
X76249000Y-127230000D01*
X78819000Y-127190000D02*
X76181000Y-127190000D01*
X78883000Y-127150000D02*
X76117000Y-127150000D01*
X78943000Y-127110000D02*
X76057000Y-127110000D01*
X78975000Y-122145225D02*
X78975000Y-122645225D01*
X78999000Y-127070000D02*
X76001000Y-127070000D01*
X79053000Y-127030000D02*
X75947000Y-127030000D01*
X79104000Y-126990000D02*
X75896000Y-126990000D01*
X79152000Y-126950000D02*
X78540000Y-126950000D01*
X79199000Y-126910000D02*
X78540000Y-126910000D01*
X79225000Y-122395225D02*
X78725000Y-122395225D01*
X79243000Y-126870000D02*
X78540000Y-126870000D01*
X79285000Y-126830000D02*
X78540000Y-126830000D01*
X79325000Y-126790000D02*
X78540000Y-126790000D01*
X79364000Y-126750000D02*
X78540000Y-126750000D01*
X79401000Y-126710000D02*
X78540000Y-126710000D01*
X79436000Y-126670000D02*
X78540000Y-126670000D01*
X79470000Y-126630000D02*
X78540000Y-126630000D01*
X79503000Y-126590000D02*
X78540000Y-126590000D01*
X79535000Y-126550000D02*
X78540000Y-126550000D01*
X79565000Y-126510000D02*
X78540000Y-126510000D01*
X79594000Y-126470000D02*
X78540000Y-126470000D01*
X79622000Y-126430000D02*
X78540000Y-126430000D01*
X79649000Y-126390000D02*
X78540000Y-126390000D01*
X79675000Y-126350000D02*
X78540000Y-126350000D01*
X79699000Y-126310000D02*
X78540000Y-126310000D01*
X79723000Y-126270000D02*
X78540000Y-126270000D01*
X79746000Y-126230000D02*
X78540000Y-126230000D01*
X79768000Y-126190000D02*
X78540000Y-126190000D01*
X79789000Y-126150000D02*
X78540000Y-126150000D01*
X79809000Y-126110000D02*
X78540000Y-126110000D01*
X79829000Y-126070000D02*
X78540000Y-126070000D01*
X79847000Y-126030000D02*
X78540000Y-126030000D01*
X79865000Y-125990000D02*
X78540000Y-125990000D01*
X79882000Y-125950000D02*
X78540000Y-125950000D01*
X79898000Y-125910000D02*
X78540000Y-125910000D01*
X79913000Y-125870000D02*
X78540000Y-125870000D01*
X79928000Y-125830000D02*
X78540000Y-125830000D01*
X79942000Y-125790000D02*
X78540000Y-125790000D01*
X79955000Y-125750000D02*
X78540000Y-125750000D01*
X79967000Y-125710000D02*
X78540000Y-125710000D01*
X79979000Y-125670000D02*
X78540000Y-125670000D01*
X79990000Y-125630000D02*
X78540000Y-125630000D01*
X80001000Y-125590000D02*
X78540000Y-125590000D01*
X80010000Y-125550000D02*
X78540000Y-125550000D01*
X80019000Y-125510000D02*
X78540000Y-125510000D01*
X80028000Y-125470000D02*
X78540000Y-125470000D01*
X80036000Y-125430000D02*
X78540000Y-125430000D01*
X80043000Y-125390000D02*
X78540000Y-125390000D01*
X80049000Y-125350000D02*
X78540000Y-125350000D01*
X80055000Y-125310000D02*
X78540000Y-125310000D01*
X80060000Y-125270000D02*
X78540000Y-125270000D01*
X80065000Y-125230000D02*
X78540000Y-125230000D01*
X80069000Y-125190000D02*
X78540000Y-125190000D01*
X80072000Y-125150000D02*
X78540000Y-125150000D01*
X80075000Y-125110000D02*
X78540000Y-125110000D01*
X80077000Y-125070000D02*
X78540000Y-125070000D01*
X80079000Y-125030000D02*
X78540000Y-125030000D01*
X80080000Y-124950000D02*
X78540000Y-124950000D01*
X80080000Y-124990000D02*
X78540000Y-124990000D01*
X80120000Y-124950000D02*
G75*
G02*
X74880000Y-124950000I-2620000J0D01*
G01*
X74880000Y-124950000D02*
G75*
G02*
X80120000Y-124950000I2620000J0D01*
G01*
%TO.C,R8*%
X84727064Y-97030500D02*
X83272936Y-97030500D01*
X84727064Y-98850500D02*
X83272936Y-98850500D01*
%TO.C,J1*%
X72160000Y-155660000D02*
X72160000Y-153710000D01*
X72160000Y-155660000D02*
X64340000Y-155660000D01*
X72160000Y-151490000D02*
X72160000Y-148260000D01*
X70360000Y-146340000D02*
X71440000Y-146340000D01*
X66140000Y-146340000D02*
X66140000Y-145910000D01*
X65060000Y-146340000D02*
X66140000Y-146340000D01*
X64340000Y-155660000D02*
X64340000Y-153710000D01*
X64340000Y-151490000D02*
X64340000Y-148260000D01*
%TO.C,R5*%
X129859694Y-103553242D02*
X129859694Y-105007370D01*
X131679694Y-103553242D02*
X131679694Y-105007370D01*
%TO.C,D1*%
X108724694Y-91795306D02*
X111814694Y-91795306D01*
X108724864Y-91795306D02*
G75*
G02*
X110269694Y-86245306I1544830J2560000D01*
G01*
X110269694Y-86245306D02*
G75*
G02*
X111814524Y-91795306I0J-2990000D01*
G01*
X112769694Y-89235306D02*
G75*
G02*
X107769694Y-89235306I-2500000J0D01*
G01*
X107769694Y-89235306D02*
G75*
G02*
X112769694Y-89235306I2500000J0D01*
G01*
%TO.C,R10*%
X60340000Y-64972936D02*
X60340000Y-66427064D01*
X62160000Y-64972936D02*
X62160000Y-66427064D01*
%TO.C,R4*%
X105859694Y-103503242D02*
X105859694Y-104957370D01*
X107679694Y-103503242D02*
X107679694Y-104957370D01*
%TO.C,U3*%
X84849500Y-112650500D02*
X84849500Y-117950500D01*
X84849500Y-117950500D02*
X95129500Y-117950500D01*
X95129500Y-112650500D02*
X84849500Y-112650500D01*
X95129500Y-114300500D02*
X95129500Y-112650500D01*
X95129500Y-117950500D02*
X95129500Y-116300500D01*
X95129500Y-116300500D02*
G75*
G02*
X95129500Y-114300500I0J1000000D01*
G01*
%TO.C,SW1*%
X107019694Y-115480306D02*
X107019694Y-119980306D01*
X109519694Y-121230306D02*
X111019694Y-121230306D01*
X111019694Y-114230306D02*
X109519694Y-114230306D01*
X113519694Y-119980306D02*
X113519694Y-115480306D01*
%TO.C,RV1*%
X97840000Y-74075000D02*
X104160000Y-74075000D01*
X97840000Y-83825000D02*
X97840000Y-74075000D01*
X104160000Y-74075000D02*
X104160000Y-83825000D01*
X104160000Y-83825000D02*
X97840000Y-83825000D01*
%TO.C,R6*%
X76122936Y-110815000D02*
X77577064Y-110815000D01*
X76122936Y-112635000D02*
X77577064Y-112635000D01*
%TO.C,C1*%
X88863748Y-92190000D02*
X90286252Y-92190000D01*
X88863748Y-94010000D02*
X90286252Y-94010000D01*
D14*
%TO.C,U1*%
X113669694Y-98130306D02*
X113669694Y-99060306D01*
X113669694Y-98130306D02*
X114599694Y-98130306D01*
X113669694Y-108330306D02*
X113669694Y-107400306D01*
X113669694Y-108330306D02*
X114599694Y-108330306D01*
X123869694Y-98130306D02*
X122939694Y-98130306D01*
X123869694Y-98130306D02*
X123869694Y-99060306D01*
X123869694Y-108330306D02*
X122939694Y-108330306D01*
X123869694Y-108330306D02*
X123869694Y-107400306D01*
D11*
X125869694Y-106980306D02*
G75*
G02*
X125669694Y-106980306I-100000J0D01*
G01*
X125669694Y-106980306D02*
G75*
G02*
X125869694Y-106980306I100000J0D01*
G01*
D13*
%TO.C,C2*%
X96420000Y-96160000D02*
X97960000Y-96160000D01*
X96420000Y-96200000D02*
X97960000Y-96200000D01*
X96421000Y-96120000D02*
X97960000Y-96120000D01*
X96423000Y-96080000D02*
X97960000Y-96080000D01*
X96425000Y-96040000D02*
X97960000Y-96040000D01*
X96428000Y-96000000D02*
X97960000Y-96000000D01*
X96431000Y-95960000D02*
X97960000Y-95960000D01*
X96435000Y-95920000D02*
X97960000Y-95920000D01*
X96440000Y-95880000D02*
X97960000Y-95880000D01*
X96445000Y-95840000D02*
X97960000Y-95840000D01*
X96451000Y-95800000D02*
X97960000Y-95800000D01*
X96457000Y-95760000D02*
X97960000Y-95760000D01*
X96464000Y-95720000D02*
X97960000Y-95720000D01*
X96472000Y-95680000D02*
X97960000Y-95680000D01*
X96481000Y-95640000D02*
X97960000Y-95640000D01*
X96490000Y-95600000D02*
X97960000Y-95600000D01*
X96499000Y-95560000D02*
X97960000Y-95560000D01*
X96510000Y-95520000D02*
X97960000Y-95520000D01*
X96521000Y-95480000D02*
X97960000Y-95480000D01*
X96533000Y-95440000D02*
X97960000Y-95440000D01*
X96545000Y-95400000D02*
X97960000Y-95400000D01*
X96558000Y-95360000D02*
X97960000Y-95360000D01*
X96572000Y-95320000D02*
X97960000Y-95320000D01*
X96587000Y-95280000D02*
X97960000Y-95280000D01*
X96602000Y-95240000D02*
X97960000Y-95240000D01*
X96618000Y-95200000D02*
X97960000Y-95200000D01*
X96635000Y-95160000D02*
X97960000Y-95160000D01*
X96653000Y-95120000D02*
X97960000Y-95120000D01*
X96671000Y-95080000D02*
X97960000Y-95080000D01*
X96691000Y-95040000D02*
X97960000Y-95040000D01*
X96711000Y-95000000D02*
X97960000Y-95000000D01*
X96732000Y-94960000D02*
X97960000Y-94960000D01*
X96754000Y-94920000D02*
X97960000Y-94920000D01*
X96777000Y-94880000D02*
X97960000Y-94880000D01*
X96801000Y-94840000D02*
X97960000Y-94840000D01*
X96825000Y-94800000D02*
X97960000Y-94800000D01*
X96851000Y-94760000D02*
X97960000Y-94760000D01*
X96878000Y-94720000D02*
X97960000Y-94720000D01*
X96906000Y-94680000D02*
X97960000Y-94680000D01*
X96935000Y-94640000D02*
X97960000Y-94640000D01*
X96965000Y-94600000D02*
X97960000Y-94600000D01*
X96997000Y-94560000D02*
X97960000Y-94560000D01*
X97030000Y-94520000D02*
X97960000Y-94520000D01*
X97064000Y-94480000D02*
X97960000Y-94480000D01*
X97099000Y-94440000D02*
X97960000Y-94440000D01*
X97136000Y-94400000D02*
X97960000Y-94400000D01*
X97175000Y-94360000D02*
X97960000Y-94360000D01*
X97215000Y-94320000D02*
X97960000Y-94320000D01*
X97257000Y-94280000D02*
X97960000Y-94280000D01*
X97275000Y-98754775D02*
X97775000Y-98754775D01*
X97301000Y-94240000D02*
X97960000Y-94240000D01*
X97348000Y-94200000D02*
X97960000Y-94200000D01*
X97396000Y-94160000D02*
X100604000Y-94160000D01*
X97447000Y-94120000D02*
X100553000Y-94120000D01*
X97501000Y-94080000D02*
X100499000Y-94080000D01*
X97525000Y-99004775D02*
X97525000Y-98504775D01*
X97557000Y-94040000D02*
X100443000Y-94040000D01*
X97617000Y-94000000D02*
X100383000Y-94000000D01*
X97681000Y-93960000D02*
X100319000Y-93960000D01*
X97749000Y-93920000D02*
X100251000Y-93920000D01*
X97823000Y-93880000D02*
X100177000Y-93880000D01*
X97902000Y-93840000D02*
X100098000Y-93840000D01*
X97989000Y-93800000D02*
X100011000Y-93800000D01*
X98086000Y-93760000D02*
X99914000Y-93760000D01*
X98195000Y-93720000D02*
X99805000Y-93720000D01*
X98323000Y-93680000D02*
X99677000Y-93680000D01*
X98483000Y-93640000D02*
X99517000Y-93640000D01*
X98717000Y-93600000D02*
X99283000Y-93600000D01*
X100040000Y-94200000D02*
X100652000Y-94200000D01*
X100040000Y-94240000D02*
X100699000Y-94240000D01*
X100040000Y-94280000D02*
X100743000Y-94280000D01*
X100040000Y-94320000D02*
X100785000Y-94320000D01*
X100040000Y-94360000D02*
X100825000Y-94360000D01*
X100040000Y-94400000D02*
X100864000Y-94400000D01*
X100040000Y-94440000D02*
X100901000Y-94440000D01*
X100040000Y-94480000D02*
X100936000Y-94480000D01*
X100040000Y-94520000D02*
X100970000Y-94520000D01*
X100040000Y-94560000D02*
X101003000Y-94560000D01*
X100040000Y-94600000D02*
X101035000Y-94600000D01*
X100040000Y-94640000D02*
X101065000Y-94640000D01*
X100040000Y-94680000D02*
X101094000Y-94680000D01*
X100040000Y-94720000D02*
X101122000Y-94720000D01*
X100040000Y-94760000D02*
X101149000Y-94760000D01*
X100040000Y-94800000D02*
X101175000Y-94800000D01*
X100040000Y-94840000D02*
X101199000Y-94840000D01*
X100040000Y-94880000D02*
X101223000Y-94880000D01*
X100040000Y-94920000D02*
X101246000Y-94920000D01*
X100040000Y-94960000D02*
X101268000Y-94960000D01*
X100040000Y-95000000D02*
X101289000Y-95000000D01*
X100040000Y-95040000D02*
X101309000Y-95040000D01*
X100040000Y-95080000D02*
X101329000Y-95080000D01*
X100040000Y-95120000D02*
X101347000Y-95120000D01*
X100040000Y-95160000D02*
X101365000Y-95160000D01*
X100040000Y-95200000D02*
X101382000Y-95200000D01*
X100040000Y-95240000D02*
X101398000Y-95240000D01*
X100040000Y-95280000D02*
X101413000Y-95280000D01*
X100040000Y-95320000D02*
X101428000Y-95320000D01*
X100040000Y-95360000D02*
X101442000Y-95360000D01*
X100040000Y-95400000D02*
X101455000Y-95400000D01*
X100040000Y-95440000D02*
X101467000Y-95440000D01*
X100040000Y-95480000D02*
X101479000Y-95480000D01*
X100040000Y-95520000D02*
X101490000Y-95520000D01*
X100040000Y-95560000D02*
X101501000Y-95560000D01*
X100040000Y-95600000D02*
X101510000Y-95600000D01*
X100040000Y-95640000D02*
X101519000Y-95640000D01*
X100040000Y-95680000D02*
X101528000Y-95680000D01*
X100040000Y-95720000D02*
X101536000Y-95720000D01*
X100040000Y-95760000D02*
X101543000Y-95760000D01*
X100040000Y-95800000D02*
X101549000Y-95800000D01*
X100040000Y-95840000D02*
X101555000Y-95840000D01*
X100040000Y-95880000D02*
X101560000Y-95880000D01*
X100040000Y-95920000D02*
X101565000Y-95920000D01*
X100040000Y-95960000D02*
X101569000Y-95960000D01*
X100040000Y-96000000D02*
X101572000Y-96000000D01*
X100040000Y-96040000D02*
X101575000Y-96040000D01*
X100040000Y-96080000D02*
X101577000Y-96080000D01*
X100040000Y-96120000D02*
X101579000Y-96120000D01*
X100040000Y-96160000D02*
X101580000Y-96160000D01*
X100040000Y-96200000D02*
X101580000Y-96200000D01*
X101620000Y-96200000D02*
G75*
G02*
X96380000Y-96200000I-2620000J0D01*
G01*
X96380000Y-96200000D02*
G75*
G02*
X101620000Y-96200000I2620000J0D01*
G01*
%TO.C,R1*%
X80340000Y-68677064D02*
X80340000Y-67222936D01*
X82160000Y-68677064D02*
X82160000Y-67222936D01*
%TO.C,R9*%
X67522936Y-71790000D02*
X68977064Y-71790000D01*
X67522936Y-73610000D02*
X68977064Y-73610000D01*
%TO.C,D4*%
X66445000Y-102645000D02*
X63355000Y-102645000D01*
X64900000Y-108195000D02*
G75*
G02*
X63355170Y-102645000I0J2990000D01*
G01*
X66444830Y-102645000D02*
G75*
G02*
X64900000Y-108195000I-1544830J-2560000D01*
G01*
X67400000Y-105205000D02*
G75*
G02*
X62400000Y-105205000I-2500000J0D01*
G01*
X62400000Y-105205000D02*
G75*
G02*
X67400000Y-105205000I2500000J0D01*
G01*
%TO.C,U2*%
X101430000Y-63240000D02*
X101430000Y-68540000D01*
X101430000Y-68540000D02*
X121870000Y-68540000D01*
X121870000Y-63240000D02*
X101430000Y-63240000D01*
X121870000Y-64890000D02*
X121870000Y-63240000D01*
X121870000Y-68540000D02*
X121870000Y-66890000D01*
X121870000Y-66890000D02*
G75*
G02*
X121870000Y-64890000I0J1000000D01*
G01*
%TO.C,L1*%
X102709500Y-104545500D02*
G75*
G02*
X95269500Y-104545500I-3720000J0D01*
G01*
X95269500Y-104545500D02*
G75*
G02*
X102709500Y-104545500I3720000J0D01*
G01*
D11*
%TO.C,U3*%
X67067178Y-66596000D02*
X67067178Y-64596000D01*
X68967180Y-66095999D02*
X68967180Y-65096001D01*
D15*
X67517181Y-65921001D02*
X67517181Y-65921001D01*
X67517181Y-65921001D01*
X67517181Y-65921001D01*
X67517181Y-65921001D01*
X67517181Y-65921001D01*
X67517181Y-65921002D01*
X67517181Y-65921002D01*
X67517181Y-65921002D01*
X67517181Y-65921002D01*
X67517181Y-65921002D01*
X67517181Y-65921002D01*
X67517181Y-65921002D01*
X67517180Y-65921002D01*
X67517180Y-65921002D01*
X67517180Y-65921002D01*
X67517180Y-65921002D01*
X67517180Y-65921002D01*
X67517180Y-65921002D01*
X67517180Y-65921002D01*
X67517180Y-65921002D01*
X67517180Y-65921002D01*
X67517180Y-65921002D01*
X67517180Y-65921002D01*
X67517180Y-65921002D01*
X67517179Y-65921002D01*
X67517179Y-65921002D01*
X67517179Y-65921002D01*
X67517179Y-65921002D01*
X67517179Y-65921002D01*
X67517179Y-65921002D01*
X67517179Y-65921001D01*
X67517179Y-65921001D01*
X67517179Y-65921001D01*
X67517179Y-65921001D01*
X67517179Y-65921001D01*
X67517179Y-65921001D01*
X67517179Y-65921001D02*
X67517179Y-65921001D01*
X67517179Y-65921001D01*
X67517179Y-65921001D01*
X67517179Y-65921001D01*
X67517179Y-65921001D01*
X67517179Y-65921001D01*
X67517179Y-65921000D01*
X67517179Y-65921000D01*
X67517179Y-65921000D01*
X67517179Y-65921000D01*
X67517179Y-65921000D01*
X67517180Y-65921000D01*
X67517180Y-65921000D01*
X67517180Y-65921000D01*
X67517180Y-65921000D01*
X67517180Y-65921000D01*
X67517180Y-65921000D01*
X67517180Y-65921000D01*
X67517180Y-65921000D01*
X67517180Y-65921000D01*
X67517180Y-65921000D01*
X67517180Y-65921000D01*
X67517180Y-65921000D01*
X67517181Y-65921000D01*
X67517181Y-65921000D01*
X67517181Y-65921000D01*
X67517181Y-65921000D01*
X67517181Y-65921000D01*
X67517181Y-65921000D01*
X67517181Y-65921001D01*
X67517181Y-65921001D01*
X67517181Y-65921001D01*
X67517181Y-65921001D01*
X67517181Y-65921001D01*
X67517181Y-65921001D01*
X67517181Y-65921001D01*
D13*
%TO.C,L1*%
X80220000Y-77700000D02*
G75*
G02*
X72780000Y-77700000I-3720000J0D01*
G01*
X72780000Y-77700000D02*
G75*
G02*
X80220000Y-77700000I3720000J0D01*
G01*
%TO.C,D3*%
X88784500Y-101005500D02*
X85694500Y-101005500D01*
X87239500Y-106555500D02*
G75*
G02*
X85694670Y-101005500I0J2990000D01*
G01*
X88784330Y-101005500D02*
G75*
G02*
X87239500Y-106555500I-1544830J-2560000D01*
G01*
X89739500Y-103565500D02*
G75*
G02*
X84739500Y-103565500I-2500000J0D01*
G01*
X84739500Y-103565500D02*
G75*
G02*
X89739500Y-103565500I2500000J0D01*
G01*
%TO.C,DS1*%
X44610000Y-19917500D02*
X44610000Y-56197500D01*
X44610000Y-56197500D02*
X124090000Y-56197500D01*
X48750000Y-25557500D02*
X121750000Y-25557500D01*
X48750000Y-50557500D02*
X48750000Y-25557500D01*
X52550000Y-45057500D02*
X52550000Y-31057500D01*
X53049340Y-30557500D02*
X116550000Y-30557500D01*
X116550000Y-45557500D02*
X53050000Y-45557500D01*
X117049720Y-31058180D02*
X117049720Y-45057500D01*
X118250000Y-56557500D02*
X115250000Y-56557500D01*
X121750000Y-25557500D02*
X121750000Y-50557500D01*
X121750000Y-50557500D02*
X48750000Y-50557500D01*
X124880000Y-56197500D02*
X124090000Y-56197500D01*
X124890000Y-19917500D02*
X44610000Y-19917500D01*
X124890000Y-56197500D02*
X124890000Y-19917500D01*
X52548960Y-31058180D02*
G75*
G02*
X53049340Y-30557860I500340J-20D01*
G01*
X53050000Y-45557500D02*
G75*
G02*
X52550000Y-45057500I0J500000D01*
G01*
X116549340Y-30557800D02*
G75*
G02*
X117049720Y-31058180I0J-500380D01*
G01*
X117049720Y-45058660D02*
G75*
G02*
X116549340Y-45559040I-500380J0D01*
G01*
%TO.C,R2*%
X115859694Y-89957370D02*
X115859694Y-88503242D01*
X117679694Y-89957370D02*
X117679694Y-88503242D01*
%TO.C,SW2*%
X123519694Y-115480306D02*
X123519694Y-119980306D01*
X126019694Y-121230306D02*
X127519694Y-121230306D01*
X127519694Y-114230306D02*
X126019694Y-114230306D01*
X130019694Y-119980306D02*
X130019694Y-115480306D01*
%TO.C,R3*%
X120359694Y-89957370D02*
X120359694Y-88503242D01*
X122179694Y-89957370D02*
X122179694Y-88503242D01*
%TO.C,D2*%
X126224694Y-91795306D02*
X129314694Y-91795306D01*
X126224864Y-91795306D02*
G75*
G02*
X127769694Y-86245306I1544830J2560000D01*
G01*
X127769694Y-86245306D02*
G75*
G02*
X129314524Y-91795306I0J-2990000D01*
G01*
X130269694Y-89235306D02*
G75*
G02*
X125269694Y-89235306I-2500000J0D01*
G01*
X125269694Y-89235306D02*
G75*
G02*
X130269694Y-89235306I2500000J0D01*
G01*
%TD*%
M02*
