%TF.GenerationSoftware,KiCad,Pcbnew,9.0.6*%
%TF.CreationDate,2026-02-05T19:58:19+01:00*%
%TF.ProjectId,Seminar,53656d69-6e61-4722-9e6b-696361645f70,rev?*%
%TF.SameCoordinates,Original*%
%TF.FileFunction,Paste,Top*%
%TF.FilePolarity,Positive*%
%FSLAX46Y46*%
G04 Gerber Fmt 4.6, Leading zero omitted, Abs format (unit mm)*
G04 Created by KiCad (PCBNEW 9.0.6) date 2026-02-05 19:58:19*
%MOMM*%
%LPD*%
G01*
G04 APERTURE LIST*
G04 Aperture macros list*
%AMRoundRect*
0 Rectangle with rounded corners*
0 $1 Rounding radius*
0 $2 $3 $4 $5 $6 $7 $8 $9 X,Y pos of 4 corners*
0 Add a 4 corners polygon primitive as box body*
4,1,4,$2,$3,$4,$5,$6,$7,$8,$9,$2,$3,0*
0 Add four circle primitives for the rounded corners*
1,1,$1+$1,$2,$3*
1,1,$1+$1,$4,$5*
1,1,$1+$1,$6,$7*
1,1,$1+$1,$8,$9*
0 Add four rect primitives between the rounded corners*
20,1,$1+$1,$2,$3,$4,$5,0*
20,1,$1+$1,$4,$5,$6,$7,0*
20,1,$1+$1,$6,$7,$8,$9,0*
20,1,$1+$1,$8,$9,$2,$3,0*%
G04 Aperture macros list end*
%ADD10C,0.010000*%
%ADD11RoundRect,0.250003X-3.499997X-2.999997X3.499997X-2.999997X3.499997X2.999997X-3.499997X2.999997X0*%
%ADD12RoundRect,0.250000X-0.400000X-0.625000X0.400000X-0.625000X0.400000X0.625000X-0.400000X0.625000X0*%
%ADD13R,1.100000X0.650000*%
%ADD14R,1.100000X0.662500*%
%ADD15RoundRect,0.075000X0.910000X0.225000X-0.910000X0.225000X-0.910000X-0.225000X0.910000X-0.225000X0*%
%ADD16RoundRect,0.250000X0.625000X-0.400000X0.625000X0.400000X-0.625000X0.400000X-0.625000X-0.400000X0*%
%ADD17R,2.000000X0.500000*%
%ADD18R,1.700000X2.000000*%
%ADD19RoundRect,0.250000X-0.650000X0.412500X-0.650000X-0.412500X0.650000X-0.412500X0.650000X0.412500X0*%
%ADD20RoundRect,0.250000X0.400000X0.625000X-0.400000X0.625000X-0.400000X-0.625000X0.400000X-0.625000X0*%
%ADD21RoundRect,0.070000X0.070000X-0.710000X0.070000X0.710000X-0.070000X0.710000X-0.070000X-0.710000X0*%
%ADD22RoundRect,0.070000X0.710000X-0.070000X0.710000X0.070000X-0.710000X0.070000X-0.710000X-0.070000X0*%
%ADD23RoundRect,0.250000X-0.412500X-0.650000X0.412500X-0.650000X0.412500X0.650000X-0.412500X0.650000X0*%
%ADD24RoundRect,0.250000X-0.625000X0.400000X-0.625000X-0.400000X0.625000X-0.400000X0.625000X0.400000X0*%
G04 APERTURE END LIST*
D10*
%TO.C,U4*%
X117420000Y-76495000D02*
X116130000Y-76495000D01*
X116130000Y-74855000D01*
X117420000Y-74855000D01*
X117420000Y-76495000D01*
G36*
X117420000Y-76495000D02*
G01*
X116130000Y-76495000D01*
X116130000Y-74855000D01*
X117420000Y-74855000D01*
X117420000Y-76495000D01*
G37*
%TD*%
D11*
%TO.C,BT1*%
X178110106Y-55750000D03*
X105480106Y-55750000D03*
%TD*%
D12*
%TO.C,R6*%
X132800000Y-79500000D03*
X129700000Y-79500000D03*
%TD*%
D13*
%TO.C,U3*%
X118050000Y-91500000D03*
D14*
X118000000Y-93000000D03*
D13*
X118050000Y-94500000D03*
X121500000Y-94500000D03*
X121500000Y-93000000D03*
X121500000Y-91500000D03*
%TD*%
D15*
%TO.C,U4*%
X120775000Y-78175000D03*
X120775000Y-76500000D03*
X120775000Y-74850000D03*
X120775000Y-73200000D03*
X112775000Y-73200000D03*
X112775000Y-74850000D03*
X112775000Y-76500000D03*
X112775000Y-78175000D03*
%TD*%
D16*
%TO.C,R4*%
X176025000Y-87050000D03*
X176025000Y-83950000D03*
%TD*%
D17*
%TO.C,J1*%
X99475000Y-81950000D03*
X99475000Y-82750000D03*
X99475000Y-83550000D03*
X99475000Y-84350000D03*
X99475000Y-85150000D03*
D18*
X99375000Y-79100000D03*
X93925000Y-79100000D03*
X99375000Y-88000000D03*
X93925000Y-88000000D03*
%TD*%
D19*
%TO.C,C1*%
X107775000Y-81987500D03*
X107775000Y-85112500D03*
%TD*%
D16*
%TO.C,R2*%
X156275000Y-84300000D03*
X156275000Y-81200000D03*
%TD*%
D19*
%TO.C,C3*%
X127525000Y-88687500D03*
X127525000Y-91812500D03*
%TD*%
D20*
%TO.C,R9*%
X110800000Y-88750000D03*
X107700000Y-88750000D03*
%TD*%
D16*
%TO.C,R3*%
X156275000Y-90800000D03*
X156275000Y-87700000D03*
%TD*%
D21*
%TO.C,U1*%
X140775000Y-93430000D03*
X141275000Y-93430000D03*
X141775000Y-93430000D03*
X142275000Y-93430000D03*
X142775000Y-93430000D03*
X143275000Y-93430000D03*
X143775000Y-93430000D03*
X144275000Y-93430000D03*
X144775000Y-93430000D03*
X145275000Y-93430000D03*
X145775000Y-93430000D03*
X146275000Y-93430000D03*
X146775000Y-93430000D03*
X147275000Y-93430000D03*
X147775000Y-93430000D03*
X148275000Y-93430000D03*
D22*
X150205000Y-91500000D03*
X150205000Y-91000000D03*
X150205000Y-90500000D03*
X150205000Y-90000000D03*
X150205000Y-89500000D03*
X150205000Y-89000000D03*
X150205000Y-88500000D03*
X150205000Y-88000000D03*
X150205000Y-87500000D03*
X150205000Y-87000000D03*
X150205000Y-86500000D03*
X150205000Y-86000000D03*
X150205000Y-85500000D03*
X150205000Y-85000000D03*
X150205000Y-84500000D03*
X150205000Y-84000000D03*
D21*
X148275000Y-82070000D03*
X147775000Y-82070000D03*
X147275000Y-82070000D03*
X146775000Y-82070000D03*
X146275000Y-82070000D03*
X145775000Y-82070000D03*
X145275000Y-82070000D03*
X144775000Y-82070000D03*
X144275000Y-82070000D03*
X143775000Y-82070000D03*
X143275000Y-82070000D03*
X142775000Y-82070000D03*
X142275000Y-82070000D03*
X141775000Y-82070000D03*
X141275000Y-82070000D03*
X140775000Y-82070000D03*
D22*
X138845000Y-84000000D03*
X138845000Y-84500000D03*
X138845000Y-85000000D03*
X138845000Y-85500000D03*
X138845000Y-86000000D03*
X138845000Y-86500000D03*
X138845000Y-87000000D03*
X138845000Y-87500000D03*
X138845000Y-88000000D03*
X138845000Y-88500000D03*
X138845000Y-89000000D03*
X138845000Y-89500000D03*
X138845000Y-90000000D03*
X138845000Y-90500000D03*
X138845000Y-91000000D03*
X138845000Y-91500000D03*
%TD*%
D16*
%TO.C,R10*%
X113500000Y-96300000D03*
X113500000Y-93200000D03*
%TD*%
D23*
%TO.C,C5*%
X105712500Y-73000000D03*
X108837500Y-73000000D03*
%TD*%
D16*
%TO.C,R5*%
X176025000Y-99000000D03*
X176025000Y-95900000D03*
%TD*%
D24*
%TO.C,R1*%
X167775000Y-104200000D03*
X167775000Y-107300000D03*
%TD*%
D20*
%TO.C,R7*%
X118575000Y-68000000D03*
X115475000Y-68000000D03*
%TD*%
%TO.C,R8*%
X132800000Y-84500000D03*
X129700000Y-84500000D03*
%TD*%
M02*
