%TF.GenerationSoftware,KiCad,Pcbnew,9.0.6*%
%TF.CreationDate,2026-02-06T12:24:06+01:00*%
%TF.ProjectId,Seminar,53656d69-6e61-4722-9e6b-696361645f70,rev?*%
%TF.SameCoordinates,Original*%
%TF.FileFunction,Copper,L2,Bot*%
%TF.FilePolarity,Positive*%
%FSLAX46Y46*%
G04 Gerber Fmt 4.6, Leading zero omitted, Abs format (unit mm)*
G04 Created by KiCad (PCBNEW 9.0.6) date 2026-02-06 12:24:06*
%MOMM*%
%LPD*%
G01*
G04 APERTURE LIST*
G04 Aperture macros list*
%AMRoundRect*
0 Rectangle with rounded corners*
0 $1 Rounding radius*
0 $2 $3 $4 $5 $6 $7 $8 $9 X,Y pos of 4 corners*
0 Add a 4 corners polygon primitive as box body*
4,1,4,$2,$3,$4,$5,$6,$7,$8,$9,$2,$3,0*
0 Add four circle primitives for the rounded corners*
1,1,$1+$1,$2,$3*
1,1,$1+$1,$4,$5*
1,1,$1+$1,$6,$7*
1,1,$1+$1,$8,$9*
0 Add four rect primitives between the rounded corners*
20,1,$1+$1,$2,$3,$4,$5,0*
20,1,$1+$1,$4,$5,$6,$7,0*
20,1,$1+$1,$6,$7,$8,$9,0*
20,1,$1+$1,$8,$9,$2,$3,0*%
G04 Aperture macros list end*
%TA.AperFunction,ComponentPad*%
%ADD10O,2.200000X3.500000*%
%TD*%
%TA.AperFunction,ComponentPad*%
%ADD11R,1.500000X2.500000*%
%TD*%
%TA.AperFunction,ComponentPad*%
%ADD12O,1.500000X2.500000*%
%TD*%
%TA.AperFunction,ComponentPad*%
%ADD13R,1.800000X1.800000*%
%TD*%
%TA.AperFunction,ComponentPad*%
%ADD14C,1.800000*%
%TD*%
%TA.AperFunction,ComponentPad*%
%ADD15C,1.440000*%
%TD*%
%TA.AperFunction,ComponentPad*%
%ADD16C,2.400000*%
%TD*%
%TA.AperFunction,ComponentPad*%
%ADD17RoundRect,0.250000X0.550000X-0.550000X0.550000X0.550000X-0.550000X0.550000X-0.550000X-0.550000X0*%
%TD*%
%TA.AperFunction,ComponentPad*%
%ADD18C,1.600000*%
%TD*%
%TA.AperFunction,ComponentPad*%
%ADD19C,3.000000*%
%TD*%
%TA.AperFunction,ComponentPad*%
%ADD20R,1.800000X2.600000*%
%TD*%
%TA.AperFunction,ComponentPad*%
%ADD21O,1.800000X2.600000*%
%TD*%
%TA.AperFunction,ComponentPad*%
%ADD22C,2.000000*%
%TD*%
%TA.AperFunction,ComponentPad*%
%ADD23RoundRect,0.250000X-0.550000X0.550000X-0.550000X-0.550000X0.550000X-0.550000X0.550000X0.550000X0*%
%TD*%
%TA.AperFunction,ViaPad*%
%ADD24C,0.700000*%
%TD*%
%TA.AperFunction,Conductor*%
%ADD25C,0.300000*%
%TD*%
%TA.AperFunction,Conductor*%
%ADD26C,0.500000*%
%TD*%
%TA.AperFunction,Conductor*%
%ADD27C,1.000000*%
%TD*%
G04 APERTURE END LIST*
D10*
%TO.P,SW3,*%
%TO.N,*%
X124125000Y-85500000D03*
X115925000Y-85500000D03*
D11*
%TO.P,SW3,1,C*%
%TO.N,+Vin*%
X122025000Y-85500000D03*
D12*
%TO.P,SW3,2,B*%
%TO.N,Net-(SW3-B)*%
X120025000Y-85500000D03*
%TO.P,SW3,3,A*%
%TO.N,GND*%
X118025000Y-85500000D03*
%TD*%
D13*
%TO.P,D1,1,K*%
%TO.N,GND*%
X145475000Y-73250000D03*
D14*
%TO.P,D1,2,A*%
%TO.N,Net-(D1-A)*%
X148015000Y-73250000D03*
%TD*%
D15*
%TO.P,RV1,1,1*%
%TO.N,5V*%
X121815000Y-101110000D03*
%TO.P,RV1,2,2*%
%TO.N,Net-(DS1-VO)*%
X119275000Y-103650000D03*
%TO.P,RV1,3,3*%
%TO.N,GND*%
X116735000Y-101110000D03*
%TD*%
D13*
%TO.P,D3,1,K*%
%TO.N,Net-(D3-K)*%
X136300000Y-73000000D03*
D14*
%TO.P,D3,2,A*%
%TO.N,USB 5V*%
X133760000Y-73000000D03*
%TD*%
D16*
%TO.P,L1,1*%
%TO.N,+Vin*%
X106750000Y-97750000D03*
%TO.P,L1,2*%
%TO.N,Net-(U3-SW)*%
X106750000Y-94750000D03*
%TD*%
D17*
%TO.P,C4,1*%
%TO.N,5V*%
X127250000Y-97705113D03*
D18*
%TO.P,C4,2*%
%TO.N,GND*%
X127250000Y-95705113D03*
%TD*%
D19*
%TO.P,DS1,*%
%TO.N,*%
X104111006Y-112392500D03*
X104111006Y-143393200D03*
X179109586Y-143393200D03*
X179110106Y-112392500D03*
D20*
%TO.P,DS1,1,VSS*%
%TO.N,GND*%
X109610106Y-112392500D03*
D21*
%TO.P,DS1,2,VDD*%
%TO.N,5V*%
X112150106Y-112392500D03*
%TO.P,DS1,3,VO*%
%TO.N,Net-(DS1-VO)*%
X114690106Y-112392500D03*
%TO.P,DS1,4,RS*%
%TO.N,Net-(DS1-RS)*%
X117230106Y-112392500D03*
%TO.P,DS1,5,R/W*%
%TO.N,Net-(DS1-R{slash}W)*%
X119770106Y-112392500D03*
%TO.P,DS1,6,E*%
%TO.N,Net-(DS1-E)*%
X122310106Y-112392500D03*
%TO.P,DS1,7,D0*%
%TO.N,unconnected-(DS1-D0-Pad7)*%
X124850106Y-112392500D03*
%TO.P,DS1,8,D1*%
%TO.N,unconnected-(DS1-D1-Pad8)*%
X127390106Y-112392500D03*
%TO.P,DS1,9,D2*%
%TO.N,unconnected-(DS1-D2-Pad9)*%
X129930106Y-112392500D03*
%TO.P,DS1,10,D3*%
%TO.N,unconnected-(DS1-D3-Pad10)*%
X132470106Y-112392500D03*
%TO.P,DS1,11,D4*%
%TO.N,Net-(DS1-D4)*%
X135010106Y-112392500D03*
%TO.P,DS1,12,D5*%
%TO.N,Net-(DS1-D5)*%
X137550106Y-112392500D03*
%TO.P,DS1,13,D6*%
%TO.N,Net-(DS1-D6)*%
X140090106Y-112392500D03*
%TO.P,DS1,14,D7*%
%TO.N,Net-(DS1-D7)*%
X142630106Y-112392500D03*
%TO.P,DS1,15,LED(+)*%
%TO.N,Net-(DS1-LED(+))*%
X145170106Y-112392500D03*
%TO.P,DS1,16,LED(-)*%
%TO.N,GND*%
X147710106Y-112392500D03*
%TD*%
D13*
%TO.P,D2,1,K*%
%TO.N,GND*%
X155225000Y-73250000D03*
D14*
%TO.P,D2,2,A*%
%TO.N,Net-(D2-A)*%
X157765000Y-73250000D03*
%TD*%
D22*
%TO.P,SW1,1,1*%
%TO.N,START*%
X164525000Y-83250000D03*
X171025000Y-83250000D03*
%TO.P,SW1,2,2*%
%TO.N,GND*%
X164525000Y-87750000D03*
X171025000Y-87750000D03*
%TD*%
D13*
%TO.P,D4,1,K*%
%TO.N,Net-(D4-K)*%
X128525000Y-73000000D03*
D14*
%TO.P,D4,2,A*%
%TO.N,USB 5V*%
X125985000Y-73000000D03*
%TD*%
D23*
%TO.P,U2,1,A0*%
%TO.N,GND*%
X156725000Y-98750000D03*
D18*
%TO.P,U2,2,A1*%
X154185000Y-98750000D03*
%TO.P,U2,3,A2*%
X151645000Y-98750000D03*
%TO.P,U2,4,P0*%
%TO.N,Net-(DS1-RS)*%
X149105000Y-98750000D03*
%TO.P,U2,5,P1*%
%TO.N,Net-(DS1-R{slash}W)*%
X146565000Y-98750000D03*
%TO.P,U2,6,P2*%
%TO.N,Net-(DS1-E)*%
X144025000Y-98750000D03*
%TO.P,U2,7,P3*%
%TO.N,unconnected-(U2-P3-Pad7)*%
X141485000Y-98750000D03*
%TO.P,U2,8,GND*%
%TO.N,GND*%
X138945000Y-98750000D03*
%TO.P,U2,9,P4*%
%TO.N,Net-(DS1-D4)*%
X138945000Y-106370000D03*
%TO.P,U2,10,P5*%
%TO.N,Net-(DS1-D5)*%
X141485000Y-106370000D03*
%TO.P,U2,11,P6*%
%TO.N,Net-(DS1-D6)*%
X144025000Y-106370000D03*
%TO.P,U2,12,P7*%
%TO.N,Net-(DS1-D7)*%
X146565000Y-106370000D03*
%TO.P,U2,13,~{INT}*%
%TO.N,unconnected-(U2-~{INT}-Pad13)*%
X149105000Y-106370000D03*
%TO.P,U2,14,SCL*%
%TO.N,SCL*%
X151645000Y-106370000D03*
%TO.P,U2,15,SDA*%
%TO.N,SDA*%
X154185000Y-106370000D03*
%TO.P,U2,16,VDD*%
%TO.N,5V*%
X156725000Y-106370000D03*
%TD*%
D22*
%TO.P,SW2,1,1*%
%TO.N,STOP*%
X164525000Y-95000000D03*
X171025000Y-95000000D03*
%TO.P,SW2,2,2*%
%TO.N,GND*%
X164525000Y-99500000D03*
X171025000Y-99500000D03*
%TD*%
D24*
%TO.N,GND*%
X148426000Y-83950000D03*
X117500000Y-80750000D03*
X122700000Y-93750000D03*
X148750000Y-88050000D03*
X148400000Y-91000000D03*
X118250000Y-78126000D03*
X148426000Y-82550000D03*
X124800000Y-93750000D03*
%TO.N,Net-(D2-A)*%
X157750000Y-84000000D03*
X157750000Y-82550000D03*
%TO.N,BLUE*%
X147500000Y-92250000D03*
X149250000Y-92300000D03*
%TO.N,STOP*%
X159250000Y-96000000D03*
X157176000Y-96000000D03*
%TO.N,SDA*%
X158576000Y-102250000D03*
X157176000Y-103250000D03*
%TO.N,SCL*%
X147750000Y-100250000D03*
X141176000Y-83549000D03*
X141176000Y-85450000D03*
X143667187Y-90491187D03*
X147750000Y-96250000D03*
X144782137Y-91356137D03*
%TO.N,+Vin*%
X110250000Y-75750000D03*
X110250000Y-78500000D03*
%TO.N,5V*%
X138147324Y-84250000D03*
X136426000Y-82500000D03*
%TO.N,Net-(U3-SW)*%
X116250000Y-92000000D03*
X120500000Y-93500000D03*
%TO.N,STDBY*%
X111500000Y-74250000D03*
X111500000Y-72150000D03*
%TD*%
D25*
%TO.N,GND*%
X148426000Y-83950000D02*
X148426000Y-82550000D01*
D26*
X117500000Y-78626000D02*
X118000000Y-78126000D01*
X118000000Y-78126000D02*
X118250000Y-78126000D01*
X117500000Y-80750000D02*
X117500000Y-78626000D01*
D25*
X148750000Y-88050000D02*
X148750000Y-90650000D01*
D26*
X122700000Y-93750000D02*
X124800000Y-93750000D01*
D25*
X148750000Y-90650000D02*
X148400000Y-91000000D01*
%TO.N,Net-(D2-A)*%
X157750000Y-84000000D02*
X157750000Y-82550000D01*
%TO.N,BLUE*%
X149200000Y-92250000D02*
X149250000Y-92300000D01*
X147500000Y-92250000D02*
X149200000Y-92250000D01*
%TO.N,STOP*%
X157176000Y-96000000D02*
X159250000Y-96000000D01*
%TO.N,SDA*%
X158576000Y-102250000D02*
X158176000Y-102250000D01*
X158176000Y-102250000D02*
X157176000Y-103250000D01*
%TO.N,SCL*%
X147750000Y-100250000D02*
X147750000Y-96250000D01*
X144782137Y-91356137D02*
X144532137Y-91356137D01*
X141176000Y-85450000D02*
X141176000Y-83549000D01*
X144532137Y-91356137D02*
X143667187Y-90491187D01*
D27*
%TO.N,+Vin*%
X110250000Y-75750000D02*
X110250000Y-78500000D01*
D25*
%TO.N,5V*%
X136676000Y-83500000D02*
X136426000Y-83250000D01*
X136426000Y-83250000D02*
X136426000Y-82500000D01*
X137397324Y-83500000D02*
X136676000Y-83500000D01*
X138147324Y-84250000D02*
X137397324Y-83500000D01*
D26*
%TO.N,Net-(U3-SW)*%
X120500000Y-93500000D02*
X120250000Y-93750000D01*
X120250000Y-93750000D02*
X118000000Y-93750000D01*
X118000000Y-93750000D02*
X116250000Y-92000000D01*
D25*
%TO.N,STDBY*%
X111250000Y-74250000D02*
X111000000Y-74000000D01*
X111500000Y-74250000D02*
X111250000Y-74250000D01*
X111000000Y-72650000D02*
X111500000Y-72150000D01*
X111000000Y-74000000D02*
X111000000Y-72650000D01*
%TD*%
%TA.AperFunction,Conductor*%
%TO.N,GND*%
G36*
X188752562Y-43000605D02*
G01*
X189120277Y-43015814D01*
X189125906Y-43016177D01*
X189209956Y-43023530D01*
X189214429Y-43024004D01*
X189537028Y-43064216D01*
X189543169Y-43065140D01*
X189621766Y-43078999D01*
X189625594Y-43079737D01*
X189949008Y-43147549D01*
X189955622Y-43149128D01*
X190024576Y-43167604D01*
X190027787Y-43168512D01*
X190353169Y-43265383D01*
X190360157Y-43267692D01*
X190414056Y-43287310D01*
X190416678Y-43288299D01*
X190746425Y-43416967D01*
X190753729Y-43420089D01*
X190784837Y-43434595D01*
X190786641Y-43435458D01*
X191124902Y-43600823D01*
X191133883Y-43605683D01*
X191480070Y-43811966D01*
X191488638Y-43817564D01*
X191816593Y-44051719D01*
X191824668Y-44058005D01*
X192127765Y-44314715D01*
X192132155Y-44318433D01*
X192139695Y-44325374D01*
X192424625Y-44610304D01*
X192431566Y-44617844D01*
X192691989Y-44925325D01*
X192698284Y-44933412D01*
X192932431Y-45261355D01*
X192938037Y-45269935D01*
X193144309Y-45616105D01*
X193149186Y-45625119D01*
X193314467Y-45963206D01*
X193315450Y-45965262D01*
X193329902Y-45996255D01*
X193333036Y-46003584D01*
X193461691Y-46333300D01*
X193462696Y-46335964D01*
X193482299Y-46389822D01*
X193484622Y-46396851D01*
X193581475Y-46722173D01*
X193582405Y-46725462D01*
X193600867Y-46794364D01*
X193602453Y-46801010D01*
X193670250Y-47124350D01*
X193671005Y-47128265D01*
X193684854Y-47206807D01*
X193685786Y-47213001D01*
X193725990Y-47535538D01*
X193726470Y-47540069D01*
X193733819Y-47624067D01*
X193734185Y-47629749D01*
X193749394Y-47997437D01*
X193749500Y-48002562D01*
X193749500Y-142997437D01*
X193749394Y-143002562D01*
X193734185Y-143370249D01*
X193733819Y-143375931D01*
X193726470Y-143459929D01*
X193725990Y-143464460D01*
X193685786Y-143786997D01*
X193684854Y-143793191D01*
X193671005Y-143871733D01*
X193670250Y-143875648D01*
X193602453Y-144198988D01*
X193600867Y-144205634D01*
X193582405Y-144274536D01*
X193581475Y-144277825D01*
X193484622Y-144603147D01*
X193482299Y-144610176D01*
X193462696Y-144664034D01*
X193461691Y-144666698D01*
X193333036Y-144996414D01*
X193329903Y-145003741D01*
X193329902Y-145003743D01*
X193315471Y-145034691D01*
X193314489Y-145036747D01*
X193149182Y-145374889D01*
X193144304Y-145383903D01*
X192938037Y-145730064D01*
X192932431Y-145738644D01*
X192698284Y-146066587D01*
X192691989Y-146074674D01*
X192431566Y-146382155D01*
X192424625Y-146389695D01*
X192139695Y-146674625D01*
X192132155Y-146681566D01*
X191824674Y-146941989D01*
X191816587Y-146948284D01*
X191488644Y-147182431D01*
X191480064Y-147188037D01*
X191133903Y-147394304D01*
X191124889Y-147399182D01*
X190786747Y-147564489D01*
X190784691Y-147565471D01*
X190753743Y-147579902D01*
X190746414Y-147583036D01*
X190416698Y-147711691D01*
X190414034Y-147712696D01*
X190360176Y-147732299D01*
X190353147Y-147734622D01*
X190027825Y-147831475D01*
X190024536Y-147832405D01*
X189955634Y-147850867D01*
X189948988Y-147852453D01*
X189625648Y-147920250D01*
X189621733Y-147921005D01*
X189543191Y-147934854D01*
X189536997Y-147935786D01*
X189214460Y-147975990D01*
X189209929Y-147976470D01*
X189125931Y-147983819D01*
X189120249Y-147984185D01*
X188752563Y-147999394D01*
X188747438Y-147999500D01*
X94252562Y-147999500D01*
X94247437Y-147999394D01*
X93879749Y-147984185D01*
X93874067Y-147983819D01*
X93790069Y-147976470D01*
X93785538Y-147975990D01*
X93463001Y-147935786D01*
X93456807Y-147934854D01*
X93378265Y-147921005D01*
X93374350Y-147920250D01*
X93051010Y-147852453D01*
X93044364Y-147850867D01*
X92975462Y-147832405D01*
X92972173Y-147831475D01*
X92646851Y-147734622D01*
X92639822Y-147732299D01*
X92585964Y-147712696D01*
X92583300Y-147711691D01*
X92253584Y-147583036D01*
X92246255Y-147579902D01*
X92215262Y-147565450D01*
X92213206Y-147564467D01*
X91875119Y-147399186D01*
X91866105Y-147394309D01*
X91519935Y-147188037D01*
X91511355Y-147182431D01*
X91183412Y-146948284D01*
X91175325Y-146941989D01*
X90867844Y-146681566D01*
X90860304Y-146674625D01*
X90575374Y-146389695D01*
X90568433Y-146382155D01*
X90308010Y-146074674D01*
X90301715Y-146066587D01*
X90188599Y-145908159D01*
X90067564Y-145738638D01*
X90061962Y-145730064D01*
X89855683Y-145383883D01*
X89850817Y-145374889D01*
X89685458Y-145036641D01*
X89684595Y-145034837D01*
X89670089Y-145003729D01*
X89666962Y-144996414D01*
X89653833Y-144962768D01*
X89538299Y-144666679D01*
X89537302Y-144664034D01*
X89517692Y-144610157D01*
X89515383Y-144603169D01*
X89418512Y-144277787D01*
X89417604Y-144274576D01*
X89399128Y-144205622D01*
X89397549Y-144199008D01*
X89329737Y-143875594D01*
X89328999Y-143871766D01*
X89315140Y-143793169D01*
X89314216Y-143787028D01*
X89274002Y-143464411D01*
X89273525Y-143459902D01*
X89272215Y-143444926D01*
X89271744Y-143433531D01*
X89272018Y-143375931D01*
X89279372Y-141831491D01*
X92479606Y-141831491D01*
X92479606Y-142168508D01*
X92517337Y-142503381D01*
X92517339Y-142503397D01*
X92592329Y-142831953D01*
X92592333Y-142831965D01*
X92703638Y-143150054D01*
X92849858Y-143453683D01*
X92849860Y-143453686D01*
X93029160Y-143739039D01*
X93239281Y-144002523D01*
X93477583Y-144240825D01*
X93741067Y-144450946D01*
X94026420Y-144630246D01*
X94330055Y-144776469D01*
X94568954Y-144860063D01*
X94648140Y-144887772D01*
X94648152Y-144887776D01*
X94976712Y-144962767D01*
X95311598Y-145000499D01*
X95311599Y-145000500D01*
X95311602Y-145000500D01*
X95648613Y-145000500D01*
X95648613Y-145000499D01*
X95983500Y-144962767D01*
X96312060Y-144887776D01*
X96630157Y-144776469D01*
X96933792Y-144630246D01*
X97219145Y-144450946D01*
X97482629Y-144240825D01*
X97720931Y-144002523D01*
X97931052Y-143739039D01*
X98110352Y-143453686D01*
X98202628Y-143262072D01*
X102110506Y-143262072D01*
X102110506Y-143524327D01*
X102122978Y-143619054D01*
X102144736Y-143784316D01*
X102203204Y-144002522D01*
X102212608Y-144037618D01*
X102212611Y-144037628D01*
X102312959Y-144279890D01*
X102312964Y-144279900D01*
X102444081Y-144507003D01*
X102603724Y-144715051D01*
X102603732Y-144715060D01*
X102789146Y-144900474D01*
X102789154Y-144900481D01*
X102997202Y-145060124D01*
X103224305Y-145191241D01*
X103224315Y-145191246D01*
X103466577Y-145291594D01*
X103466587Y-145291598D01*
X103719890Y-145359470D01*
X103979886Y-145393700D01*
X103979893Y-145393700D01*
X104242119Y-145393700D01*
X104242126Y-145393700D01*
X104502122Y-145359470D01*
X104755425Y-145291598D01*
X104997703Y-145191243D01*
X105224809Y-145060124D01*
X105432857Y-144900482D01*
X105432861Y-144900477D01*
X105432866Y-144900474D01*
X105618280Y-144715060D01*
X105618283Y-144715055D01*
X105618288Y-144715051D01*
X105777930Y-144507003D01*
X105909049Y-144279897D01*
X106009404Y-144037619D01*
X106077276Y-143784316D01*
X106111506Y-143524320D01*
X106111506Y-143262080D01*
X106111505Y-143262072D01*
X177109086Y-143262072D01*
X177109086Y-143524327D01*
X177121558Y-143619054D01*
X177143316Y-143784316D01*
X177201784Y-144002522D01*
X177211188Y-144037618D01*
X177211191Y-144037628D01*
X177311539Y-144279890D01*
X177311544Y-144279900D01*
X177442661Y-144507003D01*
X177602304Y-144715051D01*
X177602312Y-144715060D01*
X177787726Y-144900474D01*
X177787734Y-144900481D01*
X177995782Y-145060124D01*
X178222885Y-145191241D01*
X178222895Y-145191246D01*
X178465157Y-145291594D01*
X178465167Y-145291598D01*
X178718470Y-145359470D01*
X178978466Y-145393700D01*
X178978473Y-145393700D01*
X179240699Y-145393700D01*
X179240706Y-145393700D01*
X179500702Y-145359470D01*
X179754005Y-145291598D01*
X179996283Y-145191243D01*
X180223389Y-145060124D01*
X180431437Y-144900482D01*
X180431441Y-144900477D01*
X180431446Y-144900474D01*
X180616860Y-144715060D01*
X180616863Y-144715055D01*
X180616868Y-144715051D01*
X180776510Y-144507003D01*
X180907629Y-144279897D01*
X181007984Y-144037619D01*
X181075856Y-143784316D01*
X181110086Y-143524320D01*
X181110086Y-143262080D01*
X181075856Y-143002084D01*
X181007984Y-142748781D01*
X181007980Y-142748771D01*
X180907632Y-142506509D01*
X180907627Y-142506499D01*
X180776510Y-142279396D01*
X180616867Y-142071348D01*
X180616860Y-142071340D01*
X180431446Y-141885926D01*
X180431437Y-141885918D01*
X180360507Y-141831491D01*
X184749500Y-141831491D01*
X184749500Y-142168508D01*
X184787231Y-142503381D01*
X184787233Y-142503397D01*
X184862223Y-142831953D01*
X184862227Y-142831965D01*
X184973532Y-143150054D01*
X185119752Y-143453683D01*
X185119754Y-143453686D01*
X185299054Y-143739039D01*
X185509175Y-144002523D01*
X185747477Y-144240825D01*
X186010961Y-144450946D01*
X186296314Y-144630246D01*
X186599949Y-144776469D01*
X186838848Y-144860063D01*
X186918034Y-144887772D01*
X186918046Y-144887776D01*
X187246606Y-144962767D01*
X187581492Y-145000499D01*
X187581493Y-145000500D01*
X187581496Y-145000500D01*
X187918507Y-145000500D01*
X187918507Y-145000499D01*
X188253394Y-144962767D01*
X188581954Y-144887776D01*
X188900051Y-144776469D01*
X189203686Y-144630246D01*
X189489039Y-144450946D01*
X189752523Y-144240825D01*
X189990825Y-144002523D01*
X190200946Y-143739039D01*
X190380246Y-143453686D01*
X190526469Y-143150051D01*
X190637776Y-142831954D01*
X190712767Y-142503394D01*
X190750500Y-142168504D01*
X190750500Y-141831496D01*
X190712767Y-141496606D01*
X190637776Y-141168046D01*
X190526469Y-140849949D01*
X190380246Y-140546314D01*
X190200946Y-140260961D01*
X189990825Y-139997477D01*
X189752523Y-139759175D01*
X189489039Y-139549054D01*
X189203686Y-139369754D01*
X189203683Y-139369752D01*
X188900054Y-139223532D01*
X188581965Y-139112227D01*
X188581953Y-139112223D01*
X188253397Y-139037233D01*
X188253381Y-139037231D01*
X187918508Y-138999500D01*
X187918504Y-138999500D01*
X187581496Y-138999500D01*
X187581491Y-138999500D01*
X187246618Y-139037231D01*
X187246602Y-139037233D01*
X186918046Y-139112223D01*
X186918034Y-139112227D01*
X186599945Y-139223532D01*
X186296316Y-139369752D01*
X186010962Y-139549053D01*
X185747477Y-139759174D01*
X185509174Y-139997477D01*
X185299053Y-140260962D01*
X185119752Y-140546316D01*
X184973532Y-140849945D01*
X184862227Y-141168034D01*
X184862223Y-141168046D01*
X184787233Y-141496602D01*
X184787231Y-141496618D01*
X184749500Y-141831491D01*
X180360507Y-141831491D01*
X180223389Y-141726275D01*
X179996286Y-141595158D01*
X179996276Y-141595153D01*
X179754014Y-141494805D01*
X179754007Y-141494803D01*
X179754005Y-141494802D01*
X179500702Y-141426930D01*
X179442925Y-141419323D01*
X179240713Y-141392700D01*
X179240706Y-141392700D01*
X178978466Y-141392700D01*
X178978458Y-141392700D01*
X178747358Y-141423126D01*
X178718470Y-141426930D01*
X178465167Y-141494802D01*
X178465157Y-141494805D01*
X178222895Y-141595153D01*
X178222885Y-141595158D01*
X177995782Y-141726275D01*
X177787734Y-141885918D01*
X177602304Y-142071348D01*
X177442661Y-142279396D01*
X177311544Y-142506499D01*
X177311539Y-142506509D01*
X177211191Y-142748771D01*
X177211188Y-142748781D01*
X177143820Y-143000205D01*
X177143316Y-143002085D01*
X177109086Y-143262072D01*
X106111505Y-143262072D01*
X106077276Y-143002084D01*
X106009404Y-142748781D01*
X106009400Y-142748771D01*
X105909052Y-142506509D01*
X105909047Y-142506499D01*
X105777930Y-142279396D01*
X105618287Y-142071348D01*
X105618280Y-142071340D01*
X105432866Y-141885926D01*
X105432857Y-141885918D01*
X105224809Y-141726275D01*
X104997706Y-141595158D01*
X104997696Y-141595153D01*
X104755434Y-141494805D01*
X104755427Y-141494803D01*
X104755425Y-141494802D01*
X104502122Y-141426930D01*
X104444345Y-141419323D01*
X104242133Y-141392700D01*
X104242126Y-141392700D01*
X103979886Y-141392700D01*
X103979878Y-141392700D01*
X103748778Y-141423126D01*
X103719890Y-141426930D01*
X103466587Y-141494802D01*
X103466577Y-141494805D01*
X103224315Y-141595153D01*
X103224305Y-141595158D01*
X102997202Y-141726275D01*
X102789154Y-141885918D01*
X102603724Y-142071348D01*
X102444081Y-142279396D01*
X102312964Y-142506499D01*
X102312959Y-142506509D01*
X102212611Y-142748771D01*
X102212608Y-142748781D01*
X102145240Y-143000205D01*
X102144736Y-143002085D01*
X102110506Y-143262072D01*
X98202628Y-143262072D01*
X98256575Y-143150051D01*
X98367882Y-142831954D01*
X98442873Y-142503394D01*
X98480606Y-142168504D01*
X98480606Y-141831496D01*
X98442873Y-141496606D01*
X98367882Y-141168046D01*
X98256575Y-140849949D01*
X98110352Y-140546314D01*
X97931052Y-140260961D01*
X97720931Y-139997477D01*
X97482629Y-139759175D01*
X97219145Y-139549054D01*
X96933792Y-139369754D01*
X96933789Y-139369752D01*
X96630160Y-139223532D01*
X96312071Y-139112227D01*
X96312059Y-139112223D01*
X95983503Y-139037233D01*
X95983487Y-139037231D01*
X95648614Y-138999500D01*
X95648610Y-138999500D01*
X95311602Y-138999500D01*
X95311597Y-138999500D01*
X94976724Y-139037231D01*
X94976708Y-139037233D01*
X94648152Y-139112223D01*
X94648140Y-139112227D01*
X94330051Y-139223532D01*
X94026422Y-139369752D01*
X93741068Y-139549053D01*
X93477583Y-139759174D01*
X93239280Y-139997477D01*
X93029159Y-140260962D01*
X92849858Y-140546316D01*
X92703638Y-140849945D01*
X92592333Y-141168034D01*
X92592329Y-141168046D01*
X92517339Y-141496602D01*
X92517337Y-141496618D01*
X92479606Y-141831491D01*
X89279372Y-141831491D01*
X89420183Y-112261372D01*
X102110506Y-112261372D01*
X102110506Y-112523627D01*
X102126157Y-112642500D01*
X102144736Y-112783616D01*
X102189750Y-112951611D01*
X102212608Y-113036918D01*
X102212611Y-113036928D01*
X102312959Y-113279190D01*
X102312964Y-113279200D01*
X102444081Y-113506303D01*
X102603724Y-113714351D01*
X102603732Y-113714360D01*
X102789146Y-113899774D01*
X102789154Y-113899781D01*
X102997202Y-114059424D01*
X103224305Y-114190541D01*
X103224315Y-114190546D01*
X103466577Y-114290894D01*
X103466587Y-114290898D01*
X103719890Y-114358770D01*
X103979886Y-114393000D01*
X103979893Y-114393000D01*
X104242119Y-114393000D01*
X104242126Y-114393000D01*
X104502122Y-114358770D01*
X104755425Y-114290898D01*
X104932346Y-114217614D01*
X104997696Y-114190546D01*
X104997697Y-114190545D01*
X104997703Y-114190543D01*
X105224809Y-114059424D01*
X105432857Y-113899782D01*
X105432861Y-113899777D01*
X105432866Y-113899774D01*
X105618280Y-113714360D01*
X105618283Y-113714355D01*
X105618288Y-113714351D01*
X105777930Y-113506303D01*
X105909049Y-113279197D01*
X106009404Y-113036919D01*
X106077276Y-112783616D01*
X106111506Y-112523620D01*
X106111506Y-112261380D01*
X106077276Y-112001384D01*
X106009404Y-111748081D01*
X106009400Y-111748071D01*
X105909052Y-111505809D01*
X105909047Y-111505799D01*
X105777930Y-111278696D01*
X105709464Y-111189471D01*
X105618288Y-111070649D01*
X105618282Y-111070643D01*
X105618279Y-111070639D01*
X105592295Y-111044655D01*
X108210106Y-111044655D01*
X108210106Y-112142500D01*
X109061624Y-112142500D01*
X109050995Y-112160909D01*
X109010106Y-112313509D01*
X109010106Y-112471491D01*
X109050995Y-112624091D01*
X109061624Y-112642500D01*
X108210106Y-112642500D01*
X108210106Y-113740344D01*
X108216507Y-113799872D01*
X108216509Y-113799879D01*
X108266751Y-113934586D01*
X108266755Y-113934593D01*
X108352915Y-114049687D01*
X108352918Y-114049690D01*
X108468012Y-114135850D01*
X108468019Y-114135854D01*
X108602726Y-114186096D01*
X108602733Y-114186098D01*
X108662261Y-114192499D01*
X108662278Y-114192500D01*
X109360106Y-114192500D01*
X109360106Y-112940982D01*
X109378515Y-112951611D01*
X109531115Y-112992500D01*
X109689097Y-112992500D01*
X109841697Y-112951611D01*
X109860106Y-112940982D01*
X109860106Y-114192500D01*
X110557934Y-114192500D01*
X110557950Y-114192499D01*
X110617478Y-114186098D01*
X110617485Y-114186096D01*
X110752192Y-114135854D01*
X110752199Y-114135850D01*
X110867293Y-114049690D01*
X110867296Y-114049687D01*
X110953456Y-113934593D01*
X110953460Y-113934586D01*
X110983319Y-113854531D01*
X111025190Y-113798597D01*
X111090654Y-113774180D01*
X111158927Y-113789031D01*
X111187182Y-113810183D01*
X111237742Y-113860743D01*
X111237747Y-113860747D01*
X111393298Y-113973760D01*
X111416084Y-113990315D01*
X111532607Y-114049687D01*
X111612499Y-114090395D01*
X111612502Y-114090396D01*
X111717327Y-114124455D01*
X111822155Y-114158515D01*
X112039884Y-114193000D01*
X112039885Y-114193000D01*
X112260327Y-114193000D01*
X112260328Y-114193000D01*
X112478057Y-114158515D01*
X112687712Y-114090395D01*
X112884128Y-113990315D01*
X113062471Y-113860742D01*
X113218348Y-113704865D01*
X113228910Y-113690326D01*
X113319788Y-113565245D01*
X113375117Y-113522579D01*
X113444731Y-113516600D01*
X113506526Y-113549205D01*
X113520424Y-113565245D01*
X113621858Y-113704858D01*
X113621862Y-113704863D01*
X113777742Y-113860743D01*
X113777747Y-113860747D01*
X113933298Y-113973760D01*
X113956084Y-113990315D01*
X114072607Y-114049687D01*
X114152499Y-114090395D01*
X114152502Y-114090396D01*
X114257327Y-114124455D01*
X114362155Y-114158515D01*
X114579884Y-114193000D01*
X114579885Y-114193000D01*
X114800327Y-114193000D01*
X114800328Y-114193000D01*
X115018057Y-114158515D01*
X115227712Y-114090395D01*
X115424128Y-113990315D01*
X115602471Y-113860742D01*
X115758348Y-113704865D01*
X115768910Y-113690326D01*
X115859788Y-113565245D01*
X115915117Y-113522579D01*
X115984731Y-113516600D01*
X116046526Y-113549205D01*
X116060424Y-113565245D01*
X116161858Y-113704858D01*
X116161862Y-113704863D01*
X116317742Y-113860743D01*
X116317747Y-113860747D01*
X116473298Y-113973760D01*
X116496084Y-113990315D01*
X116612607Y-114049687D01*
X116692499Y-114090395D01*
X116692502Y-114090396D01*
X116797327Y-114124455D01*
X116902155Y-114158515D01*
X117119884Y-114193000D01*
X117119885Y-114193000D01*
X117340327Y-114193000D01*
X117340328Y-114193000D01*
X117558057Y-114158515D01*
X117767712Y-114090395D01*
X117964128Y-113990315D01*
X118142471Y-113860742D01*
X118298348Y-113704865D01*
X118308910Y-113690326D01*
X118399788Y-113565245D01*
X118455117Y-113522579D01*
X118524731Y-113516600D01*
X118586526Y-113549205D01*
X118600424Y-113565245D01*
X118701858Y-113704858D01*
X118701862Y-113704863D01*
X118857742Y-113860743D01*
X118857747Y-113860747D01*
X119013298Y-113973760D01*
X119036084Y-113990315D01*
X119152607Y-114049687D01*
X119232499Y-114090395D01*
X119232502Y-114090396D01*
X119337327Y-114124455D01*
X119442155Y-114158515D01*
X119659884Y-114193000D01*
X119659885Y-114193000D01*
X119880327Y-114193000D01*
X119880328Y-114193000D01*
X120098057Y-114158515D01*
X120307712Y-114090395D01*
X120504128Y-113990315D01*
X120682471Y-113860742D01*
X120838348Y-113704865D01*
X120848910Y-113690326D01*
X120939788Y-113565245D01*
X120995117Y-113522579D01*
X121064731Y-113516600D01*
X121126526Y-113549205D01*
X121140424Y-113565245D01*
X121241858Y-113704858D01*
X121241862Y-113704863D01*
X121397742Y-113860743D01*
X121397747Y-113860747D01*
X121553298Y-113973760D01*
X121576084Y-113990315D01*
X121692607Y-114049687D01*
X121772499Y-114090395D01*
X121772502Y-114090396D01*
X121877327Y-114124455D01*
X121982155Y-114158515D01*
X122199884Y-114193000D01*
X122199885Y-114193000D01*
X122420327Y-114193000D01*
X122420328Y-114193000D01*
X122638057Y-114158515D01*
X122847712Y-114090395D01*
X123044128Y-113990315D01*
X123222471Y-113860742D01*
X123378348Y-113704865D01*
X123388910Y-113690326D01*
X123479788Y-113565245D01*
X123535117Y-113522579D01*
X123604731Y-113516600D01*
X123666526Y-113549205D01*
X123680424Y-113565245D01*
X123781858Y-113704858D01*
X123781862Y-113704863D01*
X123937742Y-113860743D01*
X123937747Y-113860747D01*
X124093298Y-113973760D01*
X124116084Y-113990315D01*
X124232607Y-114049687D01*
X124312499Y-114090395D01*
X124312502Y-114090396D01*
X124417327Y-114124455D01*
X124522155Y-114158515D01*
X124739884Y-114193000D01*
X124739885Y-114193000D01*
X124960327Y-114193000D01*
X124960328Y-114193000D01*
X125178057Y-114158515D01*
X125387712Y-114090395D01*
X125584128Y-113990315D01*
X125762471Y-113860742D01*
X125918348Y-113704865D01*
X125928910Y-113690326D01*
X126019788Y-113565245D01*
X126075117Y-113522579D01*
X126144731Y-113516600D01*
X126206526Y-113549205D01*
X126220424Y-113565245D01*
X126321858Y-113704858D01*
X126321862Y-113704863D01*
X126477742Y-113860743D01*
X126477747Y-113860747D01*
X126633298Y-113973760D01*
X126656084Y-113990315D01*
X126772607Y-114049687D01*
X126852499Y-114090395D01*
X126852502Y-114090396D01*
X126957327Y-114124455D01*
X127062155Y-114158515D01*
X127279884Y-114193000D01*
X127279885Y-114193000D01*
X127500327Y-114193000D01*
X127500328Y-114193000D01*
X127718057Y-114158515D01*
X127927712Y-114090395D01*
X128124128Y-113990315D01*
X128302471Y-113860742D01*
X128458348Y-113704865D01*
X128468910Y-113690326D01*
X128559788Y-113565245D01*
X128615117Y-113522579D01*
X128684731Y-113516600D01*
X128746526Y-113549205D01*
X128760424Y-113565245D01*
X128861858Y-113704858D01*
X128861862Y-113704863D01*
X129017742Y-113860743D01*
X129017747Y-113860747D01*
X129173298Y-113973760D01*
X129196084Y-113990315D01*
X129312607Y-114049687D01*
X129392499Y-114090395D01*
X129392502Y-114090396D01*
X129497327Y-114124455D01*
X129602155Y-114158515D01*
X129819884Y-114193000D01*
X129819885Y-114193000D01*
X130040327Y-114193000D01*
X130040328Y-114193000D01*
X130258057Y-114158515D01*
X130467712Y-114090395D01*
X130664128Y-113990315D01*
X130842471Y-113860742D01*
X130998348Y-113704865D01*
X131008910Y-113690326D01*
X131099788Y-113565245D01*
X131155117Y-113522579D01*
X131224731Y-113516600D01*
X131286526Y-113549205D01*
X131300424Y-113565245D01*
X131401858Y-113704858D01*
X131401862Y-113704863D01*
X131557742Y-113860743D01*
X131557747Y-113860747D01*
X131713298Y-113973760D01*
X131736084Y-113990315D01*
X131852607Y-114049687D01*
X131932499Y-114090395D01*
X131932502Y-114090396D01*
X132037327Y-114124455D01*
X132142155Y-114158515D01*
X132359884Y-114193000D01*
X132359885Y-114193000D01*
X132580327Y-114193000D01*
X132580328Y-114193000D01*
X132798057Y-114158515D01*
X133007712Y-114090395D01*
X133204128Y-113990315D01*
X133382471Y-113860742D01*
X133538348Y-113704865D01*
X133548910Y-113690326D01*
X133639788Y-113565245D01*
X133695117Y-113522579D01*
X133764731Y-113516600D01*
X133826526Y-113549205D01*
X133840424Y-113565245D01*
X133941858Y-113704858D01*
X133941862Y-113704863D01*
X134097742Y-113860743D01*
X134097747Y-113860747D01*
X134253298Y-113973760D01*
X134276084Y-113990315D01*
X134392607Y-114049687D01*
X134472499Y-114090395D01*
X134472502Y-114090396D01*
X134577327Y-114124455D01*
X134682155Y-114158515D01*
X134899884Y-114193000D01*
X134899885Y-114193000D01*
X135120327Y-114193000D01*
X135120328Y-114193000D01*
X135338057Y-114158515D01*
X135547712Y-114090395D01*
X135744128Y-113990315D01*
X135922471Y-113860742D01*
X136078348Y-113704865D01*
X136088910Y-113690326D01*
X136179788Y-113565245D01*
X136235117Y-113522579D01*
X136304731Y-113516600D01*
X136366526Y-113549205D01*
X136380424Y-113565245D01*
X136481858Y-113704858D01*
X136481862Y-113704863D01*
X136637742Y-113860743D01*
X136637747Y-113860747D01*
X136793298Y-113973760D01*
X136816084Y-113990315D01*
X136932607Y-114049687D01*
X137012499Y-114090395D01*
X137012502Y-114090396D01*
X137117327Y-114124455D01*
X137222155Y-114158515D01*
X137439884Y-114193000D01*
X137439885Y-114193000D01*
X137660327Y-114193000D01*
X137660328Y-114193000D01*
X137878057Y-114158515D01*
X138087712Y-114090395D01*
X138284128Y-113990315D01*
X138462471Y-113860742D01*
X138618348Y-113704865D01*
X138628910Y-113690326D01*
X138719788Y-113565245D01*
X138775117Y-113522579D01*
X138844731Y-113516600D01*
X138906526Y-113549205D01*
X138920424Y-113565245D01*
X139021858Y-113704858D01*
X139021862Y-113704863D01*
X139177742Y-113860743D01*
X139177747Y-113860747D01*
X139333298Y-113973760D01*
X139356084Y-113990315D01*
X139472607Y-114049687D01*
X139552499Y-114090395D01*
X139552502Y-114090396D01*
X139657327Y-114124455D01*
X139762155Y-114158515D01*
X139979884Y-114193000D01*
X139979885Y-114193000D01*
X140200327Y-114193000D01*
X140200328Y-114193000D01*
X140418057Y-114158515D01*
X140627712Y-114090395D01*
X140824128Y-113990315D01*
X141002471Y-113860742D01*
X141158348Y-113704865D01*
X141168910Y-113690326D01*
X141259788Y-113565245D01*
X141315117Y-113522579D01*
X141384731Y-113516600D01*
X141446526Y-113549205D01*
X141460424Y-113565245D01*
X141561858Y-113704858D01*
X141561862Y-113704863D01*
X141717742Y-113860743D01*
X141717747Y-113860747D01*
X141873298Y-113973760D01*
X141896084Y-113990315D01*
X142012607Y-114049687D01*
X142092499Y-114090395D01*
X142092502Y-114090396D01*
X142197327Y-114124455D01*
X142302155Y-114158515D01*
X142519884Y-114193000D01*
X142519885Y-114193000D01*
X142740327Y-114193000D01*
X142740328Y-114193000D01*
X142958057Y-114158515D01*
X143167712Y-114090395D01*
X143364128Y-113990315D01*
X143542471Y-113860742D01*
X143698348Y-113704865D01*
X143708910Y-113690326D01*
X143799788Y-113565245D01*
X143855117Y-113522579D01*
X143924731Y-113516600D01*
X143986526Y-113549205D01*
X144000424Y-113565245D01*
X144101858Y-113704858D01*
X144101862Y-113704863D01*
X144257742Y-113860743D01*
X144257747Y-113860747D01*
X144413298Y-113973760D01*
X144436084Y-113990315D01*
X144552607Y-114049687D01*
X144632499Y-114090395D01*
X144632502Y-114090396D01*
X144737327Y-114124455D01*
X144842155Y-114158515D01*
X145059884Y-114193000D01*
X145059885Y-114193000D01*
X145280327Y-114193000D01*
X145280328Y-114193000D01*
X145498057Y-114158515D01*
X145707712Y-114090395D01*
X145904128Y-113990315D01*
X146082471Y-113860742D01*
X146238348Y-113704865D01*
X146340097Y-113564817D01*
X146395426Y-113522153D01*
X146465039Y-113516174D01*
X146526835Y-113548779D01*
X146540733Y-113564818D01*
X146642248Y-113704541D01*
X146798064Y-113860357D01*
X146976345Y-113989886D01*
X147172695Y-114089932D01*
X147382269Y-114158026D01*
X147460105Y-114170354D01*
X147460106Y-114170354D01*
X147460106Y-112940982D01*
X147478515Y-112951611D01*
X147631115Y-112992500D01*
X147789097Y-112992500D01*
X147941697Y-112951611D01*
X147960106Y-112940982D01*
X147960106Y-114170354D01*
X148037940Y-114158026D01*
X148037943Y-114158026D01*
X148247516Y-114089932D01*
X148443866Y-113989886D01*
X148622147Y-113860357D01*
X148777963Y-113704541D01*
X148907492Y-113526260D01*
X149007538Y-113329910D01*
X149075632Y-113120335D01*
X149110106Y-112902681D01*
X149110106Y-112642500D01*
X148258588Y-112642500D01*
X148269217Y-112624091D01*
X148310106Y-112471491D01*
X148310106Y-112313509D01*
X148296136Y-112261372D01*
X177109606Y-112261372D01*
X177109606Y-112523627D01*
X177125257Y-112642500D01*
X177143836Y-112783616D01*
X177188850Y-112951611D01*
X177211708Y-113036918D01*
X177211711Y-113036928D01*
X177312059Y-113279190D01*
X177312064Y-113279200D01*
X177443181Y-113506303D01*
X177602824Y-113714351D01*
X177602832Y-113714360D01*
X177788246Y-113899774D01*
X177788254Y-113899781D01*
X177996302Y-114059424D01*
X178223405Y-114190541D01*
X178223415Y-114190546D01*
X178465677Y-114290894D01*
X178465687Y-114290898D01*
X178718990Y-114358770D01*
X178978986Y-114393000D01*
X178978993Y-114393000D01*
X179241219Y-114393000D01*
X179241226Y-114393000D01*
X179501222Y-114358770D01*
X179754525Y-114290898D01*
X179931446Y-114217614D01*
X179996796Y-114190546D01*
X179996797Y-114190545D01*
X179996803Y-114190543D01*
X180223909Y-114059424D01*
X180431957Y-113899782D01*
X180431961Y-113899777D01*
X180431966Y-113899774D01*
X180617380Y-113714360D01*
X180617383Y-113714355D01*
X180617388Y-113714351D01*
X180777030Y-113506303D01*
X180908149Y-113279197D01*
X181008504Y-113036919D01*
X181076376Y-112783616D01*
X181110606Y-112523620D01*
X181110606Y-112261380D01*
X181076376Y-112001384D01*
X181008504Y-111748081D01*
X181008500Y-111748071D01*
X180908152Y-111505809D01*
X180908147Y-111505799D01*
X180777030Y-111278696D01*
X180652830Y-111116838D01*
X180617388Y-111070649D01*
X180617387Y-111070648D01*
X180617380Y-111070640D01*
X180431966Y-110885226D01*
X180431957Y-110885218D01*
X180223909Y-110725575D01*
X179996806Y-110594458D01*
X179996796Y-110594453D01*
X179754534Y-110494105D01*
X179754527Y-110494103D01*
X179754525Y-110494102D01*
X179501222Y-110426230D01*
X179443445Y-110418623D01*
X179241233Y-110392000D01*
X179241226Y-110392000D01*
X178978986Y-110392000D01*
X178978978Y-110392000D01*
X178747878Y-110422426D01*
X178718990Y-110426230D01*
X178465687Y-110494102D01*
X178465677Y-110494105D01*
X178223415Y-110594453D01*
X178223405Y-110594458D01*
X177996302Y-110725575D01*
X177788254Y-110885218D01*
X177602824Y-111070648D01*
X177443181Y-111278696D01*
X177312064Y-111505799D01*
X177312059Y-111505809D01*
X177211711Y-111748071D01*
X177211708Y-111748081D01*
X177175740Y-111882318D01*
X177143836Y-112001385D01*
X177109606Y-112261372D01*
X148296136Y-112261372D01*
X148269217Y-112160909D01*
X148258588Y-112142500D01*
X149110106Y-112142500D01*
X149110106Y-111882318D01*
X149075632Y-111664664D01*
X149007538Y-111455089D01*
X148907492Y-111258739D01*
X148777963Y-111080458D01*
X148622147Y-110924642D01*
X148443866Y-110795113D01*
X148247516Y-110695067D01*
X148037942Y-110626973D01*
X147960106Y-110614644D01*
X147960106Y-111844017D01*
X147941697Y-111833389D01*
X147789097Y-111792500D01*
X147631115Y-111792500D01*
X147478515Y-111833389D01*
X147460106Y-111844017D01*
X147460106Y-110614644D01*
X147382270Y-110626973D01*
X147382267Y-110626973D01*
X147172695Y-110695067D01*
X146976345Y-110795113D01*
X146798064Y-110924642D01*
X146642248Y-111080458D01*
X146642248Y-111080459D01*
X146540733Y-111220181D01*
X146485403Y-111262846D01*
X146415789Y-111268825D01*
X146353994Y-111236219D01*
X146340097Y-111220180D01*
X146238353Y-111080141D01*
X146238349Y-111080136D01*
X146082469Y-110924256D01*
X146082464Y-110924252D01*
X145904131Y-110794687D01*
X145904130Y-110794686D01*
X145904128Y-110794685D01*
X145841202Y-110762622D01*
X145707712Y-110694604D01*
X145707709Y-110694603D01*
X145498058Y-110626485D01*
X145389192Y-110609242D01*
X145280328Y-110592000D01*
X145059884Y-110592000D01*
X144987307Y-110603495D01*
X144842153Y-110626485D01*
X144632502Y-110694603D01*
X144632499Y-110694604D01*
X144436080Y-110794687D01*
X144257747Y-110924252D01*
X144257742Y-110924256D01*
X144101862Y-111080136D01*
X144101858Y-111080141D01*
X144000424Y-111219754D01*
X143945094Y-111262420D01*
X143875481Y-111268399D01*
X143813686Y-111235793D01*
X143799788Y-111219754D01*
X143698353Y-111080141D01*
X143698349Y-111080136D01*
X143542469Y-110924256D01*
X143542464Y-110924252D01*
X143364131Y-110794687D01*
X143364130Y-110794686D01*
X143364128Y-110794685D01*
X143301202Y-110762622D01*
X143167712Y-110694604D01*
X143167709Y-110694603D01*
X142958058Y-110626485D01*
X142849192Y-110609242D01*
X142740328Y-110592000D01*
X142519884Y-110592000D01*
X142447307Y-110603495D01*
X142302153Y-110626485D01*
X142092502Y-110694603D01*
X142092499Y-110694604D01*
X141896080Y-110794687D01*
X141717747Y-110924252D01*
X141717742Y-110924256D01*
X141561862Y-111080136D01*
X141561858Y-111080141D01*
X141460424Y-111219754D01*
X141405094Y-111262420D01*
X141335481Y-111268399D01*
X141273686Y-111235793D01*
X141259788Y-111219754D01*
X141158353Y-111080141D01*
X141158349Y-111080136D01*
X141002469Y-110924256D01*
X141002464Y-110924252D01*
X140824131Y-110794687D01*
X140824130Y-110794686D01*
X140824128Y-110794685D01*
X140761202Y-110762622D01*
X140627712Y-110694604D01*
X140627709Y-110694603D01*
X140418058Y-110626485D01*
X140309192Y-110609242D01*
X140200328Y-110592000D01*
X139979884Y-110592000D01*
X139907307Y-110603495D01*
X139762153Y-110626485D01*
X139552502Y-110694603D01*
X139552499Y-110694604D01*
X139356080Y-110794687D01*
X139177747Y-110924252D01*
X139177742Y-110924256D01*
X139021862Y-111080136D01*
X139021858Y-111080141D01*
X138920424Y-111219754D01*
X138865094Y-111262420D01*
X138795481Y-111268399D01*
X138733686Y-111235793D01*
X138719788Y-111219754D01*
X138618353Y-111080141D01*
X138618349Y-111080136D01*
X138462469Y-110924256D01*
X138462464Y-110924252D01*
X138284131Y-110794687D01*
X138284130Y-110794686D01*
X138284128Y-110794685D01*
X138221202Y-110762622D01*
X138087712Y-110694604D01*
X138087709Y-110694603D01*
X137878058Y-110626485D01*
X137769192Y-110609242D01*
X137660328Y-110592000D01*
X137439884Y-110592000D01*
X137367307Y-110603495D01*
X137222153Y-110626485D01*
X137012502Y-110694603D01*
X137012499Y-110694604D01*
X136816080Y-110794687D01*
X136637747Y-110924252D01*
X136637742Y-110924256D01*
X136481862Y-111080136D01*
X136481858Y-111080141D01*
X136380424Y-111219754D01*
X136325094Y-111262420D01*
X136255481Y-111268399D01*
X136193686Y-111235793D01*
X136179788Y-111219754D01*
X136078353Y-111080141D01*
X136078349Y-111080136D01*
X135922469Y-110924256D01*
X135922464Y-110924252D01*
X135744131Y-110794687D01*
X135744130Y-110794686D01*
X135744128Y-110794685D01*
X135681202Y-110762622D01*
X135547712Y-110694604D01*
X135547709Y-110694603D01*
X135338058Y-110626485D01*
X135229192Y-110609242D01*
X135120328Y-110592000D01*
X134899884Y-110592000D01*
X134827307Y-110603495D01*
X134682153Y-110626485D01*
X134472502Y-110694603D01*
X134472499Y-110694604D01*
X134276080Y-110794687D01*
X134097747Y-110924252D01*
X134097742Y-110924256D01*
X133941862Y-111080136D01*
X133941858Y-111080141D01*
X133840424Y-111219754D01*
X133785094Y-111262420D01*
X133715481Y-111268399D01*
X133653686Y-111235793D01*
X133639788Y-111219754D01*
X133538353Y-111080141D01*
X133538349Y-111080136D01*
X133382469Y-110924256D01*
X133382464Y-110924252D01*
X133204131Y-110794687D01*
X133204130Y-110794686D01*
X133204128Y-110794685D01*
X133141202Y-110762622D01*
X133007712Y-110694604D01*
X133007709Y-110694603D01*
X132798058Y-110626485D01*
X132689192Y-110609242D01*
X132580328Y-110592000D01*
X132359884Y-110592000D01*
X132287307Y-110603495D01*
X132142153Y-110626485D01*
X131932502Y-110694603D01*
X131932499Y-110694604D01*
X131736080Y-110794687D01*
X131557747Y-110924252D01*
X131557742Y-110924256D01*
X131401862Y-111080136D01*
X131401858Y-111080141D01*
X131300424Y-111219754D01*
X131245094Y-111262420D01*
X131175481Y-111268399D01*
X131113686Y-111235793D01*
X131099788Y-111219754D01*
X130998353Y-111080141D01*
X130998349Y-111080136D01*
X130842469Y-110924256D01*
X130842464Y-110924252D01*
X130664131Y-110794687D01*
X130664130Y-110794686D01*
X130664128Y-110794685D01*
X130601202Y-110762622D01*
X130467712Y-110694604D01*
X130467709Y-110694603D01*
X130258058Y-110626485D01*
X130149192Y-110609242D01*
X130040328Y-110592000D01*
X129819884Y-110592000D01*
X129747307Y-110603495D01*
X129602153Y-110626485D01*
X129392502Y-110694603D01*
X129392499Y-110694604D01*
X129196080Y-110794687D01*
X129017747Y-110924252D01*
X129017742Y-110924256D01*
X128861862Y-111080136D01*
X128861858Y-111080141D01*
X128760424Y-111219754D01*
X128705094Y-111262420D01*
X128635481Y-111268399D01*
X128573686Y-111235793D01*
X128559788Y-111219754D01*
X128458353Y-111080141D01*
X128458349Y-111080136D01*
X128302469Y-110924256D01*
X128302464Y-110924252D01*
X128124131Y-110794687D01*
X128124130Y-110794686D01*
X128124128Y-110794685D01*
X128061202Y-110762622D01*
X127927712Y-110694604D01*
X127927709Y-110694603D01*
X127718058Y-110626485D01*
X127609192Y-110609242D01*
X127500328Y-110592000D01*
X127279884Y-110592000D01*
X127207307Y-110603495D01*
X127062153Y-110626485D01*
X126852502Y-110694603D01*
X126852499Y-110694604D01*
X126656080Y-110794687D01*
X126477747Y-110924252D01*
X126477742Y-110924256D01*
X126321862Y-111080136D01*
X126321858Y-111080141D01*
X126220424Y-111219754D01*
X126165094Y-111262420D01*
X126095481Y-111268399D01*
X126033686Y-111235793D01*
X126019788Y-111219754D01*
X125918353Y-111080141D01*
X125918349Y-111080136D01*
X125762469Y-110924256D01*
X125762464Y-110924252D01*
X125584131Y-110794687D01*
X125584130Y-110794686D01*
X125584128Y-110794685D01*
X125521202Y-110762622D01*
X125387712Y-110694604D01*
X125387709Y-110694603D01*
X125178058Y-110626485D01*
X125069192Y-110609242D01*
X124960328Y-110592000D01*
X124739884Y-110592000D01*
X124667307Y-110603495D01*
X124522153Y-110626485D01*
X124312502Y-110694603D01*
X124312499Y-110694604D01*
X124116080Y-110794687D01*
X123937747Y-110924252D01*
X123937742Y-110924256D01*
X123781862Y-111080136D01*
X123781858Y-111080141D01*
X123680424Y-111219754D01*
X123625094Y-111262420D01*
X123555481Y-111268399D01*
X123493686Y-111235793D01*
X123479788Y-111219754D01*
X123378353Y-111080141D01*
X123378349Y-111080136D01*
X123222469Y-110924256D01*
X123222464Y-110924252D01*
X123044131Y-110794687D01*
X123044130Y-110794686D01*
X123044128Y-110794685D01*
X122981202Y-110762622D01*
X122847712Y-110694604D01*
X122847709Y-110694603D01*
X122638058Y-110626485D01*
X122529192Y-110609242D01*
X122420328Y-110592000D01*
X122199884Y-110592000D01*
X122127307Y-110603495D01*
X121982153Y-110626485D01*
X121772502Y-110694603D01*
X121772499Y-110694604D01*
X121576080Y-110794687D01*
X121397747Y-110924252D01*
X121397742Y-110924256D01*
X121241862Y-111080136D01*
X121241858Y-111080141D01*
X121140424Y-111219754D01*
X121085094Y-111262420D01*
X121015481Y-111268399D01*
X120953686Y-111235793D01*
X120939788Y-111219754D01*
X120838353Y-111080141D01*
X120838349Y-111080136D01*
X120682469Y-110924256D01*
X120682464Y-110924252D01*
X120504131Y-110794687D01*
X120504130Y-110794686D01*
X120504128Y-110794685D01*
X120441202Y-110762622D01*
X120307712Y-110694604D01*
X120307709Y-110694603D01*
X120098058Y-110626485D01*
X119989192Y-110609242D01*
X119880328Y-110592000D01*
X119659884Y-110592000D01*
X119587307Y-110603495D01*
X119442153Y-110626485D01*
X119232502Y-110694603D01*
X119232499Y-110694604D01*
X119036080Y-110794687D01*
X118857747Y-110924252D01*
X118857742Y-110924256D01*
X118701862Y-111080136D01*
X118701858Y-111080141D01*
X118600424Y-111219754D01*
X118545094Y-111262420D01*
X118475481Y-111268399D01*
X118413686Y-111235793D01*
X118399788Y-111219754D01*
X118298353Y-111080141D01*
X118298349Y-111080136D01*
X118142469Y-110924256D01*
X118142464Y-110924252D01*
X117964131Y-110794687D01*
X117964130Y-110794686D01*
X117964128Y-110794685D01*
X117901202Y-110762622D01*
X117767712Y-110694604D01*
X117767709Y-110694603D01*
X117558058Y-110626485D01*
X117449192Y-110609242D01*
X117340328Y-110592000D01*
X117119884Y-110592000D01*
X117047307Y-110603495D01*
X116902153Y-110626485D01*
X116692502Y-110694603D01*
X116692499Y-110694604D01*
X116496080Y-110794687D01*
X116317747Y-110924252D01*
X116317742Y-110924256D01*
X116161862Y-111080136D01*
X116161858Y-111080141D01*
X116060424Y-111219754D01*
X116005094Y-111262420D01*
X115935481Y-111268399D01*
X115873686Y-111235793D01*
X115859788Y-111219754D01*
X115758353Y-111080141D01*
X115758349Y-111080136D01*
X115602469Y-110924256D01*
X115602464Y-110924252D01*
X115424131Y-110794687D01*
X115424130Y-110794686D01*
X115424128Y-110794685D01*
X115361202Y-110762622D01*
X115227712Y-110694604D01*
X115227709Y-110694603D01*
X115018058Y-110626485D01*
X114909192Y-110609242D01*
X114800328Y-110592000D01*
X114579884Y-110592000D01*
X114507307Y-110603495D01*
X114362153Y-110626485D01*
X114152502Y-110694603D01*
X114152499Y-110694604D01*
X113956080Y-110794687D01*
X113777747Y-110924252D01*
X113777742Y-110924256D01*
X113621862Y-111080136D01*
X113621858Y-111080141D01*
X113520424Y-111219754D01*
X113465094Y-111262420D01*
X113395481Y-111268399D01*
X113333686Y-111235793D01*
X113319788Y-111219754D01*
X113218353Y-111080141D01*
X113218349Y-111080136D01*
X113062469Y-110924256D01*
X113062464Y-110924252D01*
X112884131Y-110794687D01*
X112884130Y-110794686D01*
X112884128Y-110794685D01*
X112821202Y-110762622D01*
X112687712Y-110694604D01*
X112687709Y-110694603D01*
X112478058Y-110626485D01*
X112369192Y-110609242D01*
X112260328Y-110592000D01*
X112039884Y-110592000D01*
X111967307Y-110603495D01*
X111822153Y-110626485D01*
X111612502Y-110694603D01*
X111612499Y-110694604D01*
X111416080Y-110794687D01*
X111237747Y-110924252D01*
X111237742Y-110924256D01*
X111187181Y-110974817D01*
X111125858Y-111008301D01*
X111056166Y-111003316D01*
X111000233Y-110961445D01*
X110983319Y-110930468D01*
X110953460Y-110850413D01*
X110953456Y-110850406D01*
X110867296Y-110735312D01*
X110867293Y-110735309D01*
X110752199Y-110649149D01*
X110752192Y-110649145D01*
X110617485Y-110598903D01*
X110617478Y-110598901D01*
X110557950Y-110592500D01*
X109860106Y-110592500D01*
X109860106Y-111844017D01*
X109841697Y-111833389D01*
X109689097Y-111792500D01*
X109531115Y-111792500D01*
X109378515Y-111833389D01*
X109360106Y-111844017D01*
X109360106Y-110592500D01*
X108662261Y-110592500D01*
X108602733Y-110598901D01*
X108602726Y-110598903D01*
X108468019Y-110649145D01*
X108468012Y-110649149D01*
X108352918Y-110735309D01*
X108352915Y-110735312D01*
X108266755Y-110850406D01*
X108266751Y-110850413D01*
X108216509Y-110985120D01*
X108216507Y-110985127D01*
X108210106Y-111044655D01*
X105592295Y-111044655D01*
X105432866Y-110885226D01*
X105432857Y-110885218D01*
X105224809Y-110725575D01*
X104997706Y-110594458D01*
X104997696Y-110594453D01*
X104755434Y-110494105D01*
X104755427Y-110494103D01*
X104755425Y-110494102D01*
X104502122Y-110426230D01*
X104444345Y-110418623D01*
X104242133Y-110392000D01*
X104242126Y-110392000D01*
X103979886Y-110392000D01*
X103979878Y-110392000D01*
X103748778Y-110422426D01*
X103719890Y-110426230D01*
X103466587Y-110494102D01*
X103466577Y-110494105D01*
X103224315Y-110594453D01*
X103224305Y-110594458D01*
X102997202Y-110725575D01*
X102789154Y-110885218D01*
X102603724Y-111070648D01*
X102444081Y-111278696D01*
X102312964Y-111505799D01*
X102312959Y-111505809D01*
X102212611Y-111748071D01*
X102212608Y-111748081D01*
X102176640Y-111882318D01*
X102144736Y-112001385D01*
X102110506Y-112261372D01*
X89420183Y-112261372D01*
X89448725Y-106267648D01*
X137644500Y-106267648D01*
X137644500Y-106472351D01*
X137676522Y-106674534D01*
X137739781Y-106869223D01*
X137832715Y-107051613D01*
X137953028Y-107217213D01*
X138097786Y-107361971D01*
X138252749Y-107474556D01*
X138263390Y-107482287D01*
X138379607Y-107541503D01*
X138445776Y-107575218D01*
X138445778Y-107575218D01*
X138445781Y-107575220D01*
X138550137Y-107609127D01*
X138640465Y-107638477D01*
X138741557Y-107654488D01*
X138842648Y-107670500D01*
X138842649Y-107670500D01*
X139047351Y-107670500D01*
X139047352Y-107670500D01*
X139249534Y-107638477D01*
X139444219Y-107575220D01*
X139626610Y-107482287D01*
X139719590Y-107414732D01*
X139792213Y-107361971D01*
X139792215Y-107361968D01*
X139792219Y-107361966D01*
X139936966Y-107217219D01*
X139936968Y-107217215D01*
X139936971Y-107217213D01*
X140057284Y-107051614D01*
X140057285Y-107051613D01*
X140057287Y-107051610D01*
X140104516Y-106958917D01*
X140152489Y-106908123D01*
X140220310Y-106891328D01*
X140286445Y-106913865D01*
X140325485Y-106958919D01*
X140372715Y-107051614D01*
X140493028Y-107217213D01*
X140637786Y-107361971D01*
X140792749Y-107474556D01*
X140803390Y-107482287D01*
X140919607Y-107541503D01*
X140985776Y-107575218D01*
X140985778Y-107575218D01*
X140985781Y-107575220D01*
X141090137Y-107609127D01*
X141180465Y-107638477D01*
X141281557Y-107654488D01*
X141382648Y-107670500D01*
X141382649Y-107670500D01*
X141587351Y-107670500D01*
X141587352Y-107670500D01*
X141789534Y-107638477D01*
X141984219Y-107575220D01*
X142166610Y-107482287D01*
X142259590Y-107414732D01*
X142332213Y-107361971D01*
X142332215Y-107361968D01*
X142332219Y-107361966D01*
X142476966Y-107217219D01*
X142476968Y-107217215D01*
X142476971Y-107217213D01*
X142597284Y-107051614D01*
X142597285Y-107051613D01*
X142597287Y-107051610D01*
X142644516Y-106958917D01*
X142692489Y-106908123D01*
X142760310Y-106891328D01*
X142826445Y-106913865D01*
X142865485Y-106958919D01*
X142912715Y-107051614D01*
X143033028Y-107217213D01*
X143177786Y-107361971D01*
X143332749Y-107474556D01*
X143343390Y-107482287D01*
X143459607Y-107541503D01*
X143525776Y-107575218D01*
X143525778Y-107575218D01*
X143525781Y-107575220D01*
X143630137Y-107609127D01*
X143720465Y-107638477D01*
X143821557Y-107654488D01*
X143922648Y-107670500D01*
X143922649Y-107670500D01*
X144127351Y-107670500D01*
X144127352Y-107670500D01*
X144329534Y-107638477D01*
X144524219Y-107575220D01*
X144706610Y-107482287D01*
X144799590Y-107414732D01*
X144872213Y-107361971D01*
X144872215Y-107361968D01*
X144872219Y-107361966D01*
X145016966Y-107217219D01*
X145016968Y-107217215D01*
X145016971Y-107217213D01*
X145137284Y-107051614D01*
X145137285Y-107051613D01*
X145137287Y-107051610D01*
X145184516Y-106958917D01*
X145232489Y-106908123D01*
X145300310Y-106891328D01*
X145366445Y-106913865D01*
X145405485Y-106958919D01*
X145452715Y-107051614D01*
X145573028Y-107217213D01*
X145717786Y-107361971D01*
X145872749Y-107474556D01*
X145883390Y-107482287D01*
X145999607Y-107541503D01*
X146065776Y-107575218D01*
X146065778Y-107575218D01*
X146065781Y-107575220D01*
X146170137Y-107609127D01*
X146260465Y-107638477D01*
X146361557Y-107654488D01*
X146462648Y-107670500D01*
X146462649Y-107670500D01*
X146667351Y-107670500D01*
X146667352Y-107670500D01*
X146869534Y-107638477D01*
X147064219Y-107575220D01*
X147246610Y-107482287D01*
X147339590Y-107414732D01*
X147412213Y-107361971D01*
X147412215Y-107361968D01*
X147412219Y-107361966D01*
X147556966Y-107217219D01*
X147556968Y-107217215D01*
X147556971Y-107217213D01*
X147677284Y-107051614D01*
X147677285Y-107051613D01*
X147677287Y-107051610D01*
X147724516Y-106958917D01*
X147772489Y-106908123D01*
X147840310Y-106891328D01*
X147906445Y-106913865D01*
X147945485Y-106958919D01*
X147992715Y-107051614D01*
X148113028Y-107217213D01*
X148257786Y-107361971D01*
X148412749Y-107474556D01*
X148423390Y-107482287D01*
X148539607Y-107541503D01*
X148605776Y-107575218D01*
X148605778Y-107575218D01*
X148605781Y-107575220D01*
X148710137Y-107609127D01*
X148800465Y-107638477D01*
X148901557Y-107654488D01*
X149002648Y-107670500D01*
X149002649Y-107670500D01*
X149207351Y-107670500D01*
X149207352Y-107670500D01*
X149409534Y-107638477D01*
X149604219Y-107575220D01*
X149786610Y-107482287D01*
X149879590Y-107414732D01*
X149952213Y-107361971D01*
X149952215Y-107361968D01*
X149952219Y-107361966D01*
X150096966Y-107217219D01*
X150096968Y-107217215D01*
X150096971Y-107217213D01*
X150217284Y-107051614D01*
X150217285Y-107051613D01*
X150217287Y-107051610D01*
X150264516Y-106958917D01*
X150312489Y-106908123D01*
X150380310Y-106891328D01*
X150446445Y-106913865D01*
X150485485Y-106958919D01*
X150532715Y-107051614D01*
X150653028Y-107217213D01*
X150797786Y-107361971D01*
X150952749Y-107474556D01*
X150963390Y-107482287D01*
X151079607Y-107541503D01*
X151145776Y-107575218D01*
X151145778Y-107575218D01*
X151145781Y-107575220D01*
X151250137Y-107609127D01*
X151340465Y-107638477D01*
X151441557Y-107654488D01*
X151542648Y-107670500D01*
X151542649Y-107670500D01*
X151747351Y-107670500D01*
X151747352Y-107670500D01*
X151949534Y-107638477D01*
X152144219Y-107575220D01*
X152326610Y-107482287D01*
X152419590Y-107414732D01*
X152492213Y-107361971D01*
X152492215Y-107361968D01*
X152492219Y-107361966D01*
X152636966Y-107217219D01*
X152636968Y-107217215D01*
X152636971Y-107217213D01*
X152757284Y-107051614D01*
X152757285Y-107051613D01*
X152757287Y-107051610D01*
X152804516Y-106958917D01*
X152852489Y-106908123D01*
X152920310Y-106891328D01*
X152986445Y-106913865D01*
X153025485Y-106958919D01*
X153072715Y-107051614D01*
X153193028Y-107217213D01*
X153337786Y-107361971D01*
X153492749Y-107474556D01*
X153503390Y-107482287D01*
X153619607Y-107541503D01*
X153685776Y-107575218D01*
X153685778Y-107575218D01*
X153685781Y-107575220D01*
X153790137Y-107609127D01*
X153880465Y-107638477D01*
X153981557Y-107654488D01*
X154082648Y-107670500D01*
X154082649Y-107670500D01*
X154287351Y-107670500D01*
X154287352Y-107670500D01*
X154489534Y-107638477D01*
X154684219Y-107575220D01*
X154866610Y-107482287D01*
X154959590Y-107414732D01*
X155032213Y-107361971D01*
X155032215Y-107361968D01*
X155032219Y-107361966D01*
X155176966Y-107217219D01*
X155176968Y-107217215D01*
X155176971Y-107217213D01*
X155297284Y-107051614D01*
X155297285Y-107051613D01*
X155297287Y-107051610D01*
X155344516Y-106958917D01*
X155392489Y-106908123D01*
X155460310Y-106891328D01*
X155526445Y-106913865D01*
X155565485Y-106958919D01*
X155612715Y-107051614D01*
X155733028Y-107217213D01*
X155877786Y-107361971D01*
X156032749Y-107474556D01*
X156043390Y-107482287D01*
X156159607Y-107541503D01*
X156225776Y-107575218D01*
X156225778Y-107575218D01*
X156225781Y-107575220D01*
X156330137Y-107609127D01*
X156420465Y-107638477D01*
X156521557Y-107654488D01*
X156622648Y-107670500D01*
X156622649Y-107670500D01*
X156827351Y-107670500D01*
X156827352Y-107670500D01*
X157029534Y-107638477D01*
X157224219Y-107575220D01*
X157406610Y-107482287D01*
X157499590Y-107414732D01*
X157572213Y-107361971D01*
X157572215Y-107361968D01*
X157572219Y-107361966D01*
X157716966Y-107217219D01*
X157716968Y-107217215D01*
X157716971Y-107217213D01*
X157769732Y-107144590D01*
X157837287Y-107051610D01*
X157930220Y-106869219D01*
X157993477Y-106674534D01*
X158025500Y-106472352D01*
X158025500Y-106267648D01*
X157993477Y-106065466D01*
X157930220Y-105870781D01*
X157930218Y-105870778D01*
X157930218Y-105870776D01*
X157884515Y-105781080D01*
X157837287Y-105688390D01*
X157829556Y-105677749D01*
X157716971Y-105522786D01*
X157572213Y-105378028D01*
X157406613Y-105257715D01*
X157406612Y-105257714D01*
X157406610Y-105257713D01*
X157349653Y-105228691D01*
X157224223Y-105164781D01*
X157029534Y-105101522D01*
X156854995Y-105073878D01*
X156827352Y-105069500D01*
X156622648Y-105069500D01*
X156598329Y-105073351D01*
X156420465Y-105101522D01*
X156225776Y-105164781D01*
X156043386Y-105257715D01*
X155877786Y-105378028D01*
X155733028Y-105522786D01*
X155612715Y-105688386D01*
X155565485Y-105781080D01*
X155517510Y-105831876D01*
X155449689Y-105848671D01*
X155383554Y-105826134D01*
X155344515Y-105781080D01*
X155343883Y-105779840D01*
X155297287Y-105688390D01*
X155289556Y-105677749D01*
X155176971Y-105522786D01*
X155032213Y-105378028D01*
X154866613Y-105257715D01*
X154866612Y-105257714D01*
X154866610Y-105257713D01*
X154809653Y-105228691D01*
X154684223Y-105164781D01*
X154489534Y-105101522D01*
X154314995Y-105073878D01*
X154287352Y-105069500D01*
X154082648Y-105069500D01*
X154058329Y-105073351D01*
X153880465Y-105101522D01*
X153685776Y-105164781D01*
X153503386Y-105257715D01*
X153337786Y-105378028D01*
X153193028Y-105522786D01*
X153072715Y-105688386D01*
X153025485Y-105781080D01*
X152977510Y-105831876D01*
X152909689Y-105848671D01*
X152843554Y-105826134D01*
X152804515Y-105781080D01*
X152803883Y-105779840D01*
X152757287Y-105688390D01*
X152749556Y-105677749D01*
X152636971Y-105522786D01*
X152492213Y-105378028D01*
X152326613Y-105257715D01*
X152326612Y-105257714D01*
X152326610Y-105257713D01*
X152269653Y-105228691D01*
X152144223Y-105164781D01*
X151949534Y-105101522D01*
X151774995Y-105073878D01*
X151747352Y-105069500D01*
X151542648Y-105069500D01*
X151518329Y-105073351D01*
X151340465Y-105101522D01*
X151145776Y-105164781D01*
X150963386Y-105257715D01*
X150797786Y-105378028D01*
X150653028Y-105522786D01*
X150532715Y-105688386D01*
X150485485Y-105781080D01*
X150437510Y-105831876D01*
X150369689Y-105848671D01*
X150303554Y-105826134D01*
X150264515Y-105781080D01*
X150263883Y-105779840D01*
X150217287Y-105688390D01*
X150209556Y-105677749D01*
X150096971Y-105522786D01*
X149952213Y-105378028D01*
X149786613Y-105257715D01*
X149786612Y-105257714D01*
X149786610Y-105257713D01*
X149729653Y-105228691D01*
X149604223Y-105164781D01*
X149409534Y-105101522D01*
X149234995Y-105073878D01*
X149207352Y-105069500D01*
X149002648Y-105069500D01*
X148978329Y-105073351D01*
X148800465Y-105101522D01*
X148605776Y-105164781D01*
X148423386Y-105257715D01*
X148257786Y-105378028D01*
X148113028Y-105522786D01*
X147992715Y-105688386D01*
X147945485Y-105781080D01*
X147897510Y-105831876D01*
X147829689Y-105848671D01*
X147763554Y-105826134D01*
X147724515Y-105781080D01*
X147723883Y-105779840D01*
X147677287Y-105688390D01*
X147669556Y-105677749D01*
X147556971Y-105522786D01*
X147412213Y-105378028D01*
X147246613Y-105257715D01*
X147246612Y-105257714D01*
X147246610Y-105257713D01*
X147189653Y-105228691D01*
X147064223Y-105164781D01*
X146869534Y-105101522D01*
X146694995Y-105073878D01*
X146667352Y-105069500D01*
X146462648Y-105069500D01*
X146438329Y-105073351D01*
X146260465Y-105101522D01*
X146065776Y-105164781D01*
X145883386Y-105257715D01*
X145717786Y-105378028D01*
X145573028Y-105522786D01*
X145452715Y-105688386D01*
X145405485Y-105781080D01*
X145357510Y-105831876D01*
X145289689Y-105848671D01*
X145223554Y-105826134D01*
X145184515Y-105781080D01*
X145183883Y-105779840D01*
X145137287Y-105688390D01*
X145129556Y-105677749D01*
X145016971Y-105522786D01*
X144872213Y-105378028D01*
X144706613Y-105257715D01*
X144706612Y-105257714D01*
X144706610Y-105257713D01*
X144649653Y-105228691D01*
X144524223Y-105164781D01*
X144329534Y-105101522D01*
X144154995Y-105073878D01*
X144127352Y-105069500D01*
X143922648Y-105069500D01*
X143898329Y-105073351D01*
X143720465Y-105101522D01*
X143525776Y-105164781D01*
X143343386Y-105257715D01*
X143177786Y-105378028D01*
X143033028Y-105522786D01*
X142912715Y-105688386D01*
X142865485Y-105781080D01*
X142817510Y-105831876D01*
X142749689Y-105848671D01*
X142683554Y-105826134D01*
X142644515Y-105781080D01*
X142643883Y-105779840D01*
X142597287Y-105688390D01*
X142589556Y-105677749D01*
X142476971Y-105522786D01*
X142332213Y-105378028D01*
X142166613Y-105257715D01*
X142166612Y-105257714D01*
X142166610Y-105257713D01*
X142109653Y-105228691D01*
X141984223Y-105164781D01*
X141789534Y-105101522D01*
X141614995Y-105073878D01*
X141587352Y-105069500D01*
X141382648Y-105069500D01*
X141358329Y-105073351D01*
X141180465Y-105101522D01*
X140985776Y-105164781D01*
X140803386Y-105257715D01*
X140637786Y-105378028D01*
X140493028Y-105522786D01*
X140372715Y-105688386D01*
X140325485Y-105781080D01*
X140277510Y-105831876D01*
X140209689Y-105848671D01*
X140143554Y-105826134D01*
X140104515Y-105781080D01*
X140103883Y-105779840D01*
X140057287Y-105688390D01*
X140049556Y-105677749D01*
X139936971Y-105522786D01*
X139792213Y-105378028D01*
X139626613Y-105257715D01*
X139626612Y-105257714D01*
X139626610Y-105257713D01*
X139569653Y-105228691D01*
X139444223Y-105164781D01*
X139249534Y-105101522D01*
X139074995Y-105073878D01*
X139047352Y-105069500D01*
X138842648Y-105069500D01*
X138818329Y-105073351D01*
X138640465Y-105101522D01*
X138445776Y-105164781D01*
X138263386Y-105257715D01*
X138097786Y-105378028D01*
X137953028Y-105522786D01*
X137832715Y-105688386D01*
X137739781Y-105870776D01*
X137676522Y-106065465D01*
X137644500Y-106267648D01*
X89448725Y-106267648D01*
X89461647Y-103553945D01*
X118054500Y-103553945D01*
X118054500Y-103746054D01*
X118084553Y-103935802D01*
X118143916Y-104118506D01*
X118143918Y-104118509D01*
X118231135Y-104289681D01*
X118344055Y-104445102D01*
X118479898Y-104580945D01*
X118635319Y-104693865D01*
X118806491Y-104781082D01*
X118806493Y-104781083D01*
X118897845Y-104810764D01*
X118989199Y-104840447D01*
X119178945Y-104870500D01*
X119178946Y-104870500D01*
X119371054Y-104870500D01*
X119371055Y-104870500D01*
X119560801Y-104840447D01*
X119743509Y-104781082D01*
X119914681Y-104693865D01*
X120070102Y-104580945D01*
X120205945Y-104445102D01*
X120318865Y-104289681D01*
X120406082Y-104118509D01*
X120465447Y-103935801D01*
X120495500Y-103746055D01*
X120495500Y-103553945D01*
X120465447Y-103364199D01*
X120441108Y-103289291D01*
X120411596Y-103198459D01*
X120407671Y-103186382D01*
X120406082Y-103181491D01*
X120398305Y-103166228D01*
X156325500Y-103166228D01*
X156325500Y-103333771D01*
X156358182Y-103498074D01*
X156358184Y-103498082D01*
X156422295Y-103652860D01*
X156515373Y-103792162D01*
X156633837Y-103910626D01*
X156671516Y-103935802D01*
X156773137Y-104003703D01*
X156927918Y-104067816D01*
X157092228Y-104100499D01*
X157092232Y-104100500D01*
X157092233Y-104100500D01*
X157259768Y-104100500D01*
X157259769Y-104100499D01*
X157424082Y-104067816D01*
X157578863Y-104003703D01*
X157718162Y-103910626D01*
X157836626Y-103792162D01*
X157929703Y-103652863D01*
X157993816Y-103498082D01*
X158022718Y-103352781D01*
X158055102Y-103290870D01*
X158056603Y-103289342D01*
X158239524Y-103106420D01*
X158300845Y-103072937D01*
X158351394Y-103072486D01*
X158492228Y-103100499D01*
X158492232Y-103100500D01*
X158492233Y-103100500D01*
X158659768Y-103100500D01*
X158659769Y-103100499D01*
X158824082Y-103067816D01*
X158978863Y-103003703D01*
X159118162Y-102910626D01*
X159236626Y-102792162D01*
X159329703Y-102652863D01*
X159393816Y-102498082D01*
X159426500Y-102333767D01*
X159426500Y-102166233D01*
X159393816Y-102001918D01*
X159329703Y-101847137D01*
X159261271Y-101744721D01*
X159236626Y-101707837D01*
X159118162Y-101589373D01*
X158978860Y-101496295D01*
X158824082Y-101432184D01*
X158824074Y-101432182D01*
X158659771Y-101399500D01*
X158659767Y-101399500D01*
X158492233Y-101399500D01*
X158492228Y-101399500D01*
X158327925Y-101432182D01*
X158327917Y-101432184D01*
X158173139Y-101496295D01*
X158033838Y-101589373D01*
X158033835Y-101589375D01*
X158024954Y-101598256D01*
X158018026Y-101602884D01*
X158015087Y-101607118D01*
X157984734Y-101625128D01*
X157937223Y-101644809D01*
X157937220Y-101644810D01*
X157867881Y-101673530D01*
X157867863Y-101673540D01*
X157761332Y-101744721D01*
X157761325Y-101744727D01*
X157136708Y-102369345D01*
X157075385Y-102402830D01*
X157073219Y-102403281D01*
X156927923Y-102432182D01*
X156927917Y-102432184D01*
X156773139Y-102496295D01*
X156633837Y-102589373D01*
X156515373Y-102707837D01*
X156422295Y-102847139D01*
X156358184Y-103001917D01*
X156358182Y-103001925D01*
X156325500Y-103166228D01*
X120398305Y-103166228D01*
X120318865Y-103010319D01*
X120205945Y-102854898D01*
X120070102Y-102719055D01*
X119914681Y-102606135D01*
X119881784Y-102589373D01*
X119743506Y-102518916D01*
X119560802Y-102459553D01*
X119465928Y-102444526D01*
X119371055Y-102429500D01*
X119178945Y-102429500D01*
X119115696Y-102439517D01*
X118989197Y-102459553D01*
X118806493Y-102518916D01*
X118635318Y-102606135D01*
X118571003Y-102652863D01*
X118479898Y-102719055D01*
X118479896Y-102719057D01*
X118479895Y-102719057D01*
X118344057Y-102854895D01*
X118344057Y-102854896D01*
X118344055Y-102854898D01*
X118303566Y-102910626D01*
X118231135Y-103010318D01*
X118143916Y-103181493D01*
X118084553Y-103364197D01*
X118054500Y-103553945D01*
X89461647Y-103553945D01*
X89473742Y-101013984D01*
X115515000Y-101013984D01*
X115515000Y-101206015D01*
X115545040Y-101395684D01*
X115604383Y-101578321D01*
X115691561Y-101749415D01*
X115712798Y-101778646D01*
X116335000Y-101156445D01*
X116335000Y-101162661D01*
X116362259Y-101264394D01*
X116414920Y-101355606D01*
X116489394Y-101430080D01*
X116580606Y-101482741D01*
X116682339Y-101510000D01*
X116688554Y-101510000D01*
X116066351Y-102132200D01*
X116066352Y-102132201D01*
X116095577Y-102153434D01*
X116266678Y-102240616D01*
X116449315Y-102299959D01*
X116638985Y-102330000D01*
X116831015Y-102330000D01*
X117020684Y-102299959D01*
X117203321Y-102240616D01*
X117374419Y-102153436D01*
X117403646Y-102132201D01*
X117403646Y-102132200D01*
X116781447Y-101510000D01*
X116787661Y-101510000D01*
X116889394Y-101482741D01*
X116980606Y-101430080D01*
X117055080Y-101355606D01*
X117107741Y-101264394D01*
X117135000Y-101162661D01*
X117135000Y-101156446D01*
X117757200Y-101778646D01*
X117757201Y-101778646D01*
X117778436Y-101749419D01*
X117865616Y-101578321D01*
X117924959Y-101395684D01*
X117955000Y-101206015D01*
X117955000Y-101013984D01*
X117954994Y-101013945D01*
X120594500Y-101013945D01*
X120594500Y-101206054D01*
X120624553Y-101395802D01*
X120683916Y-101578506D01*
X120717700Y-101644810D01*
X120771135Y-101749681D01*
X120884055Y-101905102D01*
X121019898Y-102040945D01*
X121175319Y-102153865D01*
X121345576Y-102240616D01*
X121346493Y-102241083D01*
X121437845Y-102270764D01*
X121529199Y-102300447D01*
X121718945Y-102330500D01*
X121718946Y-102330500D01*
X121911054Y-102330500D01*
X121911055Y-102330500D01*
X122100801Y-102300447D01*
X122283509Y-102241082D01*
X122454681Y-102153865D01*
X122610102Y-102040945D01*
X122745945Y-101905102D01*
X122858865Y-101749681D01*
X122946082Y-101578509D01*
X123005447Y-101395801D01*
X123035500Y-101206055D01*
X123035500Y-101013945D01*
X123005447Y-100824199D01*
X122949776Y-100652860D01*
X122946083Y-100641493D01*
X122873007Y-100498074D01*
X122858865Y-100470319D01*
X122745945Y-100314898D01*
X122610102Y-100179055D01*
X122454681Y-100066135D01*
X122423996Y-100050500D01*
X122283506Y-99978916D01*
X122100802Y-99919553D01*
X122006948Y-99904688D01*
X121982861Y-99900873D01*
X121911055Y-99889500D01*
X121718945Y-99889500D01*
X121655696Y-99899517D01*
X121529197Y-99919553D01*
X121346493Y-99978916D01*
X121175318Y-100066135D01*
X121145502Y-100087798D01*
X121019898Y-100179055D01*
X121019896Y-100179057D01*
X121019895Y-100179057D01*
X120884057Y-100314895D01*
X120884057Y-100314896D01*
X120884055Y-100314898D01*
X120870343Y-100333771D01*
X120771135Y-100470318D01*
X120683916Y-100641493D01*
X120624553Y-100824197D01*
X120594500Y-101013945D01*
X117954994Y-101013945D01*
X117924959Y-100824315D01*
X117865616Y-100641678D01*
X117778434Y-100470577D01*
X117757201Y-100441352D01*
X117757200Y-100441351D01*
X117135000Y-101063552D01*
X117135000Y-101057339D01*
X117107741Y-100955606D01*
X117055080Y-100864394D01*
X116980606Y-100789920D01*
X116889394Y-100737259D01*
X116787661Y-100710000D01*
X116781447Y-100710000D01*
X117403646Y-100087798D01*
X117374415Y-100066561D01*
X117203321Y-99979383D01*
X117020684Y-99920040D01*
X116831015Y-99890000D01*
X116638985Y-99890000D01*
X116449315Y-99920040D01*
X116266678Y-99979383D01*
X116095578Y-100066564D01*
X116066352Y-100087798D01*
X116066351Y-100087798D01*
X116688554Y-100710000D01*
X116682339Y-100710000D01*
X116580606Y-100737259D01*
X116489394Y-100789920D01*
X116414920Y-100864394D01*
X116362259Y-100955606D01*
X116335000Y-101057339D01*
X116335000Y-101063553D01*
X115712798Y-100441351D01*
X115712798Y-100441352D01*
X115691564Y-100470578D01*
X115604383Y-100641678D01*
X115545040Y-100824315D01*
X115515000Y-101013984D01*
X89473742Y-101013984D01*
X89495239Y-96499623D01*
X89495244Y-96499623D01*
X89495239Y-96499572D01*
X89505034Y-94638549D01*
X105049500Y-94638549D01*
X105049500Y-94861450D01*
X105049501Y-94861466D01*
X105078594Y-95082452D01*
X105078595Y-95082457D01*
X105078596Y-95082463D01*
X105122495Y-95246297D01*
X105136290Y-95297780D01*
X105136293Y-95297790D01*
X105221593Y-95503722D01*
X105221595Y-95503726D01*
X105333052Y-95696774D01*
X105333057Y-95696780D01*
X105333058Y-95696782D01*
X105468751Y-95873622D01*
X105468757Y-95873629D01*
X105626370Y-96031242D01*
X105626377Y-96031248D01*
X105783254Y-96151624D01*
X105824457Y-96208052D01*
X105828612Y-96277798D01*
X105794400Y-96338718D01*
X105783254Y-96348376D01*
X105626377Y-96468751D01*
X105626370Y-96468757D01*
X105468757Y-96626370D01*
X105468751Y-96626377D01*
X105333058Y-96803217D01*
X105333052Y-96803226D01*
X105221595Y-96996273D01*
X105221593Y-96996277D01*
X105136293Y-97202209D01*
X105136290Y-97202219D01*
X105078597Y-97417534D01*
X105078594Y-97417547D01*
X105049501Y-97638533D01*
X105049500Y-97638549D01*
X105049500Y-97861450D01*
X105049501Y-97861466D01*
X105078594Y-98082452D01*
X105078595Y-98082457D01*
X105078596Y-98082463D01*
X105130813Y-98277339D01*
X105136290Y-98297780D01*
X105136293Y-98297790D01*
X105221593Y-98503722D01*
X105221595Y-98503726D01*
X105333052Y-98696774D01*
X105333057Y-98696780D01*
X105333058Y-98696782D01*
X105468751Y-98873622D01*
X105468757Y-98873629D01*
X105626370Y-99031242D01*
X105626377Y-99031248D01*
X105745614Y-99122741D01*
X105803226Y-99166948D01*
X105996274Y-99278405D01*
X106202219Y-99363710D01*
X106417537Y-99421404D01*
X106638543Y-99450500D01*
X106638550Y-99450500D01*
X106861450Y-99450500D01*
X106861457Y-99450500D01*
X107082463Y-99421404D01*
X107297781Y-99363710D01*
X107503726Y-99278405D01*
X107696774Y-99166948D01*
X107873624Y-99031247D01*
X108031247Y-98873624D01*
X108166948Y-98696774D01*
X108278405Y-98503726D01*
X108363710Y-98297781D01*
X108421404Y-98082463D01*
X108450500Y-97861457D01*
X108450500Y-97638543D01*
X108421404Y-97417537D01*
X108363710Y-97202219D01*
X108323480Y-97105096D01*
X125949500Y-97105096D01*
X125949500Y-98305114D01*
X125949501Y-98305131D01*
X125960000Y-98407909D01*
X125960001Y-98407912D01*
X126015185Y-98574444D01*
X126015187Y-98574449D01*
X126017205Y-98577720D01*
X126107288Y-98723769D01*
X126231344Y-98847825D01*
X126380666Y-98939927D01*
X126547203Y-98995112D01*
X126649991Y-99005613D01*
X127850008Y-99005612D01*
X127952797Y-98995112D01*
X128119334Y-98939927D01*
X128268656Y-98847825D01*
X128392712Y-98723769D01*
X128439643Y-98647682D01*
X137645000Y-98647682D01*
X137645000Y-98852317D01*
X137677009Y-99054417D01*
X137740244Y-99249031D01*
X137833141Y-99431350D01*
X137833147Y-99431359D01*
X137865523Y-99475921D01*
X137865524Y-99475922D01*
X138545000Y-98796446D01*
X138545000Y-98802661D01*
X138572259Y-98904394D01*
X138624920Y-98995606D01*
X138699394Y-99070080D01*
X138790606Y-99122741D01*
X138892339Y-99150000D01*
X138898553Y-99150000D01*
X138219076Y-99829474D01*
X138263650Y-99861859D01*
X138445968Y-99954755D01*
X138640582Y-100017990D01*
X138842683Y-100050000D01*
X139047317Y-100050000D01*
X139249417Y-100017990D01*
X139444031Y-99954755D01*
X139626349Y-99861859D01*
X139670921Y-99829474D01*
X138991447Y-99150000D01*
X138997661Y-99150000D01*
X139099394Y-99122741D01*
X139190606Y-99070080D01*
X139265080Y-98995606D01*
X139317741Y-98904394D01*
X139345000Y-98802661D01*
X139345000Y-98796448D01*
X140024474Y-99475922D01*
X140024474Y-99475921D01*
X140056861Y-99431347D01*
X140056861Y-99431346D01*
X140104234Y-99338371D01*
X140152208Y-99287575D01*
X140220028Y-99270779D01*
X140286164Y-99293316D01*
X140325203Y-99338369D01*
X140372713Y-99431611D01*
X140493028Y-99597213D01*
X140637786Y-99741971D01*
X140788195Y-99851247D01*
X140803390Y-99862287D01*
X140919607Y-99921503D01*
X140985776Y-99955218D01*
X140985778Y-99955218D01*
X140985781Y-99955220D01*
X141075459Y-99984358D01*
X141180465Y-100018477D01*
X141199779Y-100021536D01*
X141382648Y-100050500D01*
X141382649Y-100050500D01*
X141587351Y-100050500D01*
X141587352Y-100050500D01*
X141789534Y-100018477D01*
X141984219Y-99955220D01*
X142166610Y-99862287D01*
X142259590Y-99794732D01*
X142332213Y-99741971D01*
X142332215Y-99741968D01*
X142332219Y-99741966D01*
X142476966Y-99597219D01*
X142476968Y-99597215D01*
X142476971Y-99597213D01*
X142597284Y-99431614D01*
X142597286Y-99431611D01*
X142597287Y-99431610D01*
X142644516Y-99338917D01*
X142692489Y-99288123D01*
X142760310Y-99271328D01*
X142826445Y-99293865D01*
X142865483Y-99338917D01*
X142907512Y-99421402D01*
X142912715Y-99431614D01*
X143033028Y-99597213D01*
X143177786Y-99741971D01*
X143328195Y-99851247D01*
X143343390Y-99862287D01*
X143459607Y-99921503D01*
X143525776Y-99955218D01*
X143525778Y-99955218D01*
X143525781Y-99955220D01*
X143615459Y-99984358D01*
X143720465Y-100018477D01*
X143739779Y-100021536D01*
X143922648Y-100050500D01*
X143922649Y-100050500D01*
X144127351Y-100050500D01*
X144127352Y-100050500D01*
X144329534Y-100018477D01*
X144524219Y-99955220D01*
X144706610Y-99862287D01*
X144799590Y-99794732D01*
X144872213Y-99741971D01*
X144872215Y-99741968D01*
X144872219Y-99741966D01*
X145016966Y-99597219D01*
X145016968Y-99597215D01*
X145016971Y-99597213D01*
X145137284Y-99431614D01*
X145137286Y-99431611D01*
X145137287Y-99431610D01*
X145184516Y-99338917D01*
X145232489Y-99288123D01*
X145300310Y-99271328D01*
X145366445Y-99293865D01*
X145405483Y-99338917D01*
X145447512Y-99421402D01*
X145452715Y-99431614D01*
X145573028Y-99597213D01*
X145717786Y-99741971D01*
X145868195Y-99851247D01*
X145883390Y-99862287D01*
X145999607Y-99921503D01*
X146065776Y-99955218D01*
X146065778Y-99955218D01*
X146065781Y-99955220D01*
X146155459Y-99984358D01*
X146260465Y-100018477D01*
X146279779Y-100021536D01*
X146462648Y-100050500D01*
X146462649Y-100050500D01*
X146667350Y-100050500D01*
X146667352Y-100050500D01*
X146756226Y-100036423D01*
X146825516Y-100045377D01*
X146878969Y-100090373D01*
X146899609Y-100157124D01*
X146899483Y-100160141D01*
X146899500Y-100160141D01*
X146899500Y-100333771D01*
X146932182Y-100498074D01*
X146932184Y-100498082D01*
X146996295Y-100652860D01*
X147089373Y-100792162D01*
X147207837Y-100910626D01*
X147275155Y-100955606D01*
X147347137Y-101003703D01*
X147501918Y-101067816D01*
X147666228Y-101100499D01*
X147666232Y-101100500D01*
X147666233Y-101100500D01*
X147833768Y-101100500D01*
X147833769Y-101100499D01*
X147998082Y-101067816D01*
X148152863Y-101003703D01*
X148292162Y-100910626D01*
X148410626Y-100792162D01*
X148503703Y-100652863D01*
X148508413Y-100641493D01*
X148514024Y-100627947D01*
X148514024Y-100627946D01*
X148567816Y-100498082D01*
X148600500Y-100333767D01*
X148600500Y-100166233D01*
X148596536Y-100146304D01*
X148602763Y-100076714D01*
X148645625Y-100021536D01*
X148711514Y-99998291D01*
X148756473Y-100004183D01*
X148800458Y-100018475D01*
X148800461Y-100018475D01*
X148800466Y-100018477D01*
X149002648Y-100050500D01*
X149002649Y-100050500D01*
X149207351Y-100050500D01*
X149207352Y-100050500D01*
X149409534Y-100018477D01*
X149604219Y-99955220D01*
X149786610Y-99862287D01*
X149879590Y-99794732D01*
X149952213Y-99741971D01*
X149952215Y-99741968D01*
X149952219Y-99741966D01*
X150096966Y-99597219D01*
X150096968Y-99597215D01*
X150096971Y-99597213D01*
X150201150Y-99453821D01*
X150217287Y-99431610D01*
X150264795Y-99338369D01*
X150312769Y-99287573D01*
X150380590Y-99270778D01*
X150446725Y-99293315D01*
X150485765Y-99338369D01*
X150533141Y-99431350D01*
X150533147Y-99431359D01*
X150565523Y-99475921D01*
X150565524Y-99475922D01*
X151245000Y-98796446D01*
X151245000Y-98802661D01*
X151272259Y-98904394D01*
X151324920Y-98995606D01*
X151399394Y-99070080D01*
X151490606Y-99122741D01*
X151592339Y-99150000D01*
X151598553Y-99150000D01*
X150919076Y-99829474D01*
X150963650Y-99861859D01*
X151145968Y-99954755D01*
X151340582Y-100017990D01*
X151542683Y-100050000D01*
X151747317Y-100050000D01*
X151949417Y-100017990D01*
X152144031Y-99954755D01*
X152326349Y-99861859D01*
X152370921Y-99829474D01*
X151691447Y-99150000D01*
X151697661Y-99150000D01*
X151799394Y-99122741D01*
X151890606Y-99070080D01*
X151965080Y-98995606D01*
X152017741Y-98904394D01*
X152045000Y-98802661D01*
X152045000Y-98796447D01*
X152724474Y-99475921D01*
X152756861Y-99431347D01*
X152756861Y-99431346D01*
X152804515Y-99337820D01*
X152852489Y-99287024D01*
X152920310Y-99270228D01*
X152986445Y-99292765D01*
X153025485Y-99337819D01*
X153073141Y-99431350D01*
X153073147Y-99431359D01*
X153105523Y-99475921D01*
X153105524Y-99475922D01*
X153785000Y-98796446D01*
X153785000Y-98802661D01*
X153812259Y-98904394D01*
X153864920Y-98995606D01*
X153939394Y-99070080D01*
X154030606Y-99122741D01*
X154132339Y-99150000D01*
X154138553Y-99150000D01*
X153459076Y-99829474D01*
X153503650Y-99861859D01*
X153685968Y-99954755D01*
X153880582Y-100017990D01*
X154082683Y-100050000D01*
X154287317Y-100050000D01*
X154489417Y-100017990D01*
X154684031Y-99954755D01*
X154866349Y-99861859D01*
X154910921Y-99829474D01*
X154231447Y-99150000D01*
X154237661Y-99150000D01*
X154339394Y-99122741D01*
X154430606Y-99070080D01*
X154505080Y-98995606D01*
X154557741Y-98904394D01*
X154585000Y-98802661D01*
X154585000Y-98796447D01*
X155264474Y-99475921D01*
X155281332Y-99474595D01*
X155300520Y-99459800D01*
X155370133Y-99453821D01*
X155431928Y-99486427D01*
X155463213Y-99536346D01*
X155490642Y-99619121D01*
X155490643Y-99619124D01*
X155582684Y-99768345D01*
X155706654Y-99892315D01*
X155855875Y-99984356D01*
X155855880Y-99984358D01*
X156022302Y-100039505D01*
X156022309Y-100039506D01*
X156125019Y-100049999D01*
X156474999Y-100049999D01*
X156475000Y-100049998D01*
X156475000Y-99065686D01*
X156479394Y-99070080D01*
X156570606Y-99122741D01*
X156672339Y-99150000D01*
X156777661Y-99150000D01*
X156879394Y-99122741D01*
X156970606Y-99070080D01*
X156975000Y-99065686D01*
X156975000Y-100049999D01*
X157324972Y-100049999D01*
X157324986Y-100049998D01*
X157427697Y-100039505D01*
X157594119Y-99984358D01*
X157594124Y-99984356D01*
X157743345Y-99892315D01*
X157867315Y-99768345D01*
X157959356Y-99619124D01*
X157959358Y-99619119D01*
X158014505Y-99452697D01*
X158014506Y-99452689D01*
X158021734Y-99381947D01*
X163025000Y-99381947D01*
X163025000Y-99618052D01*
X163061934Y-99851247D01*
X163134897Y-100075802D01*
X163242087Y-100286174D01*
X163302338Y-100369104D01*
X163302340Y-100369105D01*
X164001212Y-99670233D01*
X164012482Y-99712292D01*
X164084890Y-99837708D01*
X164187292Y-99940110D01*
X164312708Y-100012518D01*
X164354765Y-100023787D01*
X163655893Y-100722658D01*
X163738828Y-100782914D01*
X163949197Y-100890102D01*
X164173752Y-100963065D01*
X164173751Y-100963065D01*
X164406948Y-101000000D01*
X164643052Y-101000000D01*
X164876247Y-100963065D01*
X165100802Y-100890102D01*
X165311163Y-100782918D01*
X165311169Y-100782914D01*
X165394104Y-100722658D01*
X165394105Y-100722658D01*
X164695233Y-100023787D01*
X164737292Y-100012518D01*
X164862708Y-99940110D01*
X164965110Y-99837708D01*
X165037518Y-99712292D01*
X165048787Y-99670233D01*
X165747658Y-100369105D01*
X165747658Y-100369104D01*
X165807914Y-100286169D01*
X165807918Y-100286163D01*
X165915102Y-100075802D01*
X165988065Y-99851247D01*
X166025000Y-99618052D01*
X166025000Y-99381947D01*
X169525000Y-99381947D01*
X169525000Y-99618052D01*
X169561934Y-99851247D01*
X169634897Y-100075802D01*
X169742087Y-100286174D01*
X169802338Y-100369104D01*
X169802340Y-100369105D01*
X170501212Y-99670233D01*
X170512482Y-99712292D01*
X170584890Y-99837708D01*
X170687292Y-99940110D01*
X170812708Y-100012518D01*
X170854765Y-100023787D01*
X170155893Y-100722658D01*
X170238828Y-100782914D01*
X170449197Y-100890102D01*
X170673752Y-100963065D01*
X170673751Y-100963065D01*
X170906948Y-101000000D01*
X171143052Y-101000000D01*
X171376247Y-100963065D01*
X171600802Y-100890102D01*
X171811163Y-100782918D01*
X171811169Y-100782914D01*
X171894104Y-100722658D01*
X171894105Y-100722658D01*
X171195233Y-100023787D01*
X171237292Y-100012518D01*
X171362708Y-99940110D01*
X171465110Y-99837708D01*
X171537518Y-99712292D01*
X171548787Y-99670233D01*
X172247658Y-100369105D01*
X172247658Y-100369104D01*
X172307914Y-100286169D01*
X172307918Y-100286163D01*
X172415102Y-100075802D01*
X172488065Y-99851247D01*
X172525000Y-99618052D01*
X172525000Y-99381947D01*
X172488065Y-99148752D01*
X172415102Y-98924197D01*
X172307914Y-98713828D01*
X172247658Y-98630894D01*
X172247658Y-98630893D01*
X171548787Y-99329765D01*
X171537518Y-99287708D01*
X171465110Y-99162292D01*
X171362708Y-99059890D01*
X171237292Y-98987482D01*
X171195234Y-98976212D01*
X171894105Y-98277340D01*
X171894104Y-98277338D01*
X171811174Y-98217087D01*
X171600802Y-98109897D01*
X171376247Y-98036934D01*
X171376248Y-98036934D01*
X171143052Y-98000000D01*
X170906948Y-98000000D01*
X170673752Y-98036934D01*
X170449197Y-98109897D01*
X170238830Y-98217084D01*
X170155894Y-98277340D01*
X170854766Y-98976212D01*
X170812708Y-98987482D01*
X170687292Y-99059890D01*
X170584890Y-99162292D01*
X170512482Y-99287708D01*
X170501212Y-99329766D01*
X169802340Y-98630894D01*
X169742084Y-98713830D01*
X169634897Y-98924197D01*
X169561934Y-99148752D01*
X169525000Y-99381947D01*
X166025000Y-99381947D01*
X165988065Y-99148752D01*
X165915102Y-98924197D01*
X165807914Y-98713828D01*
X165747658Y-98630894D01*
X165747658Y-98630893D01*
X165048787Y-99329765D01*
X165037518Y-99287708D01*
X164965110Y-99162292D01*
X164862708Y-99059890D01*
X164737292Y-98987482D01*
X164695234Y-98976212D01*
X165394105Y-98277340D01*
X165394104Y-98277339D01*
X165311174Y-98217087D01*
X165100802Y-98109897D01*
X164876247Y-98036934D01*
X164876248Y-98036934D01*
X164643052Y-98000000D01*
X164406948Y-98000000D01*
X164173752Y-98036934D01*
X163949197Y-98109897D01*
X163738830Y-98217084D01*
X163655894Y-98277340D01*
X164354766Y-98976212D01*
X164312708Y-98987482D01*
X164187292Y-99059890D01*
X164084890Y-99162292D01*
X164012482Y-99287708D01*
X164001212Y-99329765D01*
X163302340Y-98630894D01*
X163242084Y-98713830D01*
X163134897Y-98924197D01*
X163061934Y-99148752D01*
X163025000Y-99381947D01*
X158021734Y-99381947D01*
X158023519Y-99364473D01*
X158023519Y-99364469D01*
X158024999Y-99349978D01*
X158025000Y-99349973D01*
X158025000Y-99000000D01*
X157040686Y-99000000D01*
X157045080Y-98995606D01*
X157097741Y-98904394D01*
X157125000Y-98802661D01*
X157125000Y-98697339D01*
X157097741Y-98595606D01*
X157045080Y-98504394D01*
X157040686Y-98500000D01*
X158024999Y-98500000D01*
X158024999Y-98150028D01*
X158024998Y-98150013D01*
X158014505Y-98047302D01*
X157959358Y-97880880D01*
X157959356Y-97880875D01*
X157867315Y-97731654D01*
X157743345Y-97607684D01*
X157594124Y-97515643D01*
X157594119Y-97515641D01*
X157427697Y-97460494D01*
X157427690Y-97460493D01*
X157324986Y-97450000D01*
X156975000Y-97450000D01*
X156975000Y-98434314D01*
X156970606Y-98429920D01*
X156879394Y-98377259D01*
X156777661Y-98350000D01*
X156672339Y-98350000D01*
X156570606Y-98377259D01*
X156479394Y-98429920D01*
X156475000Y-98434314D01*
X156475000Y-97450000D01*
X156125028Y-97450000D01*
X156125012Y-97450001D01*
X156022302Y-97460494D01*
X155855880Y-97515641D01*
X155855875Y-97515643D01*
X155706654Y-97607684D01*
X155582684Y-97731654D01*
X155490643Y-97880875D01*
X155490638Y-97880886D01*
X155463212Y-97963652D01*
X155423439Y-98021097D01*
X155358923Y-98047919D01*
X155290147Y-98035603D01*
X155277771Y-98025123D01*
X155264474Y-98024076D01*
X154585000Y-98703551D01*
X154585000Y-98697339D01*
X154557741Y-98595606D01*
X154505080Y-98504394D01*
X154430606Y-98429920D01*
X154339394Y-98377259D01*
X154237661Y-98350000D01*
X154231446Y-98350000D01*
X154910922Y-97670524D01*
X154910921Y-97670523D01*
X154866359Y-97638147D01*
X154866350Y-97638141D01*
X154684031Y-97545244D01*
X154489417Y-97482009D01*
X154287317Y-97450000D01*
X154082683Y-97450000D01*
X153880582Y-97482009D01*
X153685968Y-97545244D01*
X153503644Y-97638143D01*
X153459077Y-97670523D01*
X153459077Y-97670524D01*
X154138554Y-98350000D01*
X154132339Y-98350000D01*
X154030606Y-98377259D01*
X153939394Y-98429920D01*
X153864920Y-98504394D01*
X153812259Y-98595606D01*
X153785000Y-98697339D01*
X153785000Y-98703553D01*
X153105524Y-98024077D01*
X153105523Y-98024077D01*
X153073143Y-98068644D01*
X153025485Y-98162180D01*
X152977510Y-98212976D01*
X152909689Y-98229771D01*
X152843554Y-98207233D01*
X152804515Y-98162180D01*
X152756859Y-98068650D01*
X152724474Y-98024077D01*
X152724474Y-98024076D01*
X152045000Y-98703551D01*
X152045000Y-98697339D01*
X152017741Y-98595606D01*
X151965080Y-98504394D01*
X151890606Y-98429920D01*
X151799394Y-98377259D01*
X151697661Y-98350000D01*
X151691446Y-98350000D01*
X152370922Y-97670524D01*
X152370921Y-97670523D01*
X152326359Y-97638147D01*
X152326350Y-97638141D01*
X152144031Y-97545244D01*
X151949417Y-97482009D01*
X151747317Y-97450000D01*
X151542683Y-97450000D01*
X151340582Y-97482009D01*
X151145968Y-97545244D01*
X150963644Y-97638143D01*
X150919077Y-97670523D01*
X150919077Y-97670524D01*
X151598554Y-98350000D01*
X151592339Y-98350000D01*
X151490606Y-98377259D01*
X151399394Y-98429920D01*
X151324920Y-98504394D01*
X151272259Y-98595606D01*
X151245000Y-98697339D01*
X151245000Y-98703553D01*
X150565524Y-98024077D01*
X150565523Y-98024077D01*
X150533143Y-98068644D01*
X150485765Y-98161630D01*
X150437790Y-98212426D01*
X150369969Y-98229221D01*
X150303834Y-98206683D01*
X150264795Y-98161630D01*
X150264515Y-98161080D01*
X150217287Y-98068390D01*
X150217285Y-98068387D01*
X150217284Y-98068385D01*
X150096971Y-97902786D01*
X149952213Y-97758028D01*
X149786613Y-97637715D01*
X149786612Y-97637714D01*
X149786610Y-97637713D01*
X149727675Y-97607684D01*
X149604223Y-97544781D01*
X149409534Y-97481522D01*
X149226987Y-97452610D01*
X149207352Y-97449500D01*
X149002648Y-97449500D01*
X148983013Y-97452610D01*
X148800465Y-97481522D01*
X148650976Y-97530095D01*
X148605781Y-97544780D01*
X148605778Y-97544781D01*
X148605773Y-97544783D01*
X148580792Y-97557511D01*
X148512123Y-97570406D01*
X148447383Y-97544128D01*
X148407127Y-97487020D01*
X148400500Y-97447025D01*
X148400500Y-96844931D01*
X148420185Y-96777892D01*
X148421398Y-96776040D01*
X148503703Y-96652863D01*
X148567816Y-96498082D01*
X148600500Y-96333767D01*
X148600500Y-96166233D01*
X148567816Y-96001918D01*
X148532321Y-95916228D01*
X156325500Y-95916228D01*
X156325500Y-96083771D01*
X156358182Y-96248074D01*
X156358184Y-96248082D01*
X156422295Y-96402860D01*
X156515373Y-96542162D01*
X156633837Y-96660626D01*
X156672498Y-96686458D01*
X156773137Y-96753703D01*
X156927918Y-96817816D01*
X157053105Y-96842717D01*
X157092228Y-96850499D01*
X157092232Y-96850500D01*
X157092233Y-96850500D01*
X157259768Y-96850500D01*
X157259769Y-96850499D01*
X157424082Y-96817816D01*
X157578863Y-96753703D01*
X157702041Y-96671398D01*
X157768719Y-96650520D01*
X157770932Y-96650500D01*
X158655068Y-96650500D01*
X158722107Y-96670185D01*
X158723959Y-96671398D01*
X158746498Y-96686458D01*
X158847137Y-96753703D01*
X159001918Y-96817816D01*
X159127105Y-96842717D01*
X159166228Y-96850499D01*
X159166232Y-96850500D01*
X159166233Y-96850500D01*
X159333768Y-96850500D01*
X159333769Y-96850499D01*
X159498082Y-96817816D01*
X159652863Y-96753703D01*
X159792162Y-96660626D01*
X159910626Y-96542162D01*
X160003703Y-96402863D01*
X160067816Y-96248082D01*
X160100500Y-96083767D01*
X160100500Y-95916233D01*
X160067816Y-95751918D01*
X160003703Y-95597137D01*
X159936324Y-95496297D01*
X159910626Y-95457837D01*
X159792162Y-95339373D01*
X159652860Y-95246295D01*
X159498082Y-95182184D01*
X159498074Y-95182182D01*
X159333771Y-95149500D01*
X159333767Y-95149500D01*
X159166233Y-95149500D01*
X159166228Y-95149500D01*
X159001925Y-95182182D01*
X159001917Y-95182184D01*
X158847139Y-95246295D01*
X158723959Y-95328602D01*
X158657281Y-95349480D01*
X158655068Y-95349500D01*
X157770932Y-95349500D01*
X157703893Y-95329815D01*
X157702041Y-95328602D01*
X157578860Y-95246295D01*
X157424082Y-95182184D01*
X157424074Y-95182182D01*
X157259771Y-95149500D01*
X157259767Y-95149500D01*
X157092233Y-95149500D01*
X157092228Y-95149500D01*
X156927925Y-95182182D01*
X156927917Y-95182184D01*
X156773139Y-95246295D01*
X156633837Y-95339373D01*
X156515373Y-95457837D01*
X156422295Y-95597139D01*
X156358184Y-95751917D01*
X156358182Y-95751925D01*
X156325500Y-95916228D01*
X148532321Y-95916228D01*
X148523587Y-95895142D01*
X148503704Y-95847139D01*
X148477171Y-95807430D01*
X148472537Y-95800494D01*
X148410626Y-95707837D01*
X148292162Y-95589373D01*
X148152860Y-95496295D01*
X147998082Y-95432184D01*
X147998074Y-95432182D01*
X147833771Y-95399500D01*
X147833767Y-95399500D01*
X147666233Y-95399500D01*
X147666228Y-95399500D01*
X147501925Y-95432182D01*
X147501917Y-95432184D01*
X147347139Y-95496295D01*
X147207837Y-95589373D01*
X147089373Y-95707837D01*
X146996295Y-95847139D01*
X146932184Y-96001917D01*
X146932182Y-96001925D01*
X146899500Y-96166228D01*
X146899500Y-96333771D01*
X146932182Y-96498074D01*
X146932184Y-96498082D01*
X146996295Y-96652860D01*
X146996296Y-96652862D01*
X146996297Y-96652863D01*
X147063676Y-96753703D01*
X147078602Y-96776040D01*
X147099480Y-96842717D01*
X147099500Y-96844931D01*
X147099500Y-97385571D01*
X147079815Y-97452610D01*
X147027011Y-97498365D01*
X146957853Y-97508309D01*
X146937183Y-97503502D01*
X146869542Y-97481524D01*
X146869535Y-97481523D01*
X146686987Y-97452610D01*
X146667352Y-97449500D01*
X146462648Y-97449500D01*
X146443013Y-97452610D01*
X146260465Y-97481522D01*
X146065776Y-97544781D01*
X145883386Y-97637715D01*
X145717786Y-97758028D01*
X145573028Y-97902786D01*
X145452715Y-98068386D01*
X145405485Y-98161080D01*
X145357510Y-98211876D01*
X145289689Y-98228671D01*
X145223554Y-98206134D01*
X145184515Y-98161080D01*
X145178876Y-98150013D01*
X145137287Y-98068390D01*
X145105092Y-98024077D01*
X145016971Y-97902786D01*
X144872213Y-97758028D01*
X144706613Y-97637715D01*
X144706612Y-97637714D01*
X144706610Y-97637713D01*
X144647675Y-97607684D01*
X144524223Y-97544781D01*
X144329534Y-97481522D01*
X144146987Y-97452610D01*
X144127352Y-97449500D01*
X143922648Y-97449500D01*
X143903013Y-97452610D01*
X143720465Y-97481522D01*
X143525776Y-97544781D01*
X143343386Y-97637715D01*
X143177786Y-97758028D01*
X143033028Y-97902786D01*
X142912715Y-98068386D01*
X142865485Y-98161080D01*
X142817510Y-98211876D01*
X142749689Y-98228671D01*
X142683554Y-98206134D01*
X142644515Y-98161080D01*
X142638876Y-98150013D01*
X142597287Y-98068390D01*
X142565092Y-98024077D01*
X142476971Y-97902786D01*
X142332213Y-97758028D01*
X142166613Y-97637715D01*
X142166612Y-97637714D01*
X142166610Y-97637713D01*
X142107675Y-97607684D01*
X141984223Y-97544781D01*
X141789534Y-97481522D01*
X141606987Y-97452610D01*
X141587352Y-97449500D01*
X141382648Y-97449500D01*
X141363013Y-97452610D01*
X141180465Y-97481522D01*
X140985776Y-97544781D01*
X140803386Y-97637715D01*
X140637786Y-97758028D01*
X140493028Y-97902786D01*
X140372713Y-98068388D01*
X140325203Y-98161630D01*
X140277228Y-98212426D01*
X140209407Y-98229220D01*
X140143272Y-98206682D01*
X140104234Y-98161628D01*
X140056861Y-98068652D01*
X140024474Y-98024077D01*
X140024474Y-98024076D01*
X139345000Y-98703551D01*
X139345000Y-98697339D01*
X139317741Y-98595606D01*
X139265080Y-98504394D01*
X139190606Y-98429920D01*
X139099394Y-98377259D01*
X138997661Y-98350000D01*
X138991446Y-98350000D01*
X139670922Y-97670524D01*
X139670921Y-97670523D01*
X139626359Y-97638147D01*
X139626350Y-97638141D01*
X139444031Y-97545244D01*
X139249417Y-97482009D01*
X139047317Y-97450000D01*
X138842683Y-97450000D01*
X138640582Y-97482009D01*
X138445968Y-97545244D01*
X138263644Y-97638143D01*
X138219077Y-97670523D01*
X138219077Y-97670524D01*
X138898554Y-98350000D01*
X138892339Y-98350000D01*
X138790606Y-98377259D01*
X138699394Y-98429920D01*
X138624920Y-98504394D01*
X138572259Y-98595606D01*
X138545000Y-98697339D01*
X138545000Y-98703553D01*
X137865524Y-98024077D01*
X137865523Y-98024077D01*
X137833143Y-98068644D01*
X137740244Y-98250968D01*
X137677009Y-98445582D01*
X137645000Y-98647682D01*
X128439643Y-98647682D01*
X128484814Y-98574447D01*
X128539999Y-98407910D01*
X128550500Y-98305122D01*
X128550499Y-97670524D01*
X128550499Y-97105111D01*
X128550498Y-97105094D01*
X128539999Y-97002316D01*
X128539998Y-97002313D01*
X128537997Y-96996273D01*
X128484814Y-96835779D01*
X128392712Y-96686457D01*
X128323488Y-96617233D01*
X128290003Y-96555910D01*
X128294987Y-96486218D01*
X128310852Y-96456665D01*
X128361858Y-96386462D01*
X128361863Y-96386454D01*
X128454755Y-96204144D01*
X128517990Y-96009530D01*
X128550000Y-95807430D01*
X128550000Y-95602795D01*
X128517990Y-95400695D01*
X128454755Y-95206081D01*
X128361859Y-95023763D01*
X128329474Y-94979190D01*
X128329474Y-94979189D01*
X127650000Y-95658664D01*
X127650000Y-95652452D01*
X127622741Y-95550719D01*
X127570080Y-95459507D01*
X127495606Y-95385033D01*
X127404394Y-95332372D01*
X127302661Y-95305113D01*
X127296446Y-95305113D01*
X127719657Y-94881902D01*
X163024500Y-94881902D01*
X163024500Y-95118097D01*
X163061446Y-95351368D01*
X163134433Y-95575996D01*
X163241657Y-95786433D01*
X163380483Y-95977510D01*
X163547490Y-96144517D01*
X163738567Y-96283343D01*
X163836126Y-96333052D01*
X163949003Y-96390566D01*
X163949005Y-96390566D01*
X163949008Y-96390568D01*
X164024553Y-96415114D01*
X164173631Y-96463553D01*
X164406903Y-96500500D01*
X164406908Y-96500500D01*
X164643097Y-96500500D01*
X164876368Y-96463553D01*
X164897567Y-96456665D01*
X165100992Y-96390568D01*
X165311433Y-96283343D01*
X165502510Y-96144517D01*
X165669517Y-95977510D01*
X165808343Y-95786433D01*
X165915568Y-95575992D01*
X165988553Y-95351368D01*
X165997040Y-95297781D01*
X166025500Y-95118097D01*
X166025500Y-94881902D01*
X169524500Y-94881902D01*
X169524500Y-95118097D01*
X169561446Y-95351368D01*
X169634433Y-95575996D01*
X169741657Y-95786433D01*
X169880483Y-95977510D01*
X170047490Y-96144517D01*
X170238567Y-96283343D01*
X170336126Y-96333052D01*
X170449003Y-96390566D01*
X170449005Y-96390566D01*
X170449008Y-96390568D01*
X170524553Y-96415114D01*
X170673631Y-96463553D01*
X170906903Y-96500500D01*
X170906908Y-96500500D01*
X171143097Y-96500500D01*
X171376368Y-96463553D01*
X171397567Y-96456665D01*
X171600992Y-96390568D01*
X171811433Y-96283343D01*
X172002510Y-96144517D01*
X172169517Y-95977510D01*
X172308343Y-95786433D01*
X172415568Y-95575992D01*
X172488553Y-95351368D01*
X172497040Y-95297781D01*
X172525500Y-95118097D01*
X172525500Y-94881902D01*
X172488553Y-94648631D01*
X172431050Y-94471656D01*
X172415568Y-94424008D01*
X172415566Y-94424005D01*
X172415566Y-94424003D01*
X172308342Y-94213566D01*
X172300091Y-94202209D01*
X172169517Y-94022490D01*
X172002510Y-93855483D01*
X171811433Y-93716657D01*
X171600996Y-93609433D01*
X171376368Y-93536446D01*
X171143097Y-93499500D01*
X171143092Y-93499500D01*
X170906908Y-93499500D01*
X170906903Y-93499500D01*
X170673631Y-93536446D01*
X170449003Y-93609433D01*
X170238566Y-93716657D01*
X170195325Y-93748074D01*
X170047490Y-93855483D01*
X170047488Y-93855485D01*
X170047487Y-93855485D01*
X169880485Y-94022487D01*
X169880485Y-94022488D01*
X169880483Y-94022490D01*
X169820862Y-94104550D01*
X169741657Y-94213566D01*
X169634433Y-94424003D01*
X169561446Y-94648631D01*
X169524500Y-94881902D01*
X166025500Y-94881902D01*
X165988553Y-94648631D01*
X165931050Y-94471656D01*
X165915568Y-94424008D01*
X165915566Y-94424005D01*
X165915566Y-94424003D01*
X165808342Y-94213566D01*
X165800091Y-94202209D01*
X165669517Y-94022490D01*
X165502510Y-93855483D01*
X165311433Y-93716657D01*
X165100996Y-93609433D01*
X164876368Y-93536446D01*
X164643097Y-93499500D01*
X164643092Y-93499500D01*
X164406908Y-93499500D01*
X164406903Y-93499500D01*
X164173631Y-93536446D01*
X163949003Y-93609433D01*
X163738566Y-93716657D01*
X163695325Y-93748074D01*
X163547490Y-93855483D01*
X163547488Y-93855485D01*
X163547487Y-93855485D01*
X163380485Y-94022487D01*
X163380485Y-94022488D01*
X163380483Y-94022490D01*
X163320862Y-94104550D01*
X163241657Y-94213566D01*
X163134433Y-94424003D01*
X163061446Y-94648631D01*
X163024500Y-94881902D01*
X127719657Y-94881902D01*
X127975922Y-94625637D01*
X127975921Y-94625636D01*
X127931359Y-94593260D01*
X127931350Y-94593254D01*
X127749031Y-94500357D01*
X127554417Y-94437122D01*
X127352317Y-94405113D01*
X127147683Y-94405113D01*
X126945582Y-94437122D01*
X126750968Y-94500357D01*
X126568644Y-94593256D01*
X126524077Y-94625636D01*
X126524077Y-94625637D01*
X127203554Y-95305113D01*
X127197339Y-95305113D01*
X127095606Y-95332372D01*
X127004394Y-95385033D01*
X126929920Y-95459507D01*
X126877259Y-95550719D01*
X126850000Y-95652452D01*
X126850000Y-95658666D01*
X126170524Y-94979190D01*
X126170523Y-94979190D01*
X126138143Y-95023757D01*
X126045244Y-95206081D01*
X125982009Y-95400695D01*
X125950000Y-95602795D01*
X125950000Y-95807430D01*
X125982009Y-96009530D01*
X126045244Y-96204144D01*
X126138142Y-96386465D01*
X126189147Y-96456668D01*
X126212627Y-96522474D01*
X126196802Y-96590528D01*
X126176511Y-96617234D01*
X126107287Y-96686458D01*
X126015187Y-96835776D01*
X126015186Y-96835779D01*
X125960001Y-97002316D01*
X125960001Y-97002317D01*
X125960000Y-97002317D01*
X125949500Y-97105096D01*
X108323480Y-97105096D01*
X108280908Y-97002317D01*
X108278405Y-96996274D01*
X108166948Y-96803226D01*
X108077347Y-96686455D01*
X108031248Y-96626377D01*
X108031242Y-96626370D01*
X107873629Y-96468757D01*
X107873622Y-96468751D01*
X107716745Y-96348376D01*
X107675542Y-96291948D01*
X107671387Y-96222202D01*
X107705599Y-96161282D01*
X107716745Y-96151624D01*
X107812884Y-96077854D01*
X107873624Y-96031247D01*
X108031247Y-95873624D01*
X108166948Y-95696774D01*
X108278405Y-95503726D01*
X108363710Y-95297781D01*
X108421404Y-95082463D01*
X108450500Y-94861457D01*
X108450500Y-94638543D01*
X108421404Y-94417537D01*
X108363710Y-94202219D01*
X108278405Y-93996274D01*
X108166948Y-93803226D01*
X108031247Y-93626376D01*
X108031242Y-93626370D01*
X107873629Y-93468757D01*
X107873622Y-93468751D01*
X107696782Y-93333058D01*
X107696780Y-93333057D01*
X107696774Y-93333052D01*
X107503726Y-93221595D01*
X107503722Y-93221593D01*
X107297790Y-93136293D01*
X107297783Y-93136291D01*
X107297781Y-93136290D01*
X107082463Y-93078596D01*
X107082457Y-93078595D01*
X107082452Y-93078594D01*
X106861466Y-93049501D01*
X106861463Y-93049500D01*
X106861457Y-93049500D01*
X106638543Y-93049500D01*
X106638537Y-93049500D01*
X106638533Y-93049501D01*
X106417547Y-93078594D01*
X106417540Y-93078595D01*
X106417537Y-93078596D01*
X106335790Y-93100500D01*
X106202219Y-93136290D01*
X106202209Y-93136293D01*
X105996277Y-93221593D01*
X105996273Y-93221595D01*
X105803226Y-93333052D01*
X105803217Y-93333058D01*
X105626377Y-93468751D01*
X105626370Y-93468757D01*
X105468757Y-93626370D01*
X105468751Y-93626377D01*
X105333058Y-93803217D01*
X105333052Y-93803226D01*
X105221595Y-93996273D01*
X105221593Y-93996277D01*
X105136293Y-94202209D01*
X105136290Y-94202219D01*
X105078597Y-94417534D01*
X105078594Y-94417547D01*
X105049501Y-94638533D01*
X105049500Y-94638549D01*
X89505034Y-94638549D01*
X89519362Y-91916228D01*
X115399500Y-91916228D01*
X115399500Y-92083771D01*
X115432182Y-92248074D01*
X115432184Y-92248082D01*
X115496295Y-92402860D01*
X115589373Y-92542162D01*
X115707837Y-92660626D01*
X115771045Y-92702860D01*
X115847137Y-92753703D01*
X115847138Y-92753703D01*
X115847139Y-92753704D01*
X115847141Y-92753705D01*
X115901353Y-92776160D01*
X115986864Y-92811580D01*
X116027091Y-92838459D01*
X117521586Y-94332954D01*
X117544422Y-94348211D01*
X117595270Y-94382186D01*
X117644505Y-94415084D01*
X117701080Y-94438518D01*
X117781088Y-94471659D01*
X117897241Y-94494763D01*
X117916468Y-94498587D01*
X117926081Y-94500500D01*
X117926082Y-94500500D01*
X120323920Y-94500500D01*
X120421462Y-94481096D01*
X120468913Y-94471658D01*
X120605495Y-94415084D01*
X120654729Y-94382186D01*
X120728416Y-94332952D01*
X120731580Y-94329786D01*
X120740212Y-94323903D01*
X120744993Y-94322356D01*
X120762604Y-94311800D01*
X120902863Y-94253703D01*
X121042162Y-94160626D01*
X121160626Y-94042162D01*
X121253703Y-93902863D01*
X121317816Y-93748082D01*
X121350500Y-93583767D01*
X121350500Y-93416233D01*
X121317816Y-93251918D01*
X121253703Y-93097137D01*
X121175311Y-92979815D01*
X121160626Y-92957837D01*
X121042162Y-92839373D01*
X120902860Y-92746295D01*
X120748082Y-92682184D01*
X120748074Y-92682182D01*
X120583771Y-92649500D01*
X120583767Y-92649500D01*
X120416233Y-92649500D01*
X120416228Y-92649500D01*
X120251925Y-92682182D01*
X120251917Y-92682184D01*
X120097139Y-92746295D01*
X119957837Y-92839373D01*
X119957834Y-92839376D01*
X119835066Y-92962145D01*
X119833283Y-92960362D01*
X119784658Y-92993494D01*
X119746535Y-92999500D01*
X118362230Y-92999500D01*
X118295191Y-92979815D01*
X118274549Y-92963181D01*
X117088459Y-91777091D01*
X117061580Y-91736864D01*
X117021198Y-91639373D01*
X117003705Y-91597141D01*
X117003704Y-91597139D01*
X116910626Y-91457837D01*
X116792162Y-91339373D01*
X116652860Y-91246295D01*
X116498082Y-91182184D01*
X116498074Y-91182182D01*
X116333771Y-91149500D01*
X116333767Y-91149500D01*
X116166233Y-91149500D01*
X116166228Y-91149500D01*
X116001925Y-91182182D01*
X116001917Y-91182184D01*
X115847139Y-91246295D01*
X115707837Y-91339373D01*
X115589373Y-91457837D01*
X115496295Y-91597139D01*
X115432184Y-91751917D01*
X115432182Y-91751925D01*
X115399500Y-91916228D01*
X89519362Y-91916228D01*
X89527303Y-90407415D01*
X142816687Y-90407415D01*
X142816687Y-90574958D01*
X142849369Y-90739261D01*
X142849371Y-90739269D01*
X142913482Y-90894047D01*
X143006560Y-91033349D01*
X143125024Y-91151813D01*
X143170475Y-91182182D01*
X143264324Y-91244890D01*
X143264325Y-91244890D01*
X143264326Y-91244891D01*
X143299388Y-91259414D01*
X143419105Y-91309003D01*
X143503198Y-91325730D01*
X143564405Y-91337905D01*
X143626316Y-91370289D01*
X143627895Y-91371841D01*
X144046740Y-91790686D01*
X144062161Y-91809476D01*
X144121510Y-91898298D01*
X144121513Y-91898302D01*
X144239974Y-92016763D01*
X144292586Y-92051917D01*
X144379274Y-92109840D01*
X144534055Y-92173953D01*
X144698365Y-92206636D01*
X144698369Y-92206637D01*
X144698370Y-92206637D01*
X144865905Y-92206637D01*
X144865906Y-92206636D01*
X145030219Y-92173953D01*
X145048869Y-92166228D01*
X146649500Y-92166228D01*
X146649500Y-92333771D01*
X146682182Y-92498074D01*
X146682184Y-92498082D01*
X146746295Y-92652860D01*
X146839373Y-92792162D01*
X146957837Y-92910626D01*
X146973959Y-92921398D01*
X147097137Y-93003703D01*
X147251918Y-93067816D01*
X147399326Y-93097137D01*
X147416228Y-93100499D01*
X147416232Y-93100500D01*
X147416233Y-93100500D01*
X147583768Y-93100500D01*
X147583769Y-93100499D01*
X147748082Y-93067816D01*
X147902863Y-93003703D01*
X148026041Y-92921398D01*
X148092719Y-92900520D01*
X148094932Y-92900500D01*
X148596349Y-92900500D01*
X148663388Y-92920185D01*
X148684030Y-92936819D01*
X148707837Y-92960626D01*
X148800494Y-93022537D01*
X148847137Y-93053703D01*
X149001918Y-93117816D01*
X149166228Y-93150499D01*
X149166232Y-93150500D01*
X149166233Y-93150500D01*
X149333768Y-93150500D01*
X149333769Y-93150499D01*
X149498082Y-93117816D01*
X149652863Y-93053703D01*
X149792162Y-92960626D01*
X149910626Y-92842162D01*
X150003703Y-92702863D01*
X150067816Y-92548082D01*
X150100500Y-92383767D01*
X150100500Y-92216233D01*
X150067816Y-92051918D01*
X150003703Y-91897137D01*
X149938346Y-91799323D01*
X149910626Y-91757837D01*
X149792162Y-91639373D01*
X149652860Y-91546295D01*
X149498082Y-91482184D01*
X149498074Y-91482182D01*
X149333771Y-91449500D01*
X149333767Y-91449500D01*
X149166233Y-91449500D01*
X149166228Y-91449500D01*
X149001925Y-91482182D01*
X149001917Y-91482184D01*
X148847140Y-91546295D01*
X148847131Y-91546300D01*
X148798789Y-91578602D01*
X148732112Y-91599480D01*
X148729898Y-91599500D01*
X148094932Y-91599500D01*
X148027893Y-91579815D01*
X148026041Y-91578602D01*
X147902860Y-91496295D01*
X147748082Y-91432184D01*
X147748074Y-91432182D01*
X147583771Y-91399500D01*
X147583767Y-91399500D01*
X147416233Y-91399500D01*
X147416228Y-91399500D01*
X147251925Y-91432182D01*
X147251917Y-91432184D01*
X147097139Y-91496295D01*
X146957837Y-91589373D01*
X146839373Y-91707837D01*
X146746295Y-91847139D01*
X146682184Y-92001917D01*
X146682182Y-92001925D01*
X146649500Y-92166228D01*
X145048869Y-92166228D01*
X145185000Y-92109840D01*
X145324299Y-92016763D01*
X145442763Y-91898299D01*
X145535840Y-91759000D01*
X145599953Y-91604219D01*
X145632637Y-91439904D01*
X145632637Y-91272370D01*
X145599953Y-91108055D01*
X145535840Y-90953274D01*
X145496266Y-90894047D01*
X145442763Y-90813974D01*
X145324299Y-90695510D01*
X145184997Y-90602432D01*
X145030219Y-90538321D01*
X145030211Y-90538319D01*
X144865908Y-90505637D01*
X144865904Y-90505637D01*
X144698370Y-90505637D01*
X144682643Y-90508764D01*
X144674737Y-90508057D01*
X144667301Y-90510831D01*
X144640437Y-90504987D01*
X144613053Y-90502536D01*
X144605045Y-90497287D01*
X144599028Y-90495979D01*
X144570774Y-90474828D01*
X144547841Y-90451895D01*
X144514356Y-90390572D01*
X144513905Y-90388405D01*
X144485004Y-90243112D01*
X144485003Y-90243105D01*
X144420890Y-90088324D01*
X144389724Y-90041681D01*
X144327813Y-89949024D01*
X144209349Y-89830560D01*
X144070047Y-89737482D01*
X143915269Y-89673371D01*
X143915261Y-89673369D01*
X143750958Y-89640687D01*
X143750954Y-89640687D01*
X143583420Y-89640687D01*
X143583415Y-89640687D01*
X143419112Y-89673369D01*
X143419104Y-89673371D01*
X143264326Y-89737482D01*
X143125024Y-89830560D01*
X143006560Y-89949024D01*
X142913482Y-90088326D01*
X142849371Y-90243104D01*
X142849369Y-90243112D01*
X142816687Y-90407415D01*
X89527303Y-90407415D01*
X89551427Y-85823920D01*
X96024499Y-85823920D01*
X96053340Y-85968907D01*
X96053343Y-85968917D01*
X96109912Y-86105488D01*
X96109919Y-86105501D01*
X96192048Y-86228415D01*
X96192051Y-86228419D01*
X96296580Y-86332948D01*
X96296584Y-86332951D01*
X96419498Y-86415080D01*
X96419511Y-86415087D01*
X96556082Y-86471656D01*
X96556087Y-86471658D01*
X96556091Y-86471658D01*
X96556092Y-86471659D01*
X96701079Y-86500500D01*
X96701082Y-86500500D01*
X96848920Y-86500500D01*
X96951850Y-86480025D01*
X96993913Y-86471658D01*
X97130495Y-86415084D01*
X97253416Y-86332951D01*
X97357951Y-86228416D01*
X97440084Y-86105495D01*
X97496658Y-85968913D01*
X97515788Y-85872741D01*
X97525500Y-85823920D01*
X97525500Y-85676079D01*
X97496659Y-85531092D01*
X97496658Y-85531091D01*
X97496658Y-85531087D01*
X97461969Y-85447339D01*
X97440087Y-85394511D01*
X97440080Y-85394498D01*
X97357951Y-85271584D01*
X97357948Y-85271580D01*
X97253419Y-85167051D01*
X97253415Y-85167048D01*
X97130501Y-85084919D01*
X97130488Y-85084912D01*
X96993917Y-85028343D01*
X96993907Y-85028340D01*
X96848920Y-84999500D01*
X96848918Y-84999500D01*
X96701082Y-84999500D01*
X96701080Y-84999500D01*
X96556092Y-85028340D01*
X96556082Y-85028343D01*
X96419511Y-85084912D01*
X96419498Y-85084919D01*
X96296584Y-85167048D01*
X96296580Y-85167051D01*
X96192051Y-85271580D01*
X96192048Y-85271584D01*
X96109919Y-85394498D01*
X96109912Y-85394511D01*
X96053343Y-85531082D01*
X96053340Y-85531092D01*
X96024500Y-85676079D01*
X96024500Y-85676082D01*
X96024500Y-85823918D01*
X96024500Y-85823920D01*
X96024499Y-85823920D01*
X89551427Y-85823920D01*
X89557216Y-84724038D01*
X114324500Y-84724038D01*
X114324500Y-86275962D01*
X114333526Y-86332948D01*
X114363910Y-86524785D01*
X114441760Y-86764383D01*
X114501126Y-86880893D01*
X114543384Y-86963830D01*
X114556132Y-86988848D01*
X114704201Y-87192649D01*
X114704205Y-87192654D01*
X114882345Y-87370794D01*
X114882350Y-87370798D01*
X115060117Y-87499952D01*
X115086155Y-87518870D01*
X115229184Y-87591747D01*
X115310616Y-87633239D01*
X115310618Y-87633239D01*
X115310621Y-87633241D01*
X115550215Y-87711090D01*
X115799038Y-87750500D01*
X115799039Y-87750500D01*
X116050961Y-87750500D01*
X116050962Y-87750500D01*
X116299785Y-87711090D01*
X116539379Y-87633241D01*
X116763845Y-87518870D01*
X116967656Y-87370793D01*
X117145793Y-87192656D01*
X117209598Y-87104835D01*
X117264924Y-87062172D01*
X117334537Y-87056191D01*
X117366209Y-87067237D01*
X117545162Y-87158418D01*
X117732283Y-87219218D01*
X117775000Y-87225984D01*
X117775000Y-85815686D01*
X117779394Y-85820080D01*
X117870606Y-85872741D01*
X117972339Y-85900000D01*
X118077661Y-85900000D01*
X118179394Y-85872741D01*
X118270606Y-85820080D01*
X118275000Y-85815686D01*
X118275000Y-87225983D01*
X118317716Y-87219218D01*
X118504837Y-87158418D01*
X118680143Y-87069095D01*
X118839321Y-86953444D01*
X118839322Y-86953443D01*
X118936965Y-86855801D01*
X118998288Y-86822316D01*
X119067980Y-86827300D01*
X119112327Y-86855801D01*
X119210354Y-86953828D01*
X119369595Y-87069524D01*
X119438903Y-87104838D01*
X119544970Y-87158882D01*
X119544972Y-87158882D01*
X119544975Y-87158884D01*
X119645317Y-87191487D01*
X119732173Y-87219709D01*
X119926578Y-87250500D01*
X119926583Y-87250500D01*
X120123422Y-87250500D01*
X120317826Y-87219709D01*
X120319337Y-87219218D01*
X120505025Y-87158884D01*
X120680405Y-87069524D01*
X120716614Y-87043215D01*
X120782417Y-87019736D01*
X120850471Y-87035560D01*
X120888763Y-87069220D01*
X120917454Y-87107546D01*
X120917455Y-87107546D01*
X120917456Y-87107548D01*
X121032664Y-87193793D01*
X121032671Y-87193797D01*
X121167517Y-87244091D01*
X121167516Y-87244091D01*
X121174444Y-87244835D01*
X121227127Y-87250500D01*
X122822872Y-87250499D01*
X122882483Y-87244091D01*
X122882486Y-87244089D01*
X122889554Y-87243330D01*
X122958314Y-87255736D01*
X122990490Y-87278939D01*
X123082345Y-87370794D01*
X123082350Y-87370798D01*
X123260117Y-87499952D01*
X123286155Y-87518870D01*
X123429184Y-87591747D01*
X123510616Y-87633239D01*
X123510618Y-87633239D01*
X123510621Y-87633241D01*
X123750215Y-87711090D01*
X123999038Y-87750500D01*
X123999039Y-87750500D01*
X124250961Y-87750500D01*
X124250962Y-87750500D01*
X124499785Y-87711090D01*
X124739379Y-87633241D01*
X124741919Y-87631947D01*
X163025000Y-87631947D01*
X163025000Y-87868052D01*
X163061934Y-88101247D01*
X163134897Y-88325802D01*
X163242087Y-88536174D01*
X163302338Y-88619104D01*
X163302340Y-88619105D01*
X164001212Y-87920233D01*
X164012482Y-87962292D01*
X164084890Y-88087708D01*
X164187292Y-88190110D01*
X164312708Y-88262518D01*
X164354765Y-88273787D01*
X163655893Y-88972658D01*
X163738828Y-89032914D01*
X163949197Y-89140102D01*
X164173752Y-89213065D01*
X164173751Y-89213065D01*
X164406948Y-89250000D01*
X164643052Y-89250000D01*
X164876247Y-89213065D01*
X165100802Y-89140102D01*
X165311163Y-89032918D01*
X165311169Y-89032914D01*
X165394104Y-88972658D01*
X165394105Y-88972658D01*
X164695233Y-88273787D01*
X164737292Y-88262518D01*
X164862708Y-88190110D01*
X164965110Y-88087708D01*
X165037518Y-87962292D01*
X165048787Y-87920233D01*
X165747658Y-88619105D01*
X165747658Y-88619104D01*
X165807914Y-88536169D01*
X165807918Y-88536163D01*
X165915102Y-88325802D01*
X165988065Y-88101247D01*
X166025000Y-87868052D01*
X166025000Y-87631947D01*
X169525000Y-87631947D01*
X169525000Y-87868052D01*
X169561934Y-88101247D01*
X169634897Y-88325802D01*
X169742087Y-88536174D01*
X169802338Y-88619104D01*
X169802340Y-88619105D01*
X170501212Y-87920233D01*
X170512482Y-87962292D01*
X170584890Y-88087708D01*
X170687292Y-88190110D01*
X170812708Y-88262518D01*
X170854765Y-88273787D01*
X170155893Y-88972658D01*
X170238828Y-89032914D01*
X170449197Y-89140102D01*
X170673752Y-89213065D01*
X170673751Y-89213065D01*
X170906948Y-89250000D01*
X171143052Y-89250000D01*
X171376247Y-89213065D01*
X171600802Y-89140102D01*
X171811163Y-89032918D01*
X171811169Y-89032914D01*
X171894104Y-88972658D01*
X171894105Y-88972658D01*
X171195233Y-88273787D01*
X171237292Y-88262518D01*
X171362708Y-88190110D01*
X171465110Y-88087708D01*
X171537518Y-87962292D01*
X171548787Y-87920233D01*
X172247658Y-88619105D01*
X172247658Y-88619104D01*
X172307914Y-88536169D01*
X172307918Y-88536163D01*
X172415102Y-88325802D01*
X172488065Y-88101247D01*
X172525000Y-87868052D01*
X172525000Y-87631947D01*
X172488065Y-87398752D01*
X172415102Y-87174197D01*
X172307914Y-86963828D01*
X172247658Y-86880894D01*
X172247658Y-86880893D01*
X171548787Y-87579765D01*
X171537518Y-87537708D01*
X171465110Y-87412292D01*
X171362708Y-87309890D01*
X171237292Y-87237482D01*
X171195234Y-87226212D01*
X171894105Y-86527340D01*
X171894104Y-86527338D01*
X171811174Y-86467087D01*
X171600802Y-86359897D01*
X171376247Y-86286934D01*
X171376248Y-86286934D01*
X171143052Y-86250000D01*
X170906948Y-86250000D01*
X170673752Y-86286934D01*
X170449197Y-86359897D01*
X170238830Y-86467084D01*
X170155894Y-86527340D01*
X170854766Y-87226212D01*
X170812708Y-87237482D01*
X170687292Y-87309890D01*
X170584890Y-87412292D01*
X170512482Y-87537708D01*
X170501212Y-87579766D01*
X169802340Y-86880894D01*
X169742084Y-86963830D01*
X169634897Y-87174197D01*
X169561934Y-87398752D01*
X169525000Y-87631947D01*
X166025000Y-87631947D01*
X165988065Y-87398752D01*
X165915102Y-87174197D01*
X165807914Y-86963828D01*
X165747658Y-86880894D01*
X165747658Y-86880893D01*
X165048787Y-87579765D01*
X165037518Y-87537708D01*
X164965110Y-87412292D01*
X164862708Y-87309890D01*
X164737292Y-87237482D01*
X164695234Y-87226212D01*
X165394105Y-86527340D01*
X165394104Y-86527339D01*
X165311174Y-86467087D01*
X165100802Y-86359897D01*
X164876247Y-86286934D01*
X164876248Y-86286934D01*
X164643052Y-86250000D01*
X164406948Y-86250000D01*
X164173752Y-86286934D01*
X163949197Y-86359897D01*
X163738830Y-86467084D01*
X163655894Y-86527340D01*
X164354766Y-87226212D01*
X164312708Y-87237482D01*
X164187292Y-87309890D01*
X164084890Y-87412292D01*
X164012482Y-87537708D01*
X164001212Y-87579765D01*
X163302340Y-86880894D01*
X163242084Y-86963830D01*
X163134897Y-87174197D01*
X163061934Y-87398752D01*
X163025000Y-87631947D01*
X124741919Y-87631947D01*
X124963845Y-87518870D01*
X125167656Y-87370793D01*
X125345793Y-87192656D01*
X125493870Y-86988845D01*
X125608241Y-86764379D01*
X125685261Y-86527338D01*
X125686089Y-86524788D01*
X125686090Y-86524785D01*
X125725500Y-86275962D01*
X125725500Y-84724038D01*
X125686090Y-84475215D01*
X125608241Y-84235621D01*
X125608239Y-84235618D01*
X125608239Y-84235616D01*
X125561523Y-84143931D01*
X125493870Y-84011155D01*
X125436914Y-83932762D01*
X125345798Y-83807350D01*
X125345794Y-83807345D01*
X125167654Y-83629205D01*
X125167649Y-83629201D01*
X124963848Y-83481132D01*
X124963847Y-83481131D01*
X124963845Y-83481130D01*
X124867779Y-83432182D01*
X124739383Y-83366760D01*
X124499785Y-83288910D01*
X124250962Y-83249500D01*
X123999038Y-83249500D01*
X123874626Y-83269205D01*
X123750214Y-83288910D01*
X123510616Y-83366760D01*
X123286151Y-83481132D01*
X123082350Y-83629200D01*
X122990487Y-83721062D01*
X122929163Y-83754546D01*
X122889553Y-83756669D01*
X122880522Y-83755698D01*
X122822873Y-83749500D01*
X122822865Y-83749500D01*
X121227129Y-83749500D01*
X121227123Y-83749501D01*
X121167516Y-83755908D01*
X121032671Y-83806202D01*
X121032664Y-83806206D01*
X120917455Y-83892452D01*
X120888765Y-83930777D01*
X120832830Y-83972648D01*
X120763139Y-83977631D01*
X120716613Y-83956783D01*
X120709841Y-83951863D01*
X120680405Y-83930476D01*
X120658630Y-83919381D01*
X120505029Y-83841117D01*
X120317826Y-83780290D01*
X120123422Y-83749500D01*
X120123417Y-83749500D01*
X119926583Y-83749500D01*
X119926578Y-83749500D01*
X119732173Y-83780290D01*
X119544970Y-83841117D01*
X119369594Y-83930476D01*
X119304692Y-83977631D01*
X119210354Y-84046172D01*
X119210352Y-84046174D01*
X119210350Y-84046175D01*
X119112325Y-84144199D01*
X119051002Y-84177683D01*
X118981310Y-84172698D01*
X118936964Y-84144198D01*
X118839321Y-84046555D01*
X118680143Y-83930904D01*
X118504835Y-83841581D01*
X118317705Y-83780778D01*
X118275000Y-83774014D01*
X118275000Y-85184314D01*
X118270606Y-85179920D01*
X118179394Y-85127259D01*
X118077661Y-85100000D01*
X117972339Y-85100000D01*
X117870606Y-85127259D01*
X117779394Y-85179920D01*
X117775000Y-85184314D01*
X117775000Y-83774014D01*
X117774999Y-83774014D01*
X117732294Y-83780778D01*
X117545161Y-83841582D01*
X117366209Y-83932762D01*
X117297540Y-83945658D01*
X117232800Y-83919381D01*
X117209597Y-83895162D01*
X117145798Y-83807350D01*
X117145794Y-83807345D01*
X116967654Y-83629205D01*
X116967649Y-83629201D01*
X116763848Y-83481132D01*
X116763847Y-83481131D01*
X116763845Y-83481130D01*
X116667779Y-83432182D01*
X116539383Y-83366760D01*
X116299785Y-83288910D01*
X116050962Y-83249500D01*
X115799038Y-83249500D01*
X115674626Y-83269205D01*
X115550214Y-83288910D01*
X115310616Y-83366760D01*
X115086151Y-83481132D01*
X114882350Y-83629201D01*
X114882345Y-83629205D01*
X114704205Y-83807345D01*
X114704201Y-83807350D01*
X114556132Y-84011151D01*
X114441760Y-84235616D01*
X114363910Y-84475214D01*
X114337721Y-84640566D01*
X114324500Y-84724038D01*
X89557216Y-84724038D01*
X89569362Y-82416228D01*
X135575500Y-82416228D01*
X135575500Y-82583771D01*
X135608182Y-82748074D01*
X135608184Y-82748082D01*
X135672295Y-82902860D01*
X135672296Y-82902862D01*
X135672297Y-82902863D01*
X135741771Y-83006838D01*
X135754602Y-83026040D01*
X135775480Y-83092717D01*
X135775500Y-83094931D01*
X135775500Y-83314070D01*
X135787521Y-83374499D01*
X135787521Y-83374501D01*
X135800497Y-83439736D01*
X135800499Y-83439744D01*
X135817642Y-83481132D01*
X135849535Y-83558127D01*
X135899407Y-83632767D01*
X135920726Y-83664673D01*
X136261324Y-84005271D01*
X136261331Y-84005277D01*
X136367871Y-84076464D01*
X136367870Y-84076464D01*
X136385504Y-84083768D01*
X136486256Y-84125501D01*
X136486260Y-84125501D01*
X136486261Y-84125502D01*
X136611928Y-84150500D01*
X136611931Y-84150500D01*
X137076515Y-84150500D01*
X137105958Y-84159145D01*
X137135941Y-84165668D01*
X137140956Y-84169422D01*
X137143554Y-84170185D01*
X137164196Y-84186818D01*
X137266669Y-84289290D01*
X137300154Y-84350613D01*
X137300605Y-84352781D01*
X137329506Y-84498074D01*
X137329508Y-84498082D01*
X137393619Y-84652860D01*
X137486697Y-84792162D01*
X137605161Y-84910626D01*
X137697818Y-84972537D01*
X137744461Y-85003703D01*
X137899242Y-85067816D01*
X138061043Y-85100000D01*
X138063552Y-85100499D01*
X138063556Y-85100500D01*
X138063557Y-85100500D01*
X138231092Y-85100500D01*
X138231093Y-85100499D01*
X138395406Y-85067816D01*
X138550187Y-85003703D01*
X138689486Y-84910626D01*
X138807950Y-84792162D01*
X138901027Y-84652863D01*
X138965140Y-84498082D01*
X138997824Y-84333767D01*
X138997824Y-84166233D01*
X138965140Y-84001918D01*
X138901027Y-83847137D01*
X138840070Y-83755909D01*
X138807950Y-83707837D01*
X138689486Y-83589373D01*
X138648882Y-83562243D01*
X138550184Y-83496295D01*
X138475181Y-83465228D01*
X140325500Y-83465228D01*
X140325500Y-83632771D01*
X140358182Y-83797074D01*
X140358184Y-83797082D01*
X140422295Y-83951860D01*
X140422296Y-83951862D01*
X140422297Y-83951863D01*
X140485568Y-84046555D01*
X140504602Y-84075040D01*
X140525480Y-84141717D01*
X140525500Y-84143931D01*
X140525500Y-84855068D01*
X140505815Y-84922107D01*
X140504602Y-84923959D01*
X140422295Y-85047139D01*
X140358184Y-85201917D01*
X140358182Y-85201925D01*
X140325500Y-85366228D01*
X140325500Y-85533771D01*
X140358182Y-85698074D01*
X140358184Y-85698082D01*
X140422295Y-85852860D01*
X140515373Y-85992162D01*
X140633837Y-86110626D01*
X140726494Y-86172537D01*
X140773137Y-86203703D01*
X140927918Y-86267816D01*
X141024032Y-86286934D01*
X141092228Y-86300499D01*
X141092232Y-86300500D01*
X141092233Y-86300500D01*
X141259768Y-86300500D01*
X141259769Y-86300499D01*
X141424082Y-86267816D01*
X141578863Y-86203703D01*
X141718162Y-86110626D01*
X141836626Y-85992162D01*
X141929703Y-85852863D01*
X141993816Y-85698082D01*
X142026500Y-85533767D01*
X142026500Y-85366233D01*
X141993816Y-85201918D01*
X141929703Y-85047137D01*
X141847398Y-84923959D01*
X141826520Y-84857281D01*
X141826500Y-84855068D01*
X141826500Y-84143931D01*
X141846185Y-84076892D01*
X141847398Y-84075040D01*
X141929703Y-83951863D01*
X141993816Y-83797082D01*
X142026500Y-83632767D01*
X142026500Y-83465233D01*
X141993816Y-83300918D01*
X141929703Y-83146137D01*
X141882866Y-83076041D01*
X141836626Y-83006837D01*
X141718162Y-82888373D01*
X141578860Y-82795295D01*
X141424082Y-82731184D01*
X141424074Y-82731182D01*
X141259771Y-82698500D01*
X141259767Y-82698500D01*
X141092233Y-82698500D01*
X141092228Y-82698500D01*
X140927925Y-82731182D01*
X140927917Y-82731184D01*
X140773139Y-82795295D01*
X140633837Y-82888373D01*
X140515373Y-83006837D01*
X140422295Y-83146139D01*
X140358184Y-83300917D01*
X140358182Y-83300925D01*
X140325500Y-83465228D01*
X138475181Y-83465228D01*
X138395406Y-83432184D01*
X138395398Y-83432182D01*
X138250105Y-83403281D01*
X138188194Y-83370896D01*
X138186615Y-83369345D01*
X137811998Y-82994727D01*
X137811997Y-82994726D01*
X137749344Y-82952863D01*
X137705451Y-82923535D01*
X137655537Y-82902860D01*
X137587068Y-82874499D01*
X137587062Y-82874497D01*
X137461395Y-82849500D01*
X137461393Y-82849500D01*
X137374737Y-82849500D01*
X137307698Y-82829815D01*
X137261943Y-82777011D01*
X137251999Y-82707853D01*
X137253120Y-82701309D01*
X137276499Y-82583771D01*
X137276500Y-82583768D01*
X137276500Y-82466228D01*
X156899500Y-82466228D01*
X156899500Y-82633771D01*
X156932182Y-82798074D01*
X156932184Y-82798082D01*
X156996295Y-82952860D01*
X156996296Y-82952862D01*
X156996297Y-82952863D01*
X157066645Y-83058146D01*
X157078602Y-83076040D01*
X157099480Y-83142717D01*
X157099500Y-83144931D01*
X157099500Y-83405068D01*
X157079815Y-83472107D01*
X157078602Y-83473959D01*
X156996295Y-83597139D01*
X156932184Y-83751917D01*
X156932182Y-83751925D01*
X156899500Y-83916228D01*
X156899500Y-84083771D01*
X156932182Y-84248074D01*
X156932184Y-84248082D01*
X156996295Y-84402860D01*
X157089373Y-84542162D01*
X157207837Y-84660626D01*
X157294472Y-84718513D01*
X157347137Y-84753703D01*
X157501918Y-84817816D01*
X157666228Y-84850499D01*
X157666232Y-84850500D01*
X157666233Y-84850500D01*
X157833768Y-84850500D01*
X157833769Y-84850499D01*
X157998082Y-84817816D01*
X158152863Y-84753703D01*
X158292162Y-84660626D01*
X158410626Y-84542162D01*
X158503703Y-84402863D01*
X158567816Y-84248082D01*
X158600500Y-84083767D01*
X158600500Y-83916233D01*
X158567816Y-83751918D01*
X158503703Y-83597137D01*
X158421398Y-83473959D01*
X158400520Y-83407281D01*
X158400500Y-83405068D01*
X158400500Y-83144931D01*
X158404325Y-83131902D01*
X163024500Y-83131902D01*
X163024500Y-83368097D01*
X163061446Y-83601368D01*
X163134433Y-83825996D01*
X163198565Y-83951860D01*
X163241657Y-84036433D01*
X163380483Y-84227510D01*
X163547490Y-84394517D01*
X163738567Y-84533343D01*
X163837991Y-84584002D01*
X163949003Y-84640566D01*
X163949005Y-84640566D01*
X163949008Y-84640568D01*
X164069412Y-84679689D01*
X164173631Y-84713553D01*
X164406903Y-84750500D01*
X164406908Y-84750500D01*
X164643097Y-84750500D01*
X164876368Y-84713553D01*
X164896000Y-84707174D01*
X165100992Y-84640568D01*
X165311433Y-84533343D01*
X165502510Y-84394517D01*
X165669517Y-84227510D01*
X165808343Y-84036433D01*
X165915568Y-83825992D01*
X165988553Y-83601368D01*
X165995402Y-83558125D01*
X166025500Y-83368097D01*
X166025500Y-83131902D01*
X169524500Y-83131902D01*
X169524500Y-83368097D01*
X169561446Y-83601368D01*
X169634433Y-83825996D01*
X169698565Y-83951860D01*
X169741657Y-84036433D01*
X169880483Y-84227510D01*
X170047490Y-84394517D01*
X170238567Y-84533343D01*
X170337991Y-84584002D01*
X170449003Y-84640566D01*
X170449005Y-84640566D01*
X170449008Y-84640568D01*
X170569412Y-84679689D01*
X170673631Y-84713553D01*
X170906903Y-84750500D01*
X170906908Y-84750500D01*
X171143097Y-84750500D01*
X171376368Y-84713553D01*
X171396000Y-84707174D01*
X171600992Y-84640568D01*
X171811433Y-84533343D01*
X172002510Y-84394517D01*
X172169517Y-84227510D01*
X172308343Y-84036433D01*
X172415568Y-83825992D01*
X172488553Y-83601368D01*
X172495402Y-83558125D01*
X172525500Y-83368097D01*
X172525500Y-83131902D01*
X172488553Y-82898631D01*
X172439636Y-82748082D01*
X172415568Y-82674008D01*
X172415566Y-82674005D01*
X172415566Y-82674003D01*
X172309701Y-82466233D01*
X172308343Y-82463567D01*
X172169517Y-82272490D01*
X172002510Y-82105483D01*
X171811433Y-81966657D01*
X171794123Y-81957837D01*
X171600996Y-81859433D01*
X171376368Y-81786446D01*
X171143097Y-81749500D01*
X171143092Y-81749500D01*
X170906908Y-81749500D01*
X170906903Y-81749500D01*
X170673631Y-81786446D01*
X170449003Y-81859433D01*
X170238566Y-81966657D01*
X170171913Y-82015084D01*
X170047490Y-82105483D01*
X170047488Y-82105485D01*
X170047487Y-82105485D01*
X169880485Y-82272487D01*
X169880485Y-82272488D01*
X169880483Y-82272490D01*
X169820862Y-82354550D01*
X169741657Y-82463566D01*
X169634433Y-82674003D01*
X169561446Y-82898631D01*
X169524500Y-83131902D01*
X166025500Y-83131902D01*
X165988553Y-82898631D01*
X165939636Y-82748082D01*
X165915568Y-82674008D01*
X165915566Y-82674005D01*
X165915566Y-82674003D01*
X165809701Y-82466233D01*
X165808343Y-82463567D01*
X165669517Y-82272490D01*
X165502510Y-82105483D01*
X165311433Y-81966657D01*
X165294123Y-81957837D01*
X165100996Y-81859433D01*
X164876368Y-81786446D01*
X164643097Y-81749500D01*
X164643092Y-81749500D01*
X164406908Y-81749500D01*
X164406903Y-81749500D01*
X164173631Y-81786446D01*
X163949003Y-81859433D01*
X163738566Y-81966657D01*
X163671913Y-82015084D01*
X163547490Y-82105483D01*
X163547488Y-82105485D01*
X163547487Y-82105485D01*
X163380485Y-82272487D01*
X163380485Y-82272488D01*
X163380483Y-82272490D01*
X163320862Y-82354550D01*
X163241657Y-82463566D01*
X163134433Y-82674003D01*
X163061446Y-82898631D01*
X163024500Y-83131902D01*
X158404325Y-83131902D01*
X158405827Y-83126787D01*
X158406165Y-83107878D01*
X158419664Y-83079663D01*
X158420185Y-83077892D01*
X158421398Y-83076041D01*
X158433355Y-83058146D01*
X158433355Y-83058145D01*
X158503703Y-82952863D01*
X158567816Y-82798082D01*
X158600500Y-82633767D01*
X158600500Y-82466233D01*
X158567816Y-82301918D01*
X158503703Y-82147137D01*
X158453270Y-82071659D01*
X158410626Y-82007837D01*
X158292162Y-81889373D01*
X158152860Y-81796295D01*
X157998082Y-81732184D01*
X157998074Y-81732182D01*
X157833771Y-81699500D01*
X157833767Y-81699500D01*
X157666233Y-81699500D01*
X157666228Y-81699500D01*
X157501925Y-81732182D01*
X157501917Y-81732184D01*
X157347139Y-81796295D01*
X157207837Y-81889373D01*
X157089373Y-82007837D01*
X156996295Y-82147139D01*
X156932184Y-82301917D01*
X156932182Y-82301925D01*
X156899500Y-82466228D01*
X137276500Y-82466228D01*
X137276500Y-82416232D01*
X137276499Y-82416228D01*
X137253763Y-82301925D01*
X137243816Y-82251918D01*
X137179703Y-82097137D01*
X137120035Y-82007838D01*
X137086626Y-81957837D01*
X136968162Y-81839373D01*
X136828860Y-81746295D01*
X136674082Y-81682184D01*
X136674074Y-81682182D01*
X136509771Y-81649500D01*
X136509767Y-81649500D01*
X136342233Y-81649500D01*
X136342228Y-81649500D01*
X136177925Y-81682182D01*
X136177917Y-81682184D01*
X136023139Y-81746295D01*
X135883837Y-81839373D01*
X135765373Y-81957837D01*
X135672295Y-82097139D01*
X135608184Y-82251917D01*
X135608182Y-82251925D01*
X135575500Y-82416228D01*
X89569362Y-82416228D01*
X89574585Y-81423920D01*
X96024499Y-81423920D01*
X96053340Y-81568907D01*
X96053343Y-81568917D01*
X96109912Y-81705488D01*
X96109919Y-81705501D01*
X96192048Y-81828415D01*
X96192051Y-81828419D01*
X96296580Y-81932948D01*
X96296584Y-81932951D01*
X96419498Y-82015080D01*
X96419511Y-82015087D01*
X96556082Y-82071656D01*
X96556087Y-82071658D01*
X96556091Y-82071658D01*
X96556092Y-82071659D01*
X96701079Y-82100500D01*
X96701082Y-82100500D01*
X96848920Y-82100500D01*
X96946462Y-82081096D01*
X96993913Y-82071658D01*
X97130495Y-82015084D01*
X97253416Y-81932951D01*
X97357951Y-81828416D01*
X97440084Y-81705495D01*
X97496658Y-81568913D01*
X97525500Y-81423918D01*
X97525500Y-81276082D01*
X97525500Y-81276079D01*
X97496659Y-81131092D01*
X97496658Y-81131091D01*
X97496658Y-81131087D01*
X97496656Y-81131082D01*
X97440087Y-80994511D01*
X97440080Y-80994498D01*
X97357951Y-80871584D01*
X97357948Y-80871580D01*
X97253419Y-80767051D01*
X97253415Y-80767048D01*
X97130501Y-80684919D01*
X97130488Y-80684912D01*
X96993917Y-80628343D01*
X96993907Y-80628340D01*
X96848920Y-80599500D01*
X96848918Y-80599500D01*
X96701082Y-80599500D01*
X96701080Y-80599500D01*
X96556092Y-80628340D01*
X96556082Y-80628343D01*
X96419511Y-80684912D01*
X96419498Y-80684919D01*
X96296584Y-80767048D01*
X96296580Y-80767051D01*
X96192051Y-80871580D01*
X96192048Y-80871584D01*
X96109919Y-80994498D01*
X96109912Y-80994511D01*
X96053343Y-81131082D01*
X96053340Y-81131092D01*
X96024500Y-81276079D01*
X96024500Y-81276082D01*
X96024500Y-81423918D01*
X96024500Y-81423920D01*
X96024499Y-81423920D01*
X89574585Y-81423920D01*
X89589455Y-78598543D01*
X109249499Y-78598543D01*
X109287947Y-78791829D01*
X109287950Y-78791839D01*
X109363364Y-78973907D01*
X109363371Y-78973920D01*
X109472860Y-79137781D01*
X109472863Y-79137785D01*
X109612214Y-79277136D01*
X109612218Y-79277139D01*
X109776079Y-79386628D01*
X109776092Y-79386635D01*
X109958160Y-79462049D01*
X109958165Y-79462051D01*
X109958169Y-79462051D01*
X109958170Y-79462052D01*
X110151456Y-79500500D01*
X110151459Y-79500500D01*
X110348543Y-79500500D01*
X110478582Y-79474632D01*
X110541835Y-79462051D01*
X110723914Y-79386632D01*
X110887782Y-79277139D01*
X111027139Y-79137782D01*
X111136632Y-78973914D01*
X111212051Y-78791835D01*
X111250500Y-78598541D01*
X111250500Y-75651459D01*
X111250500Y-75651456D01*
X111212052Y-75458170D01*
X111212051Y-75458169D01*
X111212051Y-75458165D01*
X111212049Y-75458160D01*
X111136635Y-75276092D01*
X111136629Y-75276081D01*
X111124785Y-75258355D01*
X111103908Y-75191678D01*
X111122393Y-75124298D01*
X111174372Y-75077608D01*
X111243342Y-75066432D01*
X111252078Y-75067847D01*
X111416230Y-75100499D01*
X111416232Y-75100500D01*
X111416233Y-75100500D01*
X111583768Y-75100500D01*
X111583769Y-75100499D01*
X111748082Y-75067816D01*
X111902863Y-75003703D01*
X112042162Y-74910626D01*
X112160626Y-74792162D01*
X112253703Y-74652863D01*
X112317816Y-74498082D01*
X112350500Y-74333767D01*
X112350500Y-74166233D01*
X112317816Y-74001918D01*
X112253703Y-73847137D01*
X112222537Y-73800494D01*
X112160626Y-73707837D01*
X112042162Y-73589373D01*
X111902860Y-73496295D01*
X111748080Y-73432183D01*
X111742248Y-73430414D01*
X111742772Y-73428686D01*
X111722171Y-73417908D01*
X111693297Y-73404722D01*
X111691437Y-73401829D01*
X111688391Y-73400235D01*
X111672686Y-73372651D01*
X111655523Y-73345944D01*
X111654861Y-73341342D01*
X111653822Y-73339517D01*
X111650500Y-73311009D01*
X111650500Y-73088990D01*
X111670185Y-73021951D01*
X111722989Y-72976196D01*
X111742358Y-72969941D01*
X111742250Y-72969585D01*
X111748072Y-72967817D01*
X111748082Y-72967816D01*
X111902863Y-72903703D01*
X111923703Y-72889778D01*
X124584500Y-72889778D01*
X124584500Y-73110221D01*
X124618985Y-73327952D01*
X124687103Y-73537603D01*
X124687104Y-73537606D01*
X124754224Y-73669333D01*
X124773843Y-73707838D01*
X124787187Y-73734025D01*
X124916752Y-73912358D01*
X124916756Y-73912363D01*
X125072636Y-74068243D01*
X125072641Y-74068247D01*
X125174606Y-74142328D01*
X125250978Y-74197815D01*
X125379375Y-74263237D01*
X125447393Y-74297895D01*
X125447396Y-74297896D01*
X125510032Y-74318247D01*
X125657049Y-74366015D01*
X125874778Y-74400500D01*
X125874779Y-74400500D01*
X126095221Y-74400500D01*
X126095222Y-74400500D01*
X126312951Y-74366015D01*
X126522606Y-74297895D01*
X126719022Y-74197815D01*
X126897365Y-74068242D01*
X126947536Y-74018070D01*
X127008857Y-73984586D01*
X127078548Y-73989570D01*
X127134482Y-74031441D01*
X127151398Y-74062419D01*
X127181202Y-74142328D01*
X127181205Y-74142333D01*
X127267452Y-74257544D01*
X127267455Y-74257547D01*
X127382664Y-74343793D01*
X127382671Y-74343797D01*
X127517517Y-74394091D01*
X127517516Y-74394091D01*
X127524444Y-74394835D01*
X127577127Y-74400500D01*
X129472872Y-74400499D01*
X129532483Y-74394091D01*
X129667331Y-74343796D01*
X129782546Y-74257546D01*
X129868796Y-74142331D01*
X129919091Y-74007483D01*
X129925500Y-73947873D01*
X129925499Y-72889778D01*
X132359500Y-72889778D01*
X132359500Y-73110221D01*
X132393985Y-73327952D01*
X132462103Y-73537603D01*
X132462104Y-73537606D01*
X132529224Y-73669333D01*
X132548843Y-73707838D01*
X132562187Y-73734025D01*
X132691752Y-73912358D01*
X132691756Y-73912363D01*
X132847636Y-74068243D01*
X132847641Y-74068247D01*
X132949606Y-74142328D01*
X133025978Y-74197815D01*
X133154375Y-74263237D01*
X133222393Y-74297895D01*
X133222396Y-74297896D01*
X133285032Y-74318247D01*
X133432049Y-74366015D01*
X133649778Y-74400500D01*
X133649779Y-74400500D01*
X133870221Y-74400500D01*
X133870222Y-74400500D01*
X134087951Y-74366015D01*
X134297606Y-74297895D01*
X134494022Y-74197815D01*
X134672365Y-74068242D01*
X134722536Y-74018070D01*
X134783857Y-73984586D01*
X134853548Y-73989570D01*
X134909482Y-74031441D01*
X134926398Y-74062419D01*
X134956202Y-74142328D01*
X134956205Y-74142333D01*
X135042452Y-74257544D01*
X135042455Y-74257547D01*
X135157664Y-74343793D01*
X135157671Y-74343797D01*
X135292517Y-74394091D01*
X135292516Y-74394091D01*
X135299444Y-74394835D01*
X135352127Y-74400500D01*
X137247872Y-74400499D01*
X137307483Y-74394091D01*
X137442331Y-74343796D01*
X137557546Y-74257546D01*
X137643796Y-74142331D01*
X137694091Y-74007483D01*
X137700500Y-73947873D01*
X137700499Y-73000000D01*
X137700499Y-72302155D01*
X144075000Y-72302155D01*
X144075000Y-73000000D01*
X145099722Y-73000000D01*
X145055667Y-73076306D01*
X145025000Y-73190756D01*
X145025000Y-73309244D01*
X145055667Y-73423694D01*
X145099722Y-73500000D01*
X144075000Y-73500000D01*
X144075000Y-74197844D01*
X144081401Y-74257372D01*
X144081403Y-74257379D01*
X144131645Y-74392086D01*
X144131649Y-74392093D01*
X144217809Y-74507187D01*
X144217812Y-74507190D01*
X144332906Y-74593350D01*
X144332913Y-74593354D01*
X144467620Y-74643596D01*
X144467627Y-74643598D01*
X144527155Y-74649999D01*
X144527172Y-74650000D01*
X145225000Y-74650000D01*
X145225000Y-73625277D01*
X145301306Y-73669333D01*
X145415756Y-73700000D01*
X145534244Y-73700000D01*
X145648694Y-73669333D01*
X145725000Y-73625277D01*
X145725000Y-74650000D01*
X146422828Y-74650000D01*
X146422844Y-74649999D01*
X146482372Y-74643598D01*
X146482379Y-74643596D01*
X146617086Y-74593354D01*
X146617093Y-74593350D01*
X146732187Y-74507190D01*
X146732190Y-74507187D01*
X146818350Y-74392093D01*
X146818354Y-74392086D01*
X146848213Y-74312031D01*
X146890084Y-74256097D01*
X146955548Y-74231680D01*
X147023821Y-74246531D01*
X147052076Y-74267683D01*
X147102636Y-74318243D01*
X147102641Y-74318247D01*
X147215854Y-74400500D01*
X147280978Y-74447815D01*
X147379616Y-74498074D01*
X147477393Y-74547895D01*
X147477396Y-74547896D01*
X147575989Y-74579930D01*
X147687049Y-74616015D01*
X147904778Y-74650500D01*
X147904779Y-74650500D01*
X148125221Y-74650500D01*
X148125222Y-74650500D01*
X148342951Y-74616015D01*
X148552606Y-74547895D01*
X148749022Y-74447815D01*
X148927365Y-74318242D01*
X149083242Y-74162365D01*
X149212815Y-73984022D01*
X149312895Y-73787606D01*
X149381015Y-73577951D01*
X149401496Y-73448638D01*
X149404569Y-73429240D01*
X149404569Y-73429239D01*
X149415500Y-73360222D01*
X149415500Y-73139778D01*
X149389591Y-72976196D01*
X149381015Y-72922049D01*
X149344811Y-72810623D01*
X149312896Y-72712396D01*
X149312895Y-72712393D01*
X149212815Y-72515978D01*
X149108018Y-72371736D01*
X149108017Y-72371735D01*
X149083243Y-72337636D01*
X149047762Y-72302155D01*
X153825000Y-72302155D01*
X153825000Y-73000000D01*
X154849722Y-73000000D01*
X154805667Y-73076306D01*
X154775000Y-73190756D01*
X154775000Y-73309244D01*
X154805667Y-73423694D01*
X154849722Y-73500000D01*
X153825000Y-73500000D01*
X153825000Y-74197844D01*
X153831401Y-74257372D01*
X153831403Y-74257379D01*
X153881645Y-74392086D01*
X153881649Y-74392093D01*
X153967809Y-74507187D01*
X153967812Y-74507190D01*
X154082906Y-74593350D01*
X154082913Y-74593354D01*
X154217620Y-74643596D01*
X154217627Y-74643598D01*
X154277155Y-74649999D01*
X154277172Y-74650000D01*
X154975000Y-74650000D01*
X154975000Y-73625277D01*
X155051306Y-73669333D01*
X155165756Y-73700000D01*
X155284244Y-73700000D01*
X155398694Y-73669333D01*
X155475000Y-73625277D01*
X155475000Y-74650000D01*
X156172828Y-74650000D01*
X156172844Y-74649999D01*
X156232372Y-74643598D01*
X156232379Y-74643596D01*
X156367086Y-74593354D01*
X156367093Y-74593350D01*
X156482187Y-74507190D01*
X156482190Y-74507187D01*
X156568350Y-74392093D01*
X156568354Y-74392086D01*
X156598213Y-74312031D01*
X156640084Y-74256097D01*
X156705548Y-74231680D01*
X156773821Y-74246531D01*
X156802076Y-74267683D01*
X156852636Y-74318243D01*
X156852641Y-74318247D01*
X156965854Y-74400500D01*
X157030978Y-74447815D01*
X157129616Y-74498074D01*
X157227393Y-74547895D01*
X157227396Y-74547896D01*
X157325989Y-74579930D01*
X157437049Y-74616015D01*
X157654778Y-74650500D01*
X157654779Y-74650500D01*
X157875221Y-74650500D01*
X157875222Y-74650500D01*
X158092951Y-74616015D01*
X158302606Y-74547895D01*
X158499022Y-74447815D01*
X158677365Y-74318242D01*
X158833242Y-74162365D01*
X158962815Y-73984022D01*
X159062895Y-73787606D01*
X159131015Y-73577951D01*
X159165500Y-73360222D01*
X159165500Y-73139778D01*
X159131015Y-72922049D01*
X159094811Y-72810623D01*
X159062896Y-72712396D01*
X159062895Y-72712393D01*
X158998458Y-72585931D01*
X158962815Y-72515978D01*
X158923884Y-72462394D01*
X158833247Y-72337641D01*
X158833243Y-72337636D01*
X158677363Y-72181756D01*
X158677358Y-72181752D01*
X158499025Y-72052187D01*
X158499024Y-72052186D01*
X158499022Y-72052185D01*
X158436096Y-72020122D01*
X158302606Y-71952104D01*
X158302603Y-71952103D01*
X158092952Y-71883985D01*
X157926811Y-71857671D01*
X157875222Y-71849500D01*
X157654778Y-71849500D01*
X157603233Y-71857664D01*
X157437047Y-71883985D01*
X157227396Y-71952103D01*
X157227393Y-71952104D01*
X157030974Y-72052187D01*
X156852641Y-72181752D01*
X156852636Y-72181756D01*
X156802075Y-72232317D01*
X156740752Y-72265801D01*
X156671060Y-72260816D01*
X156615127Y-72218945D01*
X156598213Y-72187968D01*
X156568354Y-72107913D01*
X156568350Y-72107906D01*
X156482190Y-71992812D01*
X156482187Y-71992809D01*
X156367093Y-71906649D01*
X156367086Y-71906645D01*
X156232379Y-71856403D01*
X156232372Y-71856401D01*
X156172844Y-71850000D01*
X155475000Y-71850000D01*
X155475000Y-72874722D01*
X155398694Y-72830667D01*
X155284244Y-72800000D01*
X155165756Y-72800000D01*
X155051306Y-72830667D01*
X154975000Y-72874722D01*
X154975000Y-71850000D01*
X154277155Y-71850000D01*
X154217627Y-71856401D01*
X154217620Y-71856403D01*
X154082913Y-71906645D01*
X154082906Y-71906649D01*
X153967812Y-71992809D01*
X153967809Y-71992812D01*
X153881649Y-72107906D01*
X153881645Y-72107913D01*
X153831403Y-72242620D01*
X153831401Y-72242627D01*
X153825000Y-72302155D01*
X149047762Y-72302155D01*
X148927363Y-72181756D01*
X148927358Y-72181752D01*
X148749025Y-72052187D01*
X148749024Y-72052186D01*
X148749022Y-72052185D01*
X148686096Y-72020122D01*
X148552606Y-71952104D01*
X148552603Y-71952103D01*
X148342952Y-71883985D01*
X148176811Y-71857671D01*
X148125222Y-71849500D01*
X147904778Y-71849500D01*
X147853233Y-71857664D01*
X147687047Y-71883985D01*
X147477396Y-71952103D01*
X147477393Y-71952104D01*
X147280974Y-72052187D01*
X147102641Y-72181752D01*
X147102636Y-72181756D01*
X147052075Y-72232317D01*
X146990752Y-72265801D01*
X146921060Y-72260816D01*
X146865127Y-72218945D01*
X146848213Y-72187968D01*
X146818354Y-72107913D01*
X146818350Y-72107906D01*
X146732190Y-71992812D01*
X146732187Y-71992809D01*
X146617093Y-71906649D01*
X146617086Y-71906645D01*
X146482379Y-71856403D01*
X146482372Y-71856401D01*
X146422844Y-71850000D01*
X145725000Y-71850000D01*
X145725000Y-72874722D01*
X145648694Y-72830667D01*
X145534244Y-72800000D01*
X145415756Y-72800000D01*
X145301306Y-72830667D01*
X145225000Y-72874722D01*
X145225000Y-71850000D01*
X144527155Y-71850000D01*
X144467627Y-71856401D01*
X144467620Y-71856403D01*
X144332913Y-71906645D01*
X144332906Y-71906649D01*
X144217812Y-71992809D01*
X144217809Y-71992812D01*
X144131649Y-72107906D01*
X144131645Y-72107913D01*
X144081403Y-72242620D01*
X144081401Y-72242627D01*
X144075000Y-72302155D01*
X137700499Y-72302155D01*
X137700499Y-72298851D01*
X137700499Y-72052129D01*
X137700498Y-72052123D01*
X137694091Y-71992516D01*
X137643797Y-71857671D01*
X137643793Y-71857664D01*
X137557547Y-71742455D01*
X137557544Y-71742452D01*
X137442335Y-71656206D01*
X137442328Y-71656202D01*
X137307482Y-71605908D01*
X137307483Y-71605908D01*
X137247883Y-71599501D01*
X137247881Y-71599500D01*
X137247873Y-71599500D01*
X137247864Y-71599500D01*
X135352129Y-71599500D01*
X135352123Y-71599501D01*
X135292516Y-71605908D01*
X135157671Y-71656202D01*
X135157664Y-71656206D01*
X135042455Y-71742452D01*
X135042452Y-71742455D01*
X134956206Y-71857664D01*
X134956203Y-71857669D01*
X134926398Y-71937581D01*
X134884526Y-71993514D01*
X134819062Y-72017931D01*
X134750789Y-72003079D01*
X134722535Y-71981928D01*
X134672363Y-71931756D01*
X134672358Y-71931752D01*
X134494025Y-71802187D01*
X134494024Y-71802186D01*
X134494022Y-71802185D01*
X134431096Y-71770122D01*
X134297606Y-71702104D01*
X134297603Y-71702103D01*
X134087952Y-71633985D01*
X133979086Y-71616742D01*
X133870222Y-71599500D01*
X133649778Y-71599500D01*
X133597134Y-71607838D01*
X133432047Y-71633985D01*
X133222396Y-71702103D01*
X133222393Y-71702104D01*
X133025974Y-71802187D01*
X132847641Y-71931752D01*
X132847636Y-71931756D01*
X132691756Y-72087636D01*
X132691752Y-72087641D01*
X132562187Y-72265974D01*
X132462104Y-72462393D01*
X132462103Y-72462396D01*
X132393985Y-72672047D01*
X132359500Y-72889778D01*
X129925499Y-72889778D01*
X129925499Y-72052128D01*
X129919091Y-71992517D01*
X129904018Y-71952105D01*
X129868797Y-71857671D01*
X129868793Y-71857664D01*
X129782547Y-71742455D01*
X129782544Y-71742452D01*
X129667335Y-71656206D01*
X129667328Y-71656202D01*
X129532482Y-71605908D01*
X129532483Y-71605908D01*
X129472883Y-71599501D01*
X129472881Y-71599500D01*
X129472873Y-71599500D01*
X129472864Y-71599500D01*
X127577129Y-71599500D01*
X127577123Y-71599501D01*
X127517516Y-71605908D01*
X127382671Y-71656202D01*
X127382664Y-71656206D01*
X127267455Y-71742452D01*
X127267452Y-71742455D01*
X127181206Y-71857664D01*
X127181203Y-71857669D01*
X127151398Y-71937581D01*
X127109526Y-71993514D01*
X127044062Y-72017931D01*
X126975789Y-72003079D01*
X126947535Y-71981928D01*
X126897363Y-71931756D01*
X126897358Y-71931752D01*
X126719025Y-71802187D01*
X126719024Y-71802186D01*
X126719022Y-71802185D01*
X126656096Y-71770122D01*
X126522606Y-71702104D01*
X126522603Y-71702103D01*
X126312952Y-71633985D01*
X126204086Y-71616742D01*
X126095222Y-71599500D01*
X125874778Y-71599500D01*
X125822134Y-71607838D01*
X125657047Y-71633985D01*
X125447396Y-71702103D01*
X125447393Y-71702104D01*
X125250974Y-71802187D01*
X125072641Y-71931752D01*
X125072636Y-71931756D01*
X124916756Y-72087636D01*
X124916752Y-72087641D01*
X124787187Y-72265974D01*
X124687104Y-72462393D01*
X124687103Y-72462396D01*
X124618985Y-72672047D01*
X124584500Y-72889778D01*
X111923703Y-72889778D01*
X112042162Y-72810626D01*
X112042165Y-72810623D01*
X112055564Y-72797225D01*
X112160623Y-72692165D01*
X112160626Y-72692162D01*
X112174066Y-72672047D01*
X112253703Y-72552863D01*
X112317816Y-72398082D01*
X112350500Y-72233767D01*
X112350500Y-72066233D01*
X112317816Y-71901918D01*
X112253703Y-71747137D01*
X112192945Y-71656206D01*
X112160626Y-71607837D01*
X112042162Y-71489373D01*
X111902860Y-71396295D01*
X111748082Y-71332184D01*
X111748074Y-71332182D01*
X111583771Y-71299500D01*
X111583767Y-71299500D01*
X111416233Y-71299500D01*
X111416228Y-71299500D01*
X111251925Y-71332182D01*
X111251917Y-71332184D01*
X111097139Y-71396295D01*
X110957837Y-71489373D01*
X110839373Y-71607837D01*
X110746295Y-71747139D01*
X110682184Y-71901917D01*
X110682182Y-71901923D01*
X110653281Y-72047219D01*
X110620896Y-72109130D01*
X110619345Y-72110708D01*
X110494727Y-72235325D01*
X110494726Y-72235326D01*
X110489848Y-72242627D01*
X110427441Y-72336027D01*
X110427438Y-72336032D01*
X110423537Y-72341869D01*
X110423534Y-72341873D01*
X110374499Y-72460255D01*
X110374497Y-72460261D01*
X110349500Y-72585928D01*
X110349500Y-72585931D01*
X110349500Y-74064069D01*
X110365068Y-74142331D01*
X110374499Y-74189744D01*
X110402583Y-74257546D01*
X110423535Y-74308127D01*
X110485255Y-74400499D01*
X110494726Y-74414673D01*
X110494727Y-74414674D01*
X110659984Y-74579930D01*
X110693469Y-74641253D01*
X110688485Y-74710944D01*
X110646614Y-74766878D01*
X110581149Y-74791295D01*
X110548109Y-74787624D01*
X110547809Y-74789137D01*
X110348543Y-74749500D01*
X110348541Y-74749500D01*
X110151459Y-74749500D01*
X110151457Y-74749500D01*
X109958170Y-74787947D01*
X109958160Y-74787950D01*
X109776092Y-74863364D01*
X109776079Y-74863371D01*
X109612218Y-74972860D01*
X109612214Y-74972863D01*
X109472863Y-75112214D01*
X109472860Y-75112218D01*
X109363371Y-75276079D01*
X109363364Y-75276092D01*
X109287950Y-75458160D01*
X109287947Y-75458170D01*
X109249500Y-75651456D01*
X109249500Y-75651459D01*
X109249500Y-78598541D01*
X109249500Y-78598543D01*
X109249499Y-78598543D01*
X89589455Y-78598543D01*
X89668287Y-63620525D01*
X115574606Y-63620525D01*
X115574606Y-63879474D01*
X115574607Y-63879491D01*
X115608405Y-64136217D01*
X115608406Y-64136222D01*
X115608407Y-64136228D01*
X115608408Y-64136230D01*
X115675430Y-64386364D01*
X115774529Y-64625609D01*
X115774533Y-64625619D01*
X115904012Y-64849883D01*
X116061657Y-65055331D01*
X116061663Y-65055338D01*
X116244767Y-65238442D01*
X116244774Y-65238448D01*
X116450222Y-65396093D01*
X116674486Y-65525572D01*
X116674487Y-65525572D01*
X116674490Y-65525574D01*
X116913740Y-65624675D01*
X117163878Y-65691699D01*
X117420625Y-65725500D01*
X117420632Y-65725500D01*
X117679580Y-65725500D01*
X117679587Y-65725500D01*
X117936334Y-65691699D01*
X118186472Y-65624675D01*
X118425722Y-65525574D01*
X118649990Y-65396093D01*
X118855439Y-65238447D01*
X119038553Y-65055333D01*
X119196199Y-64849884D01*
X119325680Y-64625616D01*
X119424781Y-64386366D01*
X119491805Y-64136228D01*
X119525606Y-63879481D01*
X119525606Y-63620519D01*
X119491805Y-63363772D01*
X119424781Y-63113634D01*
X119325680Y-62874384D01*
X119196199Y-62650116D01*
X119038553Y-62444667D01*
X119038548Y-62444661D01*
X118855444Y-62261557D01*
X118855437Y-62261551D01*
X118649989Y-62103906D01*
X118425725Y-61974427D01*
X118425715Y-61974423D01*
X118186470Y-61875324D01*
X118061403Y-61841813D01*
X117936334Y-61808301D01*
X117936328Y-61808300D01*
X117936323Y-61808299D01*
X117679597Y-61774501D01*
X117679592Y-61774500D01*
X117679587Y-61774500D01*
X117420625Y-61774500D01*
X117420619Y-61774500D01*
X117420614Y-61774501D01*
X117163888Y-61808299D01*
X117163881Y-61808300D01*
X117163878Y-61808301D01*
X117111014Y-61822465D01*
X116913741Y-61875324D01*
X116674496Y-61974423D01*
X116674486Y-61974427D01*
X116450222Y-62103906D01*
X116244774Y-62261551D01*
X116244767Y-62261557D01*
X116061663Y-62444661D01*
X116061657Y-62444668D01*
X115904012Y-62650116D01*
X115774533Y-62874380D01*
X115774529Y-62874390D01*
X115675430Y-63113635D01*
X115608408Y-63363769D01*
X115608405Y-63363782D01*
X115574607Y-63620508D01*
X115574606Y-63620525D01*
X89668287Y-63620525D01*
X89744808Y-49081491D01*
X92749500Y-49081491D01*
X92749500Y-49418508D01*
X92787231Y-49753381D01*
X92787233Y-49753397D01*
X92862223Y-50081953D01*
X92862227Y-50081965D01*
X92973532Y-50400054D01*
X93119752Y-50703683D01*
X93119754Y-50703686D01*
X93299054Y-50989039D01*
X93509175Y-51252523D01*
X93747477Y-51490825D01*
X94010961Y-51700946D01*
X94296314Y-51880246D01*
X94599949Y-52026469D01*
X94838848Y-52110063D01*
X94918034Y-52137772D01*
X94918046Y-52137776D01*
X95246606Y-52212767D01*
X95581492Y-52250499D01*
X95581493Y-52250500D01*
X95581496Y-52250500D01*
X95918507Y-52250500D01*
X95918507Y-52250499D01*
X96253394Y-52212767D01*
X96581954Y-52137776D01*
X96900051Y-52026469D01*
X97203686Y-51880246D01*
X97489039Y-51700946D01*
X97752523Y-51490825D01*
X97990825Y-51252523D01*
X98200946Y-50989039D01*
X98380246Y-50703686D01*
X98526469Y-50400051D01*
X98637776Y-50081954D01*
X98712767Y-49753394D01*
X98750500Y-49418504D01*
X98750500Y-49081496D01*
X98712767Y-48746606D01*
X98637776Y-48418046D01*
X98526469Y-48099949D01*
X98380246Y-47796314D01*
X98279659Y-47636231D01*
X107594606Y-47636231D01*
X107594606Y-47863768D01*
X107630199Y-48088490D01*
X107700506Y-48304876D01*
X107700507Y-48304879D01*
X107758163Y-48418034D01*
X107803803Y-48507607D01*
X107937540Y-48691680D01*
X108098426Y-48852566D01*
X108282499Y-48986303D01*
X108381931Y-49036966D01*
X108485226Y-49089598D01*
X108485229Y-49089599D01*
X108593422Y-49124752D01*
X108701617Y-49159907D01*
X108805697Y-49176391D01*
X108926338Y-49195500D01*
X108926343Y-49195500D01*
X109153874Y-49195500D01*
X109262816Y-49178244D01*
X109378595Y-49159907D01*
X109594985Y-49089598D01*
X109797713Y-48986303D01*
X109981786Y-48852566D01*
X110142672Y-48691680D01*
X110276409Y-48507607D01*
X110379704Y-48304879D01*
X110450013Y-48088489D01*
X110468350Y-47972710D01*
X110485606Y-47863768D01*
X110485606Y-47636232D01*
X110485546Y-47635854D01*
X110485546Y-47635852D01*
X110483118Y-47620525D01*
X170814606Y-47620525D01*
X170814606Y-47879474D01*
X170814607Y-47879491D01*
X170848405Y-48136217D01*
X170848406Y-48136222D01*
X170848407Y-48136228D01*
X170856933Y-48168046D01*
X170915430Y-48386364D01*
X171014529Y-48625609D01*
X171014533Y-48625619D01*
X171144012Y-48849883D01*
X171301657Y-49055331D01*
X171301663Y-49055338D01*
X171484767Y-49238442D01*
X171484774Y-49238448D01*
X171690222Y-49396093D01*
X171914486Y-49525572D01*
X171914487Y-49525572D01*
X171914490Y-49525574D01*
X172153740Y-49624675D01*
X172403878Y-49691699D01*
X172660625Y-49725500D01*
X172660632Y-49725500D01*
X172919580Y-49725500D01*
X172919587Y-49725500D01*
X173176334Y-49691699D01*
X173426472Y-49624675D01*
X173665722Y-49525574D01*
X173889990Y-49396093D01*
X174095439Y-49238447D01*
X174278553Y-49055333D01*
X174436199Y-48849884D01*
X174446818Y-48831491D01*
X184749500Y-48831491D01*
X184749500Y-49168508D01*
X184787231Y-49503381D01*
X184787233Y-49503397D01*
X184862223Y-49831953D01*
X184862227Y-49831965D01*
X184973532Y-50150054D01*
X185119752Y-50453683D01*
X185119754Y-50453686D01*
X185299054Y-50739039D01*
X185509175Y-51002523D01*
X185747477Y-51240825D01*
X186010961Y-51450946D01*
X186296314Y-51630246D01*
X186599949Y-51776469D01*
X186838848Y-51860063D01*
X186918034Y-51887772D01*
X186918046Y-51887776D01*
X187246606Y-51962767D01*
X187581492Y-52000499D01*
X187581493Y-52000500D01*
X187581496Y-52000500D01*
X187918507Y-52000500D01*
X187918507Y-52000499D01*
X188253394Y-51962767D01*
X188581954Y-51887776D01*
X188900051Y-51776469D01*
X189203686Y-51630246D01*
X189489039Y-51450946D01*
X189752523Y-51240825D01*
X189990825Y-51002523D01*
X190200946Y-50739039D01*
X190380246Y-50453686D01*
X190526469Y-50150051D01*
X190637776Y-49831954D01*
X190712767Y-49503394D01*
X190750500Y-49168504D01*
X190750500Y-48831496D01*
X190712767Y-48496606D01*
X190637776Y-48168046D01*
X190626642Y-48136228D01*
X190609938Y-48088489D01*
X190526469Y-47849949D01*
X190380246Y-47546314D01*
X190200946Y-47260961D01*
X189990825Y-46997477D01*
X189752523Y-46759175D01*
X189489039Y-46549054D01*
X189268373Y-46410400D01*
X189203683Y-46369752D01*
X188900054Y-46223532D01*
X188581965Y-46112227D01*
X188581953Y-46112223D01*
X188253397Y-46037233D01*
X188253381Y-46037231D01*
X187918508Y-45999500D01*
X187918504Y-45999500D01*
X187581496Y-45999500D01*
X187581491Y-45999500D01*
X187246618Y-46037231D01*
X187246602Y-46037233D01*
X186918046Y-46112223D01*
X186918034Y-46112227D01*
X186599945Y-46223532D01*
X186296316Y-46369752D01*
X186010962Y-46549053D01*
X185747477Y-46759174D01*
X185509174Y-46997477D01*
X185299053Y-47260962D01*
X185119752Y-47546316D01*
X184973532Y-47849945D01*
X184862227Y-48168034D01*
X184862223Y-48168046D01*
X184787233Y-48496602D01*
X184787231Y-48496618D01*
X184749500Y-48831491D01*
X174446818Y-48831491D01*
X174495827Y-48746606D01*
X174565678Y-48625619D01*
X174565680Y-48625616D01*
X174664781Y-48386366D01*
X174731805Y-48136228D01*
X174765606Y-47879481D01*
X174765606Y-47620519D01*
X174731805Y-47363772D01*
X174664781Y-47113634D01*
X174565680Y-46874384D01*
X174519480Y-46794364D01*
X174436199Y-46650116D01*
X174278554Y-46444668D01*
X174278548Y-46444661D01*
X174095444Y-46261557D01*
X174095437Y-46261551D01*
X173889989Y-46103906D01*
X173665725Y-45974427D01*
X173665715Y-45974423D01*
X173426470Y-45875324D01*
X173301403Y-45841813D01*
X173176334Y-45808301D01*
X173176328Y-45808300D01*
X173176323Y-45808299D01*
X172919597Y-45774501D01*
X172919592Y-45774500D01*
X172919587Y-45774500D01*
X172660625Y-45774500D01*
X172660619Y-45774500D01*
X172660614Y-45774501D01*
X172403888Y-45808299D01*
X172403881Y-45808300D01*
X172403878Y-45808301D01*
X172351014Y-45822465D01*
X172153741Y-45875324D01*
X171914496Y-45974423D01*
X171914486Y-45974427D01*
X171690222Y-46103906D01*
X171484774Y-46261551D01*
X171484767Y-46261557D01*
X171301663Y-46444661D01*
X171301657Y-46444668D01*
X171144012Y-46650116D01*
X171014533Y-46874380D01*
X171014529Y-46874390D01*
X170915430Y-47113635D01*
X170848408Y-47363769D01*
X170848405Y-47363782D01*
X170814607Y-47620508D01*
X170814606Y-47620525D01*
X110483118Y-47620525D01*
X110450013Y-47411509D01*
X110379705Y-47195123D01*
X110379704Y-47195120D01*
X110309856Y-47058036D01*
X110276409Y-46992393D01*
X110142672Y-46808320D01*
X109981786Y-46647434D01*
X109797713Y-46513697D01*
X109718883Y-46473531D01*
X109594985Y-46410401D01*
X109594982Y-46410400D01*
X109378596Y-46340093D01*
X109153874Y-46304500D01*
X109153869Y-46304500D01*
X108926343Y-46304500D01*
X108926338Y-46304500D01*
X108701615Y-46340093D01*
X108485229Y-46410400D01*
X108485226Y-46410401D01*
X108282498Y-46513697D01*
X108233834Y-46549054D01*
X108098426Y-46647434D01*
X108098424Y-46647436D01*
X108098423Y-46647436D01*
X107937542Y-46808317D01*
X107937542Y-46808318D01*
X107937540Y-46808320D01*
X107889545Y-46874380D01*
X107803803Y-46992392D01*
X107700507Y-47195120D01*
X107700506Y-47195123D01*
X107630199Y-47411509D01*
X107594606Y-47636231D01*
X98279659Y-47636231D01*
X98200946Y-47510961D01*
X97990825Y-47247477D01*
X97752523Y-47009175D01*
X97489039Y-46799054D01*
X97252007Y-46650116D01*
X97203683Y-46619752D01*
X96900054Y-46473532D01*
X96581965Y-46362227D01*
X96581953Y-46362223D01*
X96253397Y-46287233D01*
X96253381Y-46287231D01*
X95918508Y-46249500D01*
X95918504Y-46249500D01*
X95581496Y-46249500D01*
X95581491Y-46249500D01*
X95246618Y-46287231D01*
X95246602Y-46287233D01*
X94918046Y-46362223D01*
X94918034Y-46362227D01*
X94599945Y-46473532D01*
X94296316Y-46619752D01*
X94010962Y-46799053D01*
X93747477Y-47009174D01*
X93509174Y-47247477D01*
X93299053Y-47510962D01*
X93119752Y-47796316D01*
X92973532Y-48099945D01*
X92862227Y-48418034D01*
X92862223Y-48418046D01*
X92787233Y-48746602D01*
X92787231Y-48746618D01*
X92749500Y-49081491D01*
X89744808Y-49081491D01*
X89749783Y-48136228D01*
X89753263Y-47475125D01*
X89753382Y-47475125D01*
X89751946Y-47466864D01*
X89765842Y-47148593D01*
X89766253Y-47142573D01*
X89773647Y-47062780D01*
X89774179Y-47058036D01*
X89782821Y-46992393D01*
X89814396Y-46752557D01*
X89815432Y-46746048D01*
X89829282Y-46671956D01*
X89830079Y-46668053D01*
X89898014Y-46361615D01*
X89899804Y-46354542D01*
X89905090Y-46335964D01*
X89917922Y-46290861D01*
X89918867Y-46287710D01*
X90016203Y-45978998D01*
X90018814Y-45971560D01*
X90037139Y-45924256D01*
X90038159Y-45921713D01*
X90168121Y-45607957D01*
X90171649Y-45600209D01*
X90182402Y-45578614D01*
X90183286Y-45576878D01*
X90350822Y-45255045D01*
X90356217Y-45245700D01*
X90561325Y-44923744D01*
X90567515Y-44914905D01*
X90799896Y-44612060D01*
X90806834Y-44603791D01*
X91064726Y-44322352D01*
X91072352Y-44314726D01*
X91353791Y-44056834D01*
X91362060Y-44049896D01*
X91664905Y-43817515D01*
X91673744Y-43811325D01*
X91995700Y-43606217D01*
X92005045Y-43600822D01*
X92326878Y-43433286D01*
X92328614Y-43432402D01*
X92350209Y-43421649D01*
X92357957Y-43418121D01*
X92671713Y-43288159D01*
X92674256Y-43287139D01*
X92721560Y-43268814D01*
X92728998Y-43266203D01*
X93037710Y-43168867D01*
X93040861Y-43167922D01*
X93104543Y-43149803D01*
X93111615Y-43148014D01*
X93418053Y-43080079D01*
X93421956Y-43079282D01*
X93496048Y-43065432D01*
X93502557Y-43064396D01*
X93808049Y-43024177D01*
X93812767Y-43023648D01*
X93892585Y-43016252D01*
X93898593Y-43015842D01*
X94247297Y-43000617D01*
X94252706Y-43000500D01*
X188747439Y-43000500D01*
X188752562Y-43000605D01*
G37*
%TD.AperFunction*%
%TD*%
M02*
