%TF.GenerationSoftware,KiCad,Pcbnew,9.0.6*%
%TF.CreationDate,2026-02-06T12:48:55+01:00*%
%TF.ProjectId,Seminar,53656d69-6e61-4722-9e6b-696361645f70,rev?*%
%TF.SameCoordinates,Original*%
%TF.FileFunction,Soldermask,Top*%
%TF.FilePolarity,Negative*%
%FSLAX46Y46*%
G04 Gerber Fmt 4.6, Leading zero omitted, Abs format (unit mm)*
G04 Created by KiCad (PCBNEW 9.0.6) date 2026-02-06 12:48:55*
%MOMM*%
%LPD*%
G01*
G04 APERTURE LIST*
G04 Aperture macros list*
%AMRoundRect*
0 Rectangle with rounded corners*
0 $1 Rounding radius*
0 $2 $3 $4 $5 $6 $7 $8 $9 X,Y pos of 4 corners*
0 Add a 4 corners polygon primitive as box body*
4,1,4,$2,$3,$4,$5,$6,$7,$8,$9,$2,$3,0*
0 Add four circle primitives for the rounded corners*
1,1,$1+$1,$2,$3*
1,1,$1+$1,$4,$5*
1,1,$1+$1,$6,$7*
1,1,$1+$1,$8,$9*
0 Add four rect primitives between the rounded corners*
20,1,$1+$1,$2,$3,$4,$5,0*
20,1,$1+$1,$4,$5,$6,$7,0*
20,1,$1+$1,$6,$7,$8,$9,0*
20,1,$1+$1,$8,$9,$2,$3,0*%
G04 Aperture macros list end*
%ADD10C,2.390000*%
%ADD11RoundRect,0.250003X-3.499997X-2.999997X3.499997X-2.999997X3.499997X2.999997X-3.499997X2.999997X0*%
%ADD12C,3.295390*%
%ADD13C,3.450000*%
%ADD14O,2.200000X3.500000*%
%ADD15R,1.500000X2.500000*%
%ADD16O,1.500000X2.500000*%
%ADD17RoundRect,0.250000X0.625000X-0.400000X0.625000X0.400000X-0.625000X0.400000X-0.625000X-0.400000X0*%
%ADD18C,5.500000*%
%ADD19C,1.000000*%
%ADD20R,2.000000X0.500000*%
%ADD21R,1.700000X2.000000*%
%ADD22RoundRect,0.250000X-0.650000X0.412500X-0.650000X-0.412500X0.650000X-0.412500X0.650000X0.412500X0*%
%ADD23RoundRect,0.102000X-0.550000X0.325000X-0.550000X-0.325000X0.550000X-0.325000X0.550000X0.325000X0*%
%ADD24RoundRect,0.102000X-0.550000X0.331250X-0.550000X-0.331250X0.550000X-0.331250X0.550000X0.331250X0*%
%ADD25R,1.800000X1.800000*%
%ADD26C,1.800000*%
%ADD27C,1.440000*%
%ADD28RoundRect,0.250000X0.400000X0.625000X-0.400000X0.625000X-0.400000X-0.625000X0.400000X-0.625000X0*%
%ADD29C,2.400000*%
%ADD30RoundRect,0.250000X-0.400000X-0.625000X0.400000X-0.625000X0.400000X0.625000X-0.400000X0.625000X0*%
%ADD31RoundRect,0.250000X0.550000X-0.550000X0.550000X0.550000X-0.550000X0.550000X-0.550000X-0.550000X0*%
%ADD32C,1.600000*%
%ADD33C,3.000000*%
%ADD34R,1.800000X2.600000*%
%ADD35O,1.800000X2.600000*%
%ADD36RoundRect,0.121000X0.121000X-0.761000X0.121000X0.761000X-0.121000X0.761000X-0.121000X-0.761000X0*%
%ADD37RoundRect,0.121000X0.761000X-0.121000X0.761000X0.121000X-0.761000X0.121000X-0.761000X-0.121000X0*%
%ADD38C,2.000000*%
%ADD39RoundRect,0.250000X-0.412500X-0.650000X0.412500X-0.650000X0.412500X0.650000X-0.412500X0.650000X0*%
%ADD40RoundRect,0.100500X0.986500X0.301500X-0.986500X0.301500X-0.986500X-0.301500X0.986500X-0.301500X0*%
%ADD41RoundRect,0.102000X1.465750X2.050500X-1.465750X2.050500X-1.465750X-2.050500X1.465750X-2.050500X0*%
%ADD42RoundRect,0.250000X-0.625000X0.400000X-0.625000X-0.400000X0.625000X-0.400000X0.625000X0.400000X0*%
%ADD43RoundRect,0.250000X-0.550000X0.550000X-0.550000X-0.550000X0.550000X-0.550000X0.550000X0.550000X0*%
G04 APERTURE END LIST*
D10*
%TO.C,BT1*%
X110000000Y-47500000D03*
D11*
X178000000Y-55500000D03*
X105370000Y-55500000D03*
D12*
X173250000Y-48000000D03*
D13*
X118000000Y-63000000D03*
%TD*%
D14*
%TO.C,SW3*%
X124125000Y-85500000D03*
X115925000Y-85500000D03*
D15*
X122025000Y-85500000D03*
D16*
X120025000Y-85500000D03*
X118025000Y-85500000D03*
%TD*%
D17*
%TO.C,R4*%
X176025000Y-87050000D03*
X176025000Y-83950000D03*
%TD*%
D18*
%TO.C,H1*%
X95750000Y-49250000D03*
%TD*%
D19*
%TO.C,J1*%
X96775000Y-81350000D03*
X96775000Y-85750000D03*
D20*
X99475000Y-81950000D03*
X99475000Y-82750000D03*
X99475000Y-83550000D03*
X99475000Y-84350000D03*
X99475000Y-85150000D03*
D21*
X99375000Y-79100000D03*
X93925000Y-79100000D03*
X99375000Y-88000000D03*
X93925000Y-88000000D03*
%TD*%
D18*
%TO.C,H2*%
X187750000Y-49000000D03*
%TD*%
D22*
%TO.C,C1*%
X107775000Y-81987500D03*
X107775000Y-85112500D03*
%TD*%
D17*
%TO.C,R2*%
X154000000Y-85300000D03*
X154000000Y-82200000D03*
%TD*%
D23*
%TO.C,U3*%
X118050000Y-91500000D03*
D24*
X118000000Y-93000000D03*
D23*
X118050000Y-94500000D03*
X121500000Y-94500000D03*
X121500000Y-93000000D03*
X121500000Y-91500000D03*
%TD*%
D25*
%TO.C,D1*%
X145475000Y-73250000D03*
D26*
X148015000Y-73250000D03*
%TD*%
D18*
%TO.C,H3*%
X95480106Y-142000000D03*
%TD*%
D22*
%TO.C,C3*%
X127525000Y-88687500D03*
X127525000Y-91812500D03*
%TD*%
D27*
%TO.C,RV1*%
X121815000Y-101110000D03*
X119275000Y-103650000D03*
X116735000Y-101110000D03*
%TD*%
D28*
%TO.C,R9*%
X110800000Y-88750000D03*
X107700000Y-88750000D03*
%TD*%
D17*
%TO.C,R3*%
X154000000Y-91750000D03*
X154000000Y-88650000D03*
%TD*%
D25*
%TO.C,D3*%
X136300000Y-73000000D03*
D26*
X133760000Y-73000000D03*
%TD*%
D18*
%TO.C,H4*%
X187750000Y-142000000D03*
%TD*%
D29*
%TO.C,L1*%
X106750000Y-97750000D03*
X106750000Y-94750000D03*
%TD*%
D30*
%TO.C,R6*%
X129700000Y-79500000D03*
X132800000Y-79500000D03*
%TD*%
D31*
%TO.C,C4*%
X127250000Y-97705113D03*
D32*
X127250000Y-95705113D03*
%TD*%
D33*
%TO.C,DS1*%
X104111006Y-112392500D03*
X104111006Y-143393200D03*
X179109586Y-143393200D03*
X179110106Y-112392500D03*
D34*
X109610106Y-112392500D03*
D35*
X112150106Y-112392500D03*
X114690106Y-112392500D03*
X117230106Y-112392500D03*
X119770106Y-112392500D03*
X122310106Y-112392500D03*
X124850106Y-112392500D03*
X127390106Y-112392500D03*
X129930106Y-112392500D03*
X132470106Y-112392500D03*
X135010106Y-112392500D03*
X137550106Y-112392500D03*
X140090106Y-112392500D03*
X142630106Y-112392500D03*
X145170106Y-112392500D03*
X147710106Y-112392500D03*
%TD*%
D36*
%TO.C,U1*%
X137201000Y-93430000D03*
X137701000Y-93430000D03*
X138201000Y-93430000D03*
X138701000Y-93430000D03*
X139201000Y-93430000D03*
X139701000Y-93430000D03*
X140201000Y-93430000D03*
X140701000Y-93430000D03*
X141201000Y-93430000D03*
X141701000Y-93430000D03*
X142201000Y-93430000D03*
X142701000Y-93430000D03*
X143201000Y-93430000D03*
X143701000Y-93430000D03*
X144201000Y-93430000D03*
X144701000Y-93430000D03*
D37*
X146631000Y-91500000D03*
X146631000Y-91000000D03*
X146631000Y-90500000D03*
X146631000Y-90000000D03*
X146631000Y-89500000D03*
X146631000Y-89000000D03*
X146631000Y-88500000D03*
X146631000Y-88000000D03*
X146631000Y-87500000D03*
X146631000Y-87000000D03*
X146631000Y-86500000D03*
X146631000Y-86000000D03*
X146631000Y-85500000D03*
X146631000Y-85000000D03*
X146631000Y-84500000D03*
X146631000Y-84000000D03*
D36*
X144701000Y-82070000D03*
X144201000Y-82070000D03*
X143701000Y-82070000D03*
X143201000Y-82070000D03*
X142701000Y-82070000D03*
X142201000Y-82070000D03*
X141701000Y-82070000D03*
X141201000Y-82070000D03*
X140701000Y-82070000D03*
X140201000Y-82070000D03*
X139701000Y-82070000D03*
X139201000Y-82070000D03*
X138701000Y-82070000D03*
X138201000Y-82070000D03*
X137701000Y-82070000D03*
X137201000Y-82070000D03*
D37*
X135271000Y-84000000D03*
X135271000Y-84500000D03*
X135271000Y-85000000D03*
X135271000Y-85500000D03*
X135271000Y-86000000D03*
X135271000Y-86500000D03*
X135271000Y-87000000D03*
X135271000Y-87500000D03*
X135271000Y-88000000D03*
X135271000Y-88500000D03*
X135271000Y-89000000D03*
X135271000Y-89500000D03*
X135271000Y-90000000D03*
X135271000Y-90500000D03*
X135271000Y-91000000D03*
X135271000Y-91500000D03*
%TD*%
D25*
%TO.C,D2*%
X155225000Y-73250000D03*
D26*
X157765000Y-73250000D03*
%TD*%
D17*
%TO.C,R10*%
X113500000Y-96300000D03*
X113500000Y-93200000D03*
%TD*%
D38*
%TO.C,SW1*%
X164525000Y-83250000D03*
X171025000Y-83250000D03*
X164525000Y-87750000D03*
X171025000Y-87750000D03*
%TD*%
D28*
%TO.C,R8*%
X132800000Y-84500000D03*
X129700000Y-84500000D03*
%TD*%
D39*
%TO.C,C5*%
X105712500Y-73000000D03*
X108837500Y-73000000D03*
%TD*%
D17*
%TO.C,R5*%
X176025000Y-99000000D03*
X176025000Y-95900000D03*
%TD*%
D40*
%TO.C,U4*%
X120775000Y-78175000D03*
X120775000Y-76500000D03*
X120775000Y-74850000D03*
X120775000Y-73200000D03*
X112775000Y-73200000D03*
X112775000Y-74850000D03*
X112775000Y-76500000D03*
X112775000Y-78175000D03*
D41*
X116775000Y-75650000D03*
%TD*%
D42*
%TO.C,R1*%
X167775000Y-104200000D03*
X167775000Y-107300000D03*
%TD*%
D28*
%TO.C,R7*%
X118575000Y-68000000D03*
X115475000Y-68000000D03*
%TD*%
D25*
%TO.C,D4*%
X128525000Y-73000000D03*
D26*
X125985000Y-73000000D03*
%TD*%
D43*
%TO.C,U2*%
X156725000Y-98750000D03*
D32*
X154185000Y-98750000D03*
X151645000Y-98750000D03*
X149105000Y-98750000D03*
X146565000Y-98750000D03*
X144025000Y-98750000D03*
X141485000Y-98750000D03*
X138945000Y-98750000D03*
X138945000Y-106370000D03*
X141485000Y-106370000D03*
X144025000Y-106370000D03*
X146565000Y-106370000D03*
X149105000Y-106370000D03*
X151645000Y-106370000D03*
X154185000Y-106370000D03*
X156725000Y-106370000D03*
%TD*%
D38*
%TO.C,SW2*%
X164525000Y-95000000D03*
X171025000Y-95000000D03*
X164525000Y-99500000D03*
X171025000Y-99500000D03*
%TD*%
M02*
